<svg width="23" height="23" viewBox="0 0 23 23" fill="none" xmlns="http://www.w3.org/2000/svg">
<path d="M20.7162 9.71069C20.7162 7.87879 20.7154 6.55357 20.6104 5.52144C20.5065 4.50012 20.3059 3.8378 19.9524 3.30877C19.6217 2.81395 19.1969 2.38909 18.7021 2.05848C18.1731 1.70501 17.5108 1.50443 16.4895 1.40054C15.4573 1.29554 14.1321 1.29478 12.3002 1.29478H9.71069C7.87878 1.29478 6.55357 1.29554 5.52144 1.40054C4.50012 1.50444 3.8378 1.70499 3.30877 2.05848C2.81395 2.38911 2.38911 2.81395 2.05848 3.30877C1.70499 3.8378 1.50444 4.50012 1.40054 5.52144C1.29554 6.55357 1.29478 7.87878 1.29478 9.71069C1.29478 11.5426 1.29554 12.8678 1.40054 13.8999C1.50443 14.9212 1.70497 15.5836 2.05844 16.1126C2.38908 16.6074 2.81398 17.0322 3.30884 17.363C3.77107 17.6718 4.33538 17.864 5.15144 17.9768C5.97794 18.091 7.01882 18.1187 8.41875 18.1248C8.68327 18.126 8.91012 18.2857 9.00955 18.5137L10.4265 21.3473C10.665 21.8245 11.3459 21.8245 11.5844 21.3474L11.5845 21.3473L13.0011 18.5143C13.1003 18.286 13.3274 18.126 13.5922 18.1248C14.9921 18.1187 16.033 18.091 16.8595 17.9768C17.6756 17.864 18.2399 17.6718 18.7022 17.3629C19.1969 17.0322 19.6217 16.6074 19.9524 16.1126C20.3059 15.5836 20.5065 14.9213 20.6104 13.8999C20.7154 12.8678 20.7162 11.5426 20.7162 9.71069ZM22.0109 9.71069C22.0109 11.5156 22.0117 12.9181 21.8985 14.031C21.7842 15.1547 21.5483 16.0547 21.029 16.832L21.0289 16.8321C20.6038 17.4681 20.0576 18.0143 19.4216 18.4394L19.4215 18.4395C18.7426 18.8931 17.9703 19.1303 17.0367 19.2594C16.2034 19.3745 15.2081 19.4073 13.9972 19.4171L12.7425 21.9264C12.0268 23.3579 9.98408 23.3579 9.2684 21.9264L8.01367 19.4171C6.80276 19.4073 5.8075 19.3745 4.97419 19.2594C4.04058 19.1303 3.26834 18.8931 2.58945 18.4395L2.58938 18.4395C1.95324 18.0143 1.40704 17.4681 0.981956 16.832C0.462624 16.0548 0.226742 15.1547 0.112432 14.031C-0.000777512 12.9181 1.42825e-07 11.5156 1.42825e-07 9.71069C1.39228e-07 7.90574 -0.000776456 6.50329 0.112432 5.39042C0.226742 4.26673 0.462622 3.36669 0.981956 2.58945C1.40705 1.95327 1.95327 1.40705 2.58945 0.981956C3.36669 0.462622 4.26673 0.226742 5.39042 0.112432C6.50329 -0.000776456 7.90574 1.38797e-07 9.71069 1.42394e-07H12.3002C14.1052 1.42394e-07 15.5076 -0.000775752 16.6205 0.112432C17.7442 0.226741 18.6442 0.462623 19.4215 0.981956C20.0576 1.40704 20.6038 1.95325 21.0289 2.58938L21.029 2.58945C21.5483 3.36669 21.7842 4.26673 21.8985 5.39042C22.0117 6.50329 22.0109 7.90573 22.0109 9.71069Z" fill="#244393"/>
<path d="M14.8897 6.4738C15.2473 6.4738 15.5371 6.76365 15.5371 7.12119C15.5371 7.47872 15.2473 7.76858 14.8897 7.76858H7.12118C6.76364 7.76858 6.47379 7.47872 6.47379 7.12119C6.47379 6.76365 6.76364 6.4738 7.12118 6.4738H14.8897Z" fill="#244393"/>
<path d="M11.0055 11.6528C11.363 11.6528 11.6528 11.9427 11.6528 12.3002C11.6528 12.6578 11.363 12.9476 11.0055 12.9476H7.12118C6.76364 12.9476 6.47379 12.6578 6.47379 12.3002C6.47379 11.9427 6.76364 11.6528 7.12118 11.6528H11.0055Z" fill="#244393"/>
</svg>
