<svg width="21" height="28" viewBox="0 0 21 28" fill="none" xmlns="http://www.w3.org/2000/svg">
<path d="M3.30563 8.79244C3.30563 8.45133 3.58216 8.1748 3.92327 8.1748H12.6961C13.0372 8.1748 13.3137 8.45133 13.3137 8.79244C13.3137 9.13355 13.0372 9.41007 12.6961 9.41007H3.92327C3.58216 9.41007 3.30563 9.13355 3.30563 8.79244ZM3.92327 11.4832C3.58216 11.4832 3.30563 11.7597 3.30563 12.1008C3.30563 12.442 3.58216 12.7184 3.92327 12.7184H12.6961C13.0372 12.7184 13.3137 12.442 13.3137 12.1008C13.3137 11.7597 13.0372 11.4832 12.6961 11.4832H3.92327ZM3.30563 15.409C3.30563 15.068 3.58216 14.7914 3.92327 14.7914H12.6961C13.0372 14.7914 13.3137 15.068 13.3137 15.409C13.3137 15.7502 13.0372 16.0267 12.6961 16.0267H3.92327C3.58216 16.0267 3.30563 15.7502 3.30563 15.409ZM3.92327 18.0881C3.58216 18.0881 3.30563 18.3647 3.30563 18.7058C3.30563 19.047 3.58216 19.3234 3.92327 19.3234H12.6961C13.0372 19.3234 13.3137 19.0469 13.3137 18.7058C13.3137 18.3647 13.0372 18.0881 12.6961 18.0881H3.92327Z" fill="#244393"/>
<path d="M5.10712 0.0140251H5.56034C5.60049 0.00583165 5.64207 0.00151781 5.68465 0.00151781C5.72724 0.00151781 5.76882 0.00583165 5.80898 0.0140251H14.6176C15.7141 0.0140251 16.6077 0.909195 16.6077 2.00535V20.8018C16.6077 21.8978 15.7141 22.7931 14.6176 22.7931H1.9902C0.893693 22.7931 0 21.8978 0 20.8018V4.92439C0 4.89769 0.00167914 4.87137 0.00497967 4.84558C0.0184713 4.52496 0.145195 4.20226 0.409904 3.93732L3.9495 0.39489C4.28248 0.0695841 4.70894 -0.0425473 5.10712 0.0140251ZM1.28376 4.81046L4.81456 1.27674C4.84186 1.25071 4.8669 1.2409 4.88917 1.23719C4.91508 1.23288 4.94615 1.23577 4.97683 1.24848C5.00738 1.26114 5.0299 1.28033 5.04377 1.30002C5.05437 1.31507 5.06491 1.33702 5.06702 1.37275V3.40087C5.06702 3.40828 5.06714 3.41566 5.0674 3.42302V4.5342C5.0674 4.82317 4.82874 5.06127 4.54125 5.06127H1.3844C1.34595 5.06127 1.32242 5.05085 1.30542 5.03878C1.28556 5.0247 1.26596 5.00157 1.25313 4.97062C1.24031 4.93967 1.23782 4.90939 1.24202 4.88504C1.24561 4.86414 1.25519 4.83906 1.28374 4.81049L1.28376 4.81046ZM6.30232 1.24932V1.35138C6.30258 1.36293 6.3027 1.37454 6.3027 1.38618V4.53417C6.3027 5.50441 5.51196 6.29654 4.54128 6.29654L1.23533 6.29663V20.8018C1.23533 21.2166 1.57693 21.5578 1.99022 21.5578H14.6176C15.0309 21.5578 15.3725 21.2166 15.3725 20.8018V2.00535C15.3725 1.59047 15.0309 1.24932 14.6176 1.24932H6.30232Z" fill="#244393"/>
<path d="M18.1863 2.48562C17.8451 2.48562 17.5687 2.76215 17.5687 3.10326C17.5687 3.44437 17.8452 3.72089 18.1863 3.72089H19.0098C19.4231 3.72089 19.7647 4.06204 19.7647 4.47692V25.185C19.7647 25.6 19.4232 25.941 19.0098 25.941H6.38244C5.96915 25.941 5.62754 25.5998 5.62754 25.185V24.3722C5.62754 24.0311 5.35102 23.7546 5.00991 23.7546C4.66879 23.7546 4.39227 24.0311 4.39227 24.3722V25.185C4.39227 26.2812 5.28597 27.1763 6.38247 27.1763H19.0098C20.1064 27.1763 21 26.2812 21 25.185V4.47692C21 3.38077 20.1064 2.4856 19.0098 2.4856H18.1864L18.1863 2.48562Z" fill="#244393"/>
</svg>
