<svg width="28" height="27" viewBox="0 0 28 27" fill="none" xmlns="http://www.w3.org/2000/svg">
<path d="M20.3973 4.222C20.6129 5.32289 21.5776 6.12871 22.7012 6.12871C23.8248 6.12871 24.7895 5.32289 25.0052 4.222L25.2889 2.78062C25.3797 2.07695 25.1754 1.37328 24.7101 0.83986C24.2448 0.306435 23.5751 0 22.8715 0H22.5423C21.8387 0 21.1691 0.306435 20.7037 0.83986C20.2384 1.37328 20.0228 2.07695 20.1249 2.81466L20.3973 4.222ZM21.5549 1.58892C21.8046 1.30519 22.1678 1.13495 22.5537 1.13495H22.8828C23.2687 1.13495 23.6205 1.29384 23.8816 1.58892C24.1313 1.87266 24.2448 2.25854 24.1994 2.59903L23.927 4.00636C23.8135 4.58518 23.3141 4.99376 22.7239 4.99376C22.1338 4.99376 21.6344 4.57383 21.5209 4.00636L21.2485 2.63307C21.1918 2.25854 21.3052 1.87266 21.5549 1.58892Z" fill="#244393"/>
<path d="M27.9901 11.7012L27.3432 8.63689C27.2637 8.26236 26.9913 7.95593 26.6395 7.83108L24.4036 7.03662L22.7239 8.71634L21.0442 7.03662L18.8084 7.83108C18.4565 7.95593 18.1841 8.26236 18.1047 8.63689L17.4578 11.7012C17.3897 12.0077 17.5826 12.3028 17.8891 12.3709C18.1955 12.439 18.4906 12.246 18.5587 11.9396L19.1942 8.89793L20.7605 8.34181L22.7353 10.3166L24.7101 8.34181L26.2536 8.87523L26.9005 11.9396C26.9573 12.2006 27.1956 12.3822 27.4567 12.3822C27.4907 12.3822 27.5361 12.3822 27.5701 12.3709C27.8539 12.3141 28.0468 12.0077 27.9901 11.7012Z" fill="#244393"/>
<path d="M2.97588 4.222C3.19152 5.32289 4.15622 6.12871 5.27982 6.12871C6.40341 6.12871 7.36812 5.32289 7.58376 4.222L7.86749 2.78062C7.95829 2.07695 7.754 1.37328 7.28867 0.83986C6.82334 0.306435 6.15373 0 5.45006 0H5.12093C4.41726 0 3.74764 0.306435 3.28231 0.83986C2.81699 1.37328 2.60135 2.07695 2.70349 2.81466L2.97588 4.222ZM4.13352 1.58892C4.38321 1.30519 4.74639 1.13495 5.13227 1.13495H5.46141C5.84729 1.13495 6.19912 1.29384 6.46016 1.58892C6.70985 1.87266 6.82334 2.25854 6.77795 2.59903L6.50556 4.00636C6.39206 4.58518 5.89269 4.99376 5.30252 4.99376C4.71234 4.99376 4.21297 4.57383 4.09947 4.00636L3.82709 2.63307C3.75899 2.25854 3.88383 1.87266 4.13352 1.58892Z" fill="#244393"/>
<path d="M7.26597 8.34181L8.8095 8.87523L9.45642 11.9396C9.51316 12.2006 9.7515 12.3822 10.0125 12.3822C10.0466 12.3822 10.092 12.3822 10.126 12.3709C10.4325 12.3028 10.6254 12.0077 10.5573 11.7012L9.91039 8.63689C9.83095 8.26236 9.55856 7.95593 9.20673 7.83108L6.97089 7.03662L5.27982 8.72769L3.6001 7.03662L1.36426 7.83108C1.01242 7.95593 0.740035 8.26236 0.660589 8.63689L0.0136703 11.7012C-0.0544265 12.0077 0.138514 12.3028 0.44495 12.3709C0.751385 12.439 1.04647 12.246 1.11457 11.9396L1.73879 8.89793L3.30501 8.34181L5.27982 10.3166L7.26597 8.34181Z" fill="#244393"/>
<path d="M13.9962 20.2247C15.1198 20.2247 16.0845 19.4188 16.3001 18.3179L16.5839 16.8766C16.6747 16.1729 16.4704 15.4692 16.0051 14.9358C15.5397 14.4024 14.8701 14.0959 14.1664 14.0959H13.8373C13.1336 14.0959 12.464 14.4024 11.9987 14.9358C11.5334 15.4692 11.3177 16.1729 11.4199 16.9106L11.6923 18.3179C11.9079 19.4188 12.8726 20.2247 13.9962 20.2247ZM12.8386 15.6849C13.0882 15.4011 13.4514 15.2309 13.8373 15.2309H14.1664C14.5523 15.2309 14.9042 15.3898 15.1652 15.6849C15.4149 15.9686 15.5284 16.3545 15.483 16.695L15.2106 18.1023C15.0971 18.6811 14.5977 19.0897 14.0075 19.0897C13.4174 19.0897 12.918 18.6698 12.8045 18.1023L12.5321 16.729C12.4754 16.3545 12.5889 15.9686 12.8386 15.6849Z" fill="#244393"/>
<path d="M18.6268 22.7443C18.5473 22.3698 18.2749 22.0633 17.9231 21.9385L15.6873 21.144L13.9962 22.8238L12.3165 21.144L10.0806 21.9385C9.7288 22.0633 9.45642 22.3698 9.37697 22.7443L8.73005 25.8087C8.66195 26.1151 8.8549 26.4102 9.16133 26.4783C9.46777 26.5464 9.76285 26.3534 9.83095 26.047L10.4552 23.0054L12.0214 22.4492L13.9962 24.424L15.971 22.4492L17.5145 22.9827L18.1614 26.047C18.2182 26.308 18.4565 26.4896 18.7176 26.4896C18.7516 26.4896 18.797 26.4896 18.8311 26.4783C19.1375 26.4102 19.3304 26.1151 19.2623 25.8087L18.6268 22.7443Z" fill="#244393"/>
<path d="M23.6886 13.8691C23.3708 13.8351 23.0985 14.062 23.0758 14.3798C22.8488 16.7292 21.7252 18.8629 19.932 20.395C19.6936 20.5993 19.6709 20.9512 19.8639 21.1895C19.9774 21.3257 20.1363 21.3824 20.2951 21.3824C20.42 21.3824 20.5562 21.337 20.6583 21.2462C22.6785 19.5211 23.9383 17.1264 24.1994 14.482C24.2221 14.1755 23.9951 13.9032 23.6886 13.8691Z" fill="#244393"/>
<path d="M4.92798 14.3797C4.89394 14.0733 4.62155 13.8463 4.31511 13.869C4.00868 13.903 3.78169 14.1754 3.80439 14.4819C4.06543 17.1263 5.32522 19.5324 7.34542 21.2461C7.44756 21.3369 7.58376 21.3823 7.7086 21.3823C7.86749 21.3823 8.02639 21.3142 8.13988 21.178C8.34417 20.9397 8.31012 20.5879 8.07178 20.3836C6.27857 18.8628 5.15497 16.7291 4.92798 14.3797Z" fill="#244393"/>
<path d="M11.0113 4.8575C12.9066 4.18788 15.0857 4.18788 16.9925 4.8575C17.0492 4.8802 17.1173 4.89155 17.1854 4.89155C17.4124 4.89155 17.6394 4.744 17.7188 4.51702C17.821 4.22193 17.6734 3.90414 17.3783 3.802C15.2333 3.04159 12.7932 3.04159 10.6481 3.802C10.353 3.90414 10.2055 4.23328 10.3076 4.51702C10.3871 4.8121 10.7162 4.95964 11.0113 4.8575Z" fill="#244393"/>
</svg>
