<svg width="22" height="28" viewBox="0 0 22 28" fill="none" xmlns="http://www.w3.org/2000/svg">
<path d="M10.5194 21.0936C7.3274 21.0936 4.73869 18.5049 4.73869 15.3129C4.73869 12.5486 6.64732 10.2232 9.29087 9.66377V8.54492C6.03305 9.12628 3.64178 11.9453 3.64178 15.3129C3.64178 19.1082 6.7241 22.1905 10.5304 22.1905C13.8979 22.1905 16.7169 19.7992 17.2983 16.5414H16.1795C15.5981 19.1849 13.2726 21.0936 10.5194 21.0936Z" fill="#244393"/>
<path d="M11.2214 8.46816L10.6181 8.40234V15.2141H17.4299L17.3641 14.6108C17.035 11.3859 14.4573 8.79723 11.2214 8.46816ZM11.715 14.1172V9.66379C13.9417 10.1355 15.7078 11.8905 16.1794 14.1282H11.715V14.1172Z" fill="#244393"/>
<path d="M19.3605 3.11522H16.3001L15.9381 1.064C15.8065 0.449733 15.247 0 14.6218 0H6.44983C5.82459 0 5.26517 0.449733 5.13354 1.07497L4.77156 3.11522H1.70021C0.767837 3.11522 0 3.87209 0 4.81543V25.7883C0 26.7317 0.767837 27.4885 1.70021 27.4885H19.3605C20.3038 27.4885 21.0607 26.7207 21.0607 25.7883V4.81543C21.0607 3.87209 20.2928 3.11522 19.3605 3.11522ZM6.44983 1.09691H14.6218C14.7315 1.09691 14.8302 1.17369 14.8522 1.27241L15.1812 3.11522H5.87943L6.20851 1.29435C6.23044 1.17369 6.32917 1.09691 6.44983 1.09691ZM19.9638 25.7883C19.9638 26.1174 19.6895 26.3916 19.3605 26.3916H1.70021C1.37114 26.3916 1.09691 26.1174 1.09691 25.7883V4.81543C1.09691 4.48636 1.37114 4.21213 1.70021 4.21213H4.88125C4.90318 4.21213 4.92512 4.21213 4.94706 4.21213H16.1136C16.1355 4.21213 16.1575 4.21213 16.1794 4.21213H19.3714C19.7005 4.21213 19.9747 4.48636 19.9747 4.81543V25.7883H19.9638Z" fill="#244393"/>
</svg>
