<svg width="68" height="45" viewBox="0 0 68 45" fill="none" xmlns="http://www.w3.org/2000/svg">
<path d="M8.11547 2.05945C4.77313 2.05945 2.05958 4.77315 2.05958 8.11549V20.5081C2.05958 23.8481 4.77313 26.5615 8.11547 26.5615H12.4026C12.9764 26.5615 13.4349 27.0226 13.4349 27.5964V31.6102L22.7781 26.6868C22.9284 26.6067 23.0887 26.5615 23.2567 26.5615H33.9879C37.3205 26.5615 40.0414 23.8481 40.0414 20.5081V8.11549C40.0414 4.77315 37.3205 2.05945 33.9879 2.05945H8.11547ZM12.4026 34.3489C12.2171 34.3489 12.0317 34.2962 11.8714 34.1986C11.5633 34.0131 11.3752 33.6774 11.3752 33.3241V28.6211H8.11547C3.64308 28.6211 0 24.9806 0 20.5081V8.11549C0 3.63312 3.64308 -3.8147e-06 8.11547 -3.8147e-06H33.9879C38.4605 -3.8147e-06 42.1012 3.63312 42.1012 8.11549V20.5081C42.1012 24.9806 38.4605 28.6211 33.9879 28.6211H23.5122L12.8886 34.2336C12.7283 34.3138 12.5704 34.3489 12.4026 34.3489Z" fill="white"/>
<path d="M55.5986 44.3812C55.4307 44.3812 55.2629 44.3386 55.1125 44.2584L44.489 38.6534H34.023C29.5506 38.6534 25.9 35.0129 25.9 30.5404V27.5964C25.9 27.0302 26.3686 26.5615 26.9323 26.5615C27.4987 26.5615 27.9672 27.0302 27.9672 27.5964V30.5404C27.9672 33.8803 30.6806 36.5864 34.023 36.5864H44.7444C44.9122 36.5864 45.0801 36.6289 45.2305 36.7092L54.5638 41.6425V37.6211C54.5638 37.0548 55.0249 36.5864 55.5986 36.5864H59.8932C63.2254 36.5864 65.9388 33.8803 65.9388 30.5404V18.1378C65.9388 14.8055 63.2254 12.0919 59.8932 12.0919H41.0664C40.5026 12.0919 40.0414 11.6235 40.0414 11.0596C40.0414 10.4932 40.5026 10.0324 41.0664 10.0324H59.8932C64.368 10.0324 67.9986 13.6653 67.9986 18.1378V30.5404C67.9986 35.0129 64.368 38.6534 59.8932 38.6534H56.6232V43.3489C56.6232 43.7097 56.438 44.0455 56.1296 44.2308C55.9617 44.3286 55.7838 44.3812 55.5986 44.3812Z" fill="white"/>
<path d="M34.0056 9.71414H8.75943C8.19324 9.71414 7.72717 9.25554 7.72717 8.68947C7.72717 8.1155 8.19324 7.65469 8.75943 7.65469H34.0056C34.5691 7.65469 35.0303 8.1155 35.0303 8.68947C35.0303 9.25554 34.5691 9.71414 34.0056 9.71414Z" fill="white"/>
<path d="M29.1071 16.5217H13.6579C13.0816 16.5217 12.623 16.0607 12.623 15.497C12.623 14.9207 13.0816 14.4621 13.6579 14.4621H29.1071C29.6734 14.4621 30.142 14.9207 30.142 15.497C30.142 16.0607 29.6734 16.5217 29.1071 16.5217Z" fill="white"/>
</svg>
