<svg width="40" height="48" viewBox="0 0 40 48" fill="none" xmlns="http://www.w3.org/2000/svg">
<path d="M1.93907 38.211H28.9981V1.81767H1.93907V38.211ZM29.962 40.0265H0.972881C0.436826 40.0265 0 39.6192 0 39.123V0.905735C0 0.409431 0.436826 3.8147e-06 0.972881 3.8147e-06H29.962C30.5004 3.8147e-06 30.9283 0.409431 30.9283 0.905735V39.123C30.9283 39.6192 30.5004 40.0265 29.962 40.0265Z" fill="white"/>
<path d="M34.1336 43.9368H5.13781C4.60835 43.9368 4.17157 43.5294 4.17157 43.0248C4.17157 42.5285 4.60835 42.1212 5.13781 42.1212H33.1607V4.81592C33.1607 4.31147 33.5976 3.91031 34.1336 3.91031C34.6631 3.91031 35.0977 4.31147 35.0977 4.81592V43.0248C35.0977 43.5294 34.6631 43.9368 34.1336 43.9368Z" fill="white"/>
<path d="M38.4685 48H9.47265C8.94319 48 8.50642 47.5926 8.50642 47.0881C8.50642 46.5918 8.94319 46.1845 9.47265 46.1845H37.4956V8.87921C37.4956 8.37463 37.9324 7.97348 38.4685 7.97348C38.9979 7.97348 39.4325 8.37463 39.4325 8.87921V47.0881C39.4325 47.5926 38.9979 48 38.4685 48Z" fill="white"/>
<path d="M25.5346 6.68326H5.27679C4.74074 6.68326 4.30397 6.27383 4.30397 5.77132C4.30397 5.27501 4.74074 4.86558 5.27679 4.86558H25.5346C26.064 4.86558 26.4987 5.27501 26.4987 5.77132C26.4987 6.27383 26.064 6.68326 25.5346 6.68326Z" fill="white"/>
<path d="M25.5346 11.6501H5.27679C4.74074 11.6501 4.30397 11.2489 4.30397 10.7464C4.30397 10.2418 4.74074 9.84078 5.27679 9.84078H25.5346C26.064 9.84078 26.4987 10.2418 26.4987 10.7464C26.4987 11.2489 26.064 11.6501 25.5346 11.6501Z" fill="white"/>
<path d="M25.5346 16.6252H5.27679C4.74074 16.6252 4.30397 16.2178 4.30397 15.7133C4.30397 15.217 4.74074 14.8097 5.27679 14.8097H25.5346C26.064 14.8097 26.4987 15.217 26.4987 15.7133C26.4987 16.2178 26.064 16.6252 25.5346 16.6252Z" fill="white"/>
<path d="M25.5346 21.5941H5.27679C4.74074 21.5941 4.30397 21.193 4.30397 20.6884C4.30397 20.186 4.74074 19.7847 5.27679 19.7847H25.5346C26.064 19.7847 26.4987 20.186 26.4987 20.6884C26.4987 21.193 26.064 21.5941 25.5346 21.5941Z" fill="white"/>
</svg>
