<svg width="61" height="61" viewBox="0 0 61 61" fill="none" xmlns="http://www.w3.org/2000/svg">
<path d="M30.3496 18.4417C28.4042 18.4417 26.816 20.0226 26.816 21.98V25.9212C26.816 27.8666 28.4042 29.4498 30.3496 29.4498C32.2975 29.4498 33.8829 27.8666 33.8829 25.9212V21.98C33.8829 20.0226 32.2975 18.4417 30.3496 18.4417ZM30.3496 31.2105C27.4351 31.2105 25.0603 28.831 25.0603 25.9212V21.98C25.0603 19.0608 27.4351 16.6907 30.3496 16.6907C33.2666 16.6907 35.6389 19.0608 35.6389 21.98V25.9212C35.6389 28.831 33.2666 31.2105 30.3496 31.2105Z" fill="white"/>
<path d="M35.7876 43.6243H24.6836C22.5487 43.6243 20.8095 41.8877 20.8095 39.7575V35.6772C20.8095 33.5709 23.7361 32.1509 24.3238 31.8894C24.3622 31.8679 24.403 31.8534 24.4462 31.8366L28.8 30.6206C29.2654 30.4837 29.7523 30.7619 29.8842 31.2273C30.0138 31.6927 29.7426 32.1774 29.2749 32.3115L24.9859 33.5133C23.9544 33.9955 22.5655 34.9936 22.5655 35.6772V39.7575C22.5655 40.928 23.5131 41.8732 24.6836 41.8732H35.7876C36.9536 41.8732 37.9034 40.928 37.9034 39.7575V35.6772C37.9034 34.9838 36.5169 33.9837 35.4878 33.5133L31.2947 32.3355C30.8293 32.1989 30.5583 31.7168 30.6879 31.2539C30.8197 30.7884 31.3019 30.5172 31.7673 30.6421L36.025 31.8366C36.0658 31.8534 36.1091 31.8679 36.1474 31.8894C36.7326 32.1509 39.6592 33.5709 39.6592 35.6772V39.7575C39.6592 41.8877 37.9224 43.6243 35.7876 43.6243Z" fill="white"/>
<path d="M29.0375 32.3355C28.5505 32.3355 28.162 31.9447 28.162 31.4673V30.3278C28.162 29.8504 28.5505 29.4498 29.0375 29.4498C29.5244 29.4498 29.913 29.8504 29.913 30.3278V31.4673C29.913 31.9447 29.5244 32.3355 29.0375 32.3355Z" fill="white"/>
<path d="M31.5347 32.3693C31.0477 32.3693 30.6541 31.9709 30.6541 31.4888V30.3278C30.6541 29.8504 31.0477 29.4498 31.5347 29.4498C32.0168 29.4498 32.4102 29.8504 32.4102 30.3278V31.4888C32.4102 31.9709 32.0168 32.3693 31.5347 32.3693Z" fill="white"/>
<path d="M30.2345 36.9413C28.2913 36.9413 26.7705 34.9936 26.7705 32.5227C26.7705 32.242 26.7898 31.971 26.8258 31.7168C26.8954 31.2346 27.3463 30.9083 27.8189 30.9731C28.3011 31.0402 28.6321 31.4888 28.5626 31.9662C28.5385 32.1414 28.5218 32.3283 28.5218 32.5227C28.5218 33.962 29.3085 35.1878 30.2345 35.1878C31.1628 35.1878 31.9472 33.962 31.9472 32.5227C31.9472 32.3283 31.9327 32.1414 31.9065 31.9662C31.8417 31.4815 32.1752 31.0402 32.6549 30.9731C33.1275 30.9083 33.5759 31.2346 33.6455 31.7168C33.6815 31.971 33.7008 32.242 33.7008 32.5227C33.7008 34.9936 32.1774 36.9413 30.2345 36.9413Z" fill="white"/>
<path d="M31.94 22.8916C31.4243 22.8916 30.9469 22.7932 30.5033 22.5868C29.9298 22.3158 29.5795 21.9535 29.299 21.6585C29.0302 21.3778 28.9151 21.2674 28.74 21.2244C28.2578 21.1163 27.4639 21.5984 26.5859 22.5438C26.2548 22.9011 25.6983 22.9251 25.3458 22.5966C24.9882 22.2655 24.9692 21.7088 25.2952 21.3515C26.694 19.8474 27.9508 19.2454 29.1311 19.5164C29.8387 19.6748 30.244 20.0969 30.5678 20.4447C30.7933 20.6822 30.9684 20.8671 31.2346 20.9869C31.94 21.318 32.9812 21.09 34.3316 20.3081C34.7537 20.0754 35.2887 20.217 35.5264 20.6391C35.7686 21.0637 35.6222 21.5984 35.2023 21.8337C33.9693 22.5365 32.8923 22.8916 31.94 22.8916Z" fill="white"/>
<path d="M30.3496 14.5964C21.678 14.5964 14.6207 21.6585 14.6207 30.3278C14.6207 39.0019 21.678 46.0639 30.3496 46.0639C39.0236 46.0639 46.0785 39.0019 46.0785 30.3278C46.0785 21.6585 39.0236 14.5964 30.3496 14.5964ZM30.3496 47.8126C20.7112 47.8126 12.8671 39.9685 12.8671 30.3278C12.8671 20.6919 20.7112 12.8479 30.3496 12.8479C39.9905 12.8479 47.8345 20.6919 47.8345 30.3278C47.8345 39.9685 39.9905 47.8126 30.3496 47.8126Z" fill="white"/>
<path d="M42.082 19.4829C41.8613 19.4829 41.6359 19.3966 41.4658 19.2357C41.1275 18.8881 41.1129 18.3459 41.456 18.0101L44.4186 15.0403C44.7641 14.6997 45.3181 14.6997 45.6586 15.0403C46.0017 15.3881 46.0017 15.9423 45.6586 16.2829L42.7226 19.2189C42.5474 19.3966 42.3125 19.4829 42.082 19.4829Z" fill="white"/>
<path d="M47.0166 11.7634C46.5054 11.7634 46.021 11.9651 45.6587 12.3224C44.9103 13.0756 44.9103 14.2944 45.6587 15.0475C46.4096 15.7912 47.6256 15.7912 48.3765 15.0475C49.1249 14.2944 49.1249 13.0756 48.3765 12.3224C48.0119 11.9651 47.5298 11.7634 47.0166 11.7634ZM47.0166 17.3575C46.0738 17.3575 45.1357 17 44.4186 16.2829C42.9841 14.8509 42.9841 12.5168 44.4186 11.0871C45.1142 10.3938 46.0355 10.0124 47.0166 10.0124C47.9999 10.0124 48.921 10.3938 49.6143 11.0871C51.0488 12.5168 51.0488 14.8509 49.6143 16.2829C48.8972 17 47.9592 17.3575 47.0166 17.3575Z" fill="white"/>
<path d="M15.6642 45.9176C15.4339 45.9176 15.2132 45.8312 15.0428 45.6633C14.6974 45.3155 14.6974 44.7589 15.0428 44.4207L17.9982 41.4654C18.3412 41.1175 18.9001 41.1175 19.2384 41.4582C19.5838 41.806 19.5862 42.3553 19.2432 42.7008L16.2807 45.6633C16.108 45.8312 15.8849 45.9176 15.6642 45.9176Z" fill="white"/>
<path d="M13.6828 45.0972C13.1935 45.0972 12.7017 45.2843 12.3251 45.6561C11.5767 46.4069 11.5767 47.628 12.3251 48.3715C13.052 49.1007 14.3137 49.1007 15.0428 48.3715C15.7913 47.628 15.7913 46.4069 15.0428 45.6561C14.6687 45.2843 14.1745 45.0972 13.6828 45.0972ZM13.6828 50.6912C12.7017 50.6912 11.7782 50.3121 11.0849 49.6165C9.65037 48.1869 9.65037 45.848 11.0849 44.4207C12.517 42.9886 14.851 42.9886 16.2807 44.4207C17.7152 45.848 17.7152 48.1869 16.2807 49.6165C15.5898 50.3121 14.6639 50.6912 13.6828 50.6912Z" fill="white"/>
<path d="M18.6051 19.4996C18.3868 19.4996 18.1734 19.4133 18.003 19.2454L15.0428 16.2828C14.6974 15.9423 14.6974 15.3881 15.0428 15.0403C15.3859 14.6997 15.9376 14.6997 16.2807 15.0403L19.2168 17.9813C19.5598 18.3241 19.5742 18.8881 19.2312 19.2357C19.0585 19.4038 18.8306 19.4996 18.6051 19.4996Z" fill="white"/>
<path d="M13.6828 11.7634C13.1719 11.7634 12.6873 11.9651 12.3251 12.3224C11.5767 13.0756 11.5767 14.2944 12.3251 15.0475C13.0735 15.7912 14.2921 15.7912 15.0428 15.0475C15.7913 14.2944 15.7913 13.0756 15.0428 12.3224C14.6783 11.9651 14.1961 11.7634 13.6828 11.7634ZM13.6828 17.3575C12.7401 17.3575 11.8021 17 11.0849 16.2829C9.65037 14.8509 9.65037 12.5168 11.0849 11.0871C11.7782 10.3938 12.7017 10.0124 13.6828 10.0124C14.6639 10.0124 15.5898 10.3938 16.2807 11.0871C17.7152 12.5168 17.7152 14.8509 16.2807 16.2829C15.5682 17 14.6256 17.3575 13.6828 17.3575Z" fill="white"/>
<path d="M45.0399 45.9176C44.8144 45.9176 44.5912 45.8312 44.4186 45.6633L41.4608 42.7008L42.6963 41.4582L45.6586 44.4207C46.0017 44.7589 46.0017 45.3155 45.6586 45.6633C45.486 45.8312 45.2605 45.9176 45.0399 45.9176Z" fill="white"/>
<path d="M47.0166 45.0972C46.5247 45.0972 46.033 45.2843 45.6587 45.6561C44.9103 46.4069 44.9103 47.628 45.6587 48.3715C46.3855 49.1007 47.6496 49.1007 48.3765 48.3715C49.1249 47.628 49.1249 46.4069 48.3765 45.6561C48.0022 45.2843 47.5105 45.0972 47.0166 45.0972ZM47.0166 50.6912C46.0355 50.6912 45.1142 50.3121 44.4186 49.6165C42.9841 48.1869 42.9841 45.848 44.4186 44.4207C45.8531 42.9886 48.1846 42.9886 49.6143 44.4207C51.0488 45.848 51.0488 48.1869 49.6143 49.6165C48.921 50.3121 47.9999 50.6912 47.0166 50.6912Z" fill="white"/>
<path d="M51.9051 31.2273H46.954C46.4671 31.2273 46.0688 30.8387 46.0688 30.3493C46.0688 29.8649 46.4526 29.4763 46.9348 29.4763H51.9051C52.3872 29.4763 52.7808 29.8649 52.7808 30.3493C52.7808 30.8387 52.3872 31.2273 51.9051 31.2273Z" fill="white"/>
<path d="M55.8632 27.2741C54.1648 27.2741 52.7808 28.6558 52.7808 30.3493C52.7808 32.0478 54.1648 33.427 55.8632 33.427C57.5615 33.427 58.9432 32.0478 58.9432 30.3493C58.9432 28.6558 57.5615 27.2741 55.8632 27.2741ZM55.8632 35.1877C53.1982 35.1877 51.0295 33.0241 51.0295 30.3493C51.0295 27.682 53.1982 25.5159 55.8632 25.5159C58.5305 25.5159 60.6992 27.682 60.6992 30.3493C60.6992 33.0241 58.5305 35.1877 55.8632 35.1877Z" fill="white"/>
<path d="M13.7667 31.2273H8.79407C8.30945 31.2273 7.91849 30.8387 7.91849 30.3493C7.91849 29.8649 8.30945 29.4763 8.79407 29.4763H13.7452C14.2297 29.4763 14.6327 29.8649 14.6327 30.3493C14.6327 30.8387 14.2513 31.2273 13.7667 31.2273Z" fill="white"/>
<path d="M4.83603 27.2741C3.13768 27.2741 1.75602 28.6558 1.75602 30.3493C1.75602 32.0478 3.13768 33.427 4.83603 33.427C6.53683 33.427 7.91848 32.0478 7.91848 30.3493C7.91848 28.6558 6.53683 27.2741 4.83603 27.2741ZM4.83603 35.1877C2.17337 35.1877 0 33.0241 0 30.3493C0 27.682 2.17337 25.5159 4.83603 25.5159C7.50104 25.5159 9.6744 27.682 9.6744 30.3493C9.6744 33.0241 7.50104 35.1877 4.83603 35.1877Z" fill="white"/>
<path d="M30.3496 14.6254C29.8674 14.6254 29.4741 14.2536 29.4741 13.7714V8.79387C29.4741 8.3092 29.8674 7.92311 30.3496 7.92311C30.8365 7.92311 31.2301 8.3092 31.2301 8.79387V13.7281C31.2301 14.2103 30.8365 14.6254 30.3496 14.6254Z" fill="white"/>
<path d="M30.3496 1.76052C28.6511 1.76052 27.2694 3.13997 27.2694 4.84295C27.2694 6.53416 28.6511 7.92312 30.3496 7.92312C32.0478 7.92312 33.432 6.53416 33.432 4.84295C33.432 3.13997 32.0478 1.76052 30.3496 1.76052ZM30.3496 9.67413C27.6846 9.67413 25.5162 7.50576 25.5162 4.84295C25.5162 2.17564 27.6846 -1.90735e-06 30.3496 -1.90735e-06C33.0172 -1.90735e-06 35.1856 2.17564 35.1856 4.84295C35.1856 7.50576 33.0172 9.67413 30.3496 9.67413Z" fill="white"/>
<path d="M30.3496 52.8501C29.8674 52.8501 29.4741 52.4495 29.4741 51.9673V46.9323C29.4741 46.4501 29.8674 46.0639 30.3496 46.0639C30.8365 46.0639 31.2301 46.4501 31.2301 46.9323V51.9673C31.2301 52.4495 30.8365 52.8501 30.3496 52.8501Z" fill="white"/>
<path d="M30.3496 52.8501C28.6511 52.8501 27.2694 54.2294 27.2694 55.9278C27.2694 57.6237 28.6511 59.0078 30.3496 59.0078C32.0478 59.0078 33.432 57.6237 33.432 55.9278C33.432 54.2294 32.0478 52.8501 30.3496 52.8501ZM30.3496 60.7614C27.6846 60.7614 25.5162 58.5952 25.5162 55.9278C25.5162 53.2627 27.6846 51.099 30.3496 51.099C33.0172 51.099 35.1856 53.2627 35.1856 55.9278C35.1856 58.5952 33.0172 60.7614 30.3496 60.7614Z" fill="white"/>
</svg>
