<svg width="33" height="43" viewBox="0 0 33 43" fill="none" xmlns="http://www.w3.org/2000/svg">
<path d="M26.0932 7.33404V3.96143H21.2343C20.8342 1.71268 18.8653 0 16.5035 0C14.1416 0 12.1724 1.71268 11.7726 3.96143H6.91332V7.33412H0V42.1583H33V7.33404H26.0932ZM8.59962 7.33404V5.64773H13.3848V4.80458C13.3848 3.08531 14.7839 1.68639 16.5035 1.68639C18.2231 1.68639 19.6221 3.08539 19.6221 4.80458V5.64773H24.4069V7.33404V10.822H8.59962V7.33404ZM31.3136 40.4719H1.6863V9.02043H6.91323V12.5084H26.0932V9.02043H31.3136V40.4719Z" fill="#FB7C21"/>
<path d="M22.5859 34.6626H10.4131V36.3489H22.5859V34.6626Z" fill="#FB7C21"/>
<path d="M28.2033 28.9713H4.78857V30.6576H28.2033V28.9713Z" fill="#FB7C21"/>
<path d="M28.2033 23.2832H4.78857V24.9695H28.2033V23.2832Z" fill="#FB7C21"/>
<path d="M28.2033 17.5918H4.78857V19.2781H28.2033V17.5918Z" fill="#FB7C21"/>
</svg>
