<svg width="28" height="34" viewBox="0 0 28 34" fill="none" xmlns="http://www.w3.org/2000/svg">
<path d="M14.2941 33.9558C14.1025 34.0147 13.8976 34.0147 13.7059 33.9558L14 33L14.2941 33.9558ZM26 7.91398C25.0303 7.75952 23.9614 7.41156 22.9098 6.99095C21.4526 6.40805 19.9143 5.63775 18.5212 4.87788C17.1251 4.11639 15.8583 3.35625 14.9414 2.78714C14.5639 2.55283 14.245 2.35029 14 2.19294C13.7549 2.35028 13.4361 2.55284 13.0586 2.78714C12.1417 3.35625 10.8749 4.11639 9.47888 4.87788C8.08579 5.63775 6.54741 6.40805 5.09015 6.99095C4.03864 7.41156 2.96973 7.75952 2.00004 7.91398V16C2.00004 22.1153 5.04066 26.1032 8.12835 28.5971C9.67717 29.848 11.2304 30.7148 12.3974 31.2684C12.9796 31.5446 13.4624 31.7412 13.7959 31.8677C13.8719 31.8965 13.9402 31.9216 14 31.9432C14.0598 31.9216 14.128 31.8965 14.2041 31.8677C14.5376 31.7412 15.0204 31.5446 15.6027 31.2684C16.7696 30.7148 18.3228 29.848 19.8716 28.5971C22.9593 26.1032 26 22.1153 26 16V7.91398ZM28 16C28 22.8847 24.5407 27.3969 21.1284 30.153C19.4272 31.527 17.7304 32.4727 16.4599 33.0754C15.8234 33.3773 15.2906 33.5947 14.9131 33.7378C14.7243 33.8094 14.574 33.8625 14.4688 33.8984C14.4162 33.9164 14.3748 33.93 14.3454 33.9395C14.3307 33.9442 14.319 33.948 14.3104 33.9507C14.3061 33.952 14.3026 33.9532 14.2999 33.954C14.2985 33.9544 14.2974 33.9548 14.2964 33.9551C14.2959 33.9552 14.2954 33.9554 14.2951 33.9555C14.2948 33.9556 14.2946 33.9556 14.2577 33.8362L14 33L13.7424 33.8362C13.7055 33.9557 13.7052 33.9556 13.7049 33.9555C13.7046 33.9554 13.7041 33.9552 13.7036 33.9551C13.7026 33.9548 13.7015 33.9544 13.7001 33.954C13.6974 33.9532 13.6939 33.952 13.6896 33.9507C13.681 33.948 13.6693 33.9442 13.6546 33.9395C13.6252 33.93 13.5838 33.9164 13.5312 33.8984C13.426 33.8625 13.2757 33.8094 13.0869 33.7378C12.7094 33.5947 12.1766 33.3773 11.5401 33.0754C10.2696 32.4727 8.57285 31.527 6.87169 30.153C3.45939 27.3969 3.06694e-07 22.8847 0 16V6.99998C0 6.44769 0.447735 5.99996 1.00002 5.99996C1.79955 5.99996 2.96364 5.68749 4.34736 5.134C5.7026 4.5919 7.16426 3.8622 8.52117 3.12206C9.87508 2.38356 11.1083 1.64369 12.0039 1.0878C12.4513 0.81014 12.8133 0.579036 13.0628 0.417839C13.1875 0.337266 13.284 0.274209 13.3489 0.231569C13.3813 0.21025 13.4059 0.194019 13.4221 0.183288C13.4302 0.177938 13.4362 0.173973 13.4401 0.171393L13.4454 0.167878V0.167936C13.7813 -0.0559698 14.2189 -0.0559878 14.5547 0.167936L14.5547 0.167995H14.5548L14.5599 0.171393C14.5638 0.173971 14.5698 0.177936 14.5779 0.183288C14.5941 0.194019 14.6187 0.21025 14.6511 0.231569C14.716 0.274207 14.8125 0.337265 14.9372 0.417839C15.1867 0.579039 15.5488 0.810133 15.9961 1.0878C16.8917 1.64369 18.1249 2.38357 19.4788 3.12206C20.8357 3.8622 22.2974 4.5919 23.6526 5.134C25.0364 5.68748 26.2004 5.99995 27 5.99996C27.5523 5.99996 28 6.44769 28 6.99998V16Z" fill="#FB7C21"/>
</svg>
