<svg width="33" height="39" viewBox="0 0 33 39" fill="none" xmlns="http://www.w3.org/2000/svg">
<path d="M27.2883 39C24.138 39 21.5754 36.3846 21.5754 33.1665C21.5754 32.5275 21.6924 31.8834 21.9339 31.2015L21.9992 31.0166L9.94004 23.2546L9.80452 23.3992C8.71417 24.5466 7.26037 25.1806 5.7117 25.1806C2.56263 25.1806 0 22.5627 0 19.3459C0 16.1279 2.56263 13.5124 5.7117 13.5124C7.24066 13.5124 8.67967 14.1276 9.76386 15.241L9.89445 15.3756L22.0632 8.16583L21.9856 7.96958C21.7133 7.2676 21.5754 6.54676 21.5754 5.83094C21.5754 2.61543 24.138 0 27.2883 0C30.4374 0 33 2.61543 33 5.83094C33 9.05022 30.4374 11.6669 27.2883 11.6669C25.768 11.6669 24.3351 11.0605 23.2534 9.95852L23.1228 9.82391L10.9454 17.0387L11.0218 17.2362C11.2891 17.9331 11.4246 18.6439 11.4246 19.3472C11.4246 20.0177 11.2965 20.7071 11.0402 21.394L10.97 21.5814L23.0057 29.3258L23.1425 29.1799C24.2415 27.9885 25.7125 27.3356 27.2883 27.3356C30.4374 27.3356 33 29.9498 33 33.1665C33 36.3846 30.4374 39 27.2883 39ZM27.2883 29.3107C25.9922 29.3107 24.8008 29.9825 24.101 31.1134L24.037 31.2317C23.6871 31.8444 23.5084 32.4948 23.5084 33.1678C23.5084 35.2951 25.2037 37.0262 27.2871 37.0262C29.3692 37.0262 31.0645 35.2951 31.0645 33.1678C31.0657 31.0405 29.3704 29.3107 27.2883 29.3107ZM5.71047 15.4888C3.62834 15.4888 1.93306 17.2198 1.93306 19.3472C1.93306 21.4732 3.62834 23.2068 5.71047 23.2068C6.99302 23.2068 8.177 22.5438 8.87803 21.438C9.28337 20.78 9.48912 20.068 9.48912 19.3472C9.48912 18.6905 9.31663 18.0539 8.98275 17.4501C8.87556 17.3318 8.81889 17.2601 8.77454 17.1821L8.7191 17.0362C7.99466 16.0524 6.89692 15.4888 5.71047 15.4888ZM27.2883 1.9751C25.2049 1.9751 23.5097 3.70614 23.5097 5.83094C23.5097 7.95952 25.2049 9.69182 27.2883 9.69182C29.3704 9.69182 31.0657 7.95952 31.0657 5.83094C31.0657 3.70614 29.3704 1.9751 27.2883 1.9751Z" fill="#FB7C21"/>
</svg>
