<svg width="60" height="60" viewBox="0 0 60 60" fill="none" xmlns="http://www.w3.org/2000/svg">
<circle cx="30" cy="30" r="30" fill="#244393"/>
<path d="M5.42312 45.2148C7.70844 45.2148 9.99357 45.2046 12.2789 45.2046C12.8428 45.2046 12.8437 44.3284 12.2789 44.3284C9.99357 44.3284 7.70844 44.3384 5.42312 44.3386C4.85942 44.3386 4.8585 45.2148 5.42312 45.2148Z" fill="#211715"/>
<path d="M47.5916 45.2143C49.4127 45.2143 51.2338 45.2081 53.0549 45.2059C53.566 45.2051 54.0775 45.2047 54.5894 45.2046C55.1531 45.2046 55.154 44.3284 54.5894 44.3284C52.6065 44.3284 50.6238 44.3312 48.641 44.3368C48.2913 44.3368 47.9415 44.3372 47.5916 44.338C47.0279 44.338 47.027 45.2143 47.5916 45.2143Z" fill="#211715"/>
<path d="M24.9177 58.4044H21.2056C21.9781 54.4674 22.906 50.012 23.4399 47.2646H36.4775L37.2951 51.3249C37.6237 52.943 38.2823 56.1806 38.7153 58.4044H24.9177Z" fill="white"/>
<path d="M17.8364 47.9021L14.7763 46.586C13.3342 45.9671 12.1477 44.6491 12.228 42.8017C12.2937 41.2811 12.7099 39.6181 12.9527 38.6652C13.6993 35.7335 15.052 31.3177 15.7475 30.1968C16.5338 28.9453 17.638 27.9249 18.9476 27.2396C20.3837 26.5216 21.872 25.9132 23.3999 25.4196C23.7922 25.2901 24.2135 25.1224 24.5638 24.9982C25.4426 26.4256 26.2432 27.8478 27.4265 29.0167C27.7704 28.5559 28.4141 27.7206 28.9263 27.038C29.3174 26.5176 29.6071 26.0691 29.6782 25.9814H30.0652C30.1364 26.0691 30.4261 26.5176 30.8172 27.038C31.3294 27.72 31.9731 28.5559 32.317 29.0167C33.5035 27.8431 34.3067 26.4144 35.1906 24.9814C35.5904 25.1439 36.3699 25.4177 36.7752 25.5729C38.3779 26.1881 39.8639 26.7522 41.2019 27.4696C42.4566 28.1359 43.518 29.1149 44.2833 30.3118C44.7014 30.9672 45.3403 32.5024 45.5812 33.2308C46.1325 34.9011 46.6017 36.743 47.237 39.0011C47.5791 40.2557 47.7799 41.5445 47.8357 42.8437C47.9142 44.6911 46.8007 46.2117 45.3001 46.6371L42.9064 47.3328L36.3144 44.7459C32.6118 44.7492 28.0435 44.7524 24.3929 44.7555L17.8364 47.9021Z" fill="#5199D1"/>
<path d="M37.3588 13.4479C37.472 13.3434 37.6047 13.2624 37.7494 13.2094C37.894 13.1565 38.0477 13.1327 38.2016 13.1394C38.3973 13.1331 38.5909 13.18 38.7621 13.2751C38.9332 13.3701 39.0753 13.5098 39.1733 13.6792C39.5035 14.2519 39.4895 15.307 39.2679 15.96C39.1109 16.4224 38.8539 17.1296 38.2339 17.6367C38.0975 17.7502 37.9391 17.8342 37.7685 17.8835C37.598 17.9327 37.4192 17.9461 37.2432 17.9227L37.1481 17.9067C37.0547 18.2222 36.9409 18.5313 36.8073 18.832C36.5852 19.4344 35.4773 21.3694 34.0112 22.4598C34.0112 22.7314 34.0112 22.9811 34.0112 22.9811C32.9147 24.0748 31.63 24.9619 30.2188 25.6C30.1409 25.6346 29.9355 25.8212 30.0657 25.9815H29.6786C29.8088 25.8212 29.6036 25.6346 29.5255 25.6C28.1143 24.962 26.8297 24.0748 25.7333 22.9811C25.7333 22.9811 25.7333 22.7186 25.7333 22.4207C25.2095 22.0343 24.7365 21.5834 24.3254 21.0788C23.5541 20.1468 22.9817 19.0668 22.6434 17.9052C22.4561 17.9448 22.2622 17.9412 22.0764 17.8947C21.8906 17.8482 21.7179 17.7599 21.5713 17.6367C20.9507 17.1296 20.6951 16.4224 20.5374 15.96C20.3158 15.307 20.3019 14.2519 20.6321 13.6792C20.7301 13.5098 20.8723 13.3701 21.0434 13.275C21.2145 13.18 21.4082 13.1331 21.6038 13.1394C21.7577 13.1327 21.9114 13.1565 22.056 13.2094C22.2006 13.2624 22.3333 13.3434 22.4465 13.4479C22.4465 13.4479 20.6847 5.40161 29.9034 5.40161C39.122 5.40161 37.3588 13.4479 37.3588 13.4479Z" fill="white"/>
<path d="M23.6515 10.1737C23.5419 10.3089 23.4428 10.4522 23.3549 10.6024C22.9089 11.3579 23.1486 13.1878 22.76 14.029C22.7076 13.7656 22.5614 13.5303 22.3485 13.3666C22.1356 13.203 21.8706 13.1222 21.6026 13.1392C21.4793 13.1423 21.357 13.1621 21.239 13.198C20.9622 12.1712 20.7733 11.0569 20.8109 10.1677C20.9369 7.18963 21.8982 5.39921 23.4725 4.14748C23.5325 4.09956 23.588 4.04608 23.638 3.98775C24.9971 2.40689 27.3657 1.25994 29.8812 1.38535C31.8837 1.4852 33.4817 1.99196 34.8554 2.95891L35.3209 3.2875L36.0146 3.9151C37.4578 5.21885 38.7614 7.25152 38.8881 10.2495C38.9238 11.2417 38.8037 12.2335 38.5323 13.1885C38.4243 13.1596 38.3133 13.1435 38.2015 13.1403C37.9856 13.1275 37.7707 13.1781 37.5831 13.2856C37.3955 13.3932 37.2434 13.5532 37.1455 13.746C37.0142 12.3658 36.291 9.92602 34.6884 9.38714C33.4898 8.99201 32.2337 8.79964 30.9719 8.81796C30.3755 8.8207 29.9116 9.10894 29.0292 9.10821C27.5732 9.10711 26.1035 9.10821 26.1035 9.10821C25.032 9.15275 24.2392 9.45414 23.6515 10.1737Z" fill="#AAAAAA"/>
<path d="M22.7551 13.1381C22.506 12.9149 22.1969 12.77 21.8661 12.7213C21.5353 12.6726 21.1975 12.7223 20.8947 12.8642C20.6815 12.9739 20.4952 13.1292 20.349 13.3192C20.2028 13.5091 20.1004 13.729 20.049 13.9632C19.7536 15.0566 20.0346 16.329 20.6574 17.2622C21.0796 17.8949 21.7481 18.4683 22.561 18.3607C22.676 18.3571 22.7854 18.3098 22.8668 18.2284C22.9481 18.147 22.9955 18.0377 22.9991 17.9226C22.9991 17.71 22.7972 17.4533 22.561 17.4845C21.9542 17.5648 21.5428 17.0747 21.2737 16.5891C21.0287 16.1606 20.8762 15.6855 20.8263 15.1945C20.7898 14.7441 20.7921 14.1866 21.0707 13.8049C21.088 13.7806 21.0846 13.7853 21.0607 13.8191C21.0789 13.7982 21.0979 13.778 21.1176 13.7584C21.1264 13.7507 21.2147 13.6804 21.1724 13.7096C21.2604 13.6489 21.3609 13.6086 21.4665 13.5915C21.5831 13.566 21.7041 13.5678 21.82 13.5966C21.9359 13.6254 22.0436 13.6805 22.1348 13.7576C22.5535 14.1333 23.1753 13.5156 22.7543 13.1381H22.7551Z" fill="#211715"/>
<path d="M37.6686 13.7577C37.7554 13.684 37.8574 13.6304 37.9672 13.6005C38.077 13.5706 38.1921 13.5653 38.3043 13.5848C38.4216 13.5997 38.5337 13.6425 38.631 13.7097C38.6038 13.6914 38.7823 13.8667 38.7223 13.7904C39.0144 14.1664 39.0131 14.7442 38.9779 15.1945C38.929 15.6745 38.7821 16.1394 38.5461 16.5603C38.2778 17.0554 37.8614 17.5664 37.2433 17.4846C37.1273 17.4851 37.0161 17.5314 36.9341 17.6135C36.852 17.6955 36.8057 17.8067 36.8052 17.9227C36.808 18.038 36.8551 18.1478 36.9367 18.2293C37.0182 18.3109 37.128 18.3579 37.2433 18.3608C38.5759 18.537 39.3942 17.0715 39.7163 15.9948C40.0012 15.0414 39.9979 13.5691 39.0733 12.953C38.7612 12.7611 38.3953 12.6753 38.0304 12.7087C37.6655 12.7421 37.3212 12.8927 37.0491 13.1381C36.6292 13.5154 37.2499 14.1334 37.6686 13.7577Z" fill="#211715"/>
<path d="M35.0759 2.58068C33.7958 1.71622 32.322 1.18139 30.7854 1.02373C29.1476 0.805125 27.4813 1.04861 25.9746 1.72672C25.277 2.04668 24.6279 2.46313 24.0463 2.96385C23.7852 3.19748 23.5371 3.44533 23.3032 3.70627C23.0892 3.93518 22.8214 4.11718 22.5974 4.33825C21.7085 5.23383 21.0712 6.34783 20.7497 7.56806C20.5216 8.42879 20.3947 9.31318 20.3715 10.2033C20.3666 11.2095 20.5044 12.2113 20.7807 13.1788C20.9209 13.7245 21.7665 13.4932 21.6256 12.9459C21.4027 12.1469 21.275 11.3244 21.2451 10.4954C21.2385 9.76152 21.314 9.02922 21.4702 8.31213C21.6865 7.17209 22.1989 6.10902 22.956 5.22963C23.1427 5.02325 23.342 4.82865 23.5527 4.64694C23.795 4.43755 24.0074 4.21704 24.2314 3.98867C24.7078 3.50714 25.2513 3.09709 25.8452 2.77126C27.1504 2.05246 28.6362 1.72797 30.1222 1.83716C31.735 1.91441 33.2956 2.43322 34.6335 3.33697C34.7341 3.39459 34.8533 3.4104 34.9654 3.38101C35.0776 3.35161 35.1736 3.27935 35.233 3.1798C35.2894 3.07893 35.3045 2.96017 35.2752 2.8484C35.2459 2.73664 35.1744 2.64056 35.0759 2.58031V2.58068Z" fill="#211715"/>
<path d="M38.9863 13.1792C39.3749 11.6672 39.4219 10.0878 39.1239 8.5554C38.8734 7.28089 38.3507 6.07546 37.5916 5.02146C37.2185 4.50722 36.794 4.03233 36.3246 3.60416C35.9082 3.22556 35.2866 3.84348 35.705 4.22373C37.492 5.8484 38.4273 8.12331 38.4578 10.5282C38.4554 11.3443 38.3491 12.1568 38.1413 12.946C38.0073 13.4937 38.8521 13.7275 38.9863 13.1792Z" fill="#211715"/>
<path d="M28.4884 20.3436C28.9491 20.5823 29.4623 20.7015 29.9811 20.6905C30.5232 20.7124 31.0572 20.5532 31.4988 20.2379C31.5809 20.1558 31.6271 20.0443 31.6271 19.9281C31.6271 19.8119 31.5809 19.7005 31.4988 19.6184C31.415 19.5394 31.3041 19.4954 31.189 19.4954C31.0738 19.4954 30.963 19.5394 30.8792 19.6184C31.015 19.5125 30.9219 19.5848 30.887 19.607C30.8577 19.6253 30.8274 19.6435 30.7958 19.6596C30.7551 19.681 30.6536 19.7051 30.7764 19.6729C30.7344 19.6839 30.6932 19.7049 30.6516 19.7182C30.5373 19.7536 30.4206 19.7803 30.3023 19.798C30.3675 19.7876 30.3259 19.7947 30.2841 19.798C30.2499 19.8015 30.2156 19.8044 30.1811 19.8066C30.0986 19.8119 30.0157 19.8139 29.9329 19.8135C29.8588 19.8135 29.7847 19.8108 29.7107 19.8055C29.6765 19.803 29.6426 19.8002 29.6088 19.7971C29.5933 19.7954 29.469 19.7735 29.5751 19.7938C29.4651 19.775 29.3562 19.7507 29.2487 19.7208C29.203 19.7071 29.1585 19.6906 29.1134 19.6753C29.0066 19.6388 29.1917 19.7142 29.0952 19.6686C29.0393 19.6423 28.984 19.6147 28.9294 19.5859C28.8797 19.5568 28.8248 19.5378 28.7678 19.53C28.7108 19.5222 28.6528 19.5257 28.5971 19.5403C28.5414 19.5549 28.4892 19.5803 28.4433 19.6151C28.3975 19.6499 28.359 19.6934 28.3299 19.743C28.3009 19.7927 28.2819 19.8476 28.2741 19.9046C28.2663 19.9617 28.2698 20.0197 28.2843 20.0753C28.2989 20.131 28.3244 20.1832 28.3591 20.2291C28.3939 20.2749 28.4374 20.3135 28.4871 20.3425L28.4884 20.3436Z" fill="#211715"/>
<path d="M29.7319 16.8616C29.7994 17.1048 29.8534 17.3517 29.8935 17.6009L29.878 17.4844C29.8827 17.5182 29.8836 17.5525 29.8807 17.5865L29.8964 17.47C29.894 17.4856 29.8902 17.501 29.8851 17.516L29.9293 17.4112C29.9248 17.4216 29.9194 17.4315 29.913 17.4408L29.9817 17.3521C29.9745 17.3609 29.9663 17.3689 29.9574 17.376L30.0461 17.3075C30.0273 17.3192 30.0078 17.3295 29.9875 17.3384L30.0923 17.2942C30.0607 17.3078 30.0275 17.3175 29.9935 17.3231L30.11 17.3075C30.0792 17.3111 30.0481 17.3111 30.0173 17.3075L30.1337 17.3231C30.0989 17.3183 30.0645 17.3097 30.0297 17.3048C29.9732 17.2867 29.9129 17.2839 29.855 17.2969C29.797 17.2996 29.7408 17.3175 29.692 17.349C29.6423 17.378 29.5988 17.4165 29.564 17.4624C29.5292 17.5082 29.5038 17.5605 29.4892 17.6162C29.4746 17.6718 29.4711 17.7298 29.4789 17.7868C29.4868 17.8439 29.5057 17.8988 29.5348 17.9485C29.5626 17.9979 29.6002 18.0412 29.6452 18.0757C29.6902 18.1102 29.7418 18.1352 29.7967 18.1493C29.8815 18.1606 29.9636 18.1821 30.0499 18.1858C30.1821 18.1865 30.3124 18.1552 30.4298 18.0945C30.5051 18.0597 30.5717 18.0085 30.6248 17.9448C30.678 17.8811 30.7163 17.8064 30.7371 17.7261C30.7643 17.5974 30.7631 17.4642 30.7334 17.336C30.6932 17.0978 30.6381 16.8614 30.577 16.6281C30.5617 16.5726 30.5356 16.5206 30.5003 16.4752C30.4649 16.4298 30.4209 16.3917 30.3709 16.3633C30.3208 16.3349 30.2656 16.3166 30.2085 16.3095C30.1514 16.3024 30.0934 16.3066 30.0379 16.322C29.9271 16.3548 29.8333 16.4293 29.7762 16.5298C29.7192 16.6303 29.7033 16.749 29.7319 16.861V16.8616Z" fill="#211715"/>
<path d="M25.8791 14.7512C25.7557 15.1528 25.8362 16.0756 26.5963 16.1541C27.6003 16.1481 27.6551 15.032 27.3163 14.5073C27.0394 14.0782 26.2252 13.8996 25.8791 14.7512Z" fill="#211715"/>
<path d="M33.925 14.7512C34.0486 15.1528 33.9681 16.0756 33.2078 16.1541C32.2038 16.1481 32.149 15.032 32.4879 14.5073C32.7653 14.0782 33.5789 13.8996 33.925 14.7512Z" fill="#211715"/>
<path d="M32.0439 19.4851C32.0866 19.5264 32.1263 19.5708 32.1627 19.6178L32.0941 19.5293C32.1723 19.6344 32.2371 19.749 32.2868 19.8703L32.2426 19.7655C32.2609 19.808 32.277 19.8509 32.2927 19.8942C32.3275 20.002 32.3984 20.0945 32.4935 20.1561C32.5422 20.1876 32.5985 20.2055 32.6565 20.208C32.7144 20.2211 32.7747 20.2185 32.8312 20.2003C32.941 20.1695 33.0348 20.0976 33.093 19.9995C33.1227 19.9491 33.142 19.8932 33.1496 19.8352C33.1572 19.7771 33.1529 19.7181 33.1371 19.6618C33.0423 19.3636 32.8799 19.0912 32.6625 18.8661C32.5791 18.7856 32.4681 18.7399 32.3522 18.7383C32.2369 18.7429 32.127 18.7882 32.0418 18.8661C31.96 18.9486 31.9141 19.0602 31.9141 19.1764C31.9151 19.2924 31.9609 19.4036 32.0418 19.4867L32.0439 19.4851Z" fill="#211715"/>
<path d="M31.3781 8.54824C30.9044 7.95653 30.2886 7.49434 29.5881 7.20469C29.2837 7.07798 28.9673 6.98221 28.6437 6.91882C28.2921 6.83079 27.9305 6.78869 27.568 6.7936C27.4526 6.79602 27.3425 6.84296 27.2609 6.9246C27.1792 7.00624 27.1323 7.11628 27.1299 7.23171C27.131 7.34757 27.1775 7.45837 27.2594 7.54029C27.3413 7.62222 27.4521 7.66873 27.568 7.66983C27.7077 7.66476 27.8475 7.67087 27.9862 7.68808C28.0171 7.69191 28.0162 7.69155 27.9837 7.68808L28.0302 7.69483C28.0774 7.70214 28.1246 7.70986 28.1719 7.71802C28.2518 7.73214 28.3315 7.74771 28.4108 7.76475C28.5704 7.79895 28.7286 7.8385 28.8854 7.88341C28.9501 7.90166 29.0145 7.92174 29.0782 7.9431C29.1113 7.95423 29.292 8.03036 29.1715 7.9734C29.4709 8.10512 29.7588 8.26156 30.0322 8.44109C30.3057 8.65025 30.55 8.89502 30.7586 9.16891C30.841 9.25049 30.9523 9.29624 31.0683 9.29624C31.1843 9.29624 31.2957 9.25049 31.3781 9.16891C31.4577 9.0854 31.5021 8.97447 31.5021 8.85912C31.5021 8.74377 31.4577 8.63285 31.3781 8.54934V8.54824Z" fill="#211715"/>
<path d="M37.6058 14.1375C37.5747 13.1588 37.3574 12.1951 36.9656 11.2978C36.5418 10.2956 35.8704 9.33646 34.805 8.96352C34.7494 8.94781 34.6912 8.94326 34.6339 8.95013C34.5765 8.95699 34.521 8.97514 34.4707 9.00353C34.4204 9.03192 34.3761 9.06999 34.3406 9.11554C34.305 9.16109 34.2788 9.21322 34.2635 9.26894C34.2482 9.32466 34.244 9.38286 34.2513 9.44019C34.2585 9.49752 34.2771 9.55284 34.3058 9.60298C34.3345 9.65312 34.3729 9.69707 34.4187 9.73232C34.4645 9.76757 34.5168 9.79341 34.5726 9.80835C34.9592 9.96284 35.2957 10.2211 35.5449 10.5546C35.8142 10.9084 36.0335 11.2977 36.1964 11.7114C36.3721 12.1511 36.5079 12.6057 36.602 13.0697C36.6834 13.4199 36.7262 13.778 36.7298 14.1375C36.7382 14.7008 37.6144 14.7024 37.606 14.1375H37.6058Z" fill="#211715"/>
<path d="M33.3633 8.80045C33.2577 8.32286 33.0506 7.87356 32.7561 7.48301C32.6088 7.32403 32.4399 7.1864 32.2545 7.0741C32.0601 6.94327 31.852 6.83418 31.6338 6.7488C31.5218 6.71835 31.4023 6.73342 31.3013 6.79074C31.2004 6.84805 31.1262 6.94295 31.0949 7.05475C31.0673 7.16666 31.0836 7.28493 31.1405 7.38518C31.1974 7.48543 31.2906 7.56004 31.4009 7.59363C31.4752 7.62193 31.3885 7.57885 31.3662 7.5783C31.3869 7.58407 31.4064 7.5932 31.4241 7.60531C31.4664 7.62612 31.5081 7.64821 31.5493 7.67103C31.6388 7.72087 31.7264 7.77435 31.8118 7.83076C31.8533 7.85796 31.894 7.88552 31.9343 7.91473C31.9526 7.92806 31.9708 7.94193 31.99 7.95562C32.0584 8.00546 31.9075 7.88735 31.9677 7.93883C32.0282 7.98901 32.0845 8.04395 32.1362 8.10312C32.1592 8.12996 32.1926 8.19001 32.1179 8.07738C32.1291 8.09436 32.142 8.11024 32.1535 8.12704C32.1773 8.16154 32.1995 8.19713 32.2205 8.23346C32.2415 8.26979 32.2631 8.3105 32.2824 8.34993C32.3007 8.38644 32.3512 8.5301 32.3056 8.39483C32.3775 8.60823 32.4557 8.81707 32.5177 9.03375C32.533 9.08927 32.5591 9.14123 32.5945 9.18666C32.6299 9.23209 32.6739 9.27011 32.724 9.29854C32.7741 9.32696 32.8293 9.34524 32.8865 9.35234C32.9436 9.35943 33.0016 9.3552 33.0572 9.33988C33.1127 9.32456 33.1646 9.29846 33.2101 9.26306C33.2555 9.22766 33.2935 9.18366 33.3219 9.13357C33.3504 9.08348 33.3687 9.02828 33.3757 8.97112C33.3828 8.91397 33.3786 8.85597 33.3633 8.80045Z" fill="#211715"/>
<path d="M26.1037 8.66914C25.5135 8.68256 24.9316 8.81085 24.3905 9.04683C23.9024 9.28377 23.4827 9.64119 23.1711 10.0853C22.5734 10.9015 22.638 11.9473 22.5517 12.9104C22.5366 13.1491 22.4992 13.3859 22.44 13.6176C22.4263 13.6689 22.4099 13.719 22.394 13.7693C22.3668 13.8555 22.3952 13.7839 22.3659 13.8393C22.3427 13.8853 22.3165 13.9297 22.2875 13.9723C22.3374 13.9024 22.2582 13.9973 22.237 14.0165C21.8182 14.396 22.4394 15.0141 22.8565 14.6361C23.155 14.3655 23.2802 13.9477 23.3461 13.5631C23.4288 13.0813 23.4511 12.5926 23.4863 12.1061C23.4905 11.7015 23.5571 11.2999 23.6838 10.9156C23.8757 10.528 24.169 10.1997 24.5325 9.96541C25.0114 9.69285 25.5525 9.54825 26.1035 9.54555C26.6649 9.51853 26.6681 8.64212 26.1035 8.66932L26.1037 8.66914Z" fill="#211715"/>
<path d="M27.4264 29.0165C26.2012 27.8051 25.3846 26.3216 24.4675 24.8422C24.7808 24.1544 25.2087 23.5248 25.7328 22.9802C26.8292 24.0739 28.1139 24.9611 29.525 25.5991C29.6031 25.6337 29.8083 25.8203 29.6782 25.9806C29.607 26.0682 29.3173 26.5167 28.9263 27.0372C28.414 27.7199 27.7704 28.5558 27.4264 29.0165Z" fill="white"/>
<path d="M32.3169 29.0165C33.5421 27.8051 34.3588 26.3216 35.2758 24.8422C34.9625 24.1544 34.5347 23.5248 34.0107 22.9802C32.9142 24.0739 31.6295 24.961 30.2183 25.5991C30.1404 25.6337 29.935 25.8203 30.0651 25.9806C30.1363 26.0682 30.426 26.5167 30.8171 27.0372C31.3293 27.7199 31.9729 28.5558 32.3169 29.0165Z" fill="white"/>
<path d="M27.7363 28.7066C26.5439 27.5175 25.725 26.0414 24.8458 24.621V25.0633C25.1433 24.4099 25.5478 23.8108 26.0426 23.2906H25.4219C25.9964 23.8624 26.6215 24.381 27.2896 24.8399C27.614 25.0641 27.948 25.2734 28.2916 25.4679C28.4693 25.5683 28.6494 25.6642 28.8321 25.7557C28.9213 25.8003 29.0111 25.8438 29.1015 25.8863C29.1679 25.9297 29.2403 25.9632 29.3164 25.9854C29.3378 25.9976 29.3347 25.9949 29.3064 25.9768C29.2844 25.9287 29.2774 25.8751 29.2863 25.823C29.2953 25.771 29.3197 25.7227 29.3564 25.6847C29.3116 25.7324 29.2723 25.7848 29.2392 25.8412C29.1662 25.9436 29.0964 26.0484 29.0247 26.1515C28.8056 26.4682 28.5764 26.7778 28.344 27.0854C27.9126 27.6557 27.4754 28.2216 27.0479 28.7944C26.99 28.8949 26.9741 29.0142 27.0035 29.1263C27.0329 29.2385 27.1053 29.3346 27.2051 29.3937C27.306 29.4497 27.4247 29.4645 27.5363 29.4353C27.6479 29.406 27.744 29.3348 27.8045 29.2366C28.5234 28.2753 29.268 27.3348 29.9517 26.3477C29.9727 26.3176 29.9966 26.288 30.0154 26.2565C30.0229 26.2437 30.053 26.1982 30.0097 26.2618C29.9471 26.353 30.0546 26.2037 30.0563 26.2011C30.104 26.1267 30.1355 26.043 30.1486 25.9555C30.1617 25.868 30.1562 25.7787 30.1324 25.6935C30.0439 25.3771 29.7834 25.2413 29.5117 25.1126C28.9158 24.8295 28.3432 24.4999 27.7991 24.1269C27.1694 23.6971 26.5815 23.2091 26.0431 22.6694C25.9601 22.5885 25.8488 22.5432 25.7328 22.5432C25.6169 22.5432 25.5055 22.5885 25.4225 22.6694C24.9587 23.1473 24.5666 23.69 24.2586 24.2804C24.172 24.4204 24.1004 24.5691 24.0448 24.724C23.9869 24.9337 24.1138 25.1013 24.2173 25.2696C24.3938 25.5571 24.5683 25.8457 24.7447 26.1332C25.4384 27.265 26.1722 28.383 27.1163 29.3245C27.5165 29.7249 28.1362 29.1055 27.7363 28.7066Z" fill="#211715"/>
<path d="M32.6268 29.3265C33.5709 28.3849 34.3045 27.2668 34.9984 26.1352C35.1748 25.8477 35.3493 25.5591 35.5258 25.2716C35.6304 25.1016 35.7569 24.9393 35.6983 24.7259C35.6432 24.571 35.5718 24.4223 35.4854 24.2823C35.1774 23.6919 34.7853 23.1493 34.3215 22.6714C34.2385 22.5904 34.1271 22.5452 34.0112 22.5452C33.8953 22.5452 33.7839 22.5904 33.7009 22.6714C32.7554 23.616 31.6639 24.4021 30.4683 24.9994C30.2155 25.1259 29.9307 25.2095 29.7493 25.4375C29.6441 25.5624 29.586 25.7202 29.585 25.8835C29.5878 25.9779 29.6124 26.0704 29.6569 26.1538C29.6763 26.186 29.6976 26.217 29.7206 26.2467C29.8188 26.386 29.6886 26.202 29.7193 26.2467C30.0402 26.7122 30.3708 27.1703 30.7111 27.621C31.1196 28.1604 31.5326 28.6962 31.9382 29.238C31.9992 29.3356 32.0953 29.4063 32.2067 29.4355C32.3182 29.4647 32.4365 29.4503 32.5377 29.3951C32.6374 29.3359 32.7097 29.2399 32.7391 29.1277C32.7686 29.0156 32.7526 28.8963 32.6948 28.7958C32.275 28.2332 31.8449 27.6774 31.4212 27.1173C31.1874 26.8082 30.9566 26.4966 30.7354 26.1792C30.6576 26.0671 30.582 25.9534 30.5028 25.8424C30.4697 25.7861 30.4304 25.7336 30.3856 25.6859C30.4223 25.724 30.4467 25.7722 30.4557 25.8243C30.4646 25.8764 30.4576 25.9299 30.4356 25.978C30.4075 25.9963 30.4042 25.9988 30.4256 25.9866C30.5017 25.9644 30.5741 25.931 30.6405 25.8875C30.7309 25.8451 30.8207 25.8016 30.9101 25.757C31.0805 25.6718 31.2493 25.5821 31.4166 25.4879C31.7602 25.2954 32.0945 25.0873 32.4196 24.8638C33.1 24.3993 33.7362 23.8731 34.3201 23.2918H33.6994C34.1942 23.812 34.5987 24.4112 34.8962 25.0646V24.6222C34.017 26.0426 33.1985 27.5187 32.0057 28.7078C31.6074 29.1056 32.227 29.7254 32.6268 29.3265Z" fill="#211715"/>
<path d="M22.0619 17.4531C22.3965 18.9541 23.0933 20.3504 24.0917 21.5201C25.0568 22.6491 26.3029 23.5473 27.7974 23.7754C27.9093 23.8026 28.0274 23.7861 28.1276 23.7292C28.2277 23.6723 28.3024 23.5794 28.3365 23.4693C28.3664 23.3573 28.3511 23.238 28.2938 23.1371C28.2365 23.0363 28.1419 22.9621 28.0303 22.9304C26.666 22.7221 25.5919 21.931 24.7111 20.9005C23.8184 19.839 23.199 18.5752 22.9068 17.2194C22.7843 16.6692 21.9393 16.9022 22.0619 17.4524V17.4531Z" fill="#211715"/>
<path d="M36.8568 17.2195C36.5878 18.4669 36.0425 19.6381 35.261 20.647C34.468 21.6532 33.466 22.5154 32.2032 22.8376C31.6572 22.977 31.8886 23.8224 32.4361 23.6826C33.8417 23.3237 34.9907 22.3843 35.8808 21.2667C36.7686 20.1498 37.3912 18.8458 37.7017 17.4531C37.8242 16.9038 36.9795 16.6682 36.8568 17.2202V17.2195Z" fill="#211715"/>
<path d="M15.7347 41.8039C16.6518 41.4109 17.6278 41.1727 18.6228 41.0989C18.7382 41.0962 18.8481 41.0492 18.9297 40.9676C19.0113 40.886 19.0583 40.7761 19.0609 40.6608C19.0599 40.5449 19.0134 40.434 18.9315 40.3521C18.8495 40.2701 18.7387 40.2237 18.6228 40.2227C17.4737 40.3053 16.3473 40.5842 15.2924 41.0472C15.1927 41.1064 15.1203 41.2025 15.0908 41.3147C15.0614 41.4269 15.0774 41.5462 15.1352 41.6467C15.1959 41.7448 15.292 41.8158 15.4036 41.845C15.5152 41.8743 15.6337 41.8595 15.7347 41.8039Z" fill="#211715"/>
<path d="M24.3929 45.1935C27.5091 45.1908 30.6253 45.1884 33.7415 45.186L36.3144 45.1838C36.8781 45.1838 36.879 44.3076 36.3144 44.3076C33.1892 44.3104 30.0639 44.313 26.9385 44.3153L24.3929 44.3173C23.8292 44.3173 23.8281 45.1935 24.3929 45.1935Z" fill="#211715"/>
<path d="M40.4654 33.5746C40.3177 36.3601 40.0891 39.1405 39.9371 41.9256C39.9064 42.4891 40.7826 42.4873 40.8133 41.9256C40.9654 39.1405 41.1939 36.3601 41.3416 33.5746C41.3715 33.0111 40.4953 33.0127 40.4654 33.5746Z" fill="#211715"/>
<path d="M35.0741 25.4039C36.8813 26.1319 38.7407 26.7239 40.4899 27.5944C41.3219 27.9888 42.088 28.5094 42.761 29.1377C43.3739 29.7256 43.8801 30.4154 44.257 31.1766C45.0008 32.6846 45.4725 34.2881 45.9245 35.9024C46.2082 36.9157 46.482 37.9316 46.7659 38.9445C47.0238 39.851 47.2063 40.7773 47.3115 41.7139C47.4201 42.7154 47.4983 43.7322 47.0195 44.6555C46.835 45.0261 46.5771 45.3554 46.2615 45.6234C45.9459 45.8914 45.5792 46.0925 45.1836 46.2145C44.6438 46.3731 44.8732 47.2185 45.4165 47.0595C47.1905 46.5385 48.2958 44.7935 48.2774 42.9832C48.2555 40.8154 47.6184 38.7481 47.049 36.6791C46.56 34.9014 46.0815 33.1229 45.3371 31.4318C44.995 30.6141 44.5377 29.8495 43.9789 29.1614C43.3369 28.3986 42.5683 27.7521 41.7068 27.2503C39.7048 26.0778 37.4472 25.4208 35.307 24.5588C35.1951 24.5287 35.0757 24.5439 34.9749 24.6011C34.874 24.6583 34.7998 24.7529 34.7681 24.8644C34.74 24.9764 34.7562 25.0949 34.8131 25.1952C34.8701 25.2956 34.9636 25.3702 35.0741 25.4035V25.4039Z" fill="#211715"/>
<path d="M18.4614 33.0309C18.5848 34.869 18.7666 36.7028 18.8944 38.5405C18.8971 38.6559 18.9441 38.7658 19.0257 38.8474C19.1073 38.9289 19.2172 38.976 19.3325 38.9787C19.4485 38.9777 19.5594 38.9313 19.6413 38.8493C19.7233 38.7674 19.7698 38.6565 19.7707 38.5405C19.6429 36.7028 19.4603 34.869 19.3377 33.0309C19.335 32.9155 19.288 32.8056 19.2064 32.724C19.1248 32.6424 19.0149 32.5954 18.8995 32.5928C18.7837 32.5938 18.6728 32.6403 18.5909 32.7222C18.5089 32.8041 18.4624 32.915 18.4614 33.0309Z" fill="#211715"/>
<path d="M14.9975 46.2078C14.2658 45.9118 13.637 45.4078 13.1888 44.7582C12.6837 43.98 12.6209 43.1395 12.7052 42.2368C12.8763 40.4077 13.4 38.6061 13.8969 36.8435C14.3757 35.1458 14.8826 33.447 15.5075 31.7958C15.6736 31.2925 15.8944 30.8089 16.1659 30.3537C16.7053 29.5087 17.4023 28.7754 18.2189 28.194C19.111 27.5607 20.1515 27.1201 21.1601 26.7084C22.3167 26.2352 23.5049 25.8419 24.6811 25.4215C24.7915 25.3881 24.8849 25.3134 24.9418 25.2131C24.9988 25.1127 25.015 24.9943 24.987 24.8824C24.9553 24.7709 24.881 24.6764 24.7802 24.6191C24.6794 24.5619 24.5601 24.5466 24.4481 24.5764C23.3569 24.9665 22.2546 25.3324 21.178 25.763C20.201 26.1285 19.2529 26.5666 18.3414 27.0737C17.4077 27.6261 16.5853 28.3478 15.9164 29.2018C15.479 29.7639 15.1244 30.3859 14.8637 31.0487C14.2208 32.695 13.6663 34.3744 13.2025 36.0799C12.6671 37.9397 12.1291 39.8256 11.8834 41.7503C11.7373 42.8964 11.7394 44.0178 12.3361 45.0451C12.8548 45.9033 13.6316 46.5754 14.5553 46.9654C14.6565 47.0203 14.7748 47.0347 14.8861 47.0055C14.9975 46.9763 15.0935 46.9057 15.1546 46.8082C15.2125 46.7077 15.2284 46.5884 15.199 46.4762C15.1696 46.364 15.0972 46.2679 14.9975 46.2087V46.2078Z" fill="#211715"/>
<path d="M39.2875 51.0499C39.1871 51.1246 39.0867 51.196 38.9881 51.2579C38.7609 51.4028 38.2359 51.5864 37.8883 51.4108C37.7907 51.363 37.7064 51.292 37.6427 51.2039C37.579 51.1159 37.538 51.0135 37.5232 50.9059L37.4947 50.9242C37.0566 51.2151 36.3322 51.388 35.9076 51.0547C35.7548 50.9039 35.6563 50.7067 35.6276 50.494C35.5989 50.2812 35.6416 50.065 35.749 49.8791C35.7908 49.7972 35.8401 49.7194 35.8961 49.6465C35.665 49.7517 35.2304 49.8961 34.9469 49.3794C34.7596 49.0373 34.8788 48.4862 35.2802 48.0572C35.4316 47.8953 35.7417 47.4855 36.054 47.181C36.121 47.116 36.1891 47.0514 36.2576 46.9873L35.9575 46.959C35.8323 46.955 35.7101 46.9192 35.6025 46.855C35.495 46.7907 35.4055 46.7002 35.3425 46.5919C35.2529 46.3942 35.2399 46.1702 35.306 45.9634C35.4337 45.5505 36.0955 45.0702 36.7846 44.6575C37.4127 44.2644 38.1118 43.9985 38.8423 43.8749C39.5093 43.7522 40.1905 43.7264 40.8649 43.7982C41.5511 43.8713 42.0471 44.1615 42.5526 44.4602C42.9968 44.7661 43.3824 45.1495 43.6909 45.5919C43.9903 46.0937 44.153 46.6651 44.1628 47.2493C44.1405 48.1438 43.9392 48.6566 43.4144 49.265C43.0406 49.6886 42.6432 50.0909 42.2242 50.4698C41.7346 50.9017 41.2466 50.9809 40.8815 50.8469C40.5878 50.7392 40.5266 50.1998 40.6305 49.9793L40.6502 49.9375L40.6404 49.9453C40.5308 50.0315 40.4337 50.1069 40.3622 50.1644C40.1121 50.365 39.7003 50.7431 39.2875 51.0499Z" fill="white"/>
<path d="M38.1702 46.8219C37.6353 47.2898 37.1222 47.7803 36.6109 48.2735C36.1607 48.7078 35.6268 49.1441 35.3405 49.7125C35.0362 50.3173 35.181 51.1835 35.8181 51.5168C36.4126 51.8272 37.1771 51.649 37.7166 51.3033C38.1897 50.9999 37.7509 50.2412 37.2742 50.5466C37.0908 50.6692 36.8836 50.7518 36.6662 50.7892C36.5789 50.8 36.4908 50.8025 36.4031 50.7967C36.351 50.7897 36.2999 50.7762 36.2511 50.7565C36.2956 50.7748 36.1244 50.6689 36.1875 50.72C36.1525 50.6831 36.1239 50.6406 36.103 50.5942C36.0591 50.4934 36.0445 50.3821 36.0608 50.2733C36.1062 50.1078 36.1909 49.9556 36.3078 49.8299C36.66 49.434 37.0338 49.058 37.4276 48.7034C37.8732 48.2735 38.3239 47.8495 38.7899 47.4418C38.8312 47.4013 38.864 47.3529 38.8864 47.2996C38.9089 47.2464 38.9205 47.1891 38.9208 47.1313C38.921 47.0735 38.9098 47.0162 38.8878 46.9627C38.8658 46.9092 38.8334 46.8606 38.7925 46.8197C38.7516 46.7788 38.703 46.7464 38.6495 46.7244C38.596 46.7024 38.5387 46.6912 38.4809 46.6914C38.4231 46.6916 38.3658 46.7033 38.3125 46.7258C38.2593 46.7482 38.2109 46.781 38.1704 46.8223L38.1702 46.8219Z" fill="#211715"/>
<path d="M35.5971 49.294C35.5815 49.2981 35.4656 49.3172 35.5642 49.3076C35.5313 49.3108 35.4983 49.3116 35.4653 49.3099C35.4769 49.3099 35.4406 49.3046 35.4366 49.301C35.4096 49.274 35.384 49.2456 35.3599 49.2159L35.3263 49.159C35.3364 49.1913 35.3366 49.1926 35.3263 49.1632C35.3129 49.1278 35.3032 49.0911 35.2975 49.0536C35.3081 49.1219 35.2999 48.9806 35.2999 48.9806C35.3096 48.6743 35.5755 48.3924 35.7893 48.1362C36.3995 47.443 37.0679 46.8033 37.7871 46.224C37.8684 46.1413 37.9139 46.0301 37.9139 45.9142C37.9139 45.7983 37.8684 45.687 37.7871 45.6044C37.7038 45.5244 37.5928 45.4797 37.4773 45.4797C37.3618 45.4797 37.2508 45.5244 37.1675 45.6044C36.3201 46.289 35.5431 47.0564 34.8479 47.8952C34.512 48.3214 34.2937 48.9266 34.5056 49.4576C34.5979 49.7185 34.7864 49.9343 35.0324 50.061C35.2785 50.1876 35.5637 50.2154 35.8296 50.1389C36.3742 49.995 36.1432 49.1495 35.5967 49.294H35.5971Z" fill="#211715"/>
<path d="M39.7207 47.7495C39.1425 48.2627 38.5551 48.7663 37.9994 49.3041C37.5107 49.7769 36.899 50.3905 37.1287 51.1371C37.3903 51.9881 38.3486 52.0383 39.0416 51.7243C39.3612 51.5556 39.6581 51.3471 39.9253 51.1037C40.1778 50.8978 40.4194 50.6791 40.6737 50.4759C41.1679 50.081 41.6852 49.7116 42.1582 49.2912C42.2393 49.2088 42.2845 49.0977 42.284 48.9821C42.2835 48.8665 42.2374 48.7558 42.1557 48.6741C42.074 48.5924 41.9633 48.5463 41.8477 48.5458C41.7321 48.5453 41.621 48.5905 41.5386 48.6716C41.1694 49.0002 40.7709 49.2968 40.3813 49.6002C39.9695 49.9211 39.5814 50.2703 39.1708 50.5925C38.9778 50.764 38.7559 50.9 38.5155 50.9941C38.3329 51.0498 38.0911 51.0894 37.9921 50.9394C37.9049 50.8065 37.9572 50.6933 38.0763 50.521C38.2538 50.2846 38.4546 50.0667 38.6758 49.8706C39.2157 49.3541 39.7814 48.8666 40.3402 48.3708C40.4224 48.2886 40.4685 48.1771 40.4685 48.0609C40.4685 47.9447 40.4223 47.8333 40.3401 47.7511C40.2579 47.6689 40.1465 47.6228 40.0303 47.6228C39.9141 47.6228 39.8026 47.669 39.7205 47.7512L39.7207 47.7495Z" fill="#211715"/>
<path d="M35.9586 46.5215C35.776 46.5277 35.6873 46.3446 35.7081 46.1788C35.7633 45.9925 35.8789 45.8298 36.0367 45.7164C36.5328 45.2866 37.0911 44.9343 37.6926 44.6715C38.2377 44.4375 38.8163 44.2912 39.4071 44.2378C40.0338 44.1449 40.6726 44.1759 41.2873 44.3291C41.7588 44.4754 42.1978 44.7109 42.5805 45.0228C42.9704 45.3245 43.2816 45.716 43.4878 46.1639C43.7226 46.6927 43.7864 47.2816 43.6703 47.8484C43.5666 48.3059 43.3393 48.7262 43.0131 49.0635C42.8018 49.3008 42.5801 49.528 42.3542 49.7506C42.145 49.983 41.905 50.1857 41.6408 50.353C41.5346 50.4137 41.4173 50.4526 41.2959 50.4674C41.2496 50.471 41.203 50.4715 41.1566 50.4689C41.1384 50.4665 41.0128 50.4278 41.0738 50.4605C41.1207 50.4857 41.0628 50.4505 41.044 50.4039C41.0579 50.4384 41.0258 50.3066 41.0276 50.3232C41.0089 50.2471 41.019 50.1669 41.0559 50.0978C41.086 49.9857 41.0708 49.8663 41.0135 49.7654C40.9562 49.6645 40.8614 49.5902 40.7497 49.5587C40.6378 49.5308 40.5194 49.547 40.4191 49.604C40.3187 49.661 40.2442 49.7544 40.2109 49.8648C40.1132 50.1535 40.1256 50.4681 40.2457 50.7482C40.3042 50.9014 40.4033 51.0359 40.5324 51.137C40.6615 51.2382 40.8157 51.3023 40.9785 51.3225C41.789 51.4525 42.4091 50.9242 42.9489 50.3948C43.4321 49.9202 43.9651 49.4134 44.2665 48.7984C44.5803 48.1305 44.6798 47.3818 44.5515 46.6551C44.3123 45.2628 43.2541 44.2185 42.0004 43.6666C41.2264 43.3552 40.386 43.245 39.5579 43.3464C38.7623 43.4038 37.9822 43.596 37.251 43.9149C36.8362 44.109 36.4386 44.338 36.0626 44.5996C35.6791 44.8356 35.3406 45.138 35.063 45.4926C34.9466 45.6598 34.8707 45.8518 34.8413 46.0535C34.812 46.2551 34.83 46.4608 34.894 46.6542C34.9769 46.8703 35.1226 47.0565 35.3124 47.189C35.5021 47.3215 35.7272 47.3941 35.9586 47.3975C36.521 47.3784 36.5236 46.5021 35.9586 46.5213V46.5215Z" fill="#211715"/>
<path d="M36.8729 51.4412C37.3529 53.7997 37.833 56.1582 38.2932 58.5208C38.325 58.6322 38.3993 58.7266 38.5001 58.7838C38.6009 58.841 38.72 58.8564 38.832 58.8267C38.9428 58.7938 39.0365 58.7193 39.0935 58.6189C39.1506 58.5184 39.1666 58.3998 39.1382 58.2878C38.6778 55.9253 38.1979 53.5668 37.7179 51.2083C37.6871 51.0962 37.6129 51.001 37.5118 50.9436C37.4108 50.8862 37.291 50.8713 37.179 50.9022C37.0669 50.9331 36.9717 51.0073 36.9143 51.1083C36.8569 51.2094 36.842 51.3292 36.8729 51.4412Z" fill="#211715"/>
<path d="M21.628 58.5207C22.1778 55.7202 22.7517 52.9247 23.316 50.1273C23.4499 49.4621 23.5829 48.7969 23.7152 48.1315C23.7432 48.0196 23.727 47.9012 23.6701 47.8008C23.6131 47.7005 23.5197 47.6259 23.4093 47.5925C23.2973 47.5627 23.178 47.5781 23.0772 47.6353C22.9764 47.6925 22.9021 47.787 22.8702 47.8984C22.345 50.5554 21.7967 53.2076 21.2638 55.863C21.1018 56.6709 20.9414 57.4792 20.7824 58.2878C20.7545 58.3997 20.7707 58.5181 20.8276 58.6184C20.8846 58.7187 20.9779 58.7933 21.0884 58.8266C21.2004 58.8564 21.3196 58.8411 21.4204 58.7839C21.5212 58.7266 21.5955 58.6321 21.6273 58.5207H21.628Z" fill="#211715"/>
<path d="M25.6938 47.7029H35.0838C35.6475 47.7029 35.6485 46.8267 35.0838 46.8267H25.6938C25.1299 46.8267 25.129 47.7029 25.6938 47.7029Z" fill="#211715"/>
<path d="M19.5189 56.8531C18.8739 56.7787 18.2306 56.6883 17.589 56.5821L17.8508 57.2257C18.9086 55.3141 19.9662 53.4022 21.0235 51.4901C21.2962 50.9961 20.5397 50.5534 20.267 51.0478C19.2113 52.9609 18.1537 54.8727 17.0943 56.7834C16.97 57.0081 17.0668 57.3794 17.3561 57.4271C18.0741 57.5452 18.7951 57.646 19.5189 57.7294C19.6349 57.7287 19.746 57.6823 19.828 57.6003C19.91 57.5183 19.9564 57.4073 19.9571 57.2913C19.9544 57.1759 19.9074 57.066 19.8258 56.9844C19.7442 56.9028 19.6343 56.8558 19.5189 56.8531Z" fill="#211715"/>
<path d="M23.6427 43.4514C22.7157 41.7945 21.6869 39.9247 21.299 39.3088C21.2475 39.2002 21.1625 39.1109 21.0565 39.0542C20.9504 38.9975 20.829 38.9763 20.7101 38.9937C20.4915 39.0329 20.2905 39.1387 20.1345 39.2968C20.0568 39.3864 20.0109 39.4993 20.0039 39.6177C19.9968 39.7362 20.0291 39.8537 20.0956 39.9519C21.2964 41.8687 22.4304 43.7007 22.9823 44.6191C23.52 45.5136 25.0062 47.9572 25.7104 49.0809C25.7746 49.1819 25.8753 49.2542 25.9915 49.2826C26.1077 49.3111 26.2304 49.2935 26.3339 49.2336C26.4374 49.1736 26.5138 49.076 26.547 48.9611C26.5802 48.8461 26.5676 48.7228 26.512 48.6169C25.9467 47.5568 24.8247 45.5638 23.6427 43.4514Z" fill="#211715"/>
<path d="M23.7943 43.2084C23.5181 43.0189 23.2122 42.877 22.8892 42.7885C22.6487 42.7214 22.4005 42.6849 22.1508 42.6799C21.833 42.6865 21.516 42.7133 21.2016 42.7603C20.6075 42.8387 20.008 42.8674 19.4091 42.8459C19.0908 42.8265 18.5877 42.8347 18.3255 43.0153C17.913 43.2834 17.554 43.6259 17.2668 44.0253C16.8008 44.7102 16.4406 45.4613 16.1983 46.2535C16.0943 46.556 16.1253 47.1761 16.3882 47.3583C16.9274 47.7312 18.1879 49.0779 18.9194 49.4108C19.2002 49.5419 19.5042 49.6159 19.8138 49.6284C20.2045 49.6306 20.6901 49.4229 20.6802 48.783C20.9331 48.9895 21.2557 49.0911 21.5813 49.0667C21.77 49.0614 21.9546 49.0101 22.1191 48.9172C22.2505 48.8131 22.3545 48.6785 22.4221 48.5251C22.4897 48.3716 22.5189 48.204 22.5072 48.0368L22.5009 47.9718C22.5628 48.022 22.6265 48.0722 22.6915 48.1231C22.8935 48.2617 23.1346 48.332 23.3794 48.3236C23.6242 48.3151 23.8599 48.2285 24.0519 48.0764C24.2313 47.8939 24.4551 47.3238 24.3023 46.922L24.2808 46.8701C24.3197 46.9054 24.3604 46.9402 24.4015 46.9753C24.5836 47.1159 24.7983 47.2083 25.0256 47.2442C25.1366 47.2704 25.2519 47.2738 25.3643 47.2541C25.4767 47.2344 25.5839 47.1921 25.6795 47.1297C25.8069 47.0204 25.9003 46.8768 25.9487 46.716C25.997 46.5552 25.9982 46.3839 25.9522 46.2225C25.8549 45.9012 25.6959 45.6021 25.484 45.3418C25.0824 44.7785 24.2863 43.6586 23.7947 43.2091" fill="white"/>
<path d="M19.1204 47.9634C19.4345 48.2865 19.7649 48.5933 20.1103 48.8827C20.4154 49.1383 20.7257 49.3924 21.1277 49.4656C21.3422 49.5159 21.5646 49.5233 21.782 49.4873C21.9994 49.4514 22.2076 49.3728 22.3945 49.2561C22.5778 49.1121 22.7235 48.926 22.8193 48.7136C22.9151 48.5012 22.9581 48.2687 22.9447 48.0361C22.9421 47.9207 22.8951 47.8108 22.8135 47.7292C22.7319 47.6476 22.622 47.6006 22.5066 47.598C22.3907 47.5989 22.2798 47.6454 22.1979 47.7273C22.1159 47.8093 22.0695 47.9202 22.0685 48.0361C22.0711 48.0753 22.0716 48.1133 22.0707 48.1526C22.0698 48.1918 22.0811 48.1325 22.0649 48.2002C22.0555 48.2389 22.0457 48.2769 22.0333 48.3147C22.0274 48.3329 21.9915 48.4109 22.0159 48.3612C21.996 48.4017 21.9732 48.4392 21.95 48.4779C21.9343 48.5038 21.9135 48.5239 21.9438 48.489C21.931 48.5034 21.8438 48.5775 21.9256 48.5202C21.9042 48.5345 21.8822 48.5476 21.8595 48.5596C21.7748 48.6078 21.8885 48.5596 21.7898 48.5876C21.7584 48.5963 21.7268 48.6045 21.6956 48.6139C21.6419 48.6273 21.5864 48.632 21.5313 48.6277C21.4842 48.6277 21.4378 48.6237 21.3909 48.6221C21.3562 48.621 21.3328 48.617 21.3814 48.6239C21.3116 48.6128 21.2429 48.596 21.1758 48.5735C21.1151 48.5543 21.2596 48.6221 21.1591 48.5668C21.1304 48.5511 21.1012 48.5365 21.0729 48.5198C21.0223 48.4901 20.9451 48.437 20.9194 48.4178C20.821 48.3439 20.6704 48.2135 20.5565 48.115C20.2733 47.87 20.0024 47.6118 19.741 47.3437C19.7003 47.303 19.652 47.2707 19.5989 47.2487C19.5457 47.2267 19.4887 47.2153 19.4311 47.2153C19.3736 47.2153 19.3166 47.2267 19.2634 47.2487C19.2103 47.2707 19.162 47.303 19.1213 47.3437C19.0806 47.3844 19.0483 47.4327 19.0263 47.4859C19.0043 47.539 18.9929 47.596 18.9929 47.6536C18.9929 47.7111 19.0043 47.7681 19.0263 47.8213C19.0483 47.8744 19.0806 47.9227 19.1213 47.9634H19.1204Z" fill="#211715"/>
<path d="M20.4371 46.763C20.8586 47.1513 21.2848 47.5346 21.7248 47.9021C22.1092 48.223 22.5152 48.648 23.0269 48.7343C23.4874 48.8119 24.0491 48.7184 24.3821 48.363C24.5637 48.1519 24.69 47.8991 24.7497 47.6271C24.8094 47.3552 24.8007 47.0727 24.7242 46.805C24.691 46.6944 24.6164 46.6009 24.516 46.5439C24.4156 46.4869 24.2971 46.4708 24.1851 46.499C24.0738 46.5309 23.9793 46.6052 23.9221 46.706C23.8649 46.8067 23.8495 46.9259 23.8792 47.0379C23.9328 47.1929 23.9275 47.3623 23.8642 47.5136C23.8469 47.5836 23.818 47.6501 23.7786 47.7104C23.7722 47.7212 23.7103 47.8086 23.7494 47.7602C23.799 47.6987 23.674 47.8283 23.7383 47.7732C23.7855 47.7325 23.6937 47.7982 23.6808 47.8062C23.664 47.8157 23.647 47.8245 23.6296 47.8323C23.6662 47.8176 23.6697 47.8158 23.6402 47.8269C23.5643 47.8552 23.4855 47.8752 23.4053 47.8866C23.4783 47.8778 23.3491 47.8866 23.335 47.8866C23.287 47.8878 23.239 47.8855 23.1913 47.8796C23.253 47.8886 23.115 47.857 23.1172 47.8577C23.0123 47.8276 23.1373 47.8783 23.0393 47.8272C22.8853 47.7312 22.7404 47.6212 22.6066 47.4986C22.4503 47.3716 22.2953 47.2426 22.1417 47.1116C21.773 46.7971 21.4132 46.4727 21.0566 46.1441C20.6424 45.7626 20.0212 46.3815 20.4371 46.7637V46.763Z" fill="#211715"/>
<path d="M20.2502 48.8147C20.2491 48.8721 20.236 48.9287 20.2116 48.9807C20.1873 49.0327 20.1523 49.079 20.1089 49.1166C20.0269 49.166 19.9327 49.1913 19.8371 49.1897C19.5001 49.1797 19.1723 49.0773 18.8896 48.8936C18.3336 48.5423 17.8586 48.0599 17.3736 47.6199C17.1531 47.42 16.9322 47.2196 16.6936 47.0414C16.6753 47.0274 16.6545 47.0135 16.6359 46.9987C16.7049 47.0535 16.6397 47.004 16.6341 46.9912C16.6465 47.0199 16.6167 46.9312 16.6091 46.898C16.5792 46.7658 16.572 46.6296 16.5875 46.4951C16.6693 46.1502 16.7897 45.8157 16.9464 45.4978C17.1068 45.132 17.2967 44.7798 17.5142 44.4447C17.7358 44.0955 18.0174 43.7882 18.346 43.5371C18.4672 43.4291 18.6119 43.351 18.7686 43.3089C18.9427 43.2777 19.1199 43.2674 19.2964 43.2784C20.0624 43.2869 20.8282 43.2442 21.5886 43.1506C22.2898 43.0802 23.1364 43.14 23.6549 43.6868C24.1223 44.2071 24.5535 44.7588 24.9455 45.3381C25.1707 45.6528 25.5024 46.01 25.54 46.4096C25.5791 46.8259 25.2441 46.8739 24.9194 46.7642C24.7067 46.6674 24.5155 46.5294 24.3568 46.358C24.1598 46.1849 23.9652 46.0095 23.7708 45.8333C23.3509 45.4529 22.9322 45.0714 22.5019 44.7026C22.4183 44.6232 22.3074 44.5788 22.1921 44.5788C22.0768 44.5788 21.9659 44.6232 21.8823 44.7026C21.8011 44.7853 21.7556 44.8965 21.7556 45.0124C21.7556 45.1283 21.8011 45.2396 21.8823 45.3222C22.3334 45.7088 22.7717 46.1095 23.2122 46.5088C23.616 46.8739 24.0315 47.3485 24.543 47.5555C25.0278 47.7516 25.6299 47.7813 26.0375 47.4003C26.2177 47.2122 26.3409 46.977 26.3929 46.7217C26.4449 46.4665 26.4235 46.2018 26.3312 45.9582C26.153 45.5336 25.9135 45.1375 25.6204 44.7824C25.3604 44.4208 25.0954 44.0628 24.8201 43.7127C24.5865 43.3715 24.304 43.0666 23.9816 42.8078C23.612 42.5615 23.1965 42.3924 22.76 42.3105C22.4741 42.2534 22.182 42.2333 21.8909 42.2507C21.7611 42.258 21.6317 42.2689 21.5025 42.2841C21.4305 42.2919 21.3588 42.3009 21.2872 42.3102C21.3192 42.306 21.0006 42.3467 21.1207 42.3326C20.6807 42.3871 20.2378 42.4154 19.7944 42.4175C19.336 42.4175 18.8604 42.3509 18.4147 42.496C17.9424 42.6499 17.5034 43.0586 17.1805 43.4261C16.5246 44.1725 16.1208 45.1307 15.802 46.0601C15.6675 46.4475 15.6686 46.8691 15.805 47.2559C15.8813 47.4578 16.0168 47.6319 16.1938 47.7554C16.2566 47.8025 16.2053 47.7625 16.1938 47.753C16.2268 47.7782 16.2588 47.805 16.2909 47.8315C16.3584 47.8874 16.4245 47.9449 16.4904 48.0026C17.1511 48.5834 17.7787 49.2709 18.5483 49.7108C19.0202 49.9966 19.5762 50.1109 20.1226 50.0347C20.3671 49.9913 20.592 49.8731 20.7664 49.6963C20.9407 49.5195 21.0558 49.2929 21.0957 49.0478C21.123 48.9359 21.1065 48.8179 21.0496 48.7177C20.9928 48.6175 20.8998 48.5429 20.7898 48.5089C20.6777 48.4787 20.5582 48.4938 20.4572 48.551C20.3562 48.6083 20.2818 48.703 20.2502 48.8147Z" fill="#211715"/>
<path d="M21.2055 58.8425H38.7153C39.2792 58.8425 39.2801 57.9663 38.7153 57.9663H21.2055C20.6416 57.9663 20.6407 58.8425 21.2055 58.8425Z" fill="#211715"/>
</svg>
