<svg width="34" height="34" viewBox="0 0 34 34" fill="none" xmlns="http://www.w3.org/2000/svg">
<path d="M28.2858 10.2527L21.9747 5.67012C21.7413 5.50067 21.4148 5.55246 21.2452 5.78587C21.0757 6.01927 21.1276 6.34589 21.361 6.51541L27.6722 11.0979C27.7649 11.1652 27.8721 11.1976 27.9786 11.1976C28.14 11.1976 28.2994 11.1229 28.4016 10.9822C28.5712 10.7488 28.5193 10.4222 28.2858 10.2527Z" fill="#244393"/>
<path d="M12.7409 7.746C12.6957 7.46113 12.428 7.26651 12.1432 7.31202L4.44026 8.5344C4.15539 8.57959 3.96109 8.84722 4.00628 9.13208C4.04711 9.38927 4.26908 9.5726 4.52145 9.5726C4.54867 9.5726 4.57628 9.57049 4.60396 9.56606L12.3069 8.34368C12.5919 8.29849 12.7862 8.03093 12.7409 7.746Z" fill="#244393"/>
<path d="M33.6091 8.61015L21.8884 0.0996667C21.7764 0.018342 21.6367 -0.0153506 21.4997 0.00651657C21.3629 0.0282516 21.2403 0.103366 21.1589 0.215411L16.0474 7.25505L15.3437 2.82024C15.322 2.68343 15.2468 2.56088 15.1347 2.47942C15.0226 2.39796 14.8827 2.3646 14.746 2.38627L0.4405 4.65642C0.155632 4.70161 -0.038662 4.96924 0.00652574 5.25404L2.80043 22.8609C2.82217 22.9977 2.89728 23.1203 3.00933 23.2018C3.09911 23.267 3.2066 23.3014 3.3162 23.3014C3.34341 23.3014 3.37076 23.2992 3.39805 23.2949L6.68519 22.7733V28.3772C6.68519 28.6656 6.91906 28.8995 7.20749 28.8995H21.6921C21.9806 28.8995 22.2144 28.6656 22.2144 28.3772V26.9044C22.5727 26.6987 22.9111 26.4611 23.2254 26.1923L24.5268 27.4938L24.1083 27.9123C23.9044 28.1162 23.9044 28.447 24.1083 28.651L28.8354 33.3781C28.9374 33.4801 29.0711 33.5311 29.2048 33.5311C29.3384 33.5311 29.4722 33.4801 29.5742 33.3781L31.1499 31.8023C31.2478 31.7044 31.3029 31.5716 31.3029 31.4331C31.3029 31.2945 31.2478 31.1617 31.1499 31.0638L26.4227 26.3366C26.3247 26.2386 26.1919 26.1836 26.0533 26.1836C25.9148 26.1836 25.782 26.2386 25.684 26.3366L25.2655 26.7551L23.9641 25.4537C24.9947 24.2506 25.5569 22.7361 25.5569 21.1349C25.5569 20.9636 25.5498 20.7901 25.5364 20.6169L33.725 9.33956C33.8945 9.10616 33.8426 8.77954 33.6091 8.61015ZM26.0533 27.4446L30.0418 31.4332L29.2047 32.2703L25.2163 28.2817L26.0533 27.4446ZM6.68526 10.55V12.6905L5.13877 12.936C4.8539 12.9811 4.65961 13.2488 4.70479 13.5336C4.74562 13.7908 4.9676 13.9741 5.21996 13.9741C5.24718 13.9741 5.27479 13.972 5.30247 13.9676L6.68526 13.7482V17.2032L5.83719 17.3377C5.55233 17.3828 5.35803 17.6505 5.40322 17.9353C5.44405 18.1925 5.66602 18.3759 5.91839 18.3759C5.94561 18.3759 5.97322 18.3737 6.0009 18.3693L6.68526 18.2608V21.7157L3.75017 22.1815L1.12003 5.60623L14.394 3.49984L15.1796 8.45034L14.0342 10.0277H7.20749C6.91906 10.0278 6.68526 10.2616 6.68526 10.55ZM21.1698 27.855H7.72979V22.1616V17.6491V13.1366V11.0724H14.2995C14.2997 11.0724 14.2998 11.0725 14.2999 11.0725C14.3001 11.0725 14.3003 11.0724 14.3004 11.0724H16.0414H20.2203C20.2204 11.0724 20.2206 11.0725 20.2207 11.0725C20.2209 11.0725 20.2211 11.0724 20.2214 11.0724H21.1697V11.6181V14.8803C20.4478 14.6177 19.6897 14.4847 18.9065 14.4847C18.7606 14.4847 18.6153 14.49 18.4708 14.4994C18.4318 14.4902 18.3913 14.4847 18.3494 14.4847H10.5501C10.2616 14.4847 10.0278 14.7186 10.0278 15.007C10.0278 15.2954 10.2616 15.5293 10.5501 15.5293H15.3277C14.7634 15.8901 14.2502 16.3381 13.8088 16.8646C13.2879 17.4856 12.8921 18.1829 12.628 18.9415H10.5501C10.2617 18.9415 10.0278 19.1754 10.0278 19.4638C10.0278 19.7522 10.2617 19.9861 10.5501 19.9861H12.3561C12.2898 20.3648 12.2563 20.7493 12.2563 21.1351C12.2563 21.919 12.3891 22.6771 12.6512 23.3984H10.5502C10.2618 23.3984 10.0279 23.6322 10.0279 23.9207C10.0279 24.2091 10.2618 24.443 10.5502 24.443H13.137C14.3228 26.5126 16.5043 27.7855 18.9067 27.7855C19.6905 27.7855 20.4486 27.6527 21.1699 27.3906V27.855H21.1698ZM22.8705 25.0988L22.8703 25.099C22.4536 25.5158 21.9771 25.8625 21.4544 26.1297C20.6613 26.5351 19.8041 26.7407 18.9066 26.7407C16.79 26.7407 14.8761 25.569 13.9118 23.6827C13.9117 23.6826 13.9117 23.6824 13.9116 23.6823C13.5063 22.8893 13.3008 22.0323 13.3008 21.1349C13.3008 20.6173 13.3721 20.1028 13.5128 19.6059C13.7291 18.842 14.098 18.1454 14.6094 17.5357C15.6786 16.2605 17.2449 15.5292 18.9067 15.5292C19.8031 15.5292 20.6604 15.735 21.4544 16.1411C23.1452 17.0058 24.2762 18.6446 24.4793 20.525C24.4794 20.5253 24.4794 20.5257 24.4794 20.5261C24.5013 20.7292 24.5125 20.934 24.5125 21.1349C24.5124 22.6324 23.9293 24.04 22.8705 25.0988ZM25.2721 19.203C24.7858 17.5917 23.701 16.2185 22.2144 15.3662V12.6428L25.0535 14.7042C25.1462 14.7715 25.2535 14.8039 25.3599 14.8039C25.5214 14.8039 25.6807 14.7292 25.783 14.5885C25.9525 14.3551 25.9006 14.0284 25.6672 13.8589L22.2144 11.3519V10.5501C22.2144 10.2617 21.9806 10.0278 21.6921 10.0278H20.3909L19.3561 9.27641C19.1226 9.10695 18.796 9.15868 18.6265 9.39215C18.4844 9.58783 18.4983 9.84865 18.6439 10.0278H16.0413H15.325L16.1517 8.88927C16.1517 8.88927 16.1518 8.88914 16.1519 8.88901L21.6973 1.25182L32.5728 9.14851L25.2721 19.203Z" fill="#244393"/>
<path d="M18.9069 16.7131C16.4686 16.7131 14.4849 18.6968 14.4849 21.1351C14.4849 23.5734 16.4686 25.5571 18.9069 25.5571C21.3451 25.5571 23.3288 23.5734 23.3288 21.1351C23.3288 18.6968 21.3451 16.7131 18.9069 16.7131ZM18.9069 24.5125C17.0445 24.5125 15.5295 22.9974 15.5295 21.1351C15.5295 19.2728 17.0446 17.7577 18.9069 17.7577C20.7692 17.7577 22.2842 19.2728 22.2842 21.1351C22.2842 22.9974 20.7691 24.5125 18.9069 24.5125Z" fill="#244393"/>
<path d="M20.3902 21.0443C20.1861 20.8404 19.8555 20.8404 19.6514 21.0443L18.2587 22.4371C18.0547 22.641 18.0547 22.9717 18.2587 23.1757C18.3607 23.2776 18.4944 23.3287 18.628 23.3287C18.7617 23.3287 18.8954 23.2777 18.9974 23.1757L20.3902 21.7829C20.5942 21.5789 20.5942 21.2482 20.3902 21.0443Z" fill="#244393"/>
<path d="M19.8331 18.8159C19.6291 18.612 19.2984 18.612 19.0944 18.8159L17.5624 20.3479C17.3584 20.5519 17.3584 20.8826 17.5624 21.0865C17.6644 21.1885 17.7981 21.2395 17.9317 21.2395C18.0654 21.2395 18.1991 21.1885 18.3011 21.0865L19.8331 19.5545C20.0371 19.3505 20.0371 19.0198 19.8331 18.8159Z" fill="#244393"/>
</svg>
