<svg width="30" height="30" viewBox="0 0 30 30" fill="none" xmlns="http://www.w3.org/2000/svg">
<path d="M28.125 5.625H25.3125V0.9375C25.3125 0.419531 24.893 0 24.375 0H5.625C5.10703 0 4.6875 0.419531 4.6875 0.9375V5.625H1.875C0.838594 5.625 0 6.46359 0 7.5V22.5C0 23.5364 0.838594 24.375 1.875 24.375H4.6875V29.0625C4.6875 29.5805 5.10703 30 5.625 30H24.375C24.893 30 25.3125 29.5805 25.3125 29.0625V24.375H28.125C29.1614 24.375 30 23.5364 30 22.5V7.5C30 6.46359 29.1614 5.625 28.125 5.625ZM5.625 1.40625C5.625 1.14703 5.83453 0.9375 6.09375 0.9375H23.9062C24.1655 0.9375 24.375 1.14703 24.375 1.40625V5.625H5.625V1.40625ZM24.375 28.5938C24.375 28.853 24.1655 29.0625 23.9062 29.0625H6.09375C5.83453 29.0625 5.625 28.853 5.625 28.5938V17.3438C5.625 17.0845 5.83453 16.875 6.09375 16.875H23.9062C24.1655 16.875 24.375 17.0845 24.375 17.3438V28.5938ZM29.0625 22.5C29.0625 23.0175 28.6425 23.4375 28.125 23.4375H25.3125V16.875C25.3125 16.357 24.893 15.9375 24.375 15.9375H5.625C5.10703 15.9375 4.6875 16.357 4.6875 16.875V23.4375H1.875C1.3575 23.4375 0.9375 23.0175 0.9375 22.5V7.5C0.9375 6.9825 1.3575 6.5625 1.875 6.5625H28.125C28.6425 6.5625 29.0625 6.9825 29.0625 7.5V22.5Z" fill="#244393"/>
<path d="M8.90625 20.625H14.5312C14.7905 20.625 15 20.4155 15 20.1562C15 19.897 14.7905 19.6875 14.5312 19.6875H8.90625C8.64703 19.6875 8.4375 19.897 8.4375 20.1562C8.4375 20.4155 8.64703 20.625 8.90625 20.625Z" fill="#244393"/>
<path d="M21.0938 22.5H8.90625C8.64703 22.5 8.4375 22.7095 8.4375 22.9688C8.4375 23.228 8.64703 23.4375 8.90625 23.4375H21.0938C21.353 23.4375 21.5625 23.228 21.5625 22.9688C21.5625 22.7095 21.353 22.5 21.0938 22.5Z" fill="#244393"/>
<path d="M17.8125 25.3125H8.90625C8.64703 25.3125 8.4375 25.522 8.4375 25.7812C8.4375 26.0405 8.64703 26.25 8.90625 26.25H17.8125C18.0717 26.25 18.2812 26.0405 18.2812 25.7812C18.2812 25.522 18.0717 25.3125 17.8125 25.3125Z" fill="#244393"/>
<path d="M25.7812 8.4375C25.0045 8.4375 24.375 9.06703 24.375 9.84375C24.375 10.6205 25.0045 11.25 25.7812 11.25C26.558 11.25 27.1875 10.6205 27.1875 9.84375C27.1875 9.06703 26.558 8.4375 25.7812 8.4375ZM25.7812 10.3125C25.522 10.3125 25.3125 10.103 25.3125 9.84375C25.3125 9.58453 25.522 9.375 25.7812 9.375C26.0405 9.375 26.25 9.58453 26.25 9.84375C26.25 10.103 26.0405 10.3125 25.7812 10.3125Z" fill="#244393"/>
<path d="M21.0938 8.4375C20.317 8.4375 19.6875 9.06703 19.6875 9.84375C19.6875 10.6205 20.317 11.25 21.0938 11.25C21.8705 11.25 22.5 10.6205 22.5 9.84375C22.5 9.06703 21.8705 8.4375 21.0938 8.4375ZM21.0938 10.3125C20.8345 10.3125 20.625 10.103 20.625 9.84375C20.625 9.58453 20.8345 9.375 21.0938 9.375C21.353 9.375 21.5625 9.58453 21.5625 9.84375C21.5625 10.103 21.353 10.3125 21.0938 10.3125Z" fill="#244393"/>
</svg>
