<svg width="31" height="31" viewBox="0 0 31 31" fill="none" xmlns="http://www.w3.org/2000/svg">
<path d="M28.5 6H27.746C26.877 4.91 22.57 0 15.5 0C8.43 0 4.123 4.91 3.254 6H2.5C1.1215 6 0 7.1215 0 8.5V24.5C0 25.8785 1.1215 27 2.5 27H9.5V30H6.5V31H24.5V30H21.5V27H28.5C29.8785 27 31 25.8785 31 24.5V8.5C31 7.1215 29.8785 6 28.5 6ZM15.5 1C21.8025 1 25.8665 5.32 26.8595 6.5005C25.869 7.682 21.8165 12 15.5 12C9.1975 12 5.1335 7.68 4.1405 6.4995C5.131 5.318 9.1835 1 15.5 1ZM22.064 18.433C22.725 19.382 23.164 20.4435 23.368 21.588L23.441 22H25.5V23H21C21 19.9675 18.5325 17.5 15.5 17.5C12.4675 17.5 10 19.9675 10 23H5.5V22H7.559L7.632 21.588C7.836 20.444 8.275 19.3825 8.936 18.433L9.1755 18.0895L7.7215 16.636L9.136 15.2215L10.5895 16.6755L10.933 16.436C11.882 15.775 12.9435 15.336 14.088 15.132L14.5 15.059V13H16.5V15.059L16.912 15.132C18.056 15.336 19.1175 15.775 20.067 16.436L20.4105 16.6755L21.864 15.2215L23.2785 16.636L21.8245 18.0895L22.064 18.433ZM20 23H11C11 20.5185 13.0185 18.5 15.5 18.5C17.9815 18.5 20 20.5185 20 23ZM1 8.5C1 7.673 1.673 7 2.5 7H3.254C4.0375 7.983 7.6185 12.071 13.5 12.8645V14.231C12.506 14.4555 11.5715 14.8425 10.712 15.384L9.1365 13.808L6.308 16.6365L7.884 18.212C7.3425 19.0715 6.956 20.006 6.731 21H4.5V23H1V8.5ZM20.5 30H10.5V27H20.5V30ZM30 24.5C30 25.327 29.327 26 28.5 26H2.5C1.673 26 1 25.327 1 24.5V24H30V24.5ZM30 23H26.5V21H24.269C24.0445 20.006 23.6575 19.0715 23.116 18.212L24.692 16.6365L21.8635 13.808L20.288 15.384C19.4285 14.8425 18.494 14.456 17.5 14.231V12.8645C23.3815 12.071 26.9625 7.983 27.746 7H28.5C29.327 7 30 7.673 30 8.5V23Z" fill="#244393"/>
<path d="M16 21H15V22H16V21Z" fill="#244393"/>
<path d="M18 21H17V22H18V21Z" fill="#244393"/>
<path d="M14 21H13V22H14V21Z" fill="#244393"/>
<path d="M15.5 11C17.9815 11 20 8.9815 20 6.5C20 4.0185 17.9815 2 15.5 2C13.0185 2 11 4.0185 11 6.5C11 8.9815 13.0185 11 15.5 11ZM15.5 3C17.4295 3 19 4.5705 19 6.5C19 8.4295 17.4295 10 15.5 10C13.5705 10 12 8.4295 12 6.5C12 4.5705 13.5705 3 15.5 3Z" fill="#244393"/>
<path d="M15.5 8.5C16.603 8.5 17.5 7.603 17.5 6.5C17.5 5.397 16.603 4.5 15.5 4.5C14.397 4.5 13.5 5.397 13.5 6.5C13.5 7.603 14.397 8.5 15.5 8.5ZM15.5 5.5C16.0515 5.5 16.5 5.9485 16.5 6.5C16.5 7.0515 16.0515 7.5 15.5 7.5C14.9485 7.5 14.5 7.0515 14.5 6.5C14.5 5.9485 14.9485 5.5 15.5 5.5Z" fill="#244393"/>
<path d="M22.5 6H21.5V7H22.5V6Z" fill="#244393"/>
<path d="M21.5 3.5H20.5V4.5H21.5V3.5Z" fill="#244393"/>
<path d="M21.5 8.5H20.5V9.5H21.5V8.5Z" fill="#244393"/>
<path d="M9.5 6H8.5V7H9.5V6Z" fill="#244393"/>
<path d="M10.5 3.5H9.5V4.5H10.5V3.5Z" fill="#244393"/>
<path d="M10.5 8.5H9.5V9.5H10.5V8.5Z" fill="#244393"/>
</svg>
