<svg width="60" height="60" viewBox="0 0 60 60" fill="none" xmlns="http://www.w3.org/2000/svg">
<circle cx="30" cy="30" r="30" fill="#244393"/>
<path d="M24.1153 25.1201C24.1153 25.1201 24.7009 24.853 25.3274 24.5679C24.7874 24.1718 24.2991 23.7098 23.8739 23.1924C23.1796 22.3389 22.6795 21.3444 22.4086 20.278L22.326 20.2987C21.8852 20.409 21.5374 20.187 21.2922 19.9902C20.9847 19.7284 20.7372 19.4035 20.5665 19.0375C20.2043 18.3124 20.0484 17.5016 20.1158 16.6939C20.125 16.4875 20.1776 16.2853 20.2701 16.1006C20.3499 15.9666 20.4588 15.8523 20.5886 15.766C20.7184 15.6796 20.8659 15.6235 21.0203 15.6017C21.1775 15.5788 21.3378 15.59 21.4902 15.6347C21.6427 15.6793 21.7837 15.7563 21.9037 15.8604L22.3596 16.2718C23.794 15.2585 26.0897 13.6228 27.3378 12.696C27.3073 12.8913 27.2313 13.1614 27.1652 13.4275C27.0388 13.9363 26.948 14.4299 27.2776 14.3558C29.3891 13.8998 31.0061 12.7802 32.345 11.4642C32.6193 12.1585 33.0628 13.3605 33.3894 13.8234C33.8471 14.4723 35.1552 16.2391 36.4744 16.5604C36.5639 16.062 37.1187 15.7707 37.6184 15.8453C37.7728 15.8671 37.9204 15.9232 38.0503 16.0095C38.1802 16.0958 38.2891 16.2101 38.369 16.344C38.4613 16.5289 38.5139 16.7311 38.5233 16.9375C38.5906 17.7452 38.4346 18.5559 38.0724 19.2809C37.9016 19.6473 37.6538 19.9726 37.3458 20.2345C37.0887 20.4402 36.6241 20.4249 36.3016 20.4822C36.239 20.7006 36.1749 20.8816 36.1411 20.9842C35.8941 21.6546 34.5315 24.0015 32.8056 24.9241L34.0945 25.2216C34.4929 25.3013 34.8849 25.4102 35.2673 25.5473C36.4853 25.9439 37.6675 26.4428 38.8013 27.0388L38.9618 27.0323C39.783 26.5146 40.3145 25.6454 40.3076 24.8962C40.302 24.115 40.1527 23.3415 39.867 22.6144C39.5036 21.6116 38.801 19.5739 38.7492 15.9358C38.8509 14.8338 38.7456 13.2394 38.7 12.6271C38.5416 10.5062 37.5476 8.13762 36.1171 6.82132C35.4988 6.25214 35.3191 5.98659 34.646 5.6384L33.8917 5.24769L33.5197 5.10385C32.1987 4.58073 30.7877 4.3229 29.3671 4.34507C26.5065 4.34507 23.9603 5.75086 22.8304 6.78274C20.9559 8.49404 19.7668 11.6209 19.9168 15.9326V15.9334C19.9168 18.8547 19.6665 20.9634 19.315 22.16C19.0496 23.1459 18.8978 24.1588 18.8624 25.1791C18.8748 25.7444 19.1009 26.2841 19.4952 26.6894C21.139 26.1124 23.404 25.4446 24.1153 25.1201Z" fill="#AD7B59"/>
<path d="M21.1825 24.2333C21.602 24.7668 22.1367 25.1986 22.7466 25.4964C23.3565 25.7942 24.0259 25.9502 24.7046 25.9528C25.146 25.9586 25.1462 25.2729 24.7046 25.267C23.6074 25.2523 22.4524 24.7762 21.7745 23.8871C21.7267 23.8108 21.6515 23.7556 21.5643 23.7328C21.4772 23.7099 21.3846 23.7212 21.3055 23.7642C21.2274 23.8105 21.1708 23.8857 21.1477 23.9735C21.1247 24.0613 21.1372 24.1546 21.1825 24.2333Z" fill="#211715"/>
<path d="M36.3763 24.3673C36.1214 24.6897 35.7909 24.9443 35.4142 25.1084C35.3316 25.1465 35.2468 25.1798 35.1604 25.2082C35.0576 25.2425 34.952 25.273 34.8458 25.2979C34.6358 25.3489 34.4204 25.3742 34.2043 25.3733C34.1134 25.3733 34.0262 25.4094 33.9619 25.4737C33.8976 25.538 33.8615 25.6252 33.8615 25.7162C33.8615 25.8071 33.8976 25.8943 33.9619 25.9586C34.0262 26.0229 34.1134 26.059 34.2043 26.059C35.1939 26.0462 36.2326 25.6387 36.8616 24.8521C36.9235 24.7866 36.958 24.6998 36.958 24.6097C36.958 24.5196 36.9235 24.4328 36.8616 24.3673C36.797 24.3036 36.7099 24.2678 36.6192 24.2678C36.5285 24.2678 36.4414 24.3036 36.3768 24.3673H36.3763Z" fill="#211715"/>
<path d="M27.1655 13.4274C27.0391 13.9362 26.9483 14.4298 27.2779 14.3558C29.3892 13.8997 31.0064 12.7801 32.3453 11.4641C32.6196 12.1584 33.0631 13.3604 33.3897 13.8233C33.8475 14.4722 35.1555 16.239 36.4747 16.5603C36.5642 16.0619 37.119 15.7706 37.6187 15.8452C37.7731 15.867 37.9206 15.9232 38.0504 16.0095C38.1802 16.0958 38.2891 16.2101 38.369 16.3439C38.4613 16.5288 38.5139 16.731 38.5233 16.9374C38.5906 17.7451 38.4346 18.5558 38.0724 19.2808C37.9016 19.6473 37.6538 19.9725 37.3458 20.2344C37.0887 20.4401 36.6241 20.4248 36.3016 20.4821C36.239 20.7005 36.1749 20.8815 36.1411 20.9842C35.8941 21.6546 34.5315 24.0015 32.8056 24.924L34.0945 25.2215C34.5087 25.2867 34.9178 25.3815 35.3186 25.5051L35.2625 25.5513C33.9066 26.8274 32.0948 27.9647 29.4998 27.9647C26.9548 27.9647 24.5764 26.7989 23.5284 25.5791L23.4283 25.444C23.7974 25.3172 24.0969 25.2062 24.2869 25.1198L25.4977 24.6861C24.8888 24.2671 24.3421 23.7642 23.8739 23.1922C23.1797 22.3386 22.6797 21.3441 22.4088 20.2777L22.3261 20.2985C21.8854 20.4085 21.5375 20.1867 21.2924 19.9899C20.9848 19.7282 20.7372 19.4033 20.5665 19.0374C20.2043 18.3123 20.0484 17.5016 20.1158 16.6938C20.125 16.4874 20.1776 16.2852 20.2701 16.1005C20.3499 15.9666 20.4587 15.8522 20.5886 15.7659C20.7184 15.6796 20.8659 15.6234 21.0203 15.6016C21.1775 15.5787 21.3378 15.5899 21.4902 15.6346C21.6427 15.6792 21.7837 15.7562 21.9037 15.8603L22.3596 16.2717C23.794 15.2584 26.0897 13.6227 27.3378 12.6959C27.3076 12.8912 27.2317 13.1613 27.1655 13.4274Z" fill="white"/>
<path d="M18.9279 48.8829C19.5149 46.9573 20.0553 45.3232 20.3373 44.8353C22.014 44.6523 24.6354 44.4999 26.3121 44.5898C27.5382 44.6554 28.7533 44.857 29.9349 45.1908C33.8492 44.5016 38.3671 44.586 40.1267 44.8287C40.3705 45.5908 42.3632 55.8613 42.6573 57.3283C42.4456 57.2633 42.2221 57.2025 41.987 57.1461C42.0057 57.2489 42.0189 57.3175 42.0189 57.3175C42.0793 57.6719 42.1922 58.2856 42.2401 58.5925C38.514 58.0223 32.571 58.0223 29.8658 58.8224C25.6752 57.527 19.313 57.8318 16.9456 58.5119C17.0906 58.0476 17.3318 57.2858 17.4589 56.9047C17.4589 56.9047 17.4632 56.8875 17.4702 56.8579C17.1503 56.9292 16.8365 57.0256 16.5317 57.1461C16.6188 56.9218 17.8518 52.4128 18.9279 48.8829Z" fill="white"/>
<path d="M20.4854 38.5596C20.3942 38.0598 20.2632 37.568 20.0939 37.0889C20.0407 36.9048 19.9976 36.7179 19.9648 36.5291L19.8962 36.6253C19.3565 37.5396 19.1705 38.1321 18.8359 39.1842C18.5691 40.0224 20.1775 41.8883 20.6454 42.4415C19.7398 42.3512 18.8273 42.5231 18.0167 42.9368C17.5367 43.167 16.1192 44.8824 16.1119 45.2606C14.5736 44.7762 12.1062 41.6947 12.0735 40.0604C12.0442 38.5893 13.8028 34.1926 15.3498 31.3171C16.1943 29.7474 17.1912 27.99 17.9406 27.4311C18.5333 26.9655 21.7066 26.0358 23.4162 25.4482C23.487 25.5316 23.5278 25.5792 23.5278 25.5792C24.5758 26.7997 26.9541 27.9648 29.4991 27.9648C32.0942 27.9648 33.9059 26.8275 35.2618 25.5514L35.3133 25.5036C37.6448 26.2007 40.5171 27.7999 41.2569 28.4217C42.0948 29.1588 45.0581 33.8638 46.309 36.6224C47.1024 38.3723 47.8586 40.0011 47.2762 41.8319C46.9421 42.8821 43.7712 44.9178 42.9712 45.4893C42.1331 44.5749 39.8853 43.1007 38.7043 42.1367C39.4688 41.5156 40.413 40.7146 41.1144 39.7762C41.1556 39.7197 41.1808 39.6533 41.1875 39.5837C41.1942 39.5142 41.1821 39.4441 41.1524 39.3808C40.7818 38.5668 39.8161 37.393 39.225 36.8538L38.8478 36.573C38.8227 36.8208 38.7832 37.067 38.7295 37.3102C38.5282 38.1149 38.322 41.1463 38.2006 42.61C34.7396 42.61 24.0001 42.6166 20.9252 42.6166C20.9252 42.6166 20.8909 42.6166 20.8295 42.6178C20.8492 41.9227 20.8212 41.2271 20.7457 40.5358C20.5924 39.423 20.5447 38.933 20.4854 38.5596Z" fill="white"/>
<path d="M17.7684 27.1352C17.1803 27.5847 16.7584 28.2334 16.3669 28.8518C15.8748 29.6289 15.4312 30.4372 14.9988 31.2486C14.2342 32.6949 13.5516 34.1831 12.9542 35.706C12.4701 36.928 11.9599 38.2111 11.7758 39.5205C11.61 40.6937 12.1826 41.7767 12.8308 42.7192C13.2761 43.3747 13.7931 43.9785 14.3724 44.5193C14.8524 44.9611 15.3938 45.3878 16.0216 45.5923C16.0725 45.6056 16.1257 45.6071 16.1772 45.5967C16.2287 45.5864 16.2773 45.5644 16.3191 45.5326C16.3609 45.5007 16.3949 45.4598 16.4186 45.4128C16.4422 45.3659 16.4549 45.3142 16.4557 45.2616C16.4476 45.3864 16.4444 45.2934 16.4615 45.2644C16.4704 45.2495 16.4996 45.1787 16.4641 45.2548C16.4962 45.1872 16.5319 45.1214 16.571 45.0576C16.6655 44.9004 16.7718 44.7504 16.8812 44.6035C17.1362 44.2615 17.4146 43.9376 17.7144 43.6342C17.7829 43.5656 17.8525 43.497 17.9247 43.4315C17.952 43.4067 17.9799 43.3827 18.0077 43.3583C18.0175 43.3499 18.0895 43.2927 18.0406 43.3297C18.2447 43.1939 18.4684 43.0901 18.7039 43.022C19.3242 42.7931 19.9892 42.7121 20.6463 42.7854C20.972 42.8265 21.0567 42.3985 20.8889 42.2001C20.2921 41.495 19.6374 40.7515 19.2774 39.8913C19.2083 39.7378 19.1655 39.5738 19.1507 39.4062C19.1507 39.389 19.167 39.262 19.1524 39.3357C19.1693 39.266 19.1901 39.1973 19.2148 39.13C19.2719 38.9508 19.329 38.7717 19.3885 38.5934C19.5935 37.9691 19.8635 37.3681 20.1942 36.8003C20.4171 36.4187 19.8253 36.0733 19.6021 36.4542C19.314 36.9439 19.0703 37.4584 18.8738 37.9915C18.7751 38.2605 18.6866 38.5332 18.5995 38.8061C18.5177 39.0083 18.4728 39.2235 18.4668 39.4415C18.5089 39.8474 18.6429 40.2383 18.8587 40.5846C19.0868 40.986 19.3447 41.3696 19.6302 41.7324C19.8793 42.0582 20.14 42.3731 20.4047 42.6858L20.6472 42.1005C19.9016 42.0213 19.1479 42.12 18.4478 42.3883C18.1821 42.4699 17.9289 42.5877 17.6953 42.7384C17.5296 42.8629 17.3741 43.0005 17.2304 43.1499C16.8805 43.508 16.5569 43.8909 16.2621 44.2956C16.0584 44.5725 15.7936 44.9052 15.7708 45.2623L16.2049 44.9318C15.74 44.7453 15.3155 44.4706 14.9549 44.123C14.4672 43.6855 14.0255 43.1994 13.6365 42.6722C13.2558 42.1738 12.934 41.6331 12.6775 41.0607C12.4868 40.6683 12.4012 40.233 12.4289 39.7976C12.4934 39.3068 12.6011 38.8226 12.7509 38.3508C12.9479 37.6801 13.1814 37.0203 13.4303 36.3674C13.9842 34.9151 14.6163 33.4938 15.3238 32.1098C15.7586 31.2593 16.2193 30.4185 16.7125 29.6004C16.9484 29.2092 17.1935 28.8225 17.4641 28.454C17.6485 28.1847 17.8675 27.9409 18.1155 27.7287C18.1919 27.6808 18.2471 27.6057 18.27 27.5185C18.2928 27.4314 18.2815 27.3388 18.2385 27.2596C18.1922 27.1815 18.117 27.1249 18.0292 27.1018C17.9414 27.0788 17.848 27.0914 17.7694 27.1367L17.7684 27.1352Z" fill="#211715"/>
<path d="M38.9826 37.0964C39.3388 37.4316 39.6685 37.7938 39.9687 38.1799C40.3044 38.569 40.5882 38.9999 40.8131 39.4619C40.8564 39.5634 40.8436 39.5685 40.7735 39.6628C40.6792 39.7895 40.5742 39.91 40.4704 40.029C40.2646 40.2639 40.0484 40.4886 39.8244 40.7055C39.391 41.125 38.9296 41.5138 38.462 41.8943C38.3977 41.9586 38.3616 42.0458 38.3616 42.1367C38.3616 42.2276 38.3977 42.3148 38.462 42.3791C39.1991 42.9791 39.9785 43.5248 40.7421 44.0895C41.4278 44.5966 42.147 45.1038 42.7291 45.7317C42.7829 45.785 42.8527 45.8191 42.9278 45.8288C43.0029 45.8385 43.079 45.8232 43.1446 45.7854C44.1162 45.0935 45.1136 44.4429 46.0419 43.6902C46.5291 43.3209 46.9674 42.8914 47.3466 42.4118C47.8009 41.7947 47.8682 40.8938 47.813 40.1555C47.7369 39.1413 47.3747 38.1907 46.973 37.2666C46.6586 36.5444 46.3248 35.8319 45.9605 35.1334C45.2466 33.7645 44.4616 32.4307 43.6349 31.1271C43.2358 30.4974 42.8263 29.8732 42.3901 29.2685C42.1337 28.8746 41.8356 28.5094 41.501 28.1792C41.1726 27.8864 40.6859 28.3697 41.016 28.6641C41.2679 28.9065 41.4931 29.1753 41.6877 29.4657C42.0454 29.9519 42.3821 30.4537 42.7112 30.9596C43.5243 32.2095 44.2887 33.49 45.0045 34.8012C45.3303 35.3999 45.6461 36.005 45.9336 36.6232C46.3347 37.4856 46.7446 38.3623 46.9778 39.2879C47.0969 39.7418 47.1501 40.2105 47.136 40.6796C47.1268 40.9189 47.0951 41.1568 47.0412 41.3901C47.014 41.5087 46.9771 41.6236 46.9454 41.7408C46.9226 41.8248 46.961 41.73 46.9173 41.808C46.6464 42.23 46.3055 42.6027 45.9092 42.91C44.9332 43.7539 43.8463 44.4466 42.798 45.1932L43.2135 45.2469C42.6212 44.6078 41.8873 44.0907 41.1906 43.5737C40.4409 43.0172 39.6713 42.4835 38.9466 41.8936V42.3784C39.4765 41.9566 39.9843 41.5076 40.4678 41.0333C40.7164 40.7864 40.9519 40.5266 41.1734 40.2551C41.3913 39.9855 41.6075 39.7151 41.5045 39.3465C41.4125 39.0886 41.2846 38.845 41.1246 38.6229C40.9648 38.371 40.7899 38.1291 40.608 37.8929C40.2651 37.4342 39.8837 37.0055 39.468 36.6116C39.1438 36.3131 38.6576 36.7967 38.983 37.0966L38.9826 37.0964Z" fill="#211715"/>
<path d="M40.218 44.4983C39.1618 44.3685 38.0984 44.306 37.0343 44.3111C35.539 44.2974 34.0439 44.3604 32.555 44.4997C31.6464 44.5854 30.7421 44.7028 29.8437 44.8597H30.026C27.6047 44.1701 25.1191 44.1554 22.6264 44.3037C22.0549 44.338 21.4845 44.3812 20.9152 44.4335C20.6924 44.4542 20.3097 44.4265 20.1297 44.5653C20.0561 44.6328 19.9994 44.7166 19.9641 44.81C19.7789 45.214 19.6166 45.6282 19.4779 46.0505C19.0138 47.3793 18.6108 48.7299 18.2103 50.0793C17.7762 51.5411 17.356 53.0071 16.9399 54.4743C16.7023 55.3116 16.4599 56.1478 16.224 56.9858C16.2175 57.0093 16.2098 57.0328 16.2012 57.0556C16.1856 57.114 16.1857 57.1754 16.2014 57.2338C16.217 57.2921 16.2478 57.3453 16.2905 57.388C16.3332 57.4308 16.3864 57.4615 16.4448 57.4772C16.5031 57.4929 16.5646 57.4929 16.6229 57.4773C17.2479 57.2432 17.898 57.0832 18.5602 57.0004C19.4214 56.8765 20.2886 56.7992 21.1582 56.769C23.0563 56.6794 24.9585 56.7472 26.8454 56.9716C27.5866 57.0535 28.3199 57.1957 29.038 57.3966C29.1773 57.4377 29.3155 57.4823 29.4515 57.5337C29.5555 57.5723 29.6574 57.6164 29.7566 57.6659C29.8208 57.6965 29.8916 57.7109 29.9626 57.7076C30.0337 57.7044 30.1028 57.6837 30.164 57.6474L30.2415 57.6111C30.2586 57.6028 30.2775 57.5949 30.2955 57.5874C30.2639 57.6008 30.2696 57.5982 30.298 57.5874C30.4331 57.5344 30.5703 57.4871 30.7095 57.4455C31.4604 57.235 32.2296 57.0967 33.0068 57.0325C34.0073 56.9349 35.0122 56.8884 36.0175 56.8931C38.0009 56.8953 40.0306 57.0174 41.9623 57.4931C42.165 57.5432 42.3661 57.5985 42.5656 57.6591C42.6239 57.6739 42.6851 57.6734 42.7432 57.6574C42.8012 57.6415 42.8541 57.6108 42.8966 57.5682C42.9392 57.5256 42.9699 57.4727 42.9858 57.4147C43.0017 57.3566 43.0023 57.2955 42.9874 57.2372C42.6776 55.6911 42.3791 54.1429 42.0739 52.596C41.6675 50.5353 41.2622 48.4744 40.8334 46.4184C40.7172 45.8614 40.6277 45.2814 40.4562 44.7383C40.3241 44.319 39.6618 44.4983 39.795 44.9207C39.939 45.3769 40.0162 45.8616 40.1146 46.3287C40.3059 47.2373 40.4897 48.1484 40.6728 49.059C41.0957 51.164 41.5125 53.2701 41.9232 55.3774C42.057 56.0583 42.1893 56.7396 42.3256 57.4202L42.7473 56.9983C41.0064 56.4688 39.141 56.3037 37.3299 56.2336C35.4877 56.1404 33.6407 56.2298 31.8161 56.5007C31.1077 56.5881 30.4169 56.7835 29.7676 57.0801H30.1156C29.4698 56.782 28.7849 56.5773 28.0813 56.4722C27.1245 56.3032 26.1588 56.1896 25.1888 56.1319C23.1239 55.9787 21.0491 56.0203 18.9919 56.2562C18.1347 56.362 17.2468 56.4892 16.4412 56.817L16.863 57.2387C17.0128 56.8425 17.104 56.4158 17.2192 56.0083C17.4724 55.1138 17.7263 54.2196 17.9811 53.3255C18.588 51.2049 19.1961 49.082 19.8854 46.9864C20.0262 46.5578 20.1703 46.1317 20.3289 45.7102C20.3586 45.6315 20.3886 45.5531 20.4196 45.475C20.4338 45.4395 20.4482 45.4042 20.4626 45.3687C20.4693 45.3515 20.4764 45.3352 20.4834 45.3186C20.4971 45.2852 20.4491 45.3952 20.4812 45.3243C20.5268 45.2167 20.5777 45.1115 20.6339 45.009L20.3378 45.1789C21.6078 45.0417 22.8852 44.9588 24.1619 44.9217C25.5138 44.8605 26.8684 44.9359 28.2051 45.1468C28.5882 45.2137 28.9686 45.294 29.3464 45.3879C29.5239 45.4478 29.7055 45.4945 29.8898 45.5278C30.0855 45.5239 30.28 45.4969 30.4693 45.4474C31.1864 45.3327 31.9078 45.2461 32.631 45.1791C33.9982 45.0524 35.3721 44.9934 36.7455 44.9953C37.3853 44.9953 38.0254 45.0104 38.6644 45.0443C38.9284 45.0584 39.1922 45.0759 39.4556 45.0985C39.5656 45.1081 39.6756 45.1187 39.7856 45.1302C39.836 45.1357 39.8863 45.1414 39.9364 45.1473C39.9634 45.1506 40.0895 45.1669 40.0364 45.1597C40.124 45.1807 40.2164 45.1676 40.2947 45.123C40.373 45.0785 40.4315 45.0058 40.4581 44.9197C40.4815 44.832 40.4694 44.7386 40.4245 44.6597C40.3795 44.5808 40.3053 44.5228 40.218 44.4983Z" fill="#211715"/>
<path d="M29.6417 46.556C29.5694 49.2227 29.6179 51.8961 29.6256 54.5635C29.6268 54.9547 29.6289 55.3461 29.6289 55.7375C29.6289 56.1786 30.3146 56.1795 30.3146 55.7375C30.3146 53.2426 30.2975 50.7487 30.3088 48.2531C30.3114 47.6873 30.3122 47.1216 30.3275 46.5558C30.3395 46.1144 29.6537 46.1149 29.6417 46.556Z" fill="#211715"/>
<path d="M38.7933 32.9932C38.7167 33.9704 38.6598 34.95 38.5713 35.9265C38.5381 36.2936 38.5062 36.6637 38.44 37.0261C38.4018 37.2353 38.3507 37.4407 38.3188 37.6514C38.109 39.0375 38.0289 40.4458 37.9195 41.842C37.894 42.1686 37.8681 42.4952 37.8403 42.8214C37.8305 42.9337 37.8206 43.0462 37.8089 43.1583C37.805 43.1957 37.8002 43.2329 37.7964 43.2703C37.7878 43.355 37.8124 43.1779 37.7942 43.2797C37.7726 43.3673 37.7854 43.46 37.8301 43.5384C37.8747 43.6169 37.9478 43.6752 38.0342 43.7014C38.122 43.7248 38.2154 43.7127 38.2943 43.6678C38.3732 43.6229 38.4314 43.5488 38.4561 43.4614C38.5338 43.027 38.548 42.5763 38.5828 42.1372C38.6399 41.4151 38.6948 40.6929 38.7566 39.9713C38.788 39.6047 38.8211 39.2382 38.858 38.8722C38.8739 38.7139 38.8907 38.5557 38.9085 38.3977C38.9175 38.3184 38.9268 38.2392 38.9365 38.16C38.9409 38.124 38.962 37.9607 38.9571 37.9972C39.0359 37.4193 39.1648 36.8554 39.2243 36.2732C39.3359 35.182 39.3941 34.086 39.4798 32.9926C39.5141 32.5525 38.8283 32.5547 38.794 32.9926L38.7933 32.9932Z" fill="#211715"/>
<path d="M19.2178 32.4983C19.2404 33.3922 19.3164 34.2854 19.4223 35.1727C19.4785 35.8503 19.5926 36.5217 19.7635 37.1798C19.9147 37.6273 20.0398 38.0832 20.1381 38.5453C20.1552 38.6404 20.1689 38.7361 20.1825 38.8317C20.1852 38.852 20.1869 38.8638 20.1972 38.944C20.2075 39.0243 20.2174 39.1038 20.2274 39.1841C20.2778 39.5858 20.3298 39.9873 20.3834 40.3886C20.4584 40.9746 20.4937 41.5651 20.4888 42.1559C20.4687 42.5921 20.4854 43.0292 20.5387 43.4626C20.5634 43.55 20.6215 43.6242 20.7004 43.6691C20.7793 43.714 20.8727 43.7261 20.9604 43.7026C21.0471 43.6768 21.1204 43.6186 21.1651 43.54C21.2099 43.4614 21.2225 43.3686 21.2005 43.2809C21.1654 42.919 21.1569 42.5549 21.1751 42.1918C21.1829 41.6791 21.1597 41.1665 21.1055 40.6567C21.0198 39.948 20.934 39.2358 20.8267 38.5298C20.7547 38.1116 20.6515 37.6994 20.5181 37.2965C20.3434 36.7045 20.2195 36.0987 20.1478 35.4856C20.0149 34.495 19.9337 33.4982 19.9046 32.4992C19.8934 32.0588 19.2075 32.057 19.2188 32.4992L19.2178 32.4983Z" fill="#211715"/>
<path d="M46.8954 42.9477C49.051 42.9477 51.2067 42.9454 53.3625 42.9407C53.7677 42.9407 54.1729 42.9403 54.5782 42.9397C55.0193 42.9397 55.0202 42.2539 54.5782 42.2539C52.6209 42.2539 50.6636 42.2562 48.7063 42.2609C48.1027 42.2609 47.4991 42.2613 46.8954 42.262C46.4543 42.262 46.4534 42.9477 46.8954 42.9477Z" fill="#211715"/>
<path d="M5.33122 42.9477C7.41293 42.9477 9.49465 42.9454 11.5764 42.9407L12.7601 42.9397C13.2014 42.9397 13.2021 42.2539 12.7601 42.2539C10.877 42.2539 8.99365 42.2562 7.11023 42.2609C6.51728 42.2609 5.92428 42.2613 5.33122 42.262C4.88994 42.262 4.88925 42.9477 5.33122 42.9477Z" fill="#211715"/>
<path d="M22.9196 42.9602C24.814 42.9602 26.7084 42.9594 28.6028 42.9578C30.893 42.9565 33.1833 42.9552 35.4737 42.9541C36.4364 42.9541 37.399 42.9541 38.3617 42.9541C38.8028 42.9541 38.8037 42.2683 38.3617 42.2683C36.431 42.2683 34.5002 42.2691 32.5695 42.2707L25.7291 42.2745C24.7925 42.2745 23.8561 42.2745 22.9198 42.2745C22.4785 42.2745 22.4775 42.9602 22.9196 42.9602Z" fill="#211715"/>
<path d="M15.8668 39.6202C15.7509 39.6716 15.8296 39.6356 15.8602 39.6259C15.8841 39.6182 15.9082 39.6118 15.9326 39.606C15.9617 39.5993 15.9912 39.5942 16.0207 39.5888C16.0468 39.5844 16.0943 39.5854 15.9895 39.5926C16.0044 39.5916 16.0192 39.5892 16.0341 39.5876C16.1658 39.5752 16.2982 39.5728 16.4303 39.5804C16.4964 39.5839 16.5625 39.5906 16.6285 39.5976C16.6895 39.6041 16.5621 39.5873 16.605 39.5943C16.6207 39.5969 16.6365 39.599 16.6523 39.6015C16.6831 39.6065 16.7138 39.612 16.7443 39.6187C16.8037 39.6304 16.8623 39.6452 16.9201 39.6631C16.9448 39.6708 16.9689 39.6802 16.9933 39.6883C17.0475 39.708 16.9667 39.674 16.9576 39.673C16.9704 39.6769 16.9826 39.6827 16.9938 39.6902C17.0327 39.7129 17.0756 39.7277 17.1203 39.7338C17.1649 39.7399 17.2103 39.7372 17.2538 39.7258C17.2974 39.7143 17.3382 39.6944 17.3741 39.6672C17.41 39.64 17.4401 39.606 17.4628 39.5671C17.4856 39.5282 17.5004 39.4852 17.5065 39.4406C17.5126 39.396 17.5099 39.3506 17.4984 39.3071C17.487 39.2635 17.4671 39.2226 17.4399 39.1868C17.4127 39.1509 17.3786 39.1207 17.3398 39.098C17.0542 38.9682 16.7448 38.899 16.4311 38.8949C16.1216 38.8666 15.8098 38.9123 15.5215 39.0282C15.4432 39.0744 15.3864 39.1496 15.3633 39.2374C15.3403 39.3253 15.3529 39.4187 15.3984 39.4973C15.4461 39.5739 15.5213 39.6293 15.6085 39.6522C15.6958 39.675 15.7885 39.6637 15.8676 39.6204L15.8668 39.6202Z" fill="#211715"/>
<path d="M41.4111 39.8611C41.4549 39.8317 41.5004 39.8047 41.5472 39.7802C41.571 39.7677 41.5951 39.7559 41.6195 39.7445C41.6334 39.738 41.6476 39.732 41.6615 39.7255C41.7001 39.7084 41.5912 39.7538 41.6315 39.7382C41.7467 39.6924 41.8644 39.6532 41.984 39.6208C42.0984 39.5901 42.2141 39.5673 42.331 39.5481C42.3787 39.5404 42.3007 39.5513 42.2931 39.553C42.3068 39.55 42.3221 39.5494 42.3363 39.5477C42.3613 39.545 42.3864 39.5428 42.4114 39.5409C42.4615 39.5371 42.5117 39.5354 42.5619 39.5366C42.6529 39.5366 42.7401 39.5005 42.8044 39.4362C42.8687 39.3719 42.9048 39.2846 42.9048 39.1937C42.9048 39.1028 42.8687 39.0156 42.8044 38.9513C42.7401 38.887 42.6529 38.8508 42.5619 38.8508C42.3047 38.8515 42.0487 38.8881 41.8016 38.9595C41.5406 39.0217 41.2916 39.1262 41.0644 39.269C40.9859 39.3149 40.9288 39.3901 40.9057 39.4781C40.8827 39.566 40.8955 39.6596 40.9414 39.7381C40.9873 39.8166 41.0625 39.8737 41.1505 39.8968C41.2385 39.9198 41.332 39.907 41.4105 39.8611H41.4111Z" fill="#211715"/>
<path d="M41.6878 57.4098C41.7608 57.8349 41.8421 58.2589 41.9089 58.6849L42.3308 58.2632C40.6265 58.0154 38.9076 57.8798 37.1855 57.8574C35.4714 57.8094 33.7561 57.8796 32.0518 58.0677C31.2821 58.1462 30.5203 58.2884 29.7742 58.4929H29.9566C28.1411 57.9361 26.2234 57.7113 24.3321 57.6223C22.5578 57.5312 20.779 57.5873 19.0139 57.7898C18.2846 57.8636 17.5624 57.995 16.8538 58.1826L17.2757 58.6043C17.4434 58.0676 17.6116 57.5308 17.7888 56.9971C17.9284 56.5774 17.2663 56.3971 17.1276 56.8149C16.9503 57.3485 16.7821 57.8853 16.6145 58.4219C16.5992 58.4803 16.5996 58.5416 16.6153 58.5998C16.6311 58.658 16.6619 58.711 16.7045 58.7537C16.7471 58.7963 16.8002 58.8271 16.8584 58.8429C16.9165 58.8587 16.9779 58.859 17.0362 58.8438C18.3143 58.4802 19.6763 58.3777 20.998 58.3124C22.8039 58.2172 24.6146 58.2719 26.4115 58.4758C27.2961 58.5756 28.1732 58.7333 29.0372 58.9479C29.2284 58.9962 29.4185 59.0482 29.6076 59.1039C29.7175 59.1508 29.8378 59.1681 29.9565 59.1541C30.0367 59.1378 30.1166 59.1084 30.1965 59.0876C30.5105 59.0053 30.8292 58.9403 31.1491 58.8848C32.8181 58.625 34.5062 58.5077 36.1951 58.534C38.1866 58.5135 40.1768 58.644 42.1486 58.9244C42.2068 58.9386 42.2677 58.9375 42.3254 58.9214C42.3831 58.9052 42.4357 58.8745 42.478 58.8321C42.5204 58.7897 42.5511 58.7372 42.5673 58.6795C42.5835 58.6218 42.5845 58.5609 42.5703 58.5027C42.5031 58.0765 42.4222 57.6527 42.3494 57.2275C42.3246 57.1401 42.2665 57.0659 42.1876 57.021C42.1087 56.9761 42.0152 56.9641 41.9275 56.9875C41.8408 57.0133 41.7675 57.0716 41.7227 57.1502C41.678 57.2287 41.6654 57.3216 41.6874 57.4092L41.6878 57.4098Z" fill="#211715"/>
<path d="M35.0204 25.3092C33.9132 26.3466 32.6103 27.1381 31.1148 27.4585C29.3118 27.8165 27.4413 27.5786 25.7853 26.7805C25.0223 26.4421 24.3368 25.9508 23.7713 25.337C23.481 25.0034 22.9978 25.4901 23.2863 25.8218C24.4192 27.1239 26.2311 27.8714 27.8964 28.1621C29.7509 28.5092 31.6681 28.2304 33.347 27.3697C34.1336 26.9433 34.8595 26.4134 35.5052 25.794C35.828 25.4916 35.3423 25.0075 35.0204 25.3092Z" fill="#211715"/>
<path d="M36.977 16.3463C37.3094 16.0667 37.8933 16.1385 38.0887 16.5477C38.1794 16.792 38.2162 17.053 38.1966 17.3128C38.197 17.5835 38.1695 17.8536 38.1144 18.1186C38.0124 18.6486 37.7988 19.1509 37.488 19.5921C37.3712 19.7837 37.2002 19.9365 36.9967 20.0312C36.7529 20.0904 36.5045 20.1282 36.2542 20.1443C36.1667 20.1688 36.0924 20.2269 36.0475 20.3058C36.0025 20.3848 35.9906 20.4783 36.0142 20.566C36.0402 20.6526 36.0985 20.7257 36.177 20.7704C36.2555 20.8151 36.3482 20.8279 36.4359 20.8061C36.7541 20.761 37.0762 20.7563 37.3725 20.6175C37.6806 20.4396 37.9381 20.1858 38.1204 19.8803C38.5226 19.2674 38.7724 18.5673 38.8492 17.8383C38.9259 17.1913 38.943 16.3451 38.4223 15.8668C38.1566 15.6304 37.8137 15.4993 37.4581 15.4983C37.1024 15.4973 36.7587 15.6263 36.4916 15.8611C36.1534 16.1455 36.6406 16.6285 36.9764 16.3461L36.977 16.3463Z" fill="#211715"/>
<path d="M36.1256 19.5295C36.1066 19.8501 36.0467 20.167 35.9475 20.4724C35.9132 20.5859 35.8761 20.6982 35.8386 20.8105C35.8271 20.8448 35.8156 20.8782 35.8043 20.912C35.793 20.9458 35.7674 21.0001 35.7964 20.934C35.6548 21.2474 35.4915 21.5507 35.3077 21.8414C34.7891 22.7152 34.1279 23.4961 33.3515 24.1517C32.9272 24.5129 32.4261 24.7726 31.8863 24.911C31.4566 25.0106 31.6385 25.672 32.0687 25.5722C33.1789 25.3151 34.1007 24.5038 34.8252 23.6603C35.4474 22.9594 35.9669 22.1737 36.3682 21.3267C36.6286 20.7614 36.7793 20.1517 36.8122 19.5301C36.828 19.0886 36.1422 19.0893 36.1264 19.5301L36.1256 19.5295Z" fill="#211715"/>
<path d="M22.1467 15.6178C21.8796 15.3829 21.5359 15.2538 21.1802 15.2549C20.8245 15.2559 20.4815 15.387 20.2158 15.6234C19.6672 16.1275 19.7119 17.0404 19.8044 17.715C19.8979 18.4642 20.1812 19.1772 20.6273 19.7865C21.0571 20.3477 21.6835 20.7841 22.4181 20.6298C22.8496 20.5386 22.667 19.8773 22.2357 19.9685C21.7968 20.0614 21.3896 19.6743 21.1512 19.3491C20.8336 18.897 20.6173 18.3818 20.5169 17.8386C20.4644 17.5733 20.4395 17.3033 20.4424 17.0328C20.4263 16.7854 20.4629 16.5374 20.5499 16.3052C20.7456 15.8958 21.3293 15.8242 21.6617 16.1036C21.9974 16.386 22.4846 15.9032 22.1467 15.6188V15.6178Z" fill="#211715"/>
<path d="M21.7588 18.6286C21.8722 19.7404 22.1623 20.827 22.6183 21.8473C23.2406 23.1538 24.2123 24.2626 25.4259 25.0508C26.047 25.4613 26.7482 25.7351 27.4832 25.854C27.5708 25.8753 27.6633 25.8623 27.7416 25.8177C27.82 25.7731 27.8784 25.7002 27.9049 25.614C27.9284 25.5262 27.9163 25.4328 27.8714 25.3538C27.8265 25.2749 27.7523 25.2168 27.6649 25.1921C26.4184 25.0059 25.3604 24.2878 24.5063 23.3884C23.6367 22.463 23.0198 21.3295 22.7148 20.0968C22.5931 19.6137 22.5025 19.1234 22.4436 18.6288C22.4409 18.5387 22.4039 18.453 22.3401 18.3893C22.2764 18.3256 22.1908 18.2886 22.1007 18.2859C22.0099 18.2864 21.923 18.3227 21.8588 18.3869C21.7946 18.4511 21.7584 18.538 21.7578 18.6288L21.7588 18.6286Z" fill="#211715"/>
<path d="M28.4965 50.1192C28.2588 49.9542 27.9883 49.8425 27.7035 49.7916C27.4186 49.7407 27.1262 49.7519 26.8461 49.8243C26.7584 49.8485 26.6839 49.9065 26.639 49.9856C26.5941 50.0647 26.5824 50.1584 26.6066 50.2461C26.6307 50.3337 26.6887 50.4082 26.7678 50.4532C26.8469 50.4981 26.9406 50.5097 27.0283 50.4856C27.0573 50.4782 27.0862 50.4712 27.1156 50.4652C27.1355 50.461 27.1888 50.4617 27.2039 50.4497C27.1497 50.4567 27.1416 50.458 27.1795 50.4537C27.1943 50.4521 27.2092 50.4509 27.2241 50.4497C27.2539 50.4475 27.2837 50.446 27.3136 50.4454C27.3659 50.4442 27.4182 50.4456 27.4703 50.4496C27.4996 50.4563 27.5296 50.4593 27.5596 50.4585C27.5054 50.4509 27.4972 50.4501 27.5349 50.4559C27.5496 50.4583 27.5644 50.461 27.5791 50.464C27.6378 50.4753 27.6958 50.4898 27.753 50.5073C27.7787 50.5154 27.8934 50.5392 27.9006 50.5605C27.8531 50.5402 27.8464 50.5377 27.8802 50.5528L27.9206 50.5721C27.9474 50.5855 27.9738 50.5994 27.9998 50.6141C28.0517 50.6438 28.1019 50.6762 28.1504 50.7112C28.229 50.7567 28.3224 50.7693 28.4103 50.7463C28.4982 50.7233 28.5734 50.6665 28.6196 50.5882C28.6631 50.5092 28.6746 50.4164 28.6517 50.3292C28.6287 50.2419 28.5732 50.1667 28.4965 50.1192Z" fill="#211715"/>
<path d="M28.0129 53.9039C25.6659 53.35 23.0985 53.2181 20.7456 53.8068C20.317 53.9138 20.4989 54.5754 20.9279 54.4681C23.1605 53.9092 25.6038 54.0395 27.8307 54.5651C28.2593 54.6664 28.443 54.0054 28.0129 53.9039Z" fill="#211715"/>
<path d="M28.1023 52.1079C27.2293 51.6793 26.1805 51.5948 25.2244 51.5433C24.0412 51.4725 22.8538 51.5375 21.6854 51.7369C21.598 51.7616 21.5239 51.8197 21.479 51.8986C21.4341 51.9775 21.422 52.0709 21.4454 52.1586C21.4712 52.2453 21.5295 52.3187 21.6081 52.3634C21.6867 52.4081 21.7796 52.4208 21.8673 52.3987C22.9546 52.2182 24.0587 52.1607 25.1589 52.2272C26.0024 52.2694 27.0181 52.34 27.7548 52.7014C28.1491 52.895 28.4976 52.3038 28.1009 52.1093L28.1023 52.1079Z" fill="#211715"/>
<path d="M18.115 27.7274C18.351 27.5661 18.608 27.4378 18.8788 27.3461C19.331 27.1656 19.7917 27.006 20.2528 26.8489C21.2611 26.5074 22.2784 26.1934 23.2873 25.8534C23.6816 25.7204 24.0802 25.5872 24.4608 25.4154C24.5388 25.369 24.5954 25.2938 24.6184 25.206C24.6414 25.1183 24.6289 25.025 24.5837 24.9463C24.5363 24.8694 24.4612 24.8137 24.3738 24.7908C24.2865 24.7679 24.1937 24.7795 24.1146 24.8232C24.0853 24.8364 24.0229 24.8632 24.0908 24.8347C24.0586 24.8483 24.026 24.8615 23.9934 24.8743C23.9183 24.9043 23.8427 24.9328 23.767 24.96C23.5739 25.0314 23.3793 25.0986 23.1841 25.1646C22.7006 25.3286 22.2146 25.4848 21.7291 25.6419C20.7375 25.9628 19.7389 26.2736 18.7682 26.6547C18.4146 26.7681 18.0782 26.9293 17.7684 27.1339C17.692 27.1817 17.6368 27.2569 17.614 27.3441C17.5911 27.4312 17.6024 27.5238 17.6454 27.6029C17.6917 27.681 17.7669 27.7377 17.8547 27.7607C17.9425 27.7837 18.0359 27.7712 18.1145 27.7259L18.115 27.7274Z" fill="#211715"/>
<path d="M34.0034 25.5523C35.0907 25.7167 36.1464 26.1132 37.151 26.5494C38.1597 26.9843 39.1393 27.484 40.0836 28.0452C40.2799 28.1626 40.4743 28.2833 40.6645 28.4107C40.7365 28.459 40.8078 28.5082 40.8781 28.5591C40.8952 28.5711 40.9832 28.6375 40.9547 28.6155C40.9228 28.5909 41 28.6524 41.0144 28.6642C41.3513 28.9447 41.839 28.4621 41.4994 28.1794C40.8479 27.6371 40.071 27.2279 39.3247 26.8352C38.2528 26.262 37.1394 25.7702 35.9938 25.3641C35.4069 25.1512 34.8016 24.9929 34.1857 24.8911C34.098 24.8698 34.0056 24.8828 33.9272 24.9274C33.8488 24.972 33.7904 25.0449 33.7639 25.1311C33.7405 25.2188 33.7525 25.3122 33.7974 25.3912C33.8423 25.4701 33.9165 25.5282 34.0039 25.5528L34.0034 25.5523Z" fill="#211715"/>
<path d="M32.0392 11.6187C32.285 12.2437 32.5183 12.8764 32.8086 13.4827C33.0281 13.909 33.2941 14.3096 33.6018 14.6773C34.3219 15.594 35.2692 16.6523 36.4607 16.9077C36.891 17 37.075 16.3391 36.643 16.2465C36.1116 16.1036 35.6263 15.8255 35.2343 15.4394C34.8155 15.0585 34.4315 14.6412 34.0867 14.1923C33.82 13.8667 33.59 13.5126 33.4009 13.1366C33.1362 12.5837 32.9248 12.0063 32.7006 11.4364C32.6743 11.3501 32.6159 11.2771 32.5375 11.2325C32.4591 11.1878 32.3665 11.1749 32.2788 11.1964C32.1914 11.2211 32.1172 11.2791 32.0723 11.3581C32.0274 11.437 32.0154 11.5304 32.0388 11.6182L32.0392 11.6187Z" fill="#211715"/>
<path d="M32.0985 11.2258C31.1462 12.1916 30.0218 12.9707 28.7831 13.5231C28.4487 13.6643 28.1057 13.7846 27.7563 13.8831C27.5916 13.9298 27.4255 13.9688 27.2592 14.0091C27.1762 14.0259 27.1624 14.0297 27.2177 14.0203C27.2691 14.022 27.3179 14.0435 27.354 14.0803C27.3739 14.0982 27.3887 14.121 27.397 14.1465C27.3889 14.1091 27.3882 14.1096 27.3949 14.148C27.4188 14.059 27.4008 13.9594 27.4169 13.8727C27.4381 13.7571 27.4654 13.6429 27.4935 13.5289C27.5544 13.2824 27.6267 13.0378 27.6686 12.787C27.7114 12.5298 27.4321 12.2015 27.1649 12.3998C25.431 13.6865 23.6662 14.9327 21.9017 16.177C21.5438 16.4295 21.8866 17.024 22.248 16.7689C24.0125 15.5246 25.7773 14.2785 27.5112 12.9918L27.0075 12.6045C26.9314 13.0606 26.7625 13.4971 26.7161 13.9589C26.6965 14.0613 26.6988 14.1666 26.7226 14.268C26.7465 14.3694 26.7915 14.4647 26.8546 14.5476C27.0286 14.7343 27.2489 14.7139 27.4774 14.6618C28.7449 14.3644 29.9405 13.8178 30.9946 13.0537C31.5574 12.6469 32.0884 12.1979 32.5832 11.7107C32.8991 11.4021 32.4141 10.9167 32.0982 11.2257L32.0985 11.2258Z" fill="#211715"/>
<path d="M33.6107 4.77174C32.185 4.2239 30.6652 3.96306 29.1384 4.00421C27.5275 4.06364 25.9504 4.48344 24.5231 5.23273C23.4768 5.74354 22.5534 6.47457 21.8161 7.37571C21.059 8.36519 20.4967 9.48954 20.1593 10.6889C19.6862 12.3944 19.4886 14.1645 19.5739 15.9323C19.5884 16.3726 20.2742 16.3745 20.2596 15.9323C20.1722 13.2612 20.5363 10.3735 22.1034 8.12952C22.7127 7.27993 23.5032 6.57646 24.4178 6.07004C25.689 5.32698 27.1058 4.86738 28.5711 4.72271C30.2232 4.58583 31.8847 4.82897 33.4283 5.43349C33.516 5.45695 33.6095 5.44493 33.6885 5.40001C33.7674 5.35509 33.8255 5.2809 33.8502 5.19347C33.8723 5.10579 33.8597 5.01296 33.8149 4.93437C33.7702 4.85578 33.6968 4.79751 33.6102 4.77174H33.6107Z" fill="#211715"/>
<path d="M39.0927 15.9325C39.15 15.133 39.1523 14.3305 39.0997 13.5307C39.0775 12.8288 39.0039 12.1294 38.8794 11.4383C38.5599 9.83122 37.8618 8.22673 36.7671 6.99444C36.4757 6.66613 36.1443 6.37177 35.8256 6.07004C35.5253 5.78204 35.1866 5.53691 34.8192 5.3416C34.4291 5.13588 34.0821 5.72803 34.4731 5.93375C35.0961 6.26154 35.6046 6.7738 36.0927 7.27525C36.6112 7.82417 37.0423 8.44943 37.3711 9.12918C37.7278 9.84618 37.9957 10.6041 38.1686 11.386C38.3018 12.0355 38.3808 12.6949 38.4049 13.3575C38.4665 14.2149 38.4672 15.0756 38.4069 15.933C38.3684 16.3726 39.0543 16.37 39.0927 15.933V15.9325Z" fill="#211715"/>
<path d="M19.7788 26.4931C19.5044 26.2136 19.3147 25.8623 19.2314 25.4796C19.1893 25.1497 19.1937 24.8155 19.2444 24.4868C19.3049 23.7662 19.4294 23.0525 19.6164 22.3541C19.9133 21.2117 20.0962 20.0426 20.1626 18.8641C20.2331 17.8892 20.259 16.9114 20.2598 15.9342C20.2598 15.493 19.5741 15.4923 19.5741 15.9342C19.5977 17.5258 19.4989 19.1168 19.2783 20.6932C19.1933 21.2098 19.0806 21.7215 18.9406 22.226C18.7493 22.9676 18.6215 23.7241 18.5586 24.4873C18.5002 24.8994 18.509 25.3183 18.5845 25.7276C18.7077 26.1996 18.9522 26.6311 19.2939 26.9791C19.5967 27.3014 20.081 26.8158 19.7788 26.4941V26.4931Z" fill="#211715"/>
<path d="M38.4066 15.9332C38.4135 17.6134 38.609 19.2874 38.9895 20.924C39.1057 21.3988 39.2436 21.8674 39.4031 22.3298C39.6401 23.0188 39.8878 23.6965 39.9451 24.4297C40.0082 24.8686 39.9378 25.3163 39.7429 25.7146C39.5167 26.1305 39.1882 26.4819 38.7884 26.7355C38.4189 26.9742 38.7623 27.568 39.1345 27.3277C39.8631 26.8569 40.4875 26.1105 40.6217 25.231C40.7628 24.3064 40.481 23.3133 40.1717 22.4513C39.7916 21.3926 39.5144 20.2998 39.344 19.188C39.1857 18.1099 39.1014 17.0223 39.0918 15.9327C39.085 15.4918 38.3992 15.4906 38.4061 15.9327L38.4066 15.9332Z" fill="#211715"/>
<path d="M20.3424 42.3289C21.5041 42.266 22.6119 42.3872 23.5048 43.2975C24.0318 43.8346 25.0335 44.6906 25.1074 45.5457C25.1368 45.886 24.9155 46.4129 24.5404 46.5761L23.5068 48.8295C23.7703 49.1209 23.7957 49.3354 23.644 49.5123C23.5524 49.6226 23.4331 49.7065 23.2983 49.7553C23.1635 49.8041 23.0181 49.816 22.8771 49.7899C22.5914 49.7552 22.3237 49.6318 22.1118 49.437C22.1994 49.6642 21.5694 49.9328 21.4089 49.9594C20.8134 50.058 20.4184 49.7689 20.0222 49.3825C20.1516 49.9214 19.333 50.4674 18.7671 50.0376C18.1874 49.5973 17.7727 49.2474 17.4619 48.6489C17.1607 48.0688 17.0546 47.4489 16.8777 47.0253C16.601 46.3126 15.9701 45.8163 16.0753 45.3745C16.2485 44.5536 17.1382 43.5672 17.6402 43.1185C18.2872 42.5394 19.5101 42.3731 20.3431 42.328L20.3424 42.3289Z" fill="white"/>
<path d="M22.9021 45.3409C23.0302 45.6091 25.0941 49.2113 25.4781 49.863L25.7708 49.7466C25.2524 48.4678 21.8507 40.983 21.0482 39.3746C21.0051 39.2882 20.9316 39.2209 20.8418 39.1856C20.752 39.1502 20.6523 39.1494 20.562 39.1832C20.514 39.2004 20.4655 39.2198 20.4171 39.2383C20.3696 39.2564 20.3262 39.284 20.2897 39.3195C20.2533 39.355 20.2244 39.3975 20.205 39.4445C20.1855 39.4916 20.1759 39.5421 20.1767 39.5929C20.1775 39.6438 20.1886 39.694 20.2095 39.7404C20.6114 40.6303 21.1367 41.8344 21.645 42.7346C22.0736 43.4934 22.5454 44.5443 22.9021 45.3416" fill="#211715"/>
<path d="M22.6067 45.5142C22.8501 46.0155 23.1513 46.4949 23.4267 46.9788C23.8546 47.731 24.2845 48.4819 24.7164 49.2317C24.8707 49.5002 25.025 49.7692 25.1827 50.0361C25.2212 50.101 25.2799 50.1516 25.3498 50.18C25.4197 50.2085 25.4971 50.2133 25.57 50.1938L25.8626 50.0774C26.0188 50.0152 26.1779 49.8422 26.1026 49.6557C25.2969 47.6742 24.373 45.7357 23.4849 43.7908C22.9739 42.6714 22.4583 41.5542 21.9379 40.4392C21.7665 40.0745 21.595 39.71 21.4181 39.3483C21.2698 39.0452 21.0426 38.8074 20.677 38.8156C20.2043 38.8264 19.7524 39.2271 19.8496 39.722C19.9195 39.9586 20.0151 40.1868 20.1347 40.4025C20.2442 40.6463 20.3545 40.8898 20.4657 41.133C20.7035 41.6498 20.9475 42.1647 21.2172 42.6658C21.7193 43.5988 22.1743 44.5468 22.6072 45.5142C22.6536 45.5923 22.7288 45.6489 22.8166 45.6719C22.9044 45.6949 22.9977 45.6824 23.0764 45.6372C23.1533 45.5898 23.209 45.5146 23.2318 45.4273C23.2547 45.3399 23.2431 45.2471 23.1993 45.1681C22.8321 44.3474 22.4666 43.5223 22.0368 42.732C21.607 41.9416 21.2139 41.1376 20.8439 40.3164C20.7579 40.1261 20.6722 39.9356 20.5868 39.7448C20.5666 39.7003 20.5026 39.6142 20.527 39.5607C20.517 39.5825 20.647 39.4997 20.6768 39.5014C20.7824 39.5076 20.8554 39.7549 20.8997 39.8443C21.0728 40.2021 21.2425 40.5617 21.4105 40.9218C22.4258 43.0903 23.4209 45.2683 24.396 47.4558C24.6199 47.9553 24.8423 48.4557 25.0632 48.9569C25.1442 49.1415 25.2248 49.3264 25.3049 49.5118C25.322 49.5514 25.3391 49.591 25.3564 49.6306C25.3675 49.6565 25.4134 49.7661 25.3709 49.6649C25.3951 49.7225 25.4191 49.78 25.4426 49.8379L25.6826 49.4162L25.39 49.5324L25.7772 49.6901C25.014 48.394 24.272 47.0843 23.5347 45.7734C23.422 45.5734 23.3017 45.3749 23.2012 45.1681C23.0085 44.7712 22.4169 45.1184 22.6091 45.5142H22.6067Z" fill="#211715"/>
<path d="M17.4613 48.6497C17.7714 49.2474 18.1868 49.5973 18.7665 50.0384C19.3322 50.4682 20.151 49.9221 20.0216 49.3833C20.4178 49.7697 20.8127 50.0588 21.4083 49.9602C21.5688 49.9336 22.1988 49.665 22.1112 49.4378C22.3231 49.6326 22.5908 49.756 22.8765 49.7907C23.0175 49.8168 23.1628 49.8048 23.2976 49.7561C23.4324 49.7073 23.5518 49.6234 23.6434 49.5131C23.8198 49.3082 23.7579 49.0533 23.3636 48.6856C24.3042 49.0614 24.7227 48.4272 24.5703 48.0427C24.4735 47.798 23.6533 46.6756 23.5417 46.5061C23.0654 45.7823 22.9576 45.5155 22.5258 44.5757" fill="white"/>
<path d="M20.3425 42.6718C20.9387 42.6186 21.5396 42.6726 22.1168 42.8311C22.696 43.0133 23.1013 43.3845 23.5248 43.8002C23.9314 44.1995 24.3623 44.609 24.6251 45.1223C24.8263 45.5153 24.8198 46.0606 24.3679 46.28C23.9709 46.4726 24.3182 47.0642 24.7139 46.8722C24.9372 46.7466 25.1232 46.564 25.2531 46.3431C25.3829 46.1223 25.4518 45.8709 25.4529 45.6147C25.4567 45.0692 25.1272 44.5689 24.8015 44.1599C24.4718 43.7719 24.1202 43.403 23.7485 43.0551C23.3368 42.6398 22.8289 42.3325 22.2699 42.1606C21.6427 41.9918 20.991 41.9327 20.3437 41.986C19.9047 42.0085 19.902 42.6944 20.3437 42.6718H20.3425Z" fill="#211715"/>
<path d="M18.693 48.4372C19.0015 48.8789 19.3667 49.2783 19.7791 49.6251C19.8449 49.687 19.9311 49.7228 20.0215 49.7255C20.0893 49.7255 20.1556 49.7054 20.2119 49.6677C20.2683 49.6301 20.3122 49.5765 20.3382 49.5139C20.3641 49.4512 20.3709 49.3823 20.3577 49.3158C20.3445 49.2493 20.3118 49.1882 20.2639 49.1403C19.9331 48.8668 19.635 48.5562 19.3753 48.2145L19.4288 48.2831C19.38 48.22 19.3321 48.1561 19.2851 48.0914C19.2376 48.0159 19.1647 47.9599 19.0794 47.9337C18.9903 47.91 18.8954 47.9223 18.8152 47.968C18.7375 48.0145 18.681 48.0897 18.658 48.1774C18.6351 48.2651 18.6474 48.3583 18.6923 48.437L18.693 48.4372Z" fill="#211715"/>
<path d="M19.6794 47.2311C20.3353 48.1105 21.0683 48.9299 21.8695 49.6794C21.9347 49.742 22.0216 49.777 22.112 49.777C22.2024 49.777 22.2893 49.742 22.3545 49.6794C22.4179 49.6146 22.4533 49.5276 22.4533 49.437C22.4533 49.3464 22.4179 49.2593 22.3545 49.1946C21.5936 48.4877 20.8969 47.7149 20.2724 46.8851C20.2245 46.8087 20.1494 46.7535 20.0622 46.7306C19.975 46.7077 19.8823 46.719 19.8031 46.762C19.7251 46.8083 19.6684 46.8835 19.6454 46.9713C19.6224 47.0591 19.6349 47.1524 19.6802 47.2311H19.6794Z" fill="#211715"/>
<path d="M20.9408 46.1324C21.6424 47.1677 22.419 48.15 23.2645 49.0715C23.2961 49.1043 23.3339 49.1304 23.3758 49.1484C23.4176 49.1663 23.4626 49.1758 23.5081 49.1762C23.5536 49.1766 23.5988 49.1679 23.6409 49.1507C23.6831 49.1334 23.7213 49.108 23.7535 49.0758C23.7857 49.0436 23.8112 49.0053 23.8284 48.9632C23.8457 48.921 23.8543 48.8759 23.8539 48.8304C23.8535 48.7848 23.8441 48.7398 23.8261 48.698C23.8082 48.6562 23.782 48.6183 23.7493 48.5867C22.9426 47.7088 22.2018 46.7727 21.5329 45.7858C21.4855 45.7089 21.4103 45.6533 21.3229 45.6304C21.2356 45.6075 21.1427 45.6191 21.0637 45.6628C20.9858 45.7093 20.9293 45.7845 20.9063 45.8722C20.8833 45.96 20.8957 46.0532 20.9408 46.1319V46.1324Z" fill="#211715"/>
<path d="M20.3425 41.9861C19.4207 42.0384 18.3628 42.1603 17.5944 42.7195C17.2499 42.9864 16.9399 43.295 16.6714 43.6382C16.3407 44.019 16.0691 44.4473 15.8656 44.9088C15.7783 45.092 15.729 45.2909 15.7206 45.4937C15.7361 45.7056 15.805 45.9102 15.9206 46.0884C16.154 46.4877 16.4521 46.8359 16.6085 47.2782C16.7953 47.8074 16.9157 48.3529 17.1817 48.8527C17.4254 49.2891 17.7528 49.6731 18.1452 49.9826C18.5848 50.3444 19.0355 50.6878 19.6309 50.4608C20.118 50.2748 20.4538 49.8225 20.3532 49.2916L19.7801 49.6252C20.2481 50.0769 20.831 50.4453 21.5116 50.288C21.9203 50.1935 22.5733 49.8573 22.4427 49.3461L21.8695 49.6795C22.3602 50.0678 23.0751 50.3511 23.6549 49.9571C23.7783 49.8861 23.8819 49.7854 23.9562 49.664C24.0306 49.5426 24.0733 49.4046 24.0804 49.2624C24.0729 48.9316 23.8322 48.6586 23.6069 48.4424L23.2733 49.0156C23.7374 49.1909 24.3216 49.2158 24.6897 48.827C24.8192 48.6938 24.9032 48.523 24.9294 48.3391C24.9557 48.1552 24.9229 47.9677 24.8358 47.8037C24.4979 47.151 23.9866 46.5899 23.6033 45.9631C23.3124 45.459 23.0518 44.938 22.8227 44.403C22.7764 44.325 22.7012 44.2684 22.6134 44.2454C22.5256 44.2224 22.4323 44.2349 22.3537 44.2801C22.2767 44.3274 22.221 44.4026 22.1981 44.4899C22.1752 44.5773 22.1868 44.6702 22.2306 44.7492C22.4527 45.2673 22.7037 45.7726 22.9823 46.2626C23.198 46.6204 23.4423 46.9564 23.6818 47.2984C23.8142 47.487 23.946 47.677 24.072 47.8702C24.1193 47.9425 24.1666 48.0152 24.2092 48.09C24.2263 48.1201 24.2446 48.1501 24.2592 48.1819C24.269 48.2028 24.2395 48.1678 24.2577 48.1789C24.2428 48.1699 24.2566 48.2581 24.2635 48.2024C24.2616 48.2175 24.2237 48.3288 24.2441 48.2806C24.2251 48.3316 24.1877 48.3736 24.1392 48.3984C23.9421 48.5184 23.6659 48.4349 23.4552 48.3553C23.1272 48.2312 22.8863 48.7025 23.1216 48.9283C23.2359 49.0206 23.3288 49.1365 23.3938 49.2683C23.4051 49.3046 23.3808 49.3025 23.4013 49.271C23.3553 49.335 23.2935 49.3859 23.2218 49.4188C22.9304 49.551 22.5802 49.3747 22.354 49.1959C22.0981 48.9934 21.6895 49.1719 21.7809 49.5295C21.7734 49.5082 21.7713 49.4854 21.7747 49.4631C21.7782 49.4408 21.7871 49.4197 21.8006 49.4016C21.8243 49.3656 21.826 49.3596 21.8054 49.3845C21.789 49.3975 21.7738 49.4121 21.7602 49.428C21.6934 49.4726 21.6238 49.5127 21.5517 49.548C21.4536 49.5986 21.3462 49.6286 21.2361 49.6362C20.8358 49.6554 20.5366 49.4045 20.2644 49.1419C20.2101 49.0908 20.1407 49.0586 20.0667 49.0502C19.9926 49.0417 19.9178 49.0574 19.8534 49.0949C19.789 49.1324 19.7384 49.1897 19.7092 49.2583C19.68 49.3269 19.6738 49.4031 19.6914 49.4755C19.7362 49.7107 19.3657 49.8698 19.1802 49.8499C19.0304 49.8131 18.8938 49.7351 18.7859 49.6248C18.6161 49.4939 18.4536 49.3539 18.299 49.2053C17.9931 48.9046 17.7564 48.5407 17.6054 48.1392C17.454 47.7449 17.3654 47.3289 17.208 46.9367C17.0346 46.5579 16.8253 46.1965 16.5829 45.8577C16.3878 45.5532 16.3738 45.4491 16.5164 45.1205C16.8423 44.4234 17.3236 43.8103 17.9234 43.3283C18.5658 42.8076 19.549 42.7188 20.3427 42.6739C20.7816 42.649 20.7843 41.9631 20.3427 41.9881L20.3425 41.9861Z" fill="#211715"/>
<path d="M40.503 48.7853C40.6477 48.6605 40.7869 48.5376 40.9145 48.4229C41.5718 47.8292 42.2978 47.4212 42.5325 46.5559C42.7232 45.9169 42.6922 45.2323 42.4446 44.6132C42.3095 44.24 42.0024 43.6329 41.7398 43.3941C41.3932 43.0786 40.8694 42.6397 40.3556 42.5305C39.794 42.3934 38.4 42.74 37.7904 42.7083C36.916 42.6627 36.3009 42.9717 35.4792 43.3305C34.7167 43.6634 33.9551 43.9338 33.1933 44.3147C33.1284 44.3564 33.0737 44.4121 33.0331 44.4777C32.9925 44.5432 32.9671 44.617 32.9585 44.6936C32.95 44.7703 32.9587 44.8478 32.984 44.9207C33.0092 44.9935 33.0504 45.0599 33.1045 45.1148C33.4659 45.4385 34.2855 45.2099 34.8188 45.2099L35.2339 45.2603C34.5653 45.7477 33.7347 46.3576 33.4727 46.6195C33.136 46.9571 32.7402 47.2514 32.7743 47.6101C32.8396 48.2958 33.4727 48.2324 33.7141 48.1054L33.7354 48.094L33.5871 48.2826C33.2816 48.6718 33.2061 49.1462 33.5548 49.3539C33.7735 49.4473 34.0126 49.4822 34.2489 49.4553C34.4851 49.4284 34.7103 49.3406 34.9023 49.2005C34.6647 49.5189 34.6949 49.8919 34.9735 50.0519C35.2718 50.1867 35.6098 50.205 35.921 50.1033C36.2593 49.964 36.583 49.7917 36.8874 49.589C37.188 49.4201 38.4761 48.6516 39.1202 48.189L39.0477 48.2576C38.6985 48.5878 38.1646 49.0505 37.9676 49.3623C37.9259 49.4199 37.8998 49.4874 37.892 49.5581C37.8842 49.6288 37.8949 49.7004 37.9231 49.7657C37.9513 49.831 37.996 49.8879 38.0528 49.9307C38.1096 49.9736 38.1765 50.0009 38.2471 50.01C38.482 50.0862 38.7375 50.0668 38.9582 49.956C39.2773 49.7983 39.932 49.2771 40.503 48.7853Z" fill="white"/>
<path d="M34.8184 44.8672C34.4793 44.8717 34.1443 44.9358 33.8054 44.9447C33.6588 44.9482 33.2911 44.9728 33.2959 44.7507C33.2986 44.6222 33.3727 44.607 33.4802 44.5547C33.6935 44.4518 33.9098 44.3538 34.1277 44.2605C34.5573 44.0766 34.993 43.9072 35.4231 43.7249C36.1358 43.423 36.8443 43.0418 37.6384 43.0469C38.2405 43.0267 38.8408 42.9711 39.4363 42.8806C39.6872 42.8447 39.9411 42.8335 40.1942 42.8474C40.5515 42.9248 40.8822 43.0948 41.1531 43.3402C41.4104 43.5306 41.6285 43.7688 41.7955 44.0419C41.9756 44.3452 42.1156 44.6707 42.2119 45.01C42.4027 45.7013 42.3363 46.5341 41.8673 47.1048C41.641 47.3604 41.3905 47.5934 41.1193 47.8007C40.8387 48.0318 40.5697 48.2754 40.2949 48.5132C39.9983 48.7704 39.6974 49.0236 39.3845 49.2602C39.1716 49.4211 38.8942 49.6776 38.617 49.7109C38.5404 49.72 38.2613 49.7146 38.234 49.6222C38.2107 49.5432 38.355 49.4122 38.4027 49.3586C38.676 49.051 38.9906 48.7818 39.2897 48.5003C39.6117 48.1972 39.1262 47.7131 38.8047 48.0155C38.4804 48.2996 38.1714 48.6006 37.879 48.9173C37.5956 49.2475 37.3952 49.692 37.7188 50.0741C37.9873 50.3911 38.5224 50.4652 38.9038 50.3462C39.2324 50.2165 39.536 50.0309 39.8013 49.7976C40.4831 49.2749 41.1171 48.6946 41.7752 48.1432C42.1052 47.8862 42.3897 47.5756 42.6168 47.2243C42.8411 46.8201 42.969 46.3696 42.9905 45.9079C43.0552 45.0284 42.6991 44.0646 42.169 43.368C41.8864 43.0247 41.5454 42.734 41.1616 42.5093C40.8264 42.2889 40.4362 42.1663 40.0351 42.1554C39.3194 42.1487 38.6192 42.3601 37.9048 42.3668C37.4722 42.3533 37.0398 42.4006 36.6203 42.5074C36.1583 42.6599 35.7063 42.8414 35.2671 43.0507C34.6988 43.297 34.1185 43.5156 33.5527 43.7675C33.0967 43.9704 32.6076 44.1726 32.6113 44.7541C32.6187 45.9255 34.0987 45.5619 34.8179 45.5525C35.2589 45.5468 35.2601 44.8609 34.8179 44.8667L34.8184 44.8672Z" fill="#211715"/>
<path d="M36.6989 45.5713C36.7762 45.5115 36.6259 45.626 36.6007 45.6448C36.5389 45.6906 36.4767 45.7363 36.4143 45.782C36.2772 45.8823 36.1393 45.9819 36.0008 46.0806C35.6974 46.2978 35.393 46.5138 35.0877 46.7285C34.481 47.1311 33.8986 47.5692 33.3437 48.0407C33.0151 48.3366 33.5013 48.8204 33.8285 48.5255C34.36 48.0763 34.9176 47.6588 35.4983 47.2752C36.0641 46.8756 36.636 46.4808 37.1839 46.0561C37.2478 45.9916 37.2836 45.9045 37.2836 45.8137C37.2836 45.7229 37.2478 45.6358 37.1839 45.5713C37.1185 45.5091 37.0317 45.4744 36.9414 45.4744C36.8511 45.4744 36.7643 45.5091 36.6989 45.5713Z" fill="#211715"/>
<path d="M39.097 47.7804C39.02 47.843 38.8498 47.9632 38.7198 48.0513C38.5343 48.1771 38.3459 48.299 38.1567 48.419C37.7953 48.6484 37.4304 48.8721 37.0622 49.0902C36.7076 49.3251 36.3383 49.537 35.9564 49.7245C35.7295 49.8323 35.4716 49.8555 35.229 49.7902C35.007 49.7158 35.0907 49.5292 35.1982 49.3736C35.3883 49.0979 35.0056 48.705 34.7289 48.9045C34.5891 49.013 34.4241 49.0843 34.2493 49.1119C34.0745 49.1395 33.8956 49.1225 33.7291 49.0624C33.7696 49.0811 33.7329 49.0674 33.7181 49.0516C33.6985 49.0351 33.6825 49.0148 33.671 48.9919C33.6598 48.9403 33.6627 48.8865 33.6792 48.8363C33.739 48.6489 33.8411 48.4778 33.9777 48.3362C34.2095 48.0406 33.9278 47.6052 33.5621 47.7975C33.4815 47.8401 33.5815 47.7994 33.5193 47.8164C33.5071 47.8198 33.3855 47.8462 33.4483 47.8378C33.3829 47.854 33.3141 47.8498 33.2511 47.826C33.2287 47.8198 33.2079 47.8084 33.1907 47.7928C33.1734 47.7771 33.16 47.7576 33.1517 47.7358C33.129 47.6932 33.1172 47.6456 33.1172 47.5973C33.1172 47.549 33.129 47.5014 33.1517 47.4588C33.2775 47.2107 33.5688 46.9959 33.7689 46.8101C33.8978 46.6909 34.0361 46.5817 34.1743 46.4735C34.8746 45.9249 35.6173 45.4314 36.3173 44.8812C36.3811 44.8167 36.4169 44.7296 36.4169 44.6388C36.4169 44.548 36.3811 44.4609 36.3173 44.3964C36.2519 44.3341 36.1651 44.2993 36.0748 44.2993C35.9845 44.2993 35.8977 44.3341 35.8323 44.3964C35.7912 44.4286 35.8878 44.3547 35.8164 44.4086L35.7456 44.462C35.6729 44.5164 35.5999 44.5704 35.5266 44.6239C35.3586 44.7473 35.1904 44.8702 35.0219 44.9925C34.6406 45.2707 34.2594 45.5491 33.8853 45.8371C33.2198 46.3496 31.8726 47.3028 32.6664 48.2282C32.9731 48.586 33.5146 48.5973 33.9091 48.3897L33.4935 47.8512C33.265 48.095 33.098 48.3898 33.0063 48.7111C32.9643 48.878 32.9732 49.0536 33.0318 49.2154C33.0905 49.3771 33.1963 49.5176 33.3355 49.6187C33.8292 49.9594 34.6178 49.826 35.0759 49.4965L34.6069 49.0274C34.498 49.1692 34.4301 49.3383 34.4108 49.516C34.3914 49.6938 34.4213 49.8734 34.4971 50.0353C34.5862 50.1748 34.7083 50.2902 34.8525 50.3713C34.9967 50.4525 35.1587 50.4969 35.3242 50.5006C36.0193 50.575 36.5769 50.1642 37.1479 49.8351C37.9994 49.3764 38.8133 48.8514 39.5823 48.2649C39.6461 48.2003 39.6818 48.1131 39.6818 48.0224C39.6818 47.9316 39.6461 47.8445 39.5823 47.7799C39.517 47.7175 39.4302 47.6827 39.3398 47.6827C39.2495 47.6827 39.1627 47.7175 39.0973 47.7799L39.097 47.7804Z" fill="#211715"/>
<path d="M37.9473 46.6411C37.3559 47.0092 36.7708 47.3877 36.2028 47.7915C35.6807 48.1316 35.1798 48.5032 34.703 48.9044C34.3773 49.2031 34.863 49.6871 35.188 49.3893C35.3787 49.2216 35.5805 49.067 35.7918 48.9264C36.0634 48.7378 36.3284 48.5396 36.5976 48.3486C37.15 47.9581 37.7183 47.5909 38.2926 47.2334C38.6665 47.0008 38.3226 46.4073 37.9465 46.6413L37.9473 46.6411Z" fill="#211715"/>
<path d="M27.8209 23.2317C28.2394 23.6413 28.902 23.7604 29.4636 23.7601C30.0252 23.7598 30.688 23.6415 31.1067 23.2317C31.4226 22.9231 30.9376 22.4378 30.6218 22.7467C30.6079 22.7603 30.5373 22.8203 30.5814 22.7853C30.6254 22.7503 30.579 22.7868 30.5677 22.794C30.5488 22.8062 30.5305 22.8191 30.5113 22.8309C30.4749 22.8532 30.4375 22.8736 30.3995 22.8928C30.3739 22.9056 30.348 22.9178 30.3216 22.9293C30.3683 22.9089 30.3268 22.9269 30.3023 22.9356C30.0332 23.0314 29.7492 23.0784 29.4636 23.0743C29.1832 23.0799 28.9042 23.0348 28.6398 22.9413C28.634 22.9393 28.537 22.8993 28.6055 22.9293C28.5836 22.9197 28.5618 22.9096 28.5402 22.899C28.4979 22.878 28.4564 22.8556 28.4163 22.8304C28.3858 22.8117 28.3575 22.7877 28.3266 22.7697C28.4144 22.8211 28.3314 22.7714 28.3059 22.7464C27.9904 22.4378 27.5051 22.9219 27.821 23.2314L27.8209 23.2317Z" fill="#211715"/>
<path d="M29.3742 20.147C29.4399 20.3843 29.4925 20.6251 29.5318 20.8682L29.5196 20.777C29.5242 20.81 29.5251 20.8435 29.5222 20.8766L29.5345 20.7854C29.5322 20.8007 29.5285 20.8156 29.5235 20.8302L29.5578 20.7482C29.5534 20.7583 29.5481 20.768 29.5419 20.777L29.5955 20.7076C29.5886 20.7162 29.5807 20.724 29.572 20.7309L29.6415 20.6773C29.6231 20.6887 29.604 20.6987 29.5842 20.7074L29.6662 20.6731C29.6353 20.6863 29.603 20.6957 29.57 20.7013L29.661 20.6889C29.631 20.6925 29.6007 20.6925 29.5707 20.6889L29.6619 20.7013C29.6276 20.6965 29.5943 20.6882 29.5602 20.6841C29.4709 20.6632 29.377 20.6754 29.296 20.7184C29.2175 20.7643 29.1605 20.8395 29.1374 20.9275C29.1144 21.0154 29.1272 21.109 29.1731 21.1875C29.1949 21.2263 29.2244 21.2603 29.2597 21.2874C29.2951 21.3145 29.3356 21.3341 29.3788 21.345C29.4539 21.3551 29.527 21.3743 29.6034 21.3778C29.7173 21.3784 29.8297 21.3518 29.9312 21.3001C29.995 21.2715 30.0516 21.2289 30.0968 21.1755C30.142 21.1221 30.1745 21.0592 30.1921 20.9915C30.2151 20.8807 30.2139 20.7662 30.1887 20.6558C30.1494 20.4235 30.0956 20.1929 30.036 19.9654C30.0118 19.8778 29.9538 19.8033 29.8747 19.7584C29.7956 19.7134 29.7019 19.7018 29.6142 19.726C29.5265 19.7501 29.452 19.8081 29.4071 19.8872C29.3622 19.9663 29.3505 20.06 29.3747 20.1477L29.3742 20.147Z" fill="#211715"/>
<path d="M25.5554 18.1954C25.4354 18.5868 25.5134 19.487 26.2549 19.5636C27.2348 19.5578 27.2869 18.4694 26.9578 17.9576C26.6878 17.539 25.8935 17.3646 25.5554 18.1954Z" fill="#211715"/>
<path d="M33.2359 18.1954C33.3559 18.5868 33.2779 19.4872 32.5366 19.5636C31.5566 19.5578 31.5043 18.4694 31.8337 17.9576C32.1044 17.539 32.8979 17.3646 33.2359 18.1954Z" fill="#211715"/>
</svg>
