<svg width="35" height="32" viewBox="0 0 35 32" fill="none" xmlns="http://www.w3.org/2000/svg">
<path d="M7.11783 26.9472H5.2725L6.83535 23.5787H8.68234L7.11783 26.9472ZM10.5695 30.3157L13.6968 23.5787H11.8498L8.72413 30.3157H10.5695ZM16.3662 28.6315L18.7113 23.5787H16.8643L14.5192 28.6315H16.3662ZM21.8788 23.5787L17.9692 32H19.8162L23.7258 23.5787H21.8788ZM26.8932 23.5787L25.3304 26.9472H27.1757L28.7403 23.5787H26.8932ZM8.03882 21.8944H5.64859C4.14169 21.8685 2.7052 21.2472 1.64863 20.1642C0.592068 19.0813 0 17.6234 0 16.1048C0 14.5861 0.592068 13.1283 1.64863 12.0453C2.7052 10.9624 4.14169 10.341 5.64859 10.3151L5.66864 10.3168C6.21346 9.08143 7.17808 8.08264 8.38882 7.50029C9.59956 6.91793 10.9769 6.79026 12.2727 7.14028C12.7279 5.18479 13.8022 3.43164 15.3333 2.14557C16.8645 0.859504 18.7693 0.11036 20.7602 0.0112717C22.7511 -0.0878169 24.72 0.46853 26.3694 1.5963C28.0189 2.72407 29.2594 4.36201 29.9036 6.26278C31.6459 6.95262 33.0945 8.2338 33.9992 9.88512C34.904 11.5364 35.2081 13.4543 34.8591 15.3074C34.5102 17.1606 33.53 18.8329 32.0878 20.0355C30.6457 21.2381 28.8321 21.8956 26.9601 21.8944H8.03882ZM1.57516 16.1039C1.57605 17.1927 2.00567 18.2366 2.76971 19.0065C3.53374 19.7764 4.56975 20.2093 5.65026 20.2102H26.9618C28.4448 20.2116 29.8817 19.691 31.0243 18.7384C32.1669 17.7858 32.9434 16.461 33.2197 14.9928C33.496 13.5247 33.2547 12.0054 32.5376 10.6974C31.8204 9.38942 30.6724 8.37492 29.2918 7.82915L28.5748 7.54282L28.324 6.80848C27.7975 5.25303 26.7829 3.91251 25.4335 2.98947C24.0841 2.06643 22.4731 1.61102 20.8441 1.69206C19.2151 1.77309 17.6566 2.38617 16.4039 3.43865C15.1513 4.49113 14.2726 5.92584 13.9007 7.52598L13.513 9.1934L11.8649 8.77233C11.5411 8.68364 11.2075 8.63611 10.872 8.63086C10.0953 8.63486 9.33582 8.862 8.6827 9.28562C8.02959 9.70924 7.50993 10.3118 7.18469 11.0225L6.73673 12.0011H5.54161C4.48061 12.0313 3.47302 12.4768 2.73254 13.243C1.99205 14.0093 1.57691 15.0344 1.57516 16.1039Z" fill="#244393"/>
</svg>
