<svg width="60" height="60" viewBox="0 0 60 60" fill="none" xmlns="http://www.w3.org/2000/svg">
<circle cx="30" cy="30" r="30" fill="#244393"/>
<path d="M18.4112 48.6421C19.0725 46.4525 19.6956 44.5403 20.0103 43.9959C21.7605 43.8049 24.497 43.6458 26.2473 43.7396C27.5272 43.8082 28.7956 44.0186 30.0291 44.3671C34.1151 43.6476 38.8313 43.7357 40.6682 43.9891C40.9227 44.7846 43.0028 55.5056 43.3098 57.0372C43.0907 56.9699 42.8594 56.907 42.616 56.8484C42.6327 56.9574 42.6434 57.0274 42.6434 57.0274C42.7064 57.3971 42.8243 58.038 42.8743 58.3583C38.9847 57.7631 32.7808 57.7631 29.957 58.5981C25.5824 57.246 18.941 57.5642 16.4697 58.2742C16.6211 57.7896 16.8729 56.9941 17.0055 56.5964L17.0221 56.5468C16.6866 56.6212 16.3574 56.722 16.0378 56.8484C16.1252 56.622 17.3205 52.2543 18.4112 48.6421Z" fill="white"/>
<path d="M43.0349 26.305C42.7655 25.9301 42.4638 25.5794 42.1335 25.2568C41.853 25.064 41.5454 24.914 41.2208 24.8117C39.6313 24.2238 36.644 23.3197 35.0477 22.73C34.8091 22.4938 34.5362 22.2951 34.2381 22.1407C33.8385 22.5539 33.3822 22.9082 32.883 23.193C32.8525 23.348 32.8347 23.4416 32.8347 23.4416C32.3604 25.9292 30.8727 32.5355 29.9713 34.7096L29.6586 35.5045C29.5536 35.2083 29.4473 34.8923 29.3084 34.5505C28.1392 31.6701 26.2911 26.0066 25.6755 23.6007L25.5817 23.1912C25.0238 22.8614 24.5122 22.4589 24.0605 21.9941L23.8458 22.169C23.8193 22.1905 23.7921 22.2127 23.765 22.2357C25.0427 22.1987 19.1802 24.1558 17.2102 25.2095C16.6384 25.5126 16.1354 25.9308 15.7329 26.4376C15.4414 26.8043 15.1825 27.1956 14.959 27.6073C14.6119 28.1885 14.1705 28.9661 13.8425 29.5759C12.2275 32.5778 10.459 37.4754 10.4896 39.0113C10.5238 40.7175 13.0995 43.9338 14.7053 44.4397C14.713 44.0449 16.1928 42.2542 16.6937 42.0139C17.5399 41.582 18.4924 41.4026 19.4377 41.4969C18.9494 40.9194 17.2703 38.9715 17.5488 38.0966C17.8574 37.0622 18.2867 36.0677 18.828 35.1337L19.3254 34.1924C19.7321 36.1982 20.1575 38.4105 20.33 39.6618C20.4335 40.4111 20.5226 41.1245 20.5985 41.6805C24.1731 41.6805 35.4881 41.673 38.8249 41.673H39.0575C39.1336 41.1182 39.2225 40.4081 39.326 39.6618C39.4763 38.5714 39.812 36.8471 40.1712 35.1181L40.5359 35.432C41.1532 35.9947 42.0684 37.452 42.4553 38.3019C42.4863 38.3679 42.4989 38.441 42.4919 38.5136C42.4849 38.5861 42.4586 38.6555 42.4156 38.7144C41.6834 39.6942 40.3435 40.7087 39.5455 41.3571C40.7784 42.3634 43.4789 43.7239 44.3539 44.6785C45.1889 44.0818 48.499 41.9568 48.8478 40.8605C49.4563 38.9492 48.6663 37.249 47.8381 35.4224C46.5317 32.5427 43.552 27.001 43.0349 26.305Z" fill="#3F88C9"/>
<path d="M30.3558 33.6326C30.2196 34.0561 30.09 34.4215 29.9707 34.7093C29.9707 34.7093 29.8019 35.0779 29.6358 35.4418C29.5378 35.1637 29.4368 34.868 29.3078 34.5502C28.1386 31.6698 26.2905 26.0064 25.6749 23.6004C25.6749 23.6004 25.6312 23.4232 25.5725 23.1863C26.0837 23.4899 26.6443 23.7012 27.2286 23.8107C27.518 24.1024 28.5377 24.4907 29.0107 24.7055C29.0644 24.7288 29.1235 24.7574 29.1396 24.8129L29.7982 24.8184C29.8161 24.7647 29.8733 24.7361 29.9252 24.711C30.4897 24.4551 31.9915 23.7731 32.1639 23.4941C32.397 23.4253 32.6224 23.3325 32.8364 23.2172L32.8334 23.4417C32.4226 25.5992 31.2483 30.8584 30.3558 33.6326Z" fill="white"/>
<path d="M26.4804 26.3858C26.1387 25.2802 25.854 24.3018 25.675 23.6004L25.5795 23.1901C23.7956 22.1141 22.5075 20.3787 21.994 18.3597C21.9378 18.374 21.9077 18.3814 21.9077 18.3814C21.4476 18.4964 21.0845 18.2649 20.8286 18.0603C20.5073 17.7869 20.2488 17.4475 20.0707 17.0651C19.6924 16.3084 19.5295 15.4624 19.5996 14.6194C19.6093 14.4039 19.6641 14.1929 19.7607 14C19.8567 13.8412 19.9912 13.7092 20.1517 13.616C20.3122 13.5229 20.4936 13.4717 20.6791 13.4671C20.9677 13.4586 21.2488 13.5592 21.4666 13.7488L22.32 14.3035C22.5416 14.046 22.6958 13.6475 23.0101 13.4927C23.241 13.411 23.4888 13.3886 23.7306 13.4275C25.7473 13.5259 27.5198 12.2168 29.0932 10.9757C29.0284 11.2907 29.2979 11.6003 29.6122 11.6902C29.9348 11.7566 30.27 11.724 30.5737 11.5967C31.3343 11.3372 31.946 10.8145 32.5046 10.2441L33.7353 10.5765C34.9016 11.0377 36.2884 12.2448 36.4786 14.4279L36.9477 14.0041C37.073 13.8954 37.2204 13.815 37.3797 13.7684C37.539 13.7217 37.7065 13.7101 37.8707 13.7341C37.9114 13.7402 37.9517 13.7485 37.9914 13.7591C38.129 13.794 38.2583 13.8558 38.372 13.9409C38.4856 14.0259 38.5813 14.1326 38.6535 14.2549C38.7499 14.4478 38.8048 14.6588 38.8146 14.8742C38.8849 15.7174 38.7221 16.5637 38.3439 17.3207C38.1657 17.7032 37.907 18.0427 37.5855 18.316C37.317 18.5308 36.832 18.5147 36.4952 18.5745C36.4301 18.8028 36.3632 18.9916 36.3279 19.0986C36.0716 19.7943 34.6652 22.2188 32.8797 23.1947C32.7437 23.9337 32.486 25.1812 32.166 26.6048L26.4804 26.3858Z" fill="white"/>
<path d="M28.9672 33.6837C28.6853 32.9464 28.3789 32.101 28.0686 31.2123C28.2939 29.3282 28.6785 26.9456 28.6785 26.8774C28.6734 26.7629 28.6548 26.6494 28.623 26.5392C28.6087 26.4873 28.598 26.4372 28.5854 26.3853C28.5582 26.2672 28.5046 26.0286 28.453 25.7947C28.4981 25.7396 28.5425 25.6859 28.5854 25.6337C28.8163 25.3509 29.0096 25.1093 29.0847 25.0001C29.0973 24.9805 29.1062 24.9661 29.1116 24.9554C29.1205 24.9375 29.1283 24.919 29.1349 24.9001C29.3473 24.8988 29.5778 24.8981 29.8018 24.8979C29.8087 24.9196 29.8172 24.9407 29.8274 24.9609C29.8384 24.98 29.8503 24.9986 29.8632 25.0164C29.9402 25.1274 30.1281 25.3618 30.35 25.6338C30.4361 25.7393 30.5274 25.8506 30.6199 25.9626C30.5841 26.1151 30.5512 26.2523 30.5304 26.3126C30.4563 26.5052 30.4122 26.708 30.3998 26.914C30.3962 27.0083 30.8071 29.3933 31.068 31.1473C30.7711 32.3546 30.4046 33.5437 29.9703 34.7086L29.6691 35.536C29.5602 35.2305 29.4513 34.9037 29.3074 34.5495C29.1996 34.2836 29.0856 33.9933 28.9672 33.6837Z" fill="#F3736F"/>
<path d="M31.795 23.7824C31.935 23.7102 32.0603 23.6125 32.1647 23.4945C32.414 23.4203 32.6545 23.3192 32.882 23.1931C32.8524 23.3454 32.8342 23.4413 32.8342 23.4413C32.7256 24.011 32.5638 24.7968 32.3689 25.6963C32.0892 26.1321 31.7604 26.5344 31.3889 26.8953C31.1509 26.6018 30.7053 26.0703 30.3509 25.6354C30.129 25.3634 29.9411 25.1289 29.8641 25.018C29.8512 25.0001 29.8393 24.9816 29.8283 24.9625C29.8016 24.9199 29.7914 24.869 29.7997 24.8193C29.8176 24.7657 29.8749 24.737 29.9268 24.712C30.3423 24.5228 31.2683 24.1024 31.795 23.7824Z" fill="white"/>
<path d="M28.2593 24.3804C27.8362 24.1943 27.4003 23.9849 27.2285 23.8106C26.6444 23.7011 26.0842 23.4899 25.5732 23.1865C25.669 23.601 25.8247 24.1782 26.0226 24.8607C26.5119 25.6682 26.8777 26.2482 27.5384 26.9054C27.7478 26.6459 28.1165 26.2056 28.444 25.8065C28.4923 25.7475 28.5388 25.6902 28.5854 25.6347C28.8162 25.352 29.0095 25.1104 29.0847 25.0012C29.0972 24.9815 29.1061 24.9672 29.1115 24.9565C29.1383 24.9139 29.1485 24.8629 29.1401 24.8133C29.124 24.7578 29.065 24.7292 29.0113 24.7059C28.8219 24.6195 28.5429 24.5051 28.2593 24.3804Z" fill="white"/>
<path d="M36.9388 6.40258C36.6359 5.84872 36.2559 5.3406 35.8103 4.8934C33.9595 3.08588 32.4372 2.36377 28.9739 2.36377C26.1199 2.36377 23.7801 3.61346 22.653 4.70513C20.6825 6.61429 19.8433 9.70121 20.373 12.3556L20.6791 13.4669C20.9676 13.4581 21.2489 13.5586 21.4665 13.7483L22.32 14.303C22.5415 14.0455 22.6958 13.647 23.01 13.4922C23.241 13.4105 23.4887 13.3881 23.7305 13.427C25.7473 13.5254 27.5197 12.2163 29.0931 10.9752C29.0284 11.2902 29.2979 11.5998 29.6121 11.6897C29.9347 11.7561 30.2699 11.7235 30.5737 11.5962C31.3343 11.3367 31.946 10.814 32.5045 10.2436L33.7352 10.576C34.9015 11.0372 36.2883 12.2443 36.4785 14.4274L36.9476 14.0036C37.073 13.8949 37.2204 13.8145 37.3797 13.7679C37.539 13.7212 37.7064 13.7096 37.8707 13.7336C37.9113 13.7397 37.9516 13.748 37.9913 13.7586C38.2192 12.8732 38.3181 11.9596 38.2848 11.0459C38.1715 9.42002 37.7127 7.837 36.9388 6.40258Z" fill="#645D5C"/>
<path d="M48.4765 42.025C50.9024 42.025 53.3282 42.0168 55.754 42.0166C56.2145 42.0166 56.2154 41.3008 55.754 41.3008C53.3282 41.3008 50.9024 41.309 48.4765 41.3092C48.0161 41.3092 48.0152 42.025 48.4765 42.025Z" fill="#211715"/>
<path d="M4.34575 42.025C6.75404 42.025 9.16234 42.0168 11.5706 42.0166C12.0313 42.0166 12.032 41.3008 11.5706 41.3008C9.16234 41.3008 6.75404 41.309 4.34575 41.3092C3.88511 41.3092 3.88439 42.025 4.34575 42.025Z" fill="#211715"/>
<path d="M21.6585 42.0383C23.7509 42.0383 25.8433 42.0375 27.9356 42.0358C30.5209 42.0344 33.1062 42.0331 35.6916 42.0319C36.7362 42.0319 37.7809 42.0315 38.8258 42.0308C39.2862 42.0308 39.2871 41.3149 38.8258 41.3149C36.6954 41.3149 34.5652 41.3158 32.435 41.3174C29.8601 41.3189 27.2854 41.3202 24.7107 41.3214C23.6932 41.3214 22.6758 41.3217 21.6585 41.3225C21.1979 41.3225 21.1971 42.0383 21.6585 42.0383Z" fill="#211715"/>
<path d="M14.6505 27.4262C13.0624 30.0821 11.7802 32.9092 10.8282 35.8536C10.6394 36.44 10.4644 37.0322 10.3271 37.633C10.2121 38.0702 10.1467 38.5189 10.1321 38.9707C10.1586 39.5078 10.2989 40.033 10.5437 40.5118C10.8157 41.0897 11.1486 41.637 11.5368 42.1444C11.9765 42.7435 12.4768 43.2957 13.0298 43.7921C13.4841 44.2263 14.0217 44.5639 14.6101 44.7846C14.6632 44.7984 14.7187 44.8 14.7725 44.7891C14.8263 44.7783 14.8769 44.7554 14.9205 44.7222C14.9642 44.6889 14.9997 44.6462 15.0244 44.5972C15.0491 44.5482 15.0624 44.4943 15.0632 44.4394C15.0548 44.5697 15.0514 44.4724 15.0693 44.4423C15.0786 44.4267 15.109 44.3528 15.072 44.4323C15.1055 44.3617 15.1427 44.293 15.1836 44.2265C15.2822 44.0624 15.3932 43.9058 15.5074 43.7522C15.7736 43.3953 16.0642 43.0572 16.3771 42.7404C16.4487 42.6688 16.5214 42.5972 16.5967 42.5288C16.6252 42.5031 16.6543 42.478 16.6833 42.4526C16.6935 42.4436 16.7687 42.3841 16.7177 42.4227C16.9307 42.2806 17.1642 42.172 17.4101 42.1006C18.0576 41.8617 18.7519 41.7771 19.4377 41.8536C19.7778 41.8964 19.8662 41.4497 19.691 41.2426C19.068 40.5066 18.3846 39.7304 18.0087 38.8326C17.9366 38.6723 17.8919 38.5011 17.8765 38.3261C17.8765 38.3082 17.8935 38.1756 17.8783 38.2525C17.896 38.1788 17.9182 38.1061 17.9445 38.0349C18.0097 37.834 18.078 37.634 18.1494 37.4349C18.4127 36.6987 18.7435 35.9885 19.1376 35.3133C19.3703 34.9149 18.7525 34.5543 18.5195 34.9519C18.1846 35.5265 17.8936 36.1254 17.6488 36.7437C17.5236 37.0558 17.4108 37.3724 17.3047 37.6913C17.216 37.9042 17.1675 38.1316 17.1615 38.3621C17.2054 38.7858 17.3453 39.1939 17.5706 39.5554C17.8087 39.9743 18.0779 40.3747 18.376 40.7534C18.636 41.0934 18.9082 41.4223 19.1845 41.7487L19.4376 41.1378C18.6593 41.055 17.8725 41.158 17.1417 41.4382C16.8642 41.5232 16.5999 41.6462 16.3562 41.8037C16.1832 41.9336 16.0209 42.0772 15.8709 42.2332C15.5056 42.607 15.1678 43.0067 14.8601 43.4292C14.6475 43.718 14.371 44.0656 14.3472 44.4384L14.8003 44.0933C14.6031 44.0245 14.415 43.9319 14.2402 43.8177C14.021 43.6793 13.8127 43.5246 13.6168 43.3549C13.1414 42.9422 12.7059 42.4856 12.3163 41.9911C11.9269 41.5065 11.5865 40.9847 11.2998 40.4332C11.0702 40.0212 10.9185 39.5705 10.8524 39.1035C10.8371 38.7244 10.8809 38.3453 10.9821 37.9796C11.1021 37.4222 11.2586 36.8726 11.4279 36.3283C11.8582 34.9581 12.3615 33.6119 12.9357 32.2954C13.6155 30.7435 14.3947 29.2371 15.2685 27.7856C15.5049 27.3888 14.8862 27.0284 14.6503 27.4243L14.6505 27.4262Z" fill="#211715"/>
<path d="M40.2826 35.685C40.6772 36.0783 41.0219 36.5186 41.3091 36.9959C41.4873 37.2703 41.656 37.5507 41.8154 37.837C41.8823 37.9575 41.9475 38.0788 42.0098 38.2016C42.0456 38.2719 42.1417 38.4033 42.135 38.4842C42.1293 38.5573 41.9647 38.7111 41.9121 38.7721C41.8047 38.8959 41.6939 39.0158 41.5799 39.1331C41.3249 39.3952 41.0552 39.6431 40.7794 39.8835C40.2962 40.3053 39.7903 40.7006 39.2921 41.1047C39.225 41.1718 39.1873 41.2628 39.1873 41.3577C39.1873 41.4527 39.225 41.5437 39.2921 41.6108C40.0875 42.2551 40.9806 42.7726 41.8476 43.3125C42.6172 43.7922 43.4762 44.261 44.1002 44.9322C44.1564 44.9878 44.2293 45.0234 44.3077 45.0335C44.386 45.0436 44.4656 45.0277 44.534 44.9882C45.5922 44.2344 46.6807 43.5277 47.6838 42.6975C48.193 42.3138 48.6406 41.8544 49.0108 41.3352C49.1914 41.0191 49.3062 40.6698 49.3483 40.3081C49.4374 39.7519 49.4381 39.1851 49.3504 38.6286C49.1856 37.536 48.7223 36.5134 48.2706 35.5146C47.9678 34.845 47.6535 34.1807 47.3278 33.5217C46.6069 32.0591 45.854 30.6122 45.082 29.176C44.7241 28.5113 44.3633 27.8486 43.9903 27.1926C43.7957 26.8243 43.5798 26.4676 43.3437 26.1243C43.294 26.0445 43.2155 25.9866 43.1245 25.9628C43.0334 25.9389 42.9367 25.9507 42.8541 25.9958C42.7726 26.0442 42.7135 26.1227 42.6894 26.2143C42.6654 26.3059 42.6784 26.4034 42.7256 26.4855C42.9187 26.7645 43.0961 27.054 43.2571 27.3527C43.5624 27.8833 43.8579 28.4199 44.1505 28.9578C44.8953 30.3273 45.6186 31.7084 46.3202 33.1012C46.6513 33.7594 46.9774 34.4203 47.2904 35.0876C47.7069 35.9254 48.0712 36.7882 48.381 37.671C48.55 38.1615 48.6559 38.6715 48.6961 39.1887C48.7173 39.7215 48.6519 40.2541 48.5023 40.7659C48.4783 40.8575 48.522 40.748 48.473 40.8359C48.4497 40.8778 48.4272 40.9196 48.4014 40.9603C48.3426 41.0566 48.2746 41.1469 48.1983 41.23C47.9922 41.4625 47.771 41.6811 47.5361 41.8844C46.4897 42.8125 45.308 43.5606 44.1716 44.3699L44.6054 44.4257C43.9692 43.7428 43.1021 43.2529 42.3181 42.7631C41.4693 42.233 40.5768 41.7357 39.7971 41.1045V41.6106C40.3519 41.1602 40.9167 40.7203 41.4502 40.2433C41.7401 39.9875 42.0169 39.7171 42.2795 39.4332C42.5184 39.1714 42.8473 38.8632 42.8498 38.4847C42.852 38.1715 42.6367 37.851 42.4919 37.5836C42.3269 37.2794 42.1495 36.9828 41.9629 36.6922C41.6355 36.1414 41.2408 35.6335 40.788 35.1802C40.4508 34.867 39.9435 35.372 40.2819 35.6863L40.2826 35.685Z" fill="#211715"/>
<path d="M40.7638 43.6437C39.6613 43.5083 38.5513 43.443 37.4405 43.4483C35.8795 43.4341 34.3188 43.4998 32.7646 43.6452C31.8161 43.7346 30.8721 43.857 29.9343 44.021H30.1245C27.5971 43.301 25.0023 43.2858 22.4002 43.4406C21.8036 43.4764 21.2082 43.5216 20.614 43.5761C20.3813 43.5977 19.9819 43.5687 19.794 43.7137C19.7171 43.7841 19.6579 43.8716 19.6211 43.9691C19.4277 44.3909 19.2583 44.8232 19.1136 45.264C18.6291 46.6512 18.2084 48.061 17.7903 49.4696C17.3372 50.9957 16.8985 52.526 16.4642 54.0573C16.2162 54.9316 15.9631 55.8044 15.7169 56.6793C15.7101 56.7038 15.702 56.7283 15.6931 56.7521C15.6768 56.8131 15.6769 56.8772 15.6932 56.9381C15.7096 56.999 15.7417 57.0546 15.7863 57.0992C15.8309 57.1438 15.8864 57.1759 15.9473 57.1922C16.0082 57.2086 16.0724 57.2086 16.1333 57.1924C16.7856 56.9479 17.4643 56.7808 18.1556 56.6945C19.0545 56.5651 19.9599 56.4844 20.8676 56.4529C22.849 56.3595 24.8347 56.4302 26.8044 56.6645C27.5782 56.7498 28.3436 56.8982 29.0932 57.1081C29.2387 57.1509 29.3829 57.1976 29.5248 57.2513C29.6334 57.2915 29.7398 57.3375 29.8434 57.3893C29.9104 57.4212 29.9843 57.4361 30.0584 57.4327C30.1326 57.4293 30.2048 57.4077 30.2686 57.3697L30.3495 57.332C30.3674 57.3234 30.3871 57.3152 30.4059 57.3071C30.3729 57.3212 30.3788 57.3184 30.4086 57.3071C30.5496 57.2517 30.6927 57.2024 30.8381 57.1591C31.6219 56.9394 32.4249 56.795 33.2362 56.728C34.2806 56.6262 35.3296 56.5776 36.3791 56.5825C38.4495 56.5848 40.5682 56.7122 42.5848 57.2089C42.7963 57.2611 43.0062 57.3188 43.2145 57.3819C43.2754 57.3975 43.3393 57.3969 43.3998 57.3803C43.4604 57.3637 43.5157 57.3316 43.5601 57.2872C43.6045 57.2428 43.6366 57.1876 43.6532 57.127C43.6698 57.0664 43.6703 57.0025 43.6548 56.9417C43.3314 55.3278 43.0198 53.7116 42.7013 52.0966C42.2769 49.9457 41.8539 47.7942 41.4063 45.6479C41.285 45.0665 41.1915 44.4612 41.0126 43.8941C40.8746 43.4563 40.1833 43.6435 40.3223 44.0843C40.4727 44.5607 40.5532 45.0666 40.6559 45.5543C40.8556 46.5028 41.0475 47.4536 41.2386 48.4043C41.6801 50.6016 42.1152 52.8002 42.544 55.0001C42.6835 55.7109 42.8217 56.4221 42.964 57.1324L43.4042 56.6922C41.5869 56.1392 39.6396 55.967 37.749 55.8938C35.8259 55.7965 33.8979 55.8899 31.9933 56.1727C31.2537 56.2639 30.5326 56.4679 29.8548 56.7776H30.2181C29.544 56.4663 28.829 56.2526 28.0946 56.143C27.0958 55.9666 26.0876 55.8479 25.0751 55.7877C22.9195 55.6277 20.7536 55.6712 18.6062 55.9175C17.7114 56.0279 16.7845 56.1607 15.9436 56.5029L16.3838 56.9431C16.5403 56.5295 16.6355 56.0841 16.7557 55.6587C17.02 54.7251 17.2851 53.7916 17.551 52.8581C18.1846 50.6444 18.8193 48.4283 19.5389 46.2408C19.6859 45.7934 19.8364 45.3487 20.0019 44.9086C20.0329 44.8265 20.0642 44.7445 20.0966 44.6631C20.1114 44.6261 20.1264 44.5891 20.1415 44.5521C20.1485 44.5342 20.1558 44.5172 20.1632 44.4997C20.1775 44.465 20.1274 44.5799 20.1608 44.5058C20.2084 44.3935 20.2616 44.2836 20.3203 44.1767L20.0112 44.354C21.337 44.2109 22.6704 44.1242 24.0031 44.0856C25.4144 44.0217 26.8284 44.1004 28.2238 44.3206C28.6237 44.3904 29.0208 44.4742 29.4151 44.5722C29.6004 44.6347 29.79 44.6835 29.9824 44.718C30.1867 44.7141 30.3897 44.6859 30.5873 44.6341C31.3359 44.5146 32.089 44.4242 32.8439 44.3542C34.2711 44.2219 35.7053 44.1604 37.139 44.1624C37.8068 44.1632 38.4751 44.1781 39.1421 44.2135C39.4177 44.2282 39.6931 44.2463 39.968 44.2701C40.0829 44.2801 40.1977 44.2911 40.3125 44.3032C40.3651 44.3089 40.4175 44.3147 40.47 44.3211C40.4981 44.3245 40.6298 44.3413 40.5743 44.3338C40.6658 44.3558 40.7622 44.3422 40.844 44.2956C40.9258 44.2491 40.9868 44.1732 41.0146 44.0833C41.0389 43.9917 41.0263 43.8943 40.9794 43.8121C40.9324 43.7298 40.855 43.6693 40.7638 43.6437Z" fill="#211715"/>
<path d="M29.7233 45.7917C29.6477 48.5755 29.6984 51.3662 29.7065 54.1507C29.7077 54.5591 29.7099 54.9676 29.7099 55.376C29.7099 55.8367 30.4257 55.8376 30.4257 55.376C30.4257 52.7718 30.4078 50.1682 30.4196 47.5633C30.4223 46.9727 30.4232 46.3821 30.4391 45.7915C30.4516 45.3307 29.7358 45.3311 29.7233 45.7915V45.7917Z" fill="#211715"/>
<path d="M40.9595 29.7889C40.2773 32.8939 39.5342 35.9988 39.0433 39.1421C38.8755 40.2159 38.7864 41.3027 38.5913 42.3719C38.509 42.8223 39.1987 43.0161 39.2815 42.5621C39.4628 41.5692 39.5516 40.5597 39.6987 39.5613C39.8091 38.8118 39.9492 38.0664 40.0924 37.3224C40.4312 35.5656 40.8083 33.8159 41.19 32.0681C41.3425 31.3716 41.4959 30.6753 41.6503 29.9793C41.7489 29.5303 41.0597 29.3384 40.96 29.7889H40.9595Z" fill="#211715"/>
<path d="M18.1056 30.1383C18.4023 31.4508 18.672 32.769 18.9405 34.0885C19.2875 35.7936 19.6347 37.5018 19.9058 39.2211C20.081 40.3307 20.173 41.4562 20.3748 42.562C20.4575 43.0146 21.1474 42.8229 21.0651 42.3717C20.8777 41.3458 20.7881 40.3024 20.6331 39.2712C20.5159 38.4906 20.3738 37.7143 20.2283 36.9376C19.8999 35.1875 19.5429 33.4424 19.1745 31.7003C19.0511 31.1156 18.9276 30.5307 18.7959 29.9479C18.6944 29.4987 18.0041 29.6889 18.1056 30.1383Z" fill="#211715"/>
<path d="M38.3756 13.7003C38.6583 12.524 38.714 11.3046 38.5398 10.1075C38.3697 8.93218 38.0217 7.7896 37.5079 6.71901C37.0448 5.76457 36.3976 4.91108 35.6035 4.20764C34.9637 3.60962 34.2327 3.11722 33.4381 2.74892C32.5653 2.382 31.6396 2.15643 30.6959 2.08068C29.4683 1.94257 28.2272 1.98193 27.0108 2.19754C24.9637 2.59322 22.9611 3.60078 21.6738 5.27318C20.9134 6.28835 20.3741 7.45154 20.0905 8.68782C19.8069 9.9241 19.7854 11.2061 20.0274 12.4512C20.1156 12.9029 20.8057 12.7117 20.7177 12.2609C20.3288 10.1809 20.7389 8.03072 21.8659 6.23975C22.9039 4.60565 24.5702 3.58557 26.4115 3.07338C27.542 2.77928 28.7121 2.66674 29.878 2.73997C30.8138 2.7604 31.7419 2.91474 32.634 3.19829C33.3637 3.45454 34.043 3.83608 34.6416 4.32576C35.373 4.88718 36.0001 5.57284 36.494 6.35142C37.1188 7.41705 37.5491 8.58531 37.7647 9.80163C38.0016 11.0296 37.9745 12.2939 37.6852 13.5106C37.58 13.958 38.2701 14.15 38.3755 13.701L38.3756 13.7003Z" fill="#211715"/>
<path d="M14.4487 38.5514C14.3278 38.6051 14.4099 38.5675 14.4419 38.5571C14.4668 38.5493 14.492 38.5425 14.5175 38.5365C14.5479 38.5296 14.5787 38.524 14.6094 38.5186C14.6366 38.514 14.6862 38.5151 14.5769 38.5226C14.5924 38.5215 14.6078 38.519 14.6234 38.5174C14.7609 38.5044 14.8991 38.5019 15.037 38.5099C15.1061 38.5135 15.175 38.5203 15.2439 38.5278C15.3076 38.5344 15.1746 38.5169 15.2193 38.5244C15.2358 38.5271 15.2523 38.5292 15.2687 38.5319C15.301 38.537 15.333 38.543 15.3648 38.5498C15.4266 38.5625 15.4881 38.5773 15.5483 38.5961C15.574 38.6042 15.5993 38.614 15.6247 38.6226C15.6812 38.6432 15.597 38.6078 15.5875 38.6067C15.6009 38.6108 15.6136 38.6168 15.6252 38.6246C15.7072 38.6725 15.8048 38.6859 15.8967 38.6618C15.9885 38.6377 16.067 38.5781 16.1149 38.4961C16.1628 38.4141 16.1761 38.3165 16.152 38.2247C16.1279 38.1328 16.0683 38.0544 15.9864 38.0065C15.6883 37.8708 15.3653 37.7986 15.0379 37.7944C14.7148 37.7648 14.3893 37.8126 14.0883 37.9336C14.0066 37.9817 13.9472 38.0602 13.9231 38.152C13.8991 38.2437 13.9123 38.3412 13.9598 38.4233C14.0096 38.5032 14.0881 38.561 14.1792 38.5849C14.2703 38.6088 14.367 38.5969 14.4496 38.5518L14.4487 38.5514Z" fill="#211715"/>
<path d="M42.7247 38.8031C42.7705 38.7723 42.8179 38.7441 42.8668 38.7186C42.8917 38.7055 42.9168 38.6931 42.9424 38.6814C42.9569 38.6746 42.9717 38.6683 42.9862 38.6615C43.0265 38.6427 42.9128 38.6911 42.9549 38.6746C43.0751 38.6269 43.198 38.586 43.3228 38.5522C43.4422 38.5202 43.563 38.4964 43.6851 38.4763C43.7348 38.4681 43.6534 38.4797 43.6455 38.4813C43.6598 38.4783 43.6757 38.4776 43.6906 38.4759C43.7167 38.4731 43.7429 38.4706 43.769 38.4686C43.8212 38.4649 43.8737 38.4631 43.9261 38.4641C44.0208 38.4633 44.1113 38.4253 44.1782 38.3583C44.2452 38.2914 44.2832 38.2009 44.284 38.1062C44.2822 38.0119 44.2439 37.9219 44.1772 37.8552C44.1104 37.7884 44.0205 37.7501 43.9261 37.7483C43.6576 37.7491 43.3904 37.7873 43.1324 37.8618C42.86 37.9268 42.6 38.0359 42.3629 38.185C42.2809 38.2329 42.2213 38.3114 42.1973 38.4032C42.1732 38.4951 42.1866 38.5927 42.2345 38.6747C42.2824 38.7567 42.3609 38.8162 42.4527 38.8403C42.5446 38.8644 42.6422 38.851 42.7242 38.8031H42.7247Z" fill="#211715"/>
<path d="M42.2977 57.1216C42.3739 57.5654 42.4588 58.008 42.5286 58.4527L42.969 58.0125C41.1898 57.7538 39.3955 57.6123 37.5978 57.5889C35.809 57.5388 34.0188 57.6122 32.24 57.8083C31.4366 57.8904 30.6414 58.0389 29.8625 58.2523H30.0529C28.1577 57.671 26.1559 57.4364 24.1816 57.3435C22.3294 57.2484 20.4725 57.3069 18.63 57.5184C17.8687 57.5954 17.1148 57.7325 16.3751 57.9282L16.8155 58.3686C16.9905 57.8083 17.1661 57.248 17.3511 56.6909C17.4968 56.2526 16.8056 56.0645 16.6609 56.5006C16.4758 57.0575 16.3003 57.6179 16.1252 58.1782C16.1093 58.2391 16.1096 58.3031 16.1261 58.3639C16.1426 58.4246 16.1747 58.48 16.2192 58.5245C16.2637 58.569 16.3191 58.6011 16.3798 58.6176C16.4406 58.6341 16.5046 58.6344 16.5655 58.6184C17.8996 58.2389 19.3215 58.132 20.7011 58.0637C22.5863 57.9644 24.4764 58.0214 26.3522 58.2342C27.2756 58.3384 28.1913 58.503 29.0932 58.7271C29.2928 58.7775 29.4912 58.8318 29.6886 58.8899C29.8034 58.9387 29.9289 58.9568 30.0528 58.9424C30.1365 58.9245 30.2199 58.8946 30.3033 58.8728C30.6312 58.787 30.9639 58.719 31.2978 58.6612C33.04 58.39 34.8022 58.2675 36.5652 58.2951C38.6441 58.2736 40.7217 58.4099 42.78 58.7026C42.8408 58.7174 42.9043 58.7163 42.9646 58.6994C43.0248 58.6825 43.0796 58.6504 43.1239 58.6062C43.1681 58.562 43.2002 58.5071 43.2171 58.4469C43.234 58.3866 43.235 58.3231 43.2202 58.2623C43.1501 57.8174 43.0656 57.375 42.9896 56.9312C42.9638 56.84 42.9031 56.7625 42.8207 56.7157C42.7383 56.6688 42.6407 56.6562 42.5491 56.6806C42.4587 56.7076 42.3821 56.7684 42.3355 56.8505C42.2888 56.9325 42.2756 57.0294 42.2986 57.1209L42.2977 57.1216Z" fill="#211715"/>
<path d="M37.2013 14.2562C37.5483 13.9645 38.1579 14.0394 38.3619 14.4666C38.4565 14.7216 38.4949 14.9941 38.4744 15.2653C38.4749 15.5479 38.4461 15.8298 38.3887 16.1064C38.2819 16.6595 38.0588 17.1836 37.7343 17.6439C37.6122 17.8439 37.4338 18.0034 37.2213 18.1022C36.9669 18.164 36.7076 18.2035 36.4463 18.2202C36.3549 18.2458 36.2774 18.3064 36.2305 18.3889C36.1836 18.4713 36.1711 18.569 36.1957 18.6606C36.2229 18.7509 36.2838 18.8273 36.3657 18.8739C36.4477 18.9206 36.5444 18.9339 36.636 18.9111C36.9681 18.8641 37.3044 18.8591 37.6136 18.7143C37.9353 18.5286 38.2041 18.2637 38.3944 17.9447C38.8142 17.305 39.0751 16.5743 39.1552 15.8133C39.2352 15.1377 39.2531 14.2544 38.7096 13.7552C38.4322 13.5085 38.0742 13.3717 37.703 13.3706C37.3317 13.3695 36.9729 13.5042 36.6941 13.7493C36.341 14.0462 36.8496 14.5504 37.2002 14.2554L37.2013 14.2562Z" fill="#211715"/>
<path d="M36.3128 17.5791C36.293 17.9138 36.2305 18.2446 36.1269 18.5634C36.0911 18.6817 36.0524 18.7991 36.0132 18.9163C36.0012 18.9521 35.9892 18.987 35.9774 19.0223C35.9656 19.0575 35.939 19.1143 35.9692 19.045C35.8214 19.3723 35.6509 19.6889 35.459 19.9924C34.9175 20.9048 34.2271 21.72 33.4165 22.4045C32.9735 22.7815 32.4504 23.0526 31.8869 23.1971C31.4384 23.3011 31.6283 23.9915 32.0773 23.8873C33.2363 23.6189 34.1985 22.7721 34.9548 21.8916C35.6043 21.1599 36.1466 20.3397 36.5655 19.4555C36.8374 18.8653 36.9947 18.2288 37.029 17.5798C37.0455 17.1192 36.3296 17.1199 36.3132 17.5798L36.3128 17.5791Z" fill="#211715"/>
<path d="M21.7205 13.4956C21.4417 13.2504 21.0829 13.1157 20.7116 13.1167C20.3403 13.1178 19.9822 13.2546 19.7048 13.5013C19.1322 14.0277 19.1789 14.9806 19.2753 15.6847C19.3731 16.4668 19.6688 17.2111 20.1343 17.8471C20.5818 18.4332 21.2366 18.889 22.0029 18.7268C22.4533 18.6316 22.2627 17.9414 21.8125 18.0366C21.3543 18.1334 20.9293 17.7295 20.6804 17.39C20.3489 16.9181 20.1231 16.3802 20.0182 15.8132C19.9635 15.5362 19.9375 15.2543 19.9405 14.972C19.9236 14.7138 19.9619 14.4549 20.0527 14.2125C20.2569 13.7852 20.8663 13.7104 21.2133 14.0021C21.5637 14.2968 22.0723 13.7929 21.7196 13.496L21.7205 13.4956Z" fill="#211715"/>
<path d="M21.3155 16.6383C21.4339 17.7989 21.7367 18.9332 22.2127 19.9983C22.8623 21.3621 23.8767 22.5195 25.1435 23.3424C25.7919 23.7709 26.5239 24.0567 27.2911 24.1809C27.3826 24.2031 27.4791 24.1895 27.5609 24.1429C27.6427 24.0964 27.7037 24.0203 27.7313 23.9303C27.7558 23.8387 27.7432 23.7412 27.6964 23.6588C27.6495 23.5764 27.572 23.5158 27.4808 23.4901C26.1795 23.2955 25.0752 22.546 24.1836 21.6072C23.2759 20.6411 22.6319 19.4579 22.3134 18.1711C22.1864 17.6669 22.0918 17.155 22.0303 16.6387C22.0275 16.5447 21.9889 16.4553 21.9223 16.3887C21.8558 16.3222 21.7664 16.2836 21.6724 16.2808C21.5776 16.2813 21.4869 16.3192 21.4199 16.3862C21.3529 16.4532 21.315 16.5439 21.3145 16.6387L21.3155 16.6383Z" fill="#211715"/>
<path d="M33.6406 10.9207C34.2697 11.1879 34.8222 11.6079 35.2479 12.1427C35.7875 12.8567 36.0967 13.7181 36.1343 14.6123C36.1618 15.0699 36.878 15.0732 36.8501 14.6123C36.805 13.5472 36.4331 12.5219 35.7851 11.6754C35.2718 11.0305 34.5978 10.532 33.8308 10.2301C33.7393 10.2055 33.6417 10.218 33.5592 10.2649C33.4768 10.3118 33.4162 10.3893 33.3906 10.4806C33.3677 10.5722 33.381 10.669 33.4276 10.751C33.4743 10.833 33.5508 10.8938 33.6411 10.9209L33.6406 10.9207Z" fill="#211715"/>
<path d="M25.3304 23.6957C25.9455 26.0938 26.7403 28.4561 27.5463 30.7958C27.9603 31.9979 28.3862 33.1971 28.8556 34.3788C28.99 34.7174 29.1216 35.056 29.2423 35.3989C29.3567 35.6677 29.4521 35.9442 29.5278 36.2264C29.562 36.4007 29.5853 36.577 29.5978 36.7542C29.6226 37.0163 29.6404 37.2791 29.6554 37.5416C29.7286 38.8301 29.7449 40.1247 29.7449 41.4159C29.7449 41.8766 30.4607 41.8775 30.4607 41.4159C30.4607 40.2718 30.4444 39.1267 30.3931 37.9834C30.3695 37.4582 30.3422 36.9312 30.2748 36.4086C30.1975 35.8098 29.9586 35.2511 29.7449 34.6886C28.7964 32.1946 27.8996 29.6907 27.0936 27.1462C26.7115 25.94 26.3346 24.7294 26.0198 23.5035C25.9054 23.0575 25.2145 23.2467 25.3295 23.6939L25.3304 23.6957Z" fill="#211715"/>
<path d="M32.4888 23.3461C32.2145 24.7817 31.8957 26.2095 31.5652 27.6333C31.1761 29.3089 30.7681 30.9828 30.2862 32.6346C30.1012 33.3057 29.8807 33.9664 29.6254 34.6141C29.6008 34.7057 29.6132 34.8033 29.6601 34.8857C29.7071 34.9682 29.7846 35.0288 29.876 35.0543C29.9675 35.0772 30.0644 35.0639 30.1464 35.0172C30.2284 34.9706 30.2893 34.8941 30.3164 34.8038C30.8533 33.4995 31.1933 32.1029 31.5448 30.7403C31.9774 29.0607 32.3709 27.371 32.7385 25.6756C32.8927 24.9637 33.0427 24.2508 33.1798 23.5353C33.2657 23.085 32.576 22.8923 32.4895 23.3448L32.4888 23.3461Z" fill="#211715"/>
<path d="M34.3767 22.6369C34.8866 23.021 35.331 23.4851 35.6926 24.0112C35.9916 24.421 36.3302 24.906 36.4659 25.3659L36.6303 24.9616C35.8237 25.4364 35.022 25.9354 34.1911 26.3668C34.1441 26.3947 34.1042 26.433 34.0742 26.4786C34.0442 26.5242 34.025 26.5761 34.018 26.6303C34.011 26.6844 34.0165 26.7394 34.0339 26.7912C34.0513 26.8429 34.0803 26.89 34.1186 26.929C34.5945 27.3351 35.046 27.7689 35.4708 28.2282V27.7219C35.2994 27.9648 35.1474 28.2209 35.0163 28.4877C34.7382 28.9956 34.464 29.5056 34.1879 30.0146C33.4835 31.3133 32.7755 32.611 32.0249 33.8838C31.6754 34.4761 31.32 35.0681 30.9209 35.629C30.8738 35.7112 30.8608 35.8085 30.8849 35.9001C30.9089 35.9917 30.968 36.0702 31.0494 36.1186C31.1318 36.1645 31.2288 36.1768 31.32 36.1529C31.4113 36.129 31.4897 36.0707 31.539 35.9903C32.2829 34.8959 32.9669 33.762 33.5882 32.5936C34.2462 31.4166 34.8829 30.2279 35.5281 29.0436C35.6355 28.8451 35.7445 28.6464 35.8558 28.4496C35.89 28.3891 35.9241 28.3284 35.9599 28.269C35.9841 28.2289 36.0807 28.0947 35.9769 28.2282C36.0415 28.1598 36.0775 28.0692 36.0775 27.9751C36.0775 27.8809 36.0415 27.7904 35.9769 27.7219C35.5522 27.2627 35.1007 26.8289 34.6249 26.4228L34.5524 26.985C35.3831 26.5535 36.1851 26.0544 36.9917 25.5798C37.059 25.5392 37.1114 25.4779 37.141 25.405C37.1707 25.3322 37.176 25.2517 37.1561 25.1757C36.9541 24.6028 36.6551 24.069 36.2722 23.5974C35.8488 22.9923 35.3307 22.4593 34.738 22.0188C34.3602 21.7534 34.0021 22.3737 34.3767 22.6369Z" fill="#211715"/>
<path d="M23.5931 21.9157C23.0693 22.3565 22.5923 22.85 22.1694 23.3884C21.804 23.8408 21.3904 24.3428 21.2209 24.9095C21.2017 24.9857 21.2073 25.0659 21.2369 25.1386C21.2665 25.2114 21.3185 25.2727 21.3854 25.3138C22.1759 25.8865 23.0202 26.432 23.7787 27.0275V26.5222C23.5281 26.7688 23.2561 26.991 22.9866 27.2156C22.7646 27.3818 22.5593 27.5691 22.3735 27.7749C22.3098 27.8438 22.2744 27.9342 22.2744 28.028C22.2744 28.1219 22.3098 28.2123 22.3735 28.2812C22.3185 28.2119 22.3377 28.2339 22.3844 28.2967C22.4255 28.3519 22.4665 28.4071 22.5073 28.4625C22.6252 28.6223 22.7427 28.7824 22.8599 28.9426C23.2297 29.4469 23.5996 29.9511 23.9694 30.4552C24.8868 31.7031 25.8068 32.9496 26.7498 34.1776C27.1555 34.7064 27.5612 35.2371 27.9945 35.7439C28.2944 36.0945 28.7987 35.586 28.5008 35.2376C27.6543 34.2476 26.8863 33.191 26.1075 32.1473C25.251 30.9995 24.4012 29.847 23.5582 28.6896C23.3339 28.3835 23.116 28.0714 22.8799 27.7742V28.2805C23.0657 28.0747 23.2711 27.8874 23.493 27.7212C23.7627 27.4966 24.0349 27.2738 24.2851 27.0277C24.3518 26.9603 24.3892 26.8694 24.3892 26.7746C24.3892 26.6798 24.3518 26.5888 24.2851 26.5214C23.466 25.8784 22.59 25.3068 21.7471 24.696L21.9116 25.1001C22.0368 24.678 22.4429 24.1753 22.7564 23.7955C23.1582 23.295 23.6077 22.8347 24.0986 22.4212C24.4555 22.1294 23.9464 21.6256 23.5925 21.9151L23.5931 21.9157Z" fill="#211715"/>
<path d="M23.0822 22.3635C21.9727 22.8542 20.8311 23.2717 19.7061 23.7236C19.1021 23.9666 18.4994 24.2134 17.9049 24.479C17.354 24.7039 16.8314 24.9928 16.3479 25.3396C15.6215 25.8971 15.1005 26.6382 14.6499 27.4258C14.4208 27.8263 15.0392 28.1873 15.2681 27.7871C15.6276 27.1028 16.1089 26.4897 16.6885 25.9782C17.1503 25.6301 17.6565 25.3451 18.1935 25.1306C19.35 24.6093 20.5379 24.1596 21.7171 23.6921C22.2957 23.4627 22.8748 23.2334 23.4441 22.9816C23.5256 22.9332 23.5847 22.8547 23.6088 22.7631C23.6328 22.6714 23.6198 22.574 23.5726 22.4918C23.5231 22.4116 23.4446 22.3535 23.3534 22.3296C23.2622 22.3057 23.1653 22.3178 23.0828 22.3635H23.0822Z" fill="#211715"/>
<path d="M34.9393 23.0706C36.013 23.4664 37.1061 23.8117 38.1944 24.1664C38.7792 24.3571 39.3641 24.5477 39.947 24.7442C40.4785 24.9063 41.0015 25.0951 41.514 25.3099C42.0464 25.5521 42.3814 26.0297 42.7255 26.4852C42.7754 26.565 42.8539 26.6227 42.945 26.6466C43.036 26.6704 43.1327 26.6587 43.2154 26.6137C43.2968 26.5653 43.3559 26.4868 43.3799 26.3952C43.4039 26.3035 43.3909 26.2061 43.3437 26.124C43.0369 25.7178 42.7259 25.2541 42.3137 24.9474C41.8114 24.5735 41.1489 24.4008 40.5621 24.1988C39.3605 23.7846 38.1482 23.4026 36.9415 23.0038C36.335 22.8034 35.7288 22.6012 35.1295 22.3801C34.6966 22.2207 34.5099 22.9122 34.9393 23.0706Z" fill="#211715"/>
<path d="M28.7564 27.2203C29.287 27.2203 29.8176 27.2086 30.3491 27.2083C30.444 27.2083 30.5351 27.1706 30.6022 27.1034C30.6693 27.0363 30.707 26.9453 30.707 26.8504C30.707 26.7554 30.6693 26.6644 30.6022 26.5973C30.5351 26.5301 30.444 26.4924 30.3491 26.4924C29.8185 26.4924 29.2879 26.5042 28.7564 26.5044C28.6614 26.5044 28.5704 26.5421 28.5033 26.6093C28.4361 26.6764 28.3984 26.7674 28.3984 26.8623C28.3984 26.9573 28.4361 27.0483 28.5033 27.1154C28.5704 27.1826 28.6614 27.2203 28.7564 27.2203Z" fill="#211715"/>
<path d="M28.1191 25.8881C28.1758 26.1789 28.2569 26.4686 28.3067 26.7601C28.3151 26.809 28.3131 26.8575 28.3176 26.9051C28.3085 26.8083 28.324 26.858 28.3142 26.925C28.2685 27.2398 28.2195 27.5538 28.1724 27.8683C28.0137 28.9275 27.861 29.9877 27.7302 31.0506C27.7307 31.1454 27.7686 31.2361 27.8356 31.3031C27.9026 31.3702 27.9934 31.408 28.0881 31.4085C28.1824 31.4062 28.2721 31.3678 28.3387 31.3011C28.4054 31.2345 28.4438 31.1448 28.4461 31.0506C28.5758 29.9956 28.7295 28.9437 28.8877 27.8924C28.9303 27.6093 28.9751 27.3266 29.0148 27.0429C29.0771 26.5989 28.8942 26.1322 28.8094 25.6976C28.7211 25.2459 28.0311 25.4373 28.1191 25.8881Z" fill="#211715"/>
<path d="M31.4028 30.9819C31.25 29.9636 31.0834 28.9475 30.9177 27.9312C30.866 27.6133 30.8152 27.2954 30.7652 26.9775C30.7623 26.9596 30.76 26.9404 30.7571 26.9218C30.7503 26.8772 30.7559 27.0186 30.7612 26.9517C30.7641 26.9145 30.7577 26.8762 30.7612 26.8382C30.8125 26.5822 30.8794 26.3296 30.9617 26.0818C31.0657 25.6344 30.3756 25.4421 30.2714 25.8915C30.1771 26.2974 30.0053 26.679 30.0651 27.1022C30.108 27.4064 30.1599 27.7092 30.2093 28.0124C30.3806 29.0651 30.554 30.1175 30.7122 31.1722C30.7378 31.2635 30.7984 31.341 30.8809 31.3879C30.9633 31.4348 31.0609 31.4473 31.1524 31.4227C31.2428 31.3956 31.3192 31.3347 31.3658 31.2527C31.4125 31.1708 31.4258 31.074 31.403 30.9825L31.4028 30.9819Z" fill="#211715"/>
<path d="M29.8629 24.541C29.6034 24.541 29.3439 24.5417 29.0843 24.543C28.9896 24.5442 28.899 24.5817 28.8312 24.6477C28.798 24.6809 28.7716 24.7204 28.7536 24.7638C28.7356 24.8072 28.7263 24.8538 28.7263 24.9008C28.7263 24.9478 28.7356 24.9944 28.7536 25.0378C28.7716 25.0813 28.798 25.1207 28.8312 25.154C28.8991 25.2199 28.9896 25.2574 29.0843 25.2588C29.3437 25.2578 29.6033 25.2571 29.8629 25.2569C29.9576 25.2557 30.0482 25.2182 30.116 25.152C30.1492 25.1188 30.1756 25.0793 30.1936 25.0359C30.2116 24.9924 30.2209 24.9459 30.2209 24.8988C30.2209 24.8518 30.2116 24.8053 30.1936 24.7618C30.1756 24.7184 30.1492 24.6789 30.116 24.6457C30.048 24.5799 29.9575 24.5424 29.8629 24.541Z" fill="#211715"/>
<path d="M31.8013 23.3516C31.4494 23.5828 31.0799 23.786 30.696 23.9591C30.4902 24.0591 30.2833 24.1567 30.0752 24.2519C29.8896 24.3122 29.7169 24.4064 29.5657 24.5299C29.3417 24.7695 29.4551 25.0701 29.6259 25.2958C29.7987 25.5243 29.9807 25.7463 30.1627 25.968C30.4849 26.3617 30.814 26.7522 31.1354 27.1479C31.2029 27.2142 31.2938 27.2513 31.3884 27.2513C31.4831 27.2513 31.5739 27.2142 31.6415 27.1479C31.9884 26.8021 32.3026 26.425 32.5802 26.0215C32.6281 25.9395 32.6415 25.8419 32.6174 25.75C32.5933 25.6582 32.5337 25.5797 32.4517 25.5318C32.3698 25.4839 32.2721 25.4705 32.1803 25.4945C32.0884 25.5186 32.0099 25.5782 31.962 25.6602C31.7173 26.0121 31.4406 26.3406 31.1354 26.6416H31.6415C31.3763 26.3152 31.1059 25.993 30.8385 25.6684C30.6864 25.4835 30.5343 25.2983 30.3847 25.1117C30.3533 25.0725 30.3222 25.0334 30.2911 24.9941C30.2939 24.9977 30.2195 24.9025 30.2445 24.9345C30.2252 24.9091 30.2057 24.8838 30.1874 24.8577C30.1749 24.8398 30.1627 24.8219 30.1516 24.804C30.1308 24.7682 30.1328 24.7731 30.1579 24.8185L30.109 24.9991C30.0545 25.0454 30.0541 25.0524 30.1078 25.0202L30.1588 24.9969C30.1969 24.979 30.2354 24.9622 30.2737 24.9447C30.3521 24.9089 30.4304 24.8731 30.5087 24.8373C30.7066 24.7459 30.9035 24.6526 31.0992 24.5572C31.4686 24.3893 31.8243 24.1929 32.1632 23.9697C32.2433 23.9201 32.3013 23.8417 32.3252 23.7505C32.3491 23.6594 32.3371 23.5626 32.2917 23.4801C32.2433 23.3987 32.1648 23.3396 32.0732 23.3155C31.9816 23.2915 31.8842 23.3044 31.802 23.3516H31.8013Z" fill="#211715"/>
<path d="M25.7775 25.1465C26.198 25.875 26.7043 26.5504 27.2856 27.1583C27.353 27.2249 27.4439 27.2623 27.5387 27.2623C27.6334 27.2623 27.7243 27.2249 27.7917 27.1583C28.078 26.8031 28.3735 26.454 28.6633 26.1009C28.8154 25.9156 28.9675 25.7308 29.1171 25.543C29.243 25.4059 29.3518 25.254 29.441 25.0906C29.4736 25.0252 29.4917 24.9536 29.4944 24.8806C29.497 24.8076 29.484 24.7348 29.4562 24.6672C29.4285 24.5997 29.3866 24.5388 29.3334 24.4887C29.2803 24.4386 29.217 24.4004 29.1479 24.3767C28.9834 24.303 28.817 24.2336 28.6514 24.162C28.275 24.0154 27.9122 23.8357 27.5675 23.6251C27.4855 23.5772 27.3879 23.5638 27.296 23.5879C27.2042 23.612 27.1257 23.6715 27.0777 23.7535C27.0298 23.8355 27.0164 23.9331 27.0405 24.025C27.0646 24.1168 27.1242 24.1953 27.2061 24.2432C27.4776 24.4121 27.7628 24.558 28.0587 24.6792C28.2085 24.7454 28.3592 24.8095 28.5097 24.8737C28.5756 24.902 28.6414 24.9301 28.7066 24.9587C28.7383 24.9724 28.7699 24.9864 28.8012 25.0006L28.8304 25.0137C28.885 25.0447 28.885 25.0377 28.8304 24.9927L28.7815 24.8122C28.8055 24.7683 28.8086 24.7622 28.791 24.7943C28.7841 24.8066 28.7765 24.8186 28.7681 24.8301C28.7502 24.8581 28.7286 24.8848 28.7082 24.9118C28.6808 24.9476 28.6285 25.0138 28.5791 25.0756C28.4229 25.2712 28.2638 25.4641 28.1047 25.6572C27.8316 25.989 27.5549 26.3179 27.2847 26.6521H27.7908C27.2523 26.088 26.7836 25.4612 26.3949 24.7851C26.1558 24.3914 25.5359 24.7515 25.7768 25.1465H25.7775Z" fill="#211715"/>
<path d="M28.2919 49.4812C28.0054 49.2731 27.6697 49.1429 27.3178 49.1034C26.968 49.0346 26.6078 49.0394 26.26 49.1176C26.1684 49.1428 26.0906 49.2034 26.0437 49.286C25.9969 49.3686 25.9847 49.4665 26.01 49.558C26.0352 49.6496 26.0958 49.7273 26.1784 49.7742C26.261 49.8211 26.3588 49.8333 26.4504 49.808C26.476 49.8007 26.5017 49.7944 26.5279 49.7892C26.5449 49.7858 26.5617 49.7831 26.5787 49.7801C26.6274 49.7715 26.5443 49.7857 26.5374 49.7857C26.6063 49.7857 26.6759 49.7738 26.745 49.7729C26.8174 49.7719 26.8901 49.774 26.9624 49.7789C27.0037 49.7815 27.045 49.7849 27.0862 49.7892L27.1317 49.7944C27.2135 49.8034 27.0461 49.7806 27.1274 49.7944C27.2747 49.8163 27.42 49.8493 27.5623 49.8932C27.5952 49.9038 27.6276 49.9152 27.6598 49.9274C27.692 49.9396 27.7292 49.9703 27.6473 49.9213C27.6607 49.9294 27.6765 49.9345 27.6904 49.9413C27.7174 49.9545 27.7439 49.9686 27.7699 49.9838C27.7965 49.9997 27.8873 50.0675 27.7856 49.9882C27.8546 50.0526 27.9446 50.0898 28.0389 50.0931C28.1097 50.0931 28.1789 50.0721 28.2378 50.0328C28.2967 49.9935 28.3426 49.9375 28.3697 49.8721C28.3967 49.8067 28.4038 49.7347 28.39 49.6652C28.3761 49.5958 28.342 49.532 28.2919 49.4819V49.4812Z" fill="#211715"/>
<path d="M28.1198 53.4821C25.6698 52.9039 22.9897 52.7663 20.5336 53.3808C20.0862 53.4925 20.2761 54.1831 20.7238 54.0711C23.0545 53.4877 25.605 53.6237 27.9296 54.1724C28.377 54.2781 28.5688 53.5881 28.1198 53.4821Z" fill="#211715"/>
<path d="M28.2135 51.6074C27.302 51.16 26.2073 51.0717 25.2092 51.018C23.9741 50.944 22.7346 51.0117 21.5149 51.2199C21.4237 51.2458 21.3463 51.3064 21.2994 51.3888C21.2526 51.4712 21.24 51.5687 21.2644 51.6603C21.2913 51.7508 21.3521 51.8273 21.4342 51.874C21.5162 51.9207 21.6131 51.9339 21.7046 51.9109C22.84 51.7225 23.993 51.6624 25.1418 51.7319C26.0221 51.776 27.0826 51.8497 27.8516 52.2269C28.2632 52.429 28.627 51.8119 28.2129 51.6088L28.2135 51.6074Z" fill="#211715"/>
<path d="M32.3724 9.86571C31.9552 10.3334 31.4678 10.7334 30.9277 11.0513C30.6469 11.2148 30.3368 11.3217 30.0149 11.3661C29.8632 11.3804 29.4038 11.3316 29.4396 11.0696C29.458 10.9938 29.4515 10.9141 29.4209 10.8423C29.3903 10.7705 29.3373 10.7106 29.2698 10.6714C29.2023 10.6323 29.124 10.616 29.0465 10.625C28.969 10.634 28.8965 10.6679 28.8399 10.7215C27.6904 11.6278 26.4597 12.5736 25.0146 12.938C24.6678 13.027 24.3115 13.0728 23.9535 13.0745C23.5739 13.0745 23.1825 13.0004 22.8293 13.1835C22.5882 13.3311 22.3888 13.5377 22.25 13.7839C22.1705 13.9038 22.0458 14.1672 21.8942 14.1798C21.4384 14.2177 21.4343 14.9339 21.8942 14.8956C22.0483 14.882 22.1974 14.8341 22.3305 14.7554C22.4637 14.6766 22.5775 14.5691 22.6637 14.4407C22.8069 14.2528 22.9143 13.9972 23.1047 13.8516C23.2502 13.7718 23.4191 13.7454 23.582 13.7771C23.755 13.785 23.927 13.7937 24.101 13.7877C24.4978 13.7726 24.8918 13.713 25.2753 13.61C26.8153 13.1983 28.116 12.1976 29.3462 11.2276L28.7486 10.879C28.7146 11.0941 28.7508 11.3145 28.8518 11.5075C28.9528 11.7005 29.1133 11.8558 29.3095 11.9504C29.7583 12.1763 30.287 12.0814 30.739 11.9157C31.5846 11.6058 32.2629 11.0118 32.8785 10.3715C33.198 10.0393 32.6924 9.53249 32.3724 9.86535V9.86571Z" fill="#211715"/>
<path d="M25.6143 9.35337C25.0355 9.72581 24.4771 10.1289 23.9414 10.561C23.8745 10.6283 23.8369 10.7193 23.8369 10.8141C23.8369 10.909 23.8745 11 23.9414 11.0673C24.0097 11.132 24.1003 11.168 24.1944 11.168C24.2885 11.168 24.3791 11.132 24.4475 11.0673C24.5106 11.0165 24.574 10.9661 24.6377 10.9162C24.6488 10.9075 24.7503 10.8287 24.6849 10.879L24.7814 10.8053C24.9105 10.7075 25.0407 10.6113 25.1721 10.5168C25.4346 10.3278 25.7024 10.1461 25.9756 9.97151C26.0162 9.94778 26.0517 9.91629 26.0801 9.87884C26.1086 9.84139 26.1293 9.79871 26.1412 9.75324C26.1532 9.70776 26.156 9.66038 26.1496 9.6138C26.1432 9.56723 26.1277 9.52236 26.104 9.48178C26.0803 9.44119 26.0488 9.40567 26.0114 9.37726C25.9739 9.34884 25.9312 9.32807 25.8858 9.31615C25.8403 9.30423 25.7929 9.30138 25.7463 9.30776C25.6997 9.31415 25.6549 9.32965 25.6143 9.35337Z" fill="#211715"/>
<path d="M19.2999 41.3791C20.5125 41.3134 21.6689 41.4399 22.601 42.3902C23.1511 42.9509 24.1968 43.8444 24.2739 44.7369C24.3047 45.0923 24.0737 45.6423 23.6821 45.8127L22.6031 48.1649C22.8782 48.4692 22.9047 48.693 22.7463 48.8777C22.6507 48.9929 22.5261 49.0804 22.3854 49.1314C22.2447 49.1823 22.0929 49.1948 21.9458 49.1675C21.6475 49.1313 21.3681 49.0025 21.1469 48.7992C21.2384 49.0361 20.5807 49.3167 20.4132 49.3445C19.7915 49.4474 19.3791 49.1456 18.9655 48.7423C19.1007 49.3046 18.2461 49.8747 17.6554 49.4261C17.0503 48.9665 16.6174 48.6012 16.2929 47.9765C15.9785 47.3707 15.8677 46.7238 15.683 46.2815C15.3942 45.5376 14.7356 45.0193 14.8455 44.5583C15.0262 43.7014 15.9551 42.6717 16.4791 42.2032C17.1545 41.5986 18.431 41.4252 19.3006 41.3782" fill="white"/>
<path d="M21.972 44.5239C22.1057 44.8038 24.2603 48.5641 24.6611 49.2444L24.9666 49.1229C24.4254 47.788 20.8745 39.9747 20.0368 38.2948C19.9918 38.2047 19.915 38.1344 19.8213 38.0976C19.7276 38.0607 19.6235 38.0599 19.5292 38.0952C19.4791 38.1131 19.4285 38.1334 19.378 38.1527C19.3284 38.1716 19.2831 38.2004 19.245 38.2375C19.2069 38.2745 19.1768 38.3189 19.1565 38.368C19.1362 38.4171 19.1262 38.4698 19.127 38.5229C19.1278 38.576 19.1395 38.6284 19.1613 38.6769C19.5808 39.6059 20.1291 40.8627 20.6597 41.8024C21.1071 42.5945 21.5996 43.6916 21.972 44.5239Z" fill="#211715"/>
<path d="M21.6637 44.7042C21.9178 45.2275 22.2322 45.7277 22.5197 46.2331C22.9663 47.0183 23.4151 47.8022 23.866 48.5848C24.027 48.8651 24.1881 49.1457 24.3528 49.4245C24.393 49.4923 24.4543 49.545 24.5273 49.5747C24.6002 49.6044 24.6809 49.6094 24.757 49.589L25.0625 49.4676C25.2256 49.4027 25.3916 49.2219 25.3131 49.0272C24.4719 46.959 23.5075 44.9354 22.5805 42.9051C22.0471 41.7367 21.5088 40.5705 20.9655 39.4064C20.7866 39.0258 20.6076 38.6453 20.4229 38.2677C20.2681 37.9513 20.031 37.7031 19.6493 37.7116C19.1559 37.7229 18.6841 38.1412 18.7856 38.6578C18.8586 38.9047 18.9584 39.1429 19.0832 39.3681C19.1975 39.6226 19.3127 39.8767 19.4288 40.1305C19.677 40.6702 19.9317 41.2077 20.2132 41.7308C20.7374 42.7047 21.2123 43.6943 21.6642 44.7042C21.7126 44.7857 21.7912 44.8448 21.8828 44.8688C21.9745 44.8928 22.0719 44.8798 22.154 44.8325C22.2342 44.7831 22.2923 44.7046 22.3162 44.6134C22.3401 44.5222 22.328 44.4254 22.2823 44.3429C21.899 43.486 21.5175 42.6249 21.0688 41.7998C20.6201 40.9748 20.2098 40.1355 19.8236 39.2783C19.7338 39.0794 19.6443 38.8805 19.5551 38.6816C19.534 38.6349 19.4673 38.5452 19.4927 38.4894C19.4823 38.5121 19.618 38.4257 19.6491 38.4275C19.7593 38.4339 19.8356 38.6922 19.8818 38.7854C20.0625 39.1591 20.2397 39.5346 20.4151 39.9104C21.4749 42.1741 22.5137 44.4477 23.5315 46.7311C23.7652 47.2526 23.9974 47.775 24.228 48.2981C24.3126 48.4908 24.3967 48.6839 24.4804 48.8774C24.4981 48.9187 24.516 48.9601 24.534 49.0015C24.5457 49.0283 24.5936 49.1428 24.5493 49.0372C24.5744 49.0969 24.5994 49.1571 24.6241 49.2178L24.8746 48.7774L24.5691 48.8989L24.9734 49.0634C24.1767 47.7104 23.4021 46.3432 22.6324 44.975C22.5148 44.7661 22.3892 44.5589 22.2843 44.3431C22.0832 43.9288 21.4656 44.2912 21.6662 44.7044L21.6637 44.7042Z" fill="#211715"/>
<path d="M19.3001 41.7369C19.9224 41.6815 20.5497 41.7378 21.1522 41.9032C21.7569 42.0934 22.18 42.4809 22.622 42.9149C23.0465 43.3317 23.4962 43.7592 23.7706 44.295C23.9807 44.7052 23.9739 45.2745 23.5021 45.5036C23.0877 45.7045 23.4502 46.3221 23.8633 46.1217C24.0964 45.9906 24.2906 45.8 24.4261 45.5694C24.5616 45.3388 24.6336 45.0765 24.6348 44.809C24.6387 44.2395 24.2948 43.7173 23.9547 43.2903C23.6106 42.8853 23.2436 42.5002 22.8555 42.1371C22.4257 41.7035 21.8955 41.3828 21.312 41.2033C20.6573 41.027 19.9771 40.9654 19.3014 41.0211C18.843 41.0445 18.8402 41.7604 19.3014 41.7369H19.3001Z" fill="#211715"/>
<path d="M21.499 44.1021C21.8621 44.7642 22.7936 45.8725 23.1565 46.534C23.2585 46.7197 23.579 47.2638 23.5941 47.4751C23.6105 47.7078 23.2335 48.2926 22.5004 48.0419C22.7911 48.3699 22.9278 48.6663 22.7456 48.8777C22.65 48.9928 22.5254 49.0803 22.3847 49.1313C22.244 49.1822 22.0923 49.1947 21.9451 49.1674C21.6469 49.1312 21.3675 49.0024 21.1462 48.7991C21.1715 49.0895 20.7225 49.2411 20.5557 49.2689C19.9339 49.3718 19.4321 49.1096 18.9656 48.7422C18.6157 49.3923 18.2462 49.8746 17.6554 49.426C17.0503 48.9664 16.6174 48.6012 16.293 47.9764" fill="white"/>
<path d="M17.5783 47.7552C17.9004 48.2163 18.2816 48.6332 18.7121 48.9952C18.7808 49.0599 18.8708 49.0972 18.9651 49.1001C19.0359 49.1001 19.1051 49.0791 19.1639 49.0398C19.2228 49.0004 19.2686 48.9445 19.2957 48.8791C19.3228 48.8137 19.3299 48.7418 19.3161 48.6724C19.3023 48.603 19.2682 48.5392 19.2182 48.4891C18.8729 48.2034 18.5616 47.8788 18.2906 47.5218L18.3464 47.5934C18.2955 47.5273 18.2455 47.4606 18.1965 47.3932C18.1468 47.3145 18.0706 47.2561 17.9817 47.2287C17.8887 47.2038 17.7896 47.2167 17.7059 47.2645C17.6247 47.3131 17.5658 47.3916 17.5418 47.4831C17.5179 47.5747 17.5307 47.672 17.5776 47.7541L17.5783 47.7552Z" fill="#211715"/>
<path d="M18.6077 46.4966C19.2925 47.4144 20.0576 48.2695 20.8939 49.0518C20.962 49.1172 21.0527 49.1537 21.147 49.1537C21.2414 49.1537 21.3321 49.1172 21.4002 49.0518C21.4663 48.9842 21.5034 48.8933 21.5034 48.7987C21.5034 48.7041 21.4663 48.6133 21.4002 48.5457C20.6056 47.8078 19.878 47.001 19.2258 46.1347C19.1758 46.055 19.0973 45.9973 19.0063 45.9735C18.9153 45.9496 18.8186 45.9614 18.736 46.0064C18.6545 46.0547 18.5954 46.1332 18.5713 46.2249C18.5473 46.3165 18.5604 46.414 18.6077 46.496V46.4966Z" fill="#211715"/>
<path d="M19.9245 45.3495C20.6569 46.4304 21.4676 47.456 22.3501 48.4181C22.4177 48.4833 22.5081 48.5194 22.6019 48.5186C22.6958 48.5178 22.7855 48.4801 22.8519 48.4138C22.9183 48.3474 22.9559 48.2577 22.9567 48.1638C22.9575 48.07 22.9214 47.9795 22.8562 47.912C22.0142 46.9957 21.2409 46.0184 20.5426 44.9882C20.4931 44.908 20.4146 44.8499 20.3234 44.826C20.2322 44.8021 20.1353 44.8141 20.0528 44.8597C19.9715 44.9082 19.9125 44.9867 19.8885 45.0783C19.8645 45.1699 19.8774 45.2673 19.9245 45.3495Z" fill="#211715"/>
<path d="M19.3002 41.0212C18.3379 41.0749 17.2335 41.2031 16.4314 41.7868C16.0718 42.0654 15.7481 42.3876 15.4679 42.7459C15.1226 43.1433 14.8391 43.5904 14.6267 44.0722C14.5356 44.2634 14.4841 44.4711 14.4753 44.6828C14.4913 44.9038 14.5628 45.1172 14.6833 45.3033C14.9269 45.7202 15.2381 46.0837 15.4013 46.5454C15.5964 47.0979 15.722 47.6672 15.9997 48.1888C16.254 48.6444 16.5958 49.0453 17.0055 49.3684C17.4644 49.7462 17.9349 50.1046 18.5564 49.8675C19.0648 49.6735 19.4154 49.2014 19.3104 48.6472L18.7121 48.9954C19.2007 49.467 19.8091 49.8516 20.5196 49.6873C20.9462 49.5887 21.6279 49.2377 21.4915 48.7041L20.8942 49.0518C21.4064 49.457 22.1526 49.7528 22.7579 49.3415C22.8867 49.2675 22.9948 49.1623 23.0724 49.0356C23.15 48.9089 23.1946 48.7648 23.2021 48.6164C23.1942 48.271 22.9429 47.9861 22.7078 47.7604L22.3595 48.3587C22.844 48.5418 23.4539 48.5677 23.8381 48.1618C23.9733 48.0228 24.0609 47.8445 24.0883 47.6525C24.1157 47.4606 24.0815 47.2649 23.9906 47.0936C23.6378 46.4123 23.1042 45.8265 22.704 45.1721C22.4004 44.6458 22.1283 44.102 21.8892 43.5435C21.8408 43.4621 21.7623 43.403 21.6707 43.3789C21.5791 43.3549 21.4817 43.3679 21.3996 43.415C21.3192 43.4645 21.261 43.543 21.2371 43.6342C21.2132 43.7254 21.2253 43.8224 21.2711 43.9049C21.5029 44.4457 21.7649 44.9732 22.0558 45.4847C22.2809 45.8582 22.536 46.209 22.786 46.566C22.9241 46.7629 23.0618 46.961 23.1933 47.1629C23.2427 47.2384 23.2921 47.3141 23.3365 47.3923C23.3544 47.4238 23.3735 47.4551 23.3887 47.488C23.3989 47.51 23.3681 47.4735 23.3871 47.4852C23.3715 47.4757 23.386 47.5677 23.3932 47.5097C23.3912 47.5254 23.3517 47.6416 23.373 47.5913C23.3531 47.6445 23.314 47.6884 23.2634 47.7142C23.0576 47.8395 22.7693 47.7524 22.5494 47.6691C22.207 47.5397 21.9556 48.0317 22.2011 48.2674C22.3205 48.3637 22.4174 48.4848 22.4853 48.6223C22.4971 48.6602 22.4717 48.6581 22.4932 48.6252C22.4451 48.6919 22.3806 48.745 22.3058 48.7794C22.0016 48.9174 21.636 48.7334 21.3999 48.5468C21.1327 48.3352 20.7063 48.5217 20.8016 48.895C20.7938 48.8728 20.7916 48.849 20.7952 48.8257C20.7988 48.8024 20.8081 48.7804 20.8222 48.7615C20.8469 48.7239 20.8487 48.7177 20.8272 48.7436C20.8101 48.7572 20.7943 48.7724 20.78 48.7889C20.7103 48.8355 20.6376 48.8774 20.5624 48.9142C20.46 48.967 20.3478 48.9983 20.2329 49.0062C19.815 49.0262 19.5027 48.7644 19.2185 48.4902C19.1619 48.4368 19.0895 48.4031 19.0122 48.3942C18.9349 48.3853 18.8567 48.4016 18.7894 48.4408C18.7222 48.4799 18.6693 48.5398 18.6389 48.6115C18.6084 48.6831 18.602 48.7627 18.6205 48.8383C18.6672 49.0838 18.2804 49.2499 18.0868 49.2293C17.9304 49.1909 17.7878 49.1095 17.6752 48.9944C17.4979 48.8577 17.3282 48.7115 17.1669 48.5563C16.8475 48.2424 16.6004 47.8626 16.4428 47.4435C16.2848 47.0319 16.1923 46.5977 16.028 46.1882C15.847 45.7928 15.6285 45.4156 15.3755 45.0618C15.1719 44.744 15.1572 44.6354 15.3061 44.2923C15.6463 43.5647 16.1487 42.9247 16.7748 42.4214C17.4454 41.8779 18.4717 41.7852 19.3003 41.7383C19.7585 41.7124 19.7613 40.9964 19.3003 41.0225L19.3002 41.0212Z" fill="#211715"/>
<path d="M41.5979 48.1187C41.749 47.9886 41.8943 47.8603 42.0275 47.7405C42.7136 47.1208 43.4715 46.6949 43.7165 45.7915C43.9155 45.1245 43.8832 44.4099 43.6247 43.7636C43.4837 43.374 43.1631 42.7403 42.889 42.4909C42.5271 42.1618 41.9804 41.7034 41.444 41.5894C40.8578 41.4473 39.4026 41.8083 38.7662 41.775C37.8535 41.7276 37.2114 42.0501 36.3536 42.4247C35.5576 42.7722 34.7627 43.0544 33.9674 43.4521C33.8997 43.4956 33.8426 43.5537 33.8002 43.6221C33.7578 43.6906 33.7312 43.7675 33.7223 43.8475C33.7135 43.9275 33.7225 44.0085 33.7489 44.0845C33.7752 44.1606 33.8182 44.2298 33.8747 44.2871C34.2519 44.6252 35.1075 44.3866 35.6643 44.3866L36.0976 44.439C35.3996 44.948 34.5325 45.5844 34.2591 45.858C33.9076 46.2104 33.4944 46.5177 33.53 46.8921C33.5982 47.6079 34.2591 47.5417 34.5111 47.4091L34.5332 47.3973L34.3784 47.5941C34.0595 48.0004 33.9808 48.4956 34.3448 48.7125C34.5731 48.8097 34.8228 48.846 35.0694 48.8178C35.316 48.7896 35.551 48.6978 35.7514 48.5514C35.5034 48.8839 35.5349 49.2733 35.8257 49.4403C36.1372 49.581 36.49 49.6002 36.8148 49.494C37.1679 49.3487 37.5058 49.1688 37.8236 48.9571C38.1374 48.781 39.4821 47.9786 40.1544 47.4959L40.0787 47.5675C39.7142 47.9122 39.1569 48.3952 38.9513 48.7207C38.9077 48.7808 38.8805 48.8513 38.8723 48.9251C38.8642 48.9989 38.8753 49.0736 38.9048 49.1418C38.9342 49.21 38.9808 49.2693 39.0401 49.314C39.0994 49.3588 39.1693 49.3873 39.243 49.3968C39.4882 49.4763 39.7549 49.4561 39.9853 49.3405C40.3184 49.1771 41.0018 48.6328 41.5979 48.1187Z" fill="white"/>
<path d="M35.6641 44.0288C35.3101 44.0334 34.9604 44.1003 34.6066 44.1095C34.4536 44.1132 34.0697 44.1388 34.0747 43.9071C34.0776 43.773 34.1549 43.7571 34.2671 43.7025C34.4897 43.5951 34.7156 43.4928 34.943 43.3952C35.3915 43.2034 35.8463 43.0266 36.2953 42.8363C37.0392 42.5212 37.7789 42.1232 38.6078 42.1285C39.2363 42.1074 39.8629 42.0495 40.4846 41.9549C40.7465 41.9174 41.0116 41.9057 41.2758 41.9202C41.6488 42.001 41.994 42.1784 42.2767 42.4347C42.5454 42.6334 42.7731 42.8821 42.9473 43.1672C43.1354 43.4838 43.2815 43.8236 43.382 44.1778C43.5812 44.8992 43.5119 45.7688 43.0223 46.3646C42.7861 46.6313 42.5246 46.8746 42.2415 47.091C41.9485 47.3322 41.6677 47.5865 41.3808 47.8347C41.0712 48.1032 40.7572 48.3673 40.4306 48.6145C40.2083 48.7825 39.9187 49.0503 39.6293 49.085C39.5493 49.0945 39.258 49.0889 39.2295 48.9924C39.2052 48.9099 39.3559 48.7732 39.4056 48.717C39.6909 48.3961 40.0193 48.1152 40.3316 47.8222C40.6677 47.5058 40.1609 47.0004 39.8253 47.3161C39.4868 47.6126 39.1642 47.9268 38.8589 48.2575C38.5631 48.6021 38.3539 49.066 38.6918 49.4651C38.972 49.796 39.5306 49.8733 39.9287 49.7489C40.2718 49.6136 40.5888 49.4199 40.8656 49.1762C41.5773 48.6306 42.2391 48.0248 42.9262 47.4491C43.2707 47.1809 43.5677 46.8567 43.8047 46.49C44.0388 46.0681 44.1723 45.5978 44.1948 45.1158C44.2623 44.1977 43.8906 43.1916 43.3373 42.4643C43.0422 42.1059 42.6862 41.8025 42.2857 41.568C41.9357 41.338 41.5284 41.21 41.1097 41.1987C40.3625 41.1915 39.6317 41.4123 38.8859 41.4193C38.4343 41.405 37.9829 41.4544 37.545 41.5659C37.0627 41.7253 36.5909 41.9147 36.1324 42.1332C35.5392 42.3904 34.9334 42.6185 34.3428 42.8814C33.8668 43.0933 33.3562 43.3043 33.3601 43.9114C33.3678 45.134 34.9128 44.7546 35.6635 44.7448C36.1238 44.7387 36.1251 44.0229 35.6635 44.0289L35.6641 44.0288Z" fill="#211715"/>
<path d="M37.6269 44.7638C37.7076 44.7013 37.5506 44.8209 37.5243 44.8406C37.4598 44.8883 37.3949 44.936 37.3298 44.9837C37.1866 45.0884 37.0427 45.1923 36.8981 45.2955C36.5814 45.5222 36.2636 45.7476 35.945 45.9718C35.3116 46.392 34.7037 46.8494 34.1244 47.3416C33.7813 47.6504 34.2889 48.1555 34.6305 47.8477C35.1853 47.3787 35.7674 46.9429 36.3736 46.5425C36.9642 46.1252 37.5612 45.713 38.1331 45.2699C38.1998 45.2025 38.2372 45.1116 38.2372 45.0168C38.2372 44.9221 38.1998 44.8311 38.1331 44.7638C38.0649 44.6988 37.9742 44.6626 37.88 44.6626C37.7858 44.6626 37.6951 44.6988 37.6269 44.7638Z" fill="#211715"/>
<path d="M40.1302 47.0698C40.0499 47.1351 39.8722 47.2605 39.7365 47.3525C39.5429 47.4839 39.3462 47.6109 39.1486 47.7364C38.7714 47.9758 38.3906 48.2094 38.0061 48.437C37.636 48.6823 37.2504 48.9035 36.8518 49.0992C36.615 49.2117 36.3457 49.236 36.0925 49.1677C35.8608 49.0901 35.9481 48.8953 36.0603 48.7329C36.2588 48.4451 35.8593 48.0349 35.5705 48.243C35.4245 48.3563 35.2523 48.4308 35.0698 48.4597C34.8873 48.4885 34.7005 48.4708 34.5268 48.408C34.569 48.4275 34.5307 48.4132 34.5153 48.3968C34.4949 48.3795 34.4782 48.3583 34.4661 48.3345C34.4545 48.2805 34.4574 48.2244 34.4747 48.172C34.5371 47.9763 34.6437 47.7977 34.7863 47.6498C35.0282 47.3414 34.7342 46.8869 34.3525 47.0877C34.2683 47.132 34.3727 47.0896 34.3077 47.1073C34.295 47.1109 34.1681 47.1385 34.2336 47.1297C34.1654 47.1466 34.0936 47.1423 34.0278 47.1174C34.0044 47.1109 33.9827 47.099 33.9647 47.0827C33.9467 47.0663 33.9327 47.046 33.924 47.0232C33.9004 46.9787 33.888 46.929 33.888 46.8786C33.888 46.8282 33.9004 46.7786 33.924 46.734C34.0554 46.4751 34.3594 46.2508 34.5683 46.0568C34.7029 45.9325 34.8473 45.8185 34.9915 45.7055C35.7226 45.1329 36.4979 44.6176 37.2286 44.0433C37.2951 43.9759 37.3325 43.885 37.3325 43.7902C37.3325 43.6954 37.2951 43.6045 37.2286 43.537C37.1603 43.472 37.0697 43.4358 36.9754 43.4358C36.8812 43.4358 36.7905 43.472 36.7223 43.537C36.6793 43.5709 36.7803 43.4937 36.7056 43.5499L36.6317 43.6058C36.5558 43.6624 36.4797 43.7188 36.4032 43.7747C36.2278 43.9033 36.0522 44.0316 35.8763 44.1595C35.4783 44.4499 35.0803 44.7406 34.6898 45.0412C33.9951 45.5761 32.5888 46.5712 33.4174 47.5372C33.7375 47.9107 34.3029 47.9225 34.7147 47.7058L34.2809 47.1437C34.0423 47.3981 33.8679 47.7059 33.7723 48.0413C33.7284 48.2155 33.7377 48.3988 33.7989 48.5676C33.8601 48.7364 33.9705 48.8831 34.1159 48.9886C34.6313 49.3444 35.4545 49.2049 35.9327 48.8612L35.4431 48.3715C35.3294 48.5196 35.2586 48.696 35.2384 48.8815C35.2182 49.0671 35.2494 49.2546 35.3285 49.4236C35.4216 49.5692 35.549 49.6896 35.6995 49.7743C35.8501 49.859 36.0191 49.9054 36.1918 49.9093C36.9175 49.9868 37.4995 49.5582 38.0956 49.2146C38.9844 48.7358 39.8341 48.1877 40.6369 47.5755C40.7034 47.5081 40.7407 47.4171 40.7407 47.3224C40.7407 47.2276 40.7034 47.1367 40.6369 47.0692C40.5687 47.0041 40.478 46.9678 40.3837 46.9678C40.2895 46.9678 40.1988 47.0041 40.1306 47.0692L40.1302 47.0698Z" fill="#211715"/>
<path d="M38.9301 45.8804C38.3127 46.2646 37.7019 46.6597 37.109 47.0812C36.564 47.4362 36.0412 47.8242 35.5435 48.243C35.2034 48.5548 35.7104 49.06 36.0498 48.7491C36.2488 48.5741 36.4593 48.4126 36.6801 48.2659C36.9635 48.0691 37.2402 47.8622 37.5212 47.6628C38.0978 47.255 38.6911 46.8718 39.2906 46.4996C39.6809 46.2567 39.3219 45.6372 38.9293 45.8814L38.9301 45.8804Z" fill="#211715"/>
<path d="M27.6434 21.4437C28.0802 21.8714 28.7719 21.9958 29.3582 21.9955C29.9445 21.9951 30.6363 21.8716 31.0734 21.4437C31.4032 21.1216 30.8969 20.6149 30.5672 20.9376C30.5528 20.9517 30.479 21.0144 30.525 20.9779C30.571 20.9414 30.5225 20.9795 30.5107 20.987C30.491 20.9997 30.4719 21.0131 30.4518 21.0253C30.4139 21.0486 30.3749 21.07 30.3351 21.0901C30.3085 21.1035 30.2814 21.1162 30.2539 21.1282C30.3026 21.1067 30.2593 21.1257 30.2337 21.1348C29.9528 21.2348 29.6563 21.2838 29.3582 21.2796C29.0655 21.2854 28.7742 21.2384 28.4983 21.1407C28.4922 21.1386 28.3909 21.0969 28.4625 21.1282C28.4396 21.1182 28.4168 21.1074 28.3943 21.0965C28.3501 21.0747 28.3068 21.0512 28.2649 21.0249C28.233 21.0053 28.2035 20.9804 28.1713 20.9616C28.2629 21.0153 28.1763 20.9634 28.1497 20.9372C27.8204 20.6151 27.3137 21.1205 27.6435 21.4434L27.6434 21.4437Z" fill="#211715"/>
<path d="M29.2649 18.2237C29.3335 18.4714 29.3884 18.7227 29.4293 18.9764L29.4166 18.8814C29.4214 18.9158 29.4223 18.9506 29.4193 18.9852L29.4322 18.8901C29.4298 18.906 29.426 18.9217 29.4207 18.9368L29.4565 18.8513C29.452 18.8618 29.4464 18.8719 29.4399 18.8814L29.4959 18.8098C29.4886 18.8188 29.4804 18.8269 29.4714 18.8341L29.5439 18.7781C29.5247 18.7899 29.5047 18.8005 29.4841 18.8096L29.5696 18.7738C29.5374 18.7875 29.5037 18.7974 29.4692 18.8032L29.5643 18.7903C29.5329 18.794 29.5013 18.794 29.4699 18.7903L29.5652 18.8032C29.5294 18.7982 29.4946 18.7896 29.459 18.7853C29.3658 18.7635 29.2678 18.7762 29.1832 18.8211C29.1016 18.8689 29.0423 18.9471 29.0182 19.0386C28.9941 19.1301 29.0071 19.2274 29.0546 19.3093C29.0773 19.3498 29.1081 19.3853 29.145 19.4136C29.1819 19.4419 29.2242 19.4623 29.2693 19.4737C29.3477 19.4843 29.424 19.5043 29.5038 19.5079C29.6227 19.5086 29.74 19.4808 29.8459 19.4268C29.9125 19.3969 29.9716 19.3525 30.0187 19.2967C30.0659 19.241 30.0999 19.1754 30.1183 19.1047C30.1423 18.989 30.1411 18.8695 30.1147 18.7543C30.0738 18.5118 30.0176 18.2711 29.9553 18.0336C29.9428 17.9883 29.9215 17.9459 29.8926 17.9088C29.8637 17.8717 29.8278 17.8407 29.7869 17.8174C29.7461 17.7942 29.701 17.7793 29.6544 17.7735C29.6077 17.7677 29.5604 17.7711 29.515 17.7836C29.4697 17.7961 29.4273 17.8174 29.3902 17.8463C29.3531 17.8752 29.3221 17.9111 29.2989 17.952C29.2756 17.9928 29.2607 18.0379 29.2549 18.0845C29.2491 18.1312 29.2525 18.1785 29.265 18.2239L29.2649 18.2237Z" fill="#211715"/>
<path d="M25.2787 16.1868C25.1535 16.5954 25.2349 17.5351 26.0089 17.6151C27.0318 17.609 27.0862 16.4728 26.7426 15.9386C26.4608 15.5012 25.6316 15.3192 25.2787 16.1868Z" fill="#211715"/>
<path d="M33.296 16.1868C33.4213 16.5954 33.3398 17.5351 32.566 17.6151C31.5431 17.609 31.4885 16.4728 31.8323 15.9386C32.1148 15.5012 32.9433 15.3192 33.296 16.1868Z" fill="#211715"/>
</svg>
