<svg width="25" height="34" viewBox="0 0 25 34" fill="none" xmlns="http://www.w3.org/2000/svg">
<path d="M19.3143 0H4.82861V1.20714H19.3143V0Z" fill="#244393"/>
<path d="M19.3143 0H4.82861V1.20714H19.3143V0Z" fill="#244393"/>
<path d="M0 4.8286L0 28.9714H1.20714L1.20714 4.8286H0Z" fill="#244393"/>
<path d="M22.9357 4.82855V24.1428H24.1428V4.82855H22.9357Z" fill="#244393"/>
<path d="M20.5214 4.82861H13.2786V6.03576H20.5214V4.82861Z" fill="#244393"/>
<path d="M20.5214 8.45007H3.62146V9.65722H20.5214V8.45007Z" fill="#244393"/>
<path d="M20.5214 12.0714H3.62146V13.2786H20.5214V12.0714Z" fill="#244393"/>
<path d="M20.5214 15.6929H3.62146V16.9H20.5214V15.6929Z" fill="#244393"/>
<path d="M20.5214 19.3142H3.62146V20.5214H20.5214V19.3142Z" fill="#244393"/>
<path d="M15.6929 22.9358H3.62146V24.1429H15.6929V22.9358Z" fill="#244393"/>
<path d="M12.0715 26.5573H3.62146V27.7644H12.0715V26.5573Z" fill="#244393"/>
<path d="M19.3142 0V1.20714H21.7285C22.0486 1.20714 22.3557 1.33432 22.5821 1.56071C22.8085 1.78709 22.9356 2.09413 22.9356 2.41428V4.82857H24.1428V2.41428C24.1428 1.77398 23.8884 1.15989 23.4356 0.707127C22.9829 0.254361 22.3688 0 21.7285 0H19.3142Z" fill="#244393"/>
<path d="M4.82857 0V1.20714H2.41428C2.09413 1.20714 1.78709 1.33432 1.56071 1.56071C1.33432 1.78709 1.20714 2.09413 1.20714 2.41428V4.82857H0V2.41428C0 1.77398 0.254361 1.15989 0.707127 0.707127C1.15989 0.254361 1.77398 0 2.41428 0H4.82857Z" fill="#244393"/>
<path d="M2.41428 33.8V32.5929C2.09413 32.5929 1.78709 32.4657 1.56071 32.2393C1.33432 32.0129 1.20714 31.7059 1.20714 31.3857V28.9714H0V31.3857C0 32.026 0.254361 32.6401 0.707127 33.0929C1.15989 33.5456 1.77398 33.8 2.41428 33.8Z" fill="#244393"/>
<path d="M19.2055 23.1169C18.5175 22.7306 18.107 22.2477 18.107 21.7286C18.1075 22.3768 18.0223 23.0222 17.8535 23.648C16.6464 28.5611 10.6107 32.3153 3.22297 32.5808H2.41418V33.788H3.28333C13.9786 33.6069 22.6821 29.9855 23.9737 25.338C24.0829 24.9489 24.1397 24.547 24.1427 24.1429C22.4382 24.206 20.7438 23.8538 19.2055 23.1169ZM12.2282 31.5668C13.7702 30.8674 15.1564 29.8662 16.305 28.6222C17.4536 27.3782 18.3414 25.9167 18.9158 24.324C20.1145 24.8714 21.4032 25.1946 22.7183 25.2776C21.813 27.7643 17.9984 30.1786 12.2282 31.5427V31.5668Z" fill="#244393"/>
</svg>
