<svg width="60" height="60" viewBox="0 0 60 60" fill="none" xmlns="http://www.w3.org/2000/svg">
<circle cx="30" cy="30" r="30" fill="#244393"/>
<path d="M15.5334 30.6368C16.3762 29.1012 17.4473 27.5721 18.9753 26.6362L25.9316 26.8711C28.3005 27.5685 30.8172 27.5896 33.1975 26.932L41.6035 27.475C42.6088 29.4469 45.6549 33.6942 46.9243 36.4939C47.7295 38.2698 48.497 39.9227 47.906 41.7809C47.5669 42.8468 44.3487 44.9128 43.5369 45.4929C42.6862 44.5648 40.405 43.0686 39.2064 42.0903C39.9822 41.4599 40.9406 40.6462 41.6524 39.6944C41.6942 39.6372 41.7198 39.5698 41.7266 39.4992C41.7334 39.4286 41.7211 39.3576 41.691 39.2934C41.3148 38.4671 40.4251 37.0503 39.825 36.5033L39.7961 36.4768C39.6743 37.6979 39.538 39.2128 39.3446 40.6155C39.2444 41.3411 39.1579 42.032 39.0836 42.5716C38.9425 42.5716 38.8574 42.5716 38.8574 42.5716C35.5322 42.5716 24.4481 42.5789 21.2777 42.5789C21.2777 42.5789 21.2265 42.5789 21.1374 42.5789C21.0631 42.0381 20.9763 41.3444 20.8765 40.6155C20.6598 39.0446 20.5149 37.3329 20.3818 36.0505C20.3204 36.1549 20.2861 36.2132 20.2861 36.2132C19.7598 37.1212 19.3424 38.0881 19.0424 39.0938C18.7717 39.9445 20.4041 41.8382 20.8789 42.3997C19.9598 42.308 19.0338 42.4824 18.2111 42.9023C17.7239 43.136 16.2854 44.8769 16.2779 45.2608C14.7166 44.7689 12.2126 41.6417 12.1793 39.9831C12.1496 38.4899 13.869 33.7283 15.4391 30.8098C15.4703 30.7522 15.5017 30.6946 15.5334 30.6368Z" fill="white"/>
<path d="M28.4018 30.7787C27.643 29.6119 26.7508 28.2037 25.9337 26.8716C28.3029 27.569 30.8199 27.5896 33.2001 26.9311C32.1793 28.7637 31.0273 30.6926 30.2177 31.9796L29.2317 32.0376C28.9841 31.6697 28.7031 31.2435 28.4018 30.7787Z" fill="white"/>
<path d="M19.0386 49.2558C17.9707 52.7847 16.7893 57.1028 16.7035 57.3243C17.015 57.2012 17.3358 57.103 17.6629 57.0308L17.6444 57.0793C17.5155 57.4659 17.2707 58.2393 17.1235 58.7105C19.5261 58.0203 25.9831 57.7109 30.2362 59.0254C32.9814 58.2136 39.0132 58.2136 42.7947 58.7923C42.7461 58.4808 42.6315 57.8578 42.5702 57.4983L42.5464 57.326C42.7815 57.3824 43.0059 57.4433 43.2182 57.5084C42.9196 56.0194 40.8973 45.5961 40.6499 44.8227C38.864 44.5763 34.2789 44.4907 30.3063 45.1902C29.107 44.8514 27.8739 44.6468 26.6295 44.5802C24.9279 44.489 22.2674 44.6437 20.5657 44.8293C20.2642 45.3511 19.6713 47.165 19.0386 49.2558Z" fill="white"/>
<path d="M18.3684 21.2237C18.5585 20.6754 18.8692 20.1766 19.2778 19.7644C19.6863 19.3521 20.1822 19.0369 20.7288 18.8418C20.8891 19.1371 21.1039 19.3994 21.3618 19.6148C21.6264 19.8259 22.0069 20.0672 22.4937 19.9023C22.596 20.2865 22.7243 20.6634 22.8776 21.0303C22.8428 21.1548 22.8069 21.2815 22.7721 21.408C22.4259 22.6607 21.4289 23.4454 20.2493 23.8247C19.8491 23.9535 18.7756 23.8978 18.3406 23.5933C17.9195 23.2975 18.1388 21.9508 18.3075 21.408C18.3263 21.3459 18.3466 21.2845 18.3684 21.2237Z" fill="#645D5C"/>
<path d="M38.403 18.8694C39.0459 19.0398 39.6338 19.3735 40.1096 19.8381C40.5855 20.3027 40.9332 20.8824 41.119 21.521C41.2878 22.0639 41.507 23.4106 41.0842 23.7063C40.6492 24.0108 39.5774 24.0665 39.1773 23.9377C37.9976 23.5584 37.0006 22.7737 36.6526 21.521C36.5635 21.2256 36.4896 20.9258 36.4312 20.6229C36.466 20.5185 36.5305 20.3353 36.594 20.1134C36.9209 20.0551 37.3928 20.0703 37.6538 19.862C37.9664 19.5962 38.2179 19.2661 38.3912 18.8943" fill="#645D5C"/>
<path d="M27.5205 13.9353C27.5703 13.9076 27.6277 13.8966 27.6843 13.9039C27.99 13.9908 30.4803 13.413 30.7813 13.3104C31.5723 13.0407 32.1974 12.4783 32.7709 11.8796L33.755 12.1124C34.7568 12.438 36.3789 14.0411 36.5766 16.0826L37.0335 15.6699C37.1554 15.5641 37.2987 15.4859 37.4536 15.4406C37.6084 15.3953 37.7713 15.384 37.9309 15.4073C38.0876 15.4295 38.2373 15.4864 38.3691 15.574C38.5009 15.6617 38.6113 15.7777 38.6923 15.9136C38.786 16.1012 38.8394 16.3063 38.8489 16.5158C38.9173 17.3356 38.759 18.1584 38.3913 18.8943C38.218 19.2661 37.9665 19.5962 37.6539 19.862C37.393 20.0708 36.9214 20.0551 36.594 20.1132C36.5307 20.3351 36.4656 20.5186 36.4313 20.6229C36.0111 21.5555 35.4509 22.4185 34.7699 23.1818L34.8725 23.7211C34.4511 24.6226 33.8517 25.7568 33.1984 26.9302C30.8184 27.5887 28.3016 27.5682 25.9327 26.8709C25.2049 25.6848 24.5368 24.5598 24.0755 23.7216C24.0755 23.7216 24.1715 23.5066 24.2973 23.2239C24.1898 23.1079 24.0843 22.9878 23.9807 22.8635C23.2761 21.9972 22.7687 20.9879 22.4937 19.9057L22.4099 19.9266C21.9626 20.0384 21.6095 19.8133 21.3607 19.6144C21.0486 19.3486 20.7974 19.0186 20.6244 18.6468C20.2567 17.9112 20.0983 17.0887 20.1664 16.2691C20.1758 16.0596 20.2292 15.8544 20.323 15.6669C20.4041 15.531 20.5145 15.4149 20.6463 15.3273C20.778 15.2397 20.9277 15.1827 21.0844 15.1606C21.244 15.1372 21.4067 15.1485 21.5616 15.1937C21.7164 15.2389 21.8596 15.317 21.9815 15.4226L22.7852 15.9079C22.9856 15.6575 23.1354 15.2989 23.4269 15.1547C23.6514 15.0752 23.8924 15.0534 24.1275 15.0913C25.8391 15.1749 27.0396 14.1413 27.5205 13.9353Z" fill="white"/>
<path d="M26.5184 4.75961C25.0252 5.20572 23.8376 5.94971 23.1348 6.63054C21.219 8.48667 20.4031 11.4878 20.9182 14.0685C20.9182 14.0685 21.0574 14.6674 21.2207 15.141C21.3602 15.1321 21.4999 15.1526 21.631 15.2011C21.762 15.2496 21.8815 15.325 21.9816 15.4225L22.7249 15.9777C22.9579 15.7296 23.1077 15.312 23.4269 15.1545C23.6515 15.0751 23.8924 15.0533 24.1276 15.0912C26.0881 15.1867 27.3783 13.8164 27.684 13.9037C27.9897 13.9911 30.48 13.4129 30.781 13.3102C31.5741 13.0398 32.2004 12.4751 32.7753 11.8746L32.8341 11.813L33.7547 12.1123C34.7565 12.4378 36.3787 14.041 36.5763 16.0824C36.8067 15.8736 37.0332 15.6697 37.0332 15.6697C37.1551 15.564 37.2984 15.4858 37.4533 15.4405C37.6082 15.3952 37.771 15.3838 37.9307 15.4072C37.9702 15.413 38.0094 15.4213 38.0479 15.4319C38.2695 14.571 38.3656 13.6826 38.3333 12.7942C38.1798 10.612 37.3137 8.16723 35.9266 6.81288C34.1272 5.05557 32.6472 4.35352 29.2802 4.35352C28.3448 4.35432 27.4145 4.49111 26.5184 4.75961Z" fill="#645D5C"/>
<path d="M29.0415 33.7405C28.6387 33.911 27.1499 34.8018 27.0638 35.5411C27.0102 36.0024 27.3141 37.7104 27.4526 38.591C28.3261 38.0328 29.142 37.3893 29.8885 36.6701" fill="#F2635F"/>
<path d="M29.3432 34.1279C29.1367 34.5826 28.5037 36.9438 28.6001 37.3826C28.7127 37.8945 30.6858 39.9528 31.2058 40.4212C31.4146 39.9514 32.5553 37.2876 32.3662 36.6699C32.153 35.974 31.0252 34.3907 30.7654 33.9414" fill="#F2635F"/>
<path d="M28.2994 32.0745C28.348 32.5147 28.502 33.268 28.5625 33.6991C28.9734 33.8624 29.4028 33.9746 29.841 34.0332C30.2355 33.9776 30.6184 33.8581 30.9746 33.6796C31.1036 33.1526 31.1885 32.6157 31.2286 32.0745C31.1348 32.0502 28.5354 32.0745 28.2994 32.0745Z" fill="#F2635F"/>
<path d="M28.497 37.4254C28.1059 37.7352 27.6984 38.0237 27.2762 38.2896L27.7874 38.4984C27.6447 37.5877 27.4262 36.6579 27.4064 35.7338C27.3963 35.6709 27.3988 35.6065 27.4137 35.5445C27.4286 35.4825 27.4557 35.4241 27.4934 35.3726C27.6141 35.1857 27.7631 35.0187 27.9351 34.8776C28.2776 34.5802 28.6548 34.3253 29.0586 34.1187C29.4558 33.9113 29.1044 33.3105 28.7073 33.5177C28.2434 33.7589 27.8113 34.0569 27.4212 34.4051C27.0619 34.7282 26.7269 35.132 26.7109 35.6359C26.7189 36.1146 26.7689 36.5917 26.8602 37.0617C26.9399 37.6032 27.0325 38.1427 27.1172 38.6835C27.1318 38.7347 27.1578 38.7818 27.1933 38.8214C27.2288 38.861 27.2728 38.892 27.3221 38.9121C27.3714 38.9321 27.4246 38.9407 27.4776 38.9371C27.5307 38.9335 27.5823 38.9179 27.6284 38.8914C28.0994 38.5918 28.5539 38.267 28.9899 37.9185C29.0547 37.8529 29.091 37.7645 29.091 37.6723C29.091 37.5802 29.0547 37.4918 28.9899 37.4262C28.9235 37.363 28.8355 37.3278 28.7439 37.3278C28.6522 37.3278 28.5642 37.363 28.4978 37.4262L28.497 37.4254Z" fill="#211715"/>
<path d="M29.0427 33.9526C28.859 34.4052 28.7121 34.872 28.6036 35.3483C28.4448 35.9094 28.3285 36.4817 28.2556 37.0602C28.2132 37.4686 28.3659 37.7562 28.6036 38.0786C28.9661 38.5575 29.3547 39.0161 29.7676 39.4523C30.1516 39.8684 30.541 40.2874 30.961 40.6674C31.1103 40.8026 31.4113 40.8134 31.5075 40.5969C31.9026 39.7322 32.242 38.843 32.5236 37.9349C32.6437 37.533 32.802 37.0505 32.715 36.6273C32.6123 36.1346 32.2656 35.6481 32.0053 35.2281C31.7003 34.7362 31.3601 34.2645 31.0673 33.7654C30.8411 33.3793 30.2389 33.7292 30.4663 34.1166C30.7021 34.5186 30.9737 34.9005 31.2242 35.2935C31.526 35.7246 31.7854 36.1839 31.9989 36.6649C32.0131 36.7034 32.0239 36.7427 32.0375 36.7811C32.0557 36.8325 32.0389 36.7086 32.0392 36.7895C32.0409 36.8724 32.037 36.9553 32.0274 37.0376C32.0359 36.9715 32.0138 37.11 32.0117 37.1216C32.0031 37.1666 31.9938 37.2116 31.9837 37.2565C31.9571 37.3769 31.9258 37.4962 31.8924 37.6149C31.7481 38.1259 31.5646 38.626 31.3721 39.1203C31.2096 39.5379 31.0737 39.87 30.9071 40.245L31.4536 40.1745C30.6903 39.4756 29.984 38.7169 29.3413 37.9058C29.2174 37.7557 29.1044 37.597 29.0031 37.4308C28.9831 37.396 28.965 37.3612 28.9465 37.3264C28.9129 37.2626 28.9417 37.372 28.9427 37.3141C28.9444 37.2194 28.9371 37.3617 28.9397 37.3078C28.9418 37.2662 28.9397 37.2243 28.9411 37.1825C28.9915 36.6991 29.0843 36.2211 29.2186 35.7541C29.2945 35.4505 29.3761 35.1482 29.4655 34.8483C29.5019 34.7265 29.5395 34.6047 29.5802 34.4839C29.5946 34.4411 29.61 34.3987 29.6249 34.3562C29.6319 34.336 29.6402 34.3164 29.6474 34.2964C29.6709 34.2311 29.618 34.3623 29.6442 34.3032C29.688 34.2228 29.6995 34.1288 29.6763 34.0403C29.6531 33.9517 29.5969 33.8754 29.5193 33.8269C29.4395 33.7811 29.3448 33.7685 29.2557 33.7918C29.1666 33.8152 29.0903 33.8727 29.0433 33.9519L29.0427 33.9526Z" fill="#211715"/>
<path d="M29.6116 34.1257C29.7682 34.7065 29.9122 35.2998 30.0118 35.8937C30.0365 35.9826 30.0954 36.0581 30.1756 36.1037C30.2559 36.1493 30.3509 36.1614 30.4399 36.1372C30.5276 36.1106 30.6017 36.0514 30.6471 35.9718C30.6924 35.8922 30.7054 35.7982 30.6835 35.7092C30.584 35.1156 30.4399 34.5223 30.2833 33.9413C30.2588 33.8523 30.1999 33.7767 30.1196 33.7312C30.0393 33.6856 29.9442 33.6738 29.8552 33.6983C29.7663 33.7229 29.6907 33.7818 29.6451 33.8621C29.5995 33.9423 29.5877 34.0374 29.6123 34.1264L29.6116 34.1257Z" fill="#211715"/>
<path d="M27.9515 32.0746C28.0006 32.5041 28.0826 32.929 28.1563 33.3548C28.197 33.5893 28.1835 33.9011 28.4284 34.017C28.6486 34.1146 28.8776 34.1907 29.1124 34.2442C29.3762 34.3359 29.6546 34.3781 29.9336 34.3688C30.162 34.3336 30.387 34.2799 30.6066 34.2082C30.7897 34.1531 30.9665 34.0793 31.1344 33.9879C31.3303 33.8731 31.3517 33.6173 31.3924 33.4138C31.4875 32.9728 31.5491 32.5253 31.5766 32.0751C31.5762 31.999 31.551 31.9251 31.5049 31.8645C31.4588 31.804 31.3943 31.7601 31.321 31.7394C31.1938 31.7196 31.065 31.7123 30.9364 31.7179C30.7197 31.7158 30.5031 31.716 30.2867 31.7163C29.7772 31.7163 29.268 31.7207 28.7587 31.7241C28.6057 31.7252 28.4526 31.7269 28.2995 31.7271C27.8518 31.7271 27.851 32.4231 28.2995 32.4231C29.1439 32.4231 29.9872 32.4077 30.8325 32.413C30.9195 32.413 31.0082 32.4142 31.0961 32.4163C31.1232 32.4163 31.1502 32.4184 31.1773 32.4187C31.2549 32.4197 31.1725 32.4187 31.1361 32.4105L30.8807 32.0751C30.8566 32.5866 30.7756 33.0939 30.6392 33.5876L30.7991 33.3797C30.6669 33.4496 30.5282 33.5065 30.385 33.5495C30.1764 33.6129 29.9638 33.6626 29.7487 33.6982H29.9329C29.4944 33.641 29.0648 33.5287 28.6543 33.364L28.8979 33.6076C28.8603 33.3443 28.8109 33.0828 28.7658 32.821C28.7415 32.6818 28.7173 32.5426 28.6948 32.4034C28.6724 32.2642 28.66 32.1821 28.6473 32.0749C28.6447 31.9834 28.6073 31.8964 28.5425 31.8317C28.4778 31.767 28.3908 31.7295 28.2993 31.7269C28.2073 31.7275 28.1192 31.7643 28.0541 31.8294C27.989 31.8944 27.9522 31.9825 27.9515 32.0746Z" fill="#211715"/>
<path d="M18.7995 26.3358C17.1938 27.3317 16.0771 28.9081 15.1887 30.5424C14.398 32.0274 13.7099 33.5648 13.1293 35.1439C12.6322 36.4609 12.1348 37.8265 11.9057 39.2207C11.8069 39.7108 11.8216 40.2171 11.9486 40.7007C12.1513 41.3471 12.4504 41.9592 12.836 42.5163C13.2978 43.2222 13.8403 43.872 14.4524 44.4524C14.9529 44.9222 15.5233 45.3809 16.1851 45.5964C16.2368 45.6098 16.2908 45.6113 16.3431 45.6008C16.3953 45.5903 16.4446 45.568 16.487 45.5357C16.5294 45.5034 16.5639 45.4618 16.588 45.4142C16.612 45.3666 16.6249 45.3141 16.6257 45.2608C16.6175 45.3875 16.6142 45.2928 16.6316 45.2636C16.6406 45.2485 16.6702 45.1766 16.6342 45.2538C16.6668 45.1852 16.703 45.1185 16.7428 45.0538C16.8387 44.8942 16.9465 44.742 17.0575 44.5927C17.3164 44.2457 17.5989 43.917 17.9031 43.6089C17.9727 43.5393 18.0434 43.4697 18.1166 43.4033C18.1443 43.3782 18.1726 43.3539 18.2008 43.3292C18.2107 43.3205 18.2838 43.2625 18.2342 43.3001C18.4413 43.162 18.6683 43.0563 18.9074 42.9869C19.5369 42.7547 20.2119 42.6724 20.8787 42.7468C21.2093 42.7884 21.2953 42.3541 21.1249 42.1528C20.5193 41.4372 19.8548 40.6826 19.4894 39.8097C19.4193 39.6539 19.3758 39.4874 19.3608 39.3173C19.3608 39.2999 19.3774 39.1709 19.3626 39.2458C19.3798 39.174 19.4013 39.1034 19.4269 39.0342C19.4904 38.8389 19.5568 38.6444 19.6262 38.4508C19.8821 37.7351 20.2038 37.0446 20.5869 36.3881C20.8131 36.0008 20.2125 35.6502 19.986 36.0368C19.6604 36.5954 19.3775 37.1777 19.1395 37.7788C19.0177 38.0823 18.9081 38.3901 18.8049 38.7001C18.7187 38.9071 18.6715 39.1281 18.6657 39.3522C18.7084 39.7642 18.8444 40.1609 19.0635 40.5124C19.295 40.9197 19.5567 41.309 19.8464 41.6771C20.0992 42.0077 20.3639 42.3275 20.6325 42.6448L20.8786 42.0508C20.1219 41.9704 19.3569 42.0705 18.6464 42.343C18.3767 42.4256 18.1197 42.5451 17.8828 42.6983C17.7145 42.8246 17.5568 42.9642 17.4109 43.1158C17.0558 43.4793 16.7273 43.8679 16.4282 44.2786C16.2215 44.5594 15.9527 44.8973 15.9295 45.2598L16.3701 44.9243C15.9095 44.7743 15.4295 44.4023 15.0425 44.0502C14.529 43.5807 14.0664 43.0584 13.6623 42.4919C13.2756 41.9767 12.9583 41.4129 12.7185 40.815C12.5558 40.4112 12.4996 39.9723 12.5552 39.5405C12.7173 38.3144 13.1869 37.0041 13.62 35.8126C14.1612 34.3019 14.7968 32.8267 15.5231 31.3958C16.4002 29.6879 17.4836 27.9692 19.1501 26.9357C19.5301 26.7001 19.1809 26.0978 18.7988 26.3347L18.7995 26.3358Z" fill="#211715"/>
<path d="M39.579 36.7496C39.9328 37.1003 40.2439 37.4916 40.5058 37.9153C40.8015 38.356 41.0689 38.8152 41.3062 39.2899C41.341 39.3605 41.3885 39.4306 41.3686 39.4927C41.2918 39.6322 41.1922 39.7578 41.0739 39.8644C40.8602 40.1153 40.6328 40.3545 40.3974 40.5851C39.9421 41.0308 39.4549 41.4421 38.9608 41.8441C38.8955 41.9093 38.8589 41.9978 38.8589 42.0901C38.8589 42.1824 38.8955 42.2708 38.9608 42.3361C39.7089 42.9451 40.4999 43.4989 41.2749 44.072C41.9708 44.5867 42.7007 45.1012 43.2914 45.7387C43.346 45.7927 43.4169 45.8274 43.4931 45.8372C43.5693 45.847 43.6466 45.8316 43.7132 45.7931C44.6559 45.1217 45.6224 44.4882 46.5285 43.7668C47.009 43.4063 47.4497 42.9956 47.8432 42.5418C48.3071 41.9725 48.4468 41.261 48.4628 40.5348C48.4845 39.5462 48.1915 38.584 47.8216 37.678C47.4978 36.885 47.1431 36.1004 46.7448 35.342C46.0017 33.9278 45.1465 32.5736 44.2931 31.2243C43.4771 29.9342 42.6017 28.6599 41.9047 27.2993C41.7004 26.9005 41.0998 27.2521 41.3037 27.6506C41.8897 28.7944 42.6118 29.8716 43.2992 30.9564C44.1374 32.2787 44.9805 33.5986 45.7464 34.9639C46.1007 35.5955 46.4292 36.2381 46.7277 36.8978C47.1279 37.7826 47.5305 38.6844 47.7002 39.6469C47.7798 40.0875 47.7916 40.5376 47.735 40.9818C47.6967 41.221 47.6421 41.4573 47.5716 41.689C47.5497 41.7684 47.5796 41.6845 47.5561 41.7311C47.5305 41.7814 47.5039 41.8301 47.4736 41.878C47.2267 42.2709 46.7893 42.6493 46.4032 42.9753C45.4425 43.787 44.3849 44.4645 43.3624 45.1929L43.7842 45.2471C43.183 44.5987 42.4382 44.0739 41.7311 43.5492C40.9702 42.9842 40.1891 42.4428 39.4537 41.8441V42.3361C40.0117 41.8927 40.5449 41.419 41.0509 40.917C41.3014 40.6645 41.5382 40.3988 41.7605 40.121C42.0119 39.8047 42.1688 39.5152 41.9927 39.1174C41.7507 38.5954 41.4668 38.0939 41.1437 37.6178C40.8422 37.123 40.4825 36.6662 40.0722 36.257C39.7444 35.9525 39.2512 36.4435 39.5802 36.7491L39.579 36.7496Z" fill="#211715"/>
<path d="M40.7424 44.4872C39.6705 44.3555 38.5914 44.2921 37.5114 44.2972C35.9938 44.2834 34.4765 44.3472 32.9654 44.4886C32.0432 44.5756 31.1254 44.6946 30.2137 44.854H30.3987C27.9414 44.154 25.4187 44.1392 22.8888 44.2897C22.3089 44.3245 21.73 44.3684 21.1522 44.4214C20.9261 44.4425 20.5377 44.4143 20.355 44.5552C20.2803 44.6237 20.2228 44.7087 20.1869 44.8035C19.999 45.2136 19.8342 45.6339 19.6935 46.0625C19.2225 47.4111 18.8135 48.7818 18.407 50.1513C17.9665 51.6349 17.54 53.1227 17.1177 54.6116C16.8766 55.4615 16.6306 56.3101 16.3911 57.1607C16.3845 57.1846 16.3767 57.2084 16.368 57.2315C16.3522 57.2908 16.3523 57.3531 16.3682 57.4124C16.3841 57.4716 16.4153 57.5256 16.4586 57.5689C16.502 57.6123 16.556 57.6435 16.6152 57.6594C16.6744 57.6753 16.7368 57.6753 16.796 57.6595C17.4302 57.4219 18.0901 57.2594 18.7621 57.1755C19.6361 57.0497 20.5163 56.9712 21.3988 56.9406C23.3252 56.8498 25.2557 56.9185 27.1708 57.1463C27.923 57.2293 28.6672 57.3735 29.3959 57.5776C29.5374 57.6192 29.6776 57.6646 29.8156 57.7168C29.9212 57.7559 30.0246 57.8007 30.1253 57.8509C30.1905 57.882 30.2623 57.8965 30.3344 57.8932C30.4065 57.8899 30.4767 57.8689 30.5387 57.832L30.6174 57.7953C30.6348 57.7869 30.6539 57.7789 30.6722 57.7711C30.6402 57.7848 30.6459 57.782 30.6748 57.7711C30.8119 57.7173 30.9511 57.6693 31.0924 57.6272C31.8544 57.4136 32.6351 57.2732 33.4238 57.208C34.4393 57.1091 35.4592 57.0619 36.4795 57.0666C38.4924 57.0689 40.5523 57.1927 42.5128 57.6756C42.7184 57.7264 42.9225 57.7824 43.1251 57.8438C43.1842 57.8589 43.2463 57.8584 43.3052 57.8423C43.3641 57.8261 43.4178 57.7949 43.461 57.7517C43.5042 57.7086 43.5354 57.6549 43.5515 57.596C43.5677 57.5371 43.5682 57.475 43.5531 57.4158C43.2387 55.8467 42.9358 54.2754 42.6261 52.7053C42.2135 50.6141 41.8022 48.5224 41.3671 46.4357C41.2491 45.8704 41.1583 45.282 40.9843 44.7306C40.8501 44.305 40.178 44.487 40.3132 44.9156C40.4593 45.3787 40.5376 45.8706 40.6375 46.3447C40.8317 47.2669 41.0182 48.1913 41.204 49.1155C41.6332 51.2518 42.0562 53.3893 42.4731 55.5282C42.6088 56.2193 42.7431 56.9107 42.8815 57.6013L43.3095 57.1732C41.5426 56.6356 39.6494 56.4682 37.8114 56.3971C35.9417 56.3024 34.0672 56.3932 32.2155 56.6681C31.4965 56.7568 30.7953 56.9552 30.1364 57.2562H30.4896C29.8342 56.9536 29.1391 56.7459 28.4251 56.6393C27.454 56.4678 26.4738 56.3524 25.4895 56.2939C23.3938 56.1384 21.288 56.1806 19.2002 56.42C18.3303 56.5274 17.4292 56.6565 16.6116 56.9892L17.0396 57.4172C17.1917 57.0151 17.2842 56.582 17.4012 56.1684C17.6581 55.2608 17.9158 54.3532 18.1744 53.4457C18.7903 51.2934 19.4075 49.1389 20.1071 47.0122C20.2499 46.5772 20.3963 46.1448 20.5572 45.717C20.5873 45.6371 20.6177 45.5574 20.6492 45.4783C20.6636 45.4423 20.6782 45.4063 20.6929 45.3704C20.6997 45.353 20.7068 45.3365 20.714 45.3194C20.7279 45.2857 20.6792 45.3974 20.7117 45.3253C20.7579 45.2161 20.8097 45.1093 20.8667 45.0053L20.5662 45.1778C21.8552 45.0386 23.1516 44.9544 24.4473 44.9168C25.8193 44.8546 27.1941 44.9312 28.5507 45.1452C28.9395 45.2131 29.3256 45.2946 29.709 45.3899C29.889 45.4507 30.0734 45.4981 30.2605 45.5317C30.4591 45.5278 30.6565 45.5005 30.8486 45.4501C31.5764 45.3338 32.3086 45.246 33.0424 45.1779C34.43 45.0494 35.8244 44.9895 37.2182 44.9914C37.8676 44.9923 38.5173 45.0067 39.1657 45.0412C39.4337 45.0555 39.7014 45.073 39.9687 45.0962C40.0804 45.1059 40.192 45.1166 40.3036 45.1284C40.3548 45.1339 40.4058 45.1395 40.4567 45.1458C40.484 45.1491 40.6121 45.1654 40.5582 45.1581C40.6471 45.1795 40.7409 45.1663 40.8204 45.121C40.8999 45.0758 40.9592 45.0019 40.9862 44.9145C41.0099 44.8256 40.9976 44.7308 40.952 44.6509C40.9063 44.5709 40.8311 44.5121 40.7424 44.4872Z" fill="#211715"/>
<path d="M30.0088 46.5756C29.9353 49.282 29.9846 51.9952 29.9924 54.7023C29.9936 55.0994 29.9957 55.4966 29.9957 55.8937C29.9957 56.3415 30.6917 56.3424 30.6917 55.8937C30.6917 53.3617 30.6743 50.8305 30.6858 48.2979C30.6884 47.7237 30.6892 47.1496 30.7047 46.5754C30.7169 46.1274 30.0209 46.1277 30.0088 46.5754V46.5756Z" fill="#211715"/>
<path d="M21.1223 29.7055C20.2791 29.2548 17.1518 27.2238 17.2249 27.1167C17.4859 26.7358 20.2113 25.5922 22.114 24.722C23.158 24.2446 23.8914 23.8075 24.0758 23.7219C25.261 25.877 27.8129 29.9238 29.2306 32.0375C27.5668 31.7967 24.802 31.6719 21.1223 29.7055Z" fill="white"/>
<path d="M37.827 29.7055C38.6659 29.2479 41.7974 27.2238 41.7244 27.1167C41.4634 26.7358 38.738 25.5922 36.8352 24.722C35.7913 24.2446 35.0579 23.8075 34.8735 23.7219C33.7938 26.0317 31.5452 29.8689 30.2173 31.9795C32.4423 31.6985 34.222 31.6719 37.827 29.7055Z" fill="white"/>
<path d="M21.1223 29.7055C20.2791 29.2548 17.1518 27.2238 17.2249 27.1167C17.4859 26.7358 20.2113 25.5922 22.114 24.722C23.158 24.2446 23.8914 23.8075 24.0758 23.7219C25.261 25.877 27.8129 29.9238 29.2306 32.0375C27.5668 31.7967 24.802 31.6719 21.1223 29.7055Z" fill="white"/>
<path d="M37.827 29.7055C38.6659 29.2479 41.7974 27.2238 41.7244 27.1167C41.4634 26.7358 38.738 25.5922 36.8352 24.722C35.7913 24.2446 35.0579 23.8075 34.8735 23.7219C33.7938 26.0317 31.5452 29.8689 30.2173 31.9795C32.4423 31.6985 34.222 31.6719 37.827 29.7055Z" fill="white"/>
<path d="M21.2978 29.4052C20.6955 29.0814 20.1195 28.7027 19.5449 28.3329C18.9261 27.9345 18.3041 27.5347 17.7132 27.0957L17.6463 27.0454C17.6259 27.0301 17.6917 27.0825 17.6384 27.0393C17.6036 27.0109 17.5688 26.9815 17.5351 26.9523C17.5256 26.9423 17.5155 26.9327 17.505 26.9238C17.4636 26.8973 17.5255 26.9086 17.5088 26.9327C17.5306 26.9012 17.5365 26.981 17.5278 26.956C17.5342 26.9748 17.4756 27.3387 17.4947 27.3328C17.5139 27.3269 17.5236 27.2949 17.542 27.2872C17.5885 27.2683 17.4858 27.3243 17.556 27.2759C17.5794 27.2598 17.6024 27.2434 17.6256 27.2277C17.6866 27.1872 17.7496 27.1494 17.8129 27.1126C17.9772 27.0167 18.1461 26.9287 18.3158 26.8427C19.2673 26.3602 20.2495 25.9379 21.2232 25.503C21.8445 25.2246 22.4679 24.9511 23.0755 24.6441C23.4706 24.4446 23.8517 24.2125 24.2511 24.0223L23.7751 23.8976C25.0313 26.1777 26.4372 28.382 27.8496 30.5679C28.2057 31.1191 28.5658 31.6675 28.9299 32.2131L29.324 31.7019C28.5171 31.586 27.7216 31.5057 26.9202 31.363C25.7756 31.161 24.6523 30.8528 23.5649 30.4422C22.7881 30.1447 22.0309 29.7984 21.2978 29.4052C20.9025 29.1951 20.5497 29.7955 20.9465 30.0062C22.1929 30.6768 23.5068 31.2133 24.8662 31.6069C25.8668 31.8829 26.886 32.0864 27.9159 32.2159C28.329 32.2712 28.7824 32.3232 29.1385 32.3744C29.4081 32.413 29.7195 32.1439 29.5314 31.8632C28.073 29.6864 26.6748 27.4693 25.3367 25.2121C25.009 24.661 24.6859 24.107 24.3766 23.5456C24.3285 23.4675 24.2522 23.4109 24.1635 23.3876C24.0748 23.3644 23.9806 23.3762 23.9004 23.4206C23.5432 23.5906 23.2023 23.7984 22.8502 23.9788C22.272 24.2746 21.6794 24.5401 21.0868 24.8054C20.0428 25.2733 18.9863 25.7236 17.965 26.2414C17.5822 26.4349 16.4529 26.9179 17.0603 27.4593C17.6022 27.9016 18.1759 28.3036 18.7767 28.662C19.486 29.126 20.1985 29.6025 20.9457 30.0043C21.341 30.218 21.6929 29.6173 21.2978 29.4052Z" fill="#211715"/>
<path d="M38.0027 30.006C38.6464 29.6531 39.2631 29.2477 39.879 28.8498C40.5205 28.4354 41.173 28.0237 41.7755 27.5524C41.9681 27.4015 42.1797 27.1933 42.0168 26.9297C41.8635 26.6812 41.5218 26.5265 41.2751 26.3934C40.3103 25.8732 39.2933 25.4452 38.2932 24.9987C37.6446 24.709 36.9923 24.4245 36.356 24.1091C35.9158 23.8902 35.4928 23.6327 35.0493 23.4215C34.9693 23.3762 34.8748 23.364 34.7859 23.3873C34.697 23.4106 34.6206 23.4677 34.5731 23.5464C33.5012 25.8332 32.2091 28.0261 30.9085 30.1885C30.5829 30.73 30.2523 31.2685 29.9168 31.804C29.788 32.0086 29.9516 32.3608 30.2173 32.3276C31.0881 32.2181 31.9634 32.1362 32.8271 31.9756C33.8461 31.7814 34.8414 31.4793 35.7965 31.0745C36.5497 30.7559 37.2863 30.3993 38.0034 30.006C38.3969 29.792 38.046 29.1908 37.6521 29.405C36.5567 30.0208 35.4035 30.5275 34.2091 30.9177C33.3684 31.1728 32.5071 31.3546 31.6349 31.4611C31.1629 31.5216 30.6898 31.5723 30.2176 31.6316L30.5181 32.1551C31.8578 30.0232 33.1335 27.8422 34.3111 25.6157C34.6107 25.0492 34.9027 24.4781 35.1746 23.8977L34.6986 24.0224C35.0253 24.178 35.3373 24.3678 35.6588 24.5341C36.2069 24.8176 36.7678 25.0735 37.3305 25.3258C38.3322 25.7754 39.3413 26.2111 40.3287 26.6916C40.6672 26.8467 40.9954 27.0232 41.3115 27.2199C41.3395 27.2381 41.3668 27.2575 41.3943 27.2764C41.451 27.3156 41.3894 27.2752 41.4 27.2808C41.4106 27.2863 41.4324 27.3204 41.4437 27.3208C41.4503 27.3208 41.4548 27.3382 41.4611 27.3394C41.4576 27.3394 41.4263 26.9392 41.4191 26.9618C41.4402 26.8971 41.4802 26.8983 41.4209 26.9474C41.3871 26.9752 41.3542 27.0039 41.3205 27.0316C41.2721 27.0713 41.369 26.9953 41.3142 27.0365C41.2923 27.053 41.2704 27.0697 41.2483 27.0861C41.1935 27.1268 41.1383 27.1669 41.0825 27.2065C40.9469 27.3034 40.8098 27.3979 40.6722 27.4922C40.3425 27.7172 40.0101 27.9379 39.6747 28.1544C39.0115 28.5852 38.3463 29.0243 37.6524 29.405C37.258 29.6204 37.6093 30.2216 38.0027 30.006Z" fill="#211715"/>
<path d="M33.0095 30.4914C34.1172 30.1473 35.1877 29.6932 36.2048 29.1357C37.1966 28.6143 38.1544 28.0309 39.0727 27.389C39.4365 27.1335 39.0892 26.5298 38.7214 26.788C37.8232 27.4161 36.8871 27.9881 35.9183 28.5006C34.9346 29.044 33.8982 29.4861 32.8252 29.8201C32.3963 29.9458 32.5788 30.6177 33.0102 30.4912L33.0095 30.4914Z" fill="#211715"/>
<path d="M26.5653 30.0266C25.4218 29.5691 24.3046 29.0483 23.2189 28.4668C22.2258 27.9586 21.2701 27.3805 20.359 26.7366C20.2792 26.6907 20.1844 26.678 20.0953 26.7014C20.0062 26.7247 19.9299 26.7822 19.8828 26.8614C19.8383 26.9416 19.8264 27.0359 19.8497 27.1246C19.8729 27.2133 19.9296 27.2896 20.0077 27.3376C20.9383 27.995 21.9152 28.5844 22.9308 29.101C24.0506 29.6957 25.2021 30.2287 26.3801 30.6977C26.4692 30.7216 26.5641 30.7095 26.6442 30.6639C26.7243 30.6183 26.7832 30.5429 26.8082 30.4541C26.8305 30.3652 26.8176 30.271 26.7723 30.1912C26.7269 30.1115 26.6525 30.0524 26.5646 30.0261L26.5653 30.0266Z" fill="#211715"/>
<path d="M40.9681 30.934C40.6564 31.5319 40.3986 32.1564 40.1977 32.8C39.9708 33.3824 39.7951 33.9833 39.6724 34.5961C39.5443 35.3683 39.4794 36.152 39.4032 36.9304C39.3002 37.982 39.1993 39.034 39.0669 40.0823C38.9336 41.137 38.8214 42.205 38.6305 43.2505C38.5505 43.6884 39.221 43.8768 39.3016 43.4354C39.4685 42.5211 39.5595 41.5911 39.6853 40.6702C39.8291 39.6158 39.9396 38.5574 40.0437 37.4983C40.1244 36.6767 40.1905 35.8515 40.3047 35.0337C40.3975 34.4613 40.5438 33.8987 40.7414 33.3535C40.9751 32.66 41.2037 31.9238 41.5685 31.2851C41.7912 30.8957 41.1901 30.5446 40.9677 30.934H40.9681Z" fill="#211715"/>
<path d="M18.7487 31.4398C19.0422 32.0109 19.2784 32.6097 19.4539 33.2274C19.6545 33.7933 19.8058 34.3754 19.9063 34.9673C20.1695 36.7648 20.2591 38.5863 20.4978 40.3878C20.6322 41.4024 20.7357 42.4284 20.9196 43.4353C21 43.8753 21.6707 43.689 21.5907 43.2503C21.4261 42.3484 21.336 41.4309 21.2123 40.5228C21.0751 39.5175 20.9727 38.5079 20.8735 37.4982C20.7896 36.6456 20.7155 35.7901 20.5998 34.9405C20.5139 34.3683 20.3782 33.8047 20.1941 33.2561C19.9623 32.5292 19.7293 31.7544 19.3495 31.0884C19.1275 30.6995 18.526 31.0497 18.7485 31.4396L18.7487 31.4398Z" fill="#211715"/>
<path d="M38.4207 15.3753C38.6955 14.2317 38.7497 13.0462 38.5803 11.8823C38.4149 10.7396 38.0766 9.62879 37.577 8.58794C37.1268 7.66001 36.4976 6.83023 35.7256 6.14632C35.1035 5.56491 34.3928 5.08619 33.6203 4.72812C32.7717 4.37139 31.8718 4.15208 30.9542 4.07844C29.7607 3.94417 28.5541 3.98243 27.3716 4.19205C25.3813 4.57675 23.4343 5.55632 22.1828 7.18226C21.4435 8.16924 20.9191 9.30012 20.6434 10.5021C20.3677 11.704 20.3468 12.9504 20.5821 14.1609C20.6679 14.6 21.3388 14.4142 21.2532 13.9759C20.8751 11.9537 21.2738 9.86321 22.3695 8.12199C23.3786 6.53328 24.9987 5.54153 26.7889 5.04357C27.888 4.75764 29.0256 4.64822 30.1591 4.71942C31.0689 4.73928 31.9712 4.88933 32.8385 5.16501C33.5479 5.41414 34.2084 5.78508 34.7904 6.26116C35.5015 6.80699 36.1111 7.4736 36.5914 8.23056C37.1988 9.26658 37.6171 10.4024 37.8267 11.5849C38.0571 12.7788 38.0307 14.008 37.7494 15.1909C37.6471 15.6259 38.318 15.8126 38.4205 15.376L38.4207 15.3753Z" fill="#211715"/>
<path d="M47.5193 42.9134C49.7071 42.9134 51.8949 42.911 54.0828 42.9062C54.494 42.9062 54.9052 42.9059 55.3166 42.9052C55.7642 42.9052 55.7651 42.2092 55.3166 42.2092C53.3302 42.2092 51.3437 42.2116 49.3572 42.2164C48.7446 42.2164 48.132 42.2167 47.5193 42.2174C47.0716 42.2174 47.0708 42.9134 47.5193 42.9134Z" fill="#211715"/>
<path d="M5.33615 42.9134C7.44887 42.9134 9.56158 42.911 11.6743 42.9062C12.0748 42.9062 12.4753 42.9059 12.8757 42.9052C13.3236 42.9052 13.3243 42.2092 12.8757 42.2092C10.9645 42.2092 9.05312 42.2116 7.14166 42.2164C6.53988 42.2164 5.93804 42.2167 5.33615 42.2174C4.8883 42.2174 4.8876 42.9134 5.33615 42.9134Z" fill="#211715"/>
<path d="M23.1864 42.9264C25.109 42.9264 27.0316 42.9256 28.9542 42.924C31.2785 42.9226 33.6029 42.9213 35.9274 42.9202C36.9044 42.9202 37.8814 42.9198 38.8585 42.9191C39.3061 42.9191 39.307 42.2231 38.8585 42.2231C36.899 42.2231 34.9395 42.224 32.98 42.2256C30.6659 42.227 28.3518 42.2282 26.0378 42.2294C25.0872 42.2294 24.1368 42.2298 23.1866 42.2305C22.7387 42.2305 22.7377 42.9264 23.1864 42.9264Z" fill="#211715"/>
<path d="M16.0285 39.5362C15.9109 39.5884 15.9908 39.5519 16.0219 39.5418C16.0461 39.5342 16.0706 39.5275 16.0954 39.5218C16.1249 39.515 16.1549 39.5096 16.1848 39.5044C16.2112 39.4999 16.2594 39.5009 16.1531 39.5082C16.1683 39.5072 16.1832 39.5047 16.1984 39.5032C16.332 39.4906 16.4664 39.4881 16.6004 39.4959C16.6676 39.4994 16.7346 39.506 16.8016 39.5133C16.8635 39.5197 16.7342 39.5027 16.7777 39.51C16.7938 39.5126 16.8098 39.5147 16.8258 39.5173C16.8571 39.5223 16.8882 39.5281 16.9192 39.5347C16.9792 39.547 17.0391 39.5615 17.0975 39.5797C17.1226 39.5876 17.1471 39.5971 17.1718 39.6055C17.2268 39.6255 17.1449 39.591 17.1356 39.59C17.1487 39.594 17.161 39.5999 17.1724 39.6074C17.2118 39.6305 17.2554 39.6455 17.3007 39.6517C17.346 39.6579 17.392 39.6551 17.4362 39.6435C17.4805 39.6319 17.5219 39.6117 17.5583 39.5841C17.5947 39.5565 17.6253 39.5219 17.6484 39.4825C17.6715 39.443 17.6865 39.3994 17.6927 39.3541C17.6989 39.3088 17.6961 39.2628 17.6845 39.2186C17.6729 39.1744 17.6527 39.1329 17.6251 39.0965C17.5975 39.0601 17.5629 39.0295 17.5235 39.0064C17.2337 38.8746 16.9197 38.8044 16.6013 38.8003C16.2872 38.7715 15.9708 38.8179 15.6781 38.9356C15.5987 38.9824 15.5409 39.0587 15.5175 39.1479C15.4941 39.2371 15.507 39.3319 15.5532 39.4117C15.6016 39.4894 15.6779 39.5456 15.7665 39.5688C15.855 39.5921 15.9491 39.5805 16.0294 39.5366L16.0285 39.5362Z" fill="#211715"/>
<path d="M41.9533 39.7809C41.9978 39.7509 42.0439 39.7235 42.0914 39.6988C42.1156 39.686 42.14 39.6739 42.1649 39.6626C42.179 39.6559 42.1934 39.6499 42.2075 39.6432C42.2466 39.625 42.1362 39.672 42.177 39.6559C42.294 39.6096 42.4134 39.5698 42.5348 39.5369C42.6508 39.5058 42.7683 39.4827 42.8869 39.4632C42.9353 39.4552 42.8561 39.4665 42.8485 39.468C42.8624 39.4651 42.8779 39.4644 42.8923 39.4628C42.9177 39.46 42.9431 39.4576 42.9685 39.4557C43.0193 39.452 43.0703 39.4503 43.1213 39.4513C43.2133 39.4505 43.3013 39.4135 43.3664 39.3485C43.4315 39.2834 43.4684 39.1954 43.4693 39.1034C43.4675 39.0116 43.4303 38.9241 43.3654 38.8593C43.3005 38.7944 43.213 38.7572 43.1213 38.7554C42.8602 38.7562 42.6005 38.7933 42.3496 38.8657C42.0848 38.9289 41.832 39.035 41.6015 39.1799C41.5218 39.2265 41.4639 39.3028 41.4405 39.3921C41.417 39.4814 41.4301 39.5763 41.4766 39.656C41.5232 39.7357 41.5996 39.7937 41.6889 39.8171C41.7781 39.8405 41.8731 39.8275 41.9528 39.7809H41.9533Z" fill="#211715"/>
<path d="M42.2341 57.5907C42.3082 58.0221 42.3907 58.4524 42.4586 58.8848L42.8868 58.4568C41.157 58.2053 39.4126 58.0677 37.6648 58.0449C35.9256 57.9963 34.1852 58.0676 32.4558 58.2583C31.6747 58.338 30.9016 58.4824 30.1443 58.6899H30.3295C28.4869 58.1248 26.5406 57.8967 24.6212 57.8064C22.8204 57.7139 21.0151 57.7708 19.2238 57.9764C18.4837 58.0513 17.7506 58.1845 17.0315 58.3748L17.4597 58.803C17.6299 58.2583 17.8005 57.7135 17.9804 57.1719C18.1221 56.7457 17.4501 56.5629 17.3094 56.9869C17.1295 57.5284 16.9588 58.0731 16.7886 58.6179C16.7731 58.6771 16.7734 58.7393 16.7895 58.7984C16.8055 58.8574 16.8367 58.9113 16.88 58.9546C16.9232 58.9978 16.9771 59.029 17.0361 59.0451C17.0952 59.0611 17.1574 59.0614 17.2166 59.0459C18.5137 58.6769 19.8961 58.573 21.2374 58.5065C23.0702 58.41 24.9079 58.4655 26.7315 58.6724C27.6293 58.7736 28.5195 58.9337 29.3963 59.1515C29.5904 59.2006 29.7834 59.2534 29.9752 59.3099C30.0868 59.3573 30.2088 59.3749 30.3293 59.3608C30.4107 59.3434 30.4918 59.3144 30.5729 59.2932C30.8916 59.2098 31.2151 59.1437 31.5397 59.0875C33.2336 58.8238 34.9468 58.7047 36.6608 58.7315C38.682 58.7107 40.7019 58.8431 42.703 59.1277C42.7621 59.1421 42.8239 59.141 42.8824 59.1246C42.941 59.1082 42.9943 59.077 43.0373 59.034C43.0803 58.991 43.1115 58.9377 43.128 58.8791C43.1444 58.8205 43.1454 58.7588 43.131 58.6997C43.0628 58.2671 42.9807 57.837 42.9068 57.4055C42.8817 57.3168 42.8227 57.2415 42.7426 57.196C42.6625 57.1504 42.5676 57.1382 42.4786 57.1619C42.3906 57.1881 42.3162 57.2473 42.2708 57.327C42.2254 57.4068 42.2126 57.501 42.235 57.59L42.2341 57.5907Z" fill="#211715"/>
<path d="M33.1975 26.5843C33.0607 26.6 32.9264 26.6323 32.7973 26.6803C32.6435 26.72 32.4891 26.7566 32.334 26.7901C32.0387 26.8541 31.7412 26.907 31.4416 26.9488C30.8281 27.0313 30.2095 27.0693 29.5905 27.0624C28.3829 27.0527 27.1825 26.8754 26.0237 26.5357C25.5931 26.4096 25.409 27.081 25.8386 27.207C27.0323 27.555 28.2677 27.7401 29.511 27.7573C30.1453 27.7666 30.7795 27.7305 31.4087 27.6493C31.7153 27.6098 32.0208 27.5623 32.3241 27.5016C32.4799 27.4706 32.6349 27.4365 32.7893 27.3994C32.8665 27.3809 32.9434 27.3615 33.02 27.3413C33.0806 27.326 33.1398 27.3055 33.197 27.2802C33.6448 27.2802 33.6455 26.5843 33.197 26.5843H33.1975Z" fill="#211715"/>
<path d="M37.2792 15.9159C37.6166 15.6323 38.2092 15.7052 38.4076 16.1205C38.4996 16.3684 38.5369 16.6333 38.517 16.897C38.5174 17.1718 38.4895 17.4458 38.4337 17.7148C38.3298 18.2525 38.1129 18.762 37.7974 19.2095C37.6787 19.404 37.5052 19.559 37.2987 19.6551C37.0514 19.7152 36.7992 19.7536 36.5452 19.7698C36.4564 19.7947 36.381 19.8537 36.3354 19.9338C36.2898 20.014 36.2776 20.1089 36.3016 20.198C36.328 20.2858 36.3872 20.36 36.4669 20.4054C36.5465 20.4507 36.6406 20.4637 36.7296 20.4416C37.0525 20.3958 37.3794 20.3909 37.6801 20.2502C37.9929 20.0697 38.2542 19.8121 38.4392 19.502C38.8473 18.8801 39.1009 18.1696 39.1789 17.4298C39.2566 16.773 39.274 15.9142 38.7456 15.4289C38.476 15.189 38.1279 15.056 37.767 15.0549C37.4061 15.0539 37.0572 15.1848 36.7861 15.4231C36.4429 15.7118 36.9373 16.2019 37.2782 15.9152L37.2792 15.9159Z" fill="#211715"/>
<path d="M36.4151 19.1462C36.3958 19.4716 36.3351 19.7932 36.2343 20.1032C36.1995 20.2182 36.1619 20.3323 36.1238 20.4463C36.1121 20.4811 36.1005 20.515 36.089 20.5493C36.0775 20.5836 36.0516 20.6387 36.081 20.5714C35.9373 20.8896 35.7716 21.1974 35.5849 21.4925C35.0585 22.3795 34.3873 23.1721 33.5992 23.8375C33.1685 24.2041 32.6599 24.4677 32.1121 24.6081C31.6761 24.7092 31.8607 25.3805 32.2972 25.2792C33.424 25.0182 34.3595 24.1949 35.0948 23.3389C35.7262 22.6275 36.2535 21.8301 36.6607 20.9705C36.9251 20.3967 37.078 19.7778 37.1114 19.1469C37.1274 18.6991 36.4314 18.6998 36.4154 19.1469L36.4151 19.1462Z" fill="#211715"/>
<path d="M22.2281 15.1767C21.957 14.9384 21.6082 14.8073 21.2472 14.8084C20.8862 14.8094 20.5381 14.9424 20.2684 15.1823C19.7117 15.694 19.7571 16.6205 19.8508 17.305C19.9459 18.0654 20.2333 18.789 20.686 19.4073C21.121 19.9771 21.7576 20.4203 22.5026 20.2627C22.9406 20.1701 22.7553 19.499 22.3175 19.5916C21.8721 19.6857 21.4589 19.293 21.2169 18.963C20.8946 18.5041 20.675 17.9812 20.5731 17.4299C20.5199 17.1606 20.4946 16.8866 20.4976 16.6122C20.4811 16.3611 20.5183 16.1093 20.6067 15.8737C20.8052 15.4582 21.3976 15.3855 21.735 15.6691C22.0757 15.9557 22.5702 15.4657 22.2272 15.1771L22.2281 15.1767Z" fill="#211715"/>
<path d="M21.8345 18.2322C21.9496 19.3605 22.2441 20.4633 22.7068 21.4988C23.3384 22.8247 24.3246 23.95 25.5562 24.75C26.1865 25.1667 26.8982 25.4445 27.6441 25.5652C27.7331 25.5868 27.8269 25.5736 27.9064 25.5283C27.986 25.483 28.0453 25.4091 28.0721 25.3216C28.0959 25.2326 28.0837 25.1377 28.0381 25.0576C27.9925 24.9775 27.9172 24.9186 27.8285 24.8936C26.5634 24.7045 25.4897 23.9758 24.6229 23.063C23.7404 22.1238 23.1143 20.9734 22.8047 19.7224C22.6812 19.2322 22.5893 18.7345 22.5295 18.2325C22.5267 18.1411 22.4892 18.0542 22.4245 17.9895C22.3598 17.9248 22.2729 17.8873 22.1815 17.8845C22.0894 17.8851 22.0012 17.9219 21.936 17.987C21.8709 18.0522 21.834 18.1404 21.8335 18.2325L21.8345 18.2322Z" fill="#211715"/>
<path d="M33.6623 12.4478C33.9281 12.5496 34.1764 12.6925 34.3981 12.8711C34.7179 13.1238 35.0048 13.4155 35.2522 13.7395C35.825 14.4637 36.1695 15.3419 36.2418 16.2623C36.2695 16.7072 36.9657 16.7104 36.9378 16.2623C36.8597 15.178 36.4558 14.1425 35.779 13.2916C35.2825 12.652 34.6295 12.0389 33.8477 11.7767C33.4221 11.6337 33.2388 12.3056 33.6628 12.4478H33.6623Z" fill="#211715"/>
<path d="M38.3107 19.205C39.8651 19.5968 40.8373 21.0206 40.9663 22.5705C40.9875 22.8261 41.0202 23.2153 40.8939 23.4093C40.8678 23.4493 40.8939 23.4191 40.8368 23.4507C40.7789 23.4823 40.718 23.5079 40.655 23.5273C40.4895 23.5798 40.3191 23.6154 40.1464 23.6336C39.8346 23.683 39.5158 23.6657 39.2111 23.5828C38.8343 23.4584 38.4776 23.2801 38.152 23.0535C37.2928 22.4545 36.9495 21.5323 36.7656 20.5359C36.6844 20.096 36.0136 20.2824 36.0945 20.721C36.2897 21.7787 36.6795 22.769 37.5387 23.4572C38.2313 24.0122 39.0762 24.3976 39.9745 24.3437C40.3975 24.3183 40.9014 24.2567 41.2595 24.0068C41.586 23.7796 41.661 23.3697 41.6744 22.9963C41.6976 22.1357 41.4887 21.2848 41.0698 20.5327C40.7974 20.0433 40.4288 19.6139 39.9863 19.2704C39.5438 18.9269 39.0365 18.6763 38.4947 18.5337C38.0598 18.4243 37.875 19.0954 38.3098 19.205H38.3107Z" fill="#211715"/>
<path d="M20.6366 18.5057C18.8636 19.1243 17.8084 20.8386 17.7509 22.6737C17.7403 23.0166 17.7621 23.4147 17.9693 23.703C18.1978 24.0206 18.6493 24.1258 19.0148 24.1822C19.4189 24.2571 19.8331 24.2585 20.2376 24.1864C21.1635 23.942 21.9815 23.396 22.5623 22.6347C22.8705 22.1744 23.0912 21.6613 23.2134 21.121C23.3341 20.689 22.6629 20.5045 22.5423 20.9359C22.451 21.3384 22.3009 21.7253 22.0969 22.0842C21.9038 22.3872 21.658 22.6532 21.3712 22.8696C21.0715 23.0949 20.741 23.2759 20.3897 23.4069C20.1087 23.5153 19.8071 23.5597 19.5069 23.5367C19.1893 23.5396 18.8752 23.4713 18.5875 23.3368C18.5311 23.3053 18.5217 23.3072 18.492 23.2031C18.4565 23.0647 18.4407 22.9219 18.4452 22.779C18.4429 22.1143 18.6 21.4589 18.9033 20.8675C19.3068 20.0822 19.9919 19.4783 20.8215 19.1763C21.2417 19.0296 21.061 18.357 20.6366 18.505V18.5057Z" fill="#211715"/>
<path d="M28.8464 50.1916C28.6051 50.0242 28.3306 49.9108 28.0415 49.8592C27.7524 49.8076 27.4556 49.8189 27.1713 49.8925C27.0824 49.917 27.0068 49.9759 26.9612 50.0561C26.9156 50.1364 26.9038 50.2315 26.9283 50.3205C26.9528 50.4095 27.0117 50.4851 27.092 50.5307C27.1722 50.5762 27.2673 50.5881 27.3563 50.5635C27.3857 50.5561 27.4151 50.5489 27.4449 50.5428C27.465 50.5387 27.5192 50.5394 27.5345 50.5272C27.4795 50.5343 27.4713 50.5356 27.5098 50.5312C27.5247 50.5296 27.5399 50.5282 27.555 50.5272C27.5853 50.5249 27.6155 50.5234 27.6458 50.5228C27.6989 50.5217 27.752 50.523 27.8048 50.5268C27.8345 50.5338 27.865 50.5369 27.8955 50.5359C27.8405 50.5283 27.8322 50.5275 27.8704 50.5334C27.8854 50.5359 27.9004 50.5387 27.9153 50.5414C27.9749 50.5531 28.0338 50.5679 28.0918 50.5856C28.1179 50.5936 28.2343 50.618 28.2416 50.6396C28.1934 50.619 28.1866 50.6164 28.2209 50.6318C28.2346 50.6382 28.2484 50.6446 28.2619 50.6514C28.2891 50.6647 28.3159 50.679 28.3423 50.694C28.3949 50.7241 28.4459 50.757 28.4951 50.7925C28.5749 50.8387 28.6697 50.8516 28.7589 50.8282C28.8481 50.8048 28.9244 50.7472 28.9713 50.6678C29.0154 50.5875 29.0271 50.4933 29.0038 50.4047C28.9806 50.3161 28.9242 50.2398 28.8464 50.1916Z" fill="#211715"/>
<path d="M28.3557 54.0329C25.9738 53.4707 23.3681 53.3369 20.9802 53.9344C20.5453 54.043 20.7299 54.7144 21.1652 54.6055C23.4311 54.0383 25.9108 54.1705 28.1708 54.704C28.6057 54.8068 28.7923 54.1359 28.3557 54.0329Z" fill="#211715"/>
<path d="M28.4462 52.21C27.5603 51.775 26.4958 51.6892 25.5255 51.637C24.3247 51.5648 23.1196 51.6305 21.9338 51.8327C21.8451 51.8579 21.7698 51.9168 21.7243 51.997C21.6787 52.0771 21.6665 52.1719 21.6902 52.2609C21.7164 52.3489 21.7755 52.4234 21.8553 52.4688C21.9351 52.5142 22.0294 52.527 22.1184 52.5045C23.2218 52.3211 24.3424 52.2624 25.459 52.3297C26.315 52.3725 27.3459 52.4442 28.0936 52.8109C28.4937 53.0074 28.8475 52.4074 28.4449 52.21H28.4462Z" fill="#211715"/>
<path d="M32.529 11.6286C31.9118 12.2708 31.2498 12.8401 30.3715 13.0619C29.6912 13.2335 29.0027 13.3863 28.3106 13.503C28.2338 13.5159 28.1569 13.5282 28.0799 13.5394C28.0559 13.5428 28.0237 13.5477 27.9452 13.5552C27.9026 13.5592 27.8599 13.5632 27.8171 13.5641C27.7418 13.5658 27.698 13.5554 27.7775 13.5684C27.5325 13.5496 27.2891 13.6212 27.0933 13.7697C26.3974 14.1795 25.7169 14.5701 24.9066 14.7041C24.6255 14.7458 24.3406 14.7575 24.057 14.7389C23.732 14.723 23.4044 14.7309 23.131 14.9302C22.9427 15.0836 22.7836 15.2697 22.6613 15.4795C22.5917 15.5855 22.4775 15.8101 22.3432 15.8218C21.9 15.8587 21.8962 16.555 22.3432 16.5177C22.857 16.4749 23.0797 16.089 23.347 15.7035C23.3883 15.6255 23.4487 15.5593 23.5224 15.5108C23.5962 15.4624 23.6809 15.4333 23.7689 15.4263C24.0593 15.4065 24.3509 15.4533 24.6432 15.4301C25.5827 15.3558 26.4287 14.9809 27.2271 14.5001C27.3348 14.4354 27.4415 14.3686 27.5516 14.3079C27.5958 14.2824 27.6413 14.2591 27.6879 14.2383C27.6071 14.2731 27.7717 14.2439 27.6612 14.2466C27.5093 14.2506 27.6786 14.2552 27.739 14.2583C27.7809 14.26 27.8228 14.2594 27.8646 14.2564C28.0231 14.2472 28.1816 14.2216 28.3386 14.1981C29.052 14.0887 29.7594 13.9284 30.4592 13.7558C30.813 13.6752 31.1548 13.5492 31.4763 13.381C32.0533 13.0424 32.5746 12.6169 33.0219 12.1194C33.3323 11.7965 32.841 11.3036 32.5297 11.6272L32.529 11.6286Z" fill="#211715"/>
<path d="M25.1344 13.2155C25.1102 13.1684 25.0983 13.116 25.0997 13.0631C25.1012 13.0101 25.116 12.9584 25.1428 12.9128C25.1881 12.8658 25.2454 12.8319 25.3084 12.8148L25.9522 12.5771C26.4427 13.1646 26.8529 13.8147 27.172 14.5104C26.7889 14.7813 26.3612 14.9828 25.9083 15.1056L25.1569 13.274C25.1492 13.2552 25.1414 13.2355 25.1344 13.2155Z" fill="#211715"/>
<path d="M25.4699 13.1232C25.4627 13.1037 25.4567 13.0839 25.4516 13.0637C25.4462 13.0394 25.445 13.0369 25.448 13.0566C25.448 13.0566 25.3773 13.1599 25.3766 13.1636C25.3806 13.1425 25.5193 13.1069 25.5621 13.0912L26.0451 12.913L25.7065 12.8236C26.1743 13.3909 26.5662 14.0167 26.8723 14.6853L26.997 14.2093C26.6389 14.4628 26.2395 14.6523 25.8167 14.7693L26.2447 15.0129C25.9866 14.3843 25.7065 13.7602 25.4702 13.1229C25.4437 13.0351 25.3845 12.9609 25.3049 12.9156C25.2252 12.8702 25.1312 12.8573 25.0422 12.8793C24.9535 12.9043 24.8783 12.9633 24.8327 13.0434C24.7871 13.1234 24.7749 13.2183 24.7986 13.3073C25.0349 13.9446 25.315 14.5687 25.5731 15.1974C25.5994 15.2852 25.6586 15.3595 25.7383 15.4048C25.818 15.4502 25.9121 15.4631 26.0011 15.441C26.4825 15.3089 26.9379 15.0958 27.3478 14.8108C27.4251 14.762 27.481 14.6857 27.5042 14.5973C27.5274 14.5089 27.5161 14.415 27.4727 14.3345C27.1371 13.6141 26.7087 12.9405 26.1986 12.331C26.1557 12.2866 26.1015 12.2547 26.0418 12.239C25.9821 12.2232 25.9192 12.2241 25.86 12.2416C25.6007 12.3371 25.3276 12.4177 25.0779 12.536C24.9423 12.6054 24.8381 12.7237 24.7863 12.8669C24.7344 13.0102 24.7389 13.1677 24.7986 13.3078C24.8248 13.3958 24.8839 13.4703 24.9637 13.5157C25.0434 13.5611 25.1377 13.5739 25.2266 13.5514C25.3152 13.5261 25.3903 13.4671 25.4358 13.387C25.4813 13.307 25.4935 13.2122 25.4699 13.1232Z" fill="#211715"/>
<path d="M20.5711 42.2854C21.75 42.2215 22.8743 42.3445 23.7805 43.2684C24.3153 43.8136 25.332 44.6823 25.407 45.55C25.4369 45.8955 25.2123 46.4302 24.8316 46.5958L23.7826 48.8828C24.05 49.1786 24.0758 49.3962 23.9218 49.5758C23.8288 49.6877 23.7077 49.7729 23.5709 49.8224C23.4341 49.8719 23.2866 49.884 23.1435 49.8575C22.8535 49.8223 22.5819 49.6971 22.3668 49.4994C22.4557 49.7298 21.8163 50.0026 21.6535 50.0296C21.049 50.1296 20.6481 49.8363 20.246 49.4441C20.3774 49.9908 19.5466 50.5451 18.9722 50.1089C18.384 49.6621 17.9631 49.307 17.6477 48.6996C17.342 48.1106 17.2343 47.4816 17.0547 47.0517C16.7739 46.3284 16.1336 45.8245 16.2404 45.3763C16.4161 44.5433 17.3192 43.5421 17.8286 43.0866C18.4852 42.4989 19.7263 42.3303 20.5717 42.2845" fill="white"/>
<path d="M23.1689 45.3429C23.2989 45.615 25.3936 49.2709 25.7833 49.9323L26.0803 49.8141C25.5541 48.5163 22.1018 40.9201 21.2874 39.2868C21.2436 39.1992 21.169 39.1309 21.0779 39.0951C20.9868 39.0593 20.8856 39.0585 20.7939 39.0928C20.7452 39.1102 20.696 39.1299 20.6469 39.1487C20.5986 39.167 20.5546 39.1951 20.5176 39.2311C20.4806 39.2671 20.4513 39.3103 20.4316 39.358C20.4119 39.4057 20.4021 39.457 20.4029 39.5086C20.4037 39.5603 20.415 39.6112 20.4362 39.6583C20.844 40.5615 21.3771 41.7834 21.893 42.697C22.328 43.4671 22.8068 44.5337 23.1689 45.3429Z" fill="#211715"/>
<path d="M22.869 45.5183C23.1161 46.027 23.4218 46.5133 23.7012 47.0047C24.1355 47.7681 24.5718 48.5302 25.0101 49.2911C25.1667 49.5636 25.3233 49.8364 25.4834 50.1075C25.5225 50.1733 25.5821 50.2246 25.653 50.2535C25.724 50.2823 25.8024 50.2872 25.8764 50.2674L26.1734 50.1494C26.3319 50.0863 26.4934 49.9105 26.417 49.7212C25.5993 47.7104 24.6616 45.7431 23.7604 43.7692C23.2417 42.6332 22.7184 41.4994 22.1903 40.3676C22.0163 39.9976 21.8423 39.6277 21.6627 39.2605C21.5122 38.9529 21.2817 38.7116 20.9106 38.7199C20.4309 38.7309 19.9722 39.1375 20.0709 39.6398C20.1418 39.8799 20.2388 40.1115 20.3602 40.3304C20.4713 40.5778 20.5833 40.8249 20.6962 41.0716C20.9375 41.5964 21.1851 42.1189 21.4588 42.6274C21.9684 43.5743 22.4302 44.5365 22.8695 45.5183C22.9166 45.5975 22.9929 45.655 23.082 45.6783C23.1712 45.7017 23.2659 45.689 23.3457 45.643C23.4237 45.5949 23.4802 45.5186 23.5034 45.43C23.5266 45.3414 23.5149 45.2472 23.4705 45.167C23.0978 44.3339 22.7268 43.4967 22.2906 42.6946C21.8545 41.8925 21.4555 41.0765 21.08 40.2431C20.9927 40.0497 20.9057 39.8563 20.819 39.663C20.7985 39.6176 20.7336 39.5304 20.7583 39.4761C20.7482 39.4982 20.8801 39.4142 20.9104 39.4159C21.0176 39.4222 21.0917 39.6732 21.1366 39.7639C21.3123 40.1272 21.4845 40.4922 21.6551 40.8576C22.6854 43.0585 23.6954 45.2689 24.6849 47.4889C24.9122 47.9959 25.1379 48.5037 25.3621 49.0124C25.4444 49.1997 25.5261 49.3874 25.6074 49.5756C25.6247 49.6157 25.6421 49.6559 25.6596 49.6962C25.6709 49.7223 25.7176 49.8336 25.6744 49.731C25.6989 49.789 25.7231 49.8475 25.7472 49.9065L25.9907 49.4783L25.6937 49.5965L26.0868 49.7564C25.3122 48.441 24.5591 47.1117 23.8108 45.7815C23.6965 45.5785 23.5744 45.377 23.4724 45.1672C23.2768 44.7644 22.6764 45.1167 22.8714 45.5185L22.869 45.5183Z" fill="#211715"/>
<path d="M20.571 42.6335C21.176 42.5795 21.7858 42.6343 22.3716 42.7951C22.9595 42.9801 23.3708 43.3568 23.8006 43.7787C24.2133 44.1839 24.6505 44.5996 24.9173 45.1205C25.1215 45.5193 25.1149 46.0728 24.6563 46.2955C24.2533 46.4909 24.6058 47.0913 25.0074 46.8965C25.234 46.769 25.4228 46.5837 25.5546 46.3595C25.6863 46.1353 25.7563 45.8803 25.7575 45.6202C25.7613 45.0666 25.4269 44.5589 25.0963 44.1437C24.7618 43.7499 24.405 43.3756 24.0276 43.0225C23.6098 42.601 23.0943 42.2892 22.527 42.1147C21.8905 41.9433 21.2291 41.8834 20.5722 41.9375C20.1266 41.9603 20.1238 42.6563 20.5722 42.6335H20.571Z" fill="#211715"/>
<path d="M22.709 44.9329C23.062 45.5766 23.9676 46.6542 24.3205 47.2972C24.4197 47.4778 24.7313 48.0068 24.7459 48.2122C24.7619 48.4384 24.3953 49.007 23.6826 48.7633C23.9652 49.0822 24.0981 49.3703 23.921 49.5758C23.8281 49.6878 23.707 49.7729 23.5701 49.8224C23.4333 49.8719 23.2858 49.884 23.1427 49.8575C22.8528 49.8223 22.5811 49.6971 22.366 49.4994C22.3906 49.7818 21.954 49.9292 21.7919 49.9562C21.1874 50.0562 20.6996 49.8013 20.246 49.4441C19.9058 50.0762 19.5465 50.5451 18.9722 50.1089C18.3839 49.6621 17.963 49.307 17.6476 48.6996" fill="white"/>
<path d="M18.8971 48.4846C19.2102 48.9329 19.5808 49.3383 19.9993 49.6902C20.0661 49.7531 20.1536 49.7893 20.2453 49.7922C20.3141 49.7921 20.3814 49.7717 20.4386 49.7335C20.4958 49.6953 20.5404 49.6409 20.5667 49.5773C20.5931 49.5138 20.6 49.4438 20.5865 49.3763C20.5731 49.3088 20.54 49.2468 20.4913 49.1982C20.1556 48.9203 19.853 48.6048 19.5895 48.2577L19.6438 48.3273C19.5943 48.2631 19.5457 48.1982 19.498 48.1326C19.4498 48.0561 19.3757 47.9994 19.2892 47.9727C19.1988 47.9486 19.1024 47.9611 19.0211 48.0075C18.9422 48.0548 18.8849 48.1311 18.8616 48.2201C18.8383 48.3091 18.8507 48.4037 18.8964 48.4836L18.8971 48.4846Z" fill="#211715"/>
<path d="M19.898 47.2608C20.5638 48.1531 21.3076 48.9845 22.1207 49.745C22.1869 49.8086 22.2751 49.8441 22.3668 49.8441C22.4585 49.8441 22.5467 49.8086 22.6129 49.745C22.6772 49.6793 22.7132 49.591 22.7132 49.499C22.7132 49.407 22.6772 49.3187 22.6129 49.253C21.8404 48.5356 21.133 47.7512 20.4989 46.909C20.4503 46.8314 20.374 46.7754 20.2855 46.7522C20.197 46.729 20.103 46.7405 20.0227 46.7842C19.9435 46.8312 19.886 46.9075 19.8626 46.9966C19.8393 47.0857 19.852 47.1804 19.898 47.2602V47.2608Z" fill="#211715"/>
<path d="M21.1782 46.1454C21.8902 47.1963 22.6784 48.1934 23.5365 49.1288C23.6021 49.1922 23.69 49.2273 23.7812 49.2265C23.8725 49.2257 23.9597 49.1891 24.0243 49.1246C24.0888 49.0601 24.1254 48.9728 24.1262 48.8816C24.127 48.7903 24.0919 48.7024 24.0285 48.6368C23.2098 47.7458 22.458 46.7957 21.7791 45.7941C21.731 45.7161 21.6547 45.6597 21.566 45.6364C21.4774 45.6132 21.3832 45.6249 21.3029 45.6692C21.2239 45.7164 21.1665 45.7927 21.1432 45.8818C21.1199 45.9708 21.1324 46.0655 21.1782 46.1454Z" fill="#211715"/>
<path d="M20.571 41.9375C19.6355 41.9897 18.5618 42.1143 17.782 42.6818C17.4323 42.9527 17.1177 43.2659 16.8452 43.6143C16.5095 44.0007 16.2339 44.4353 16.0274 44.9037C15.9389 45.0896 15.8888 45.2916 15.8802 45.4974C15.8958 45.7122 15.9653 45.9197 16.0824 46.1006C16.3192 46.506 16.6218 46.8594 16.7805 47.3083C16.9701 47.8454 17.0923 48.3988 17.3623 48.906C17.6095 49.349 17.9418 49.7387 18.3401 50.0528C18.7862 50.4201 19.2437 50.7686 19.8479 50.5381C20.3423 50.3495 20.6831 49.8905 20.581 49.3516L19.9993 49.6902C20.4743 50.1487 21.0659 50.5226 21.7566 50.3628C22.1714 50.267 22.8342 49.9258 22.7016 49.4069L22.1208 49.745C22.6188 50.1389 23.3443 50.4265 23.9327 50.0267C24.0579 49.9547 24.1631 49.8524 24.2385 49.7292C24.314 49.6061 24.3573 49.4659 24.3646 49.3217C24.3569 48.9859 24.1126 48.7089 23.884 48.4895L23.5454 49.0711C24.0164 49.2491 24.6094 49.2744 24.9829 48.8797C25.1144 48.7446 25.1996 48.5713 25.2262 48.3846C25.2529 48.198 25.2196 48.0077 25.1312 47.8412C24.7882 47.1788 24.2694 46.6093 23.8804 45.9731C23.5852 45.4614 23.3206 44.9327 23.0882 44.3897C23.0411 44.3106 22.9648 44.2531 22.8758 44.2297C22.7867 44.2063 22.692 44.2189 22.6121 44.2648C22.534 44.3129 22.4775 44.3892 22.4542 44.4779C22.4309 44.5666 22.4428 44.6608 22.4872 44.741C22.7127 45.2669 22.9674 45.7797 23.2502 46.277C23.469 46.6401 23.717 46.9812 23.96 47.3283C24.0944 47.5197 24.2282 47.7123 24.3561 47.9085C24.4041 47.982 24.4521 48.0556 24.4952 48.1316C24.5126 48.1622 24.5313 48.1927 24.546 48.2247C24.556 48.2461 24.526 48.2106 24.5445 48.2219C24.5293 48.2127 24.5434 48.3021 24.5504 48.2457C24.5485 48.261 24.51 48.374 24.5307 48.3251C24.5114 48.3768 24.4734 48.4194 24.4243 48.4446C24.2242 48.5664 23.9439 48.4817 23.73 48.4007C23.3972 48.275 23.1527 48.7533 23.3914 48.9824C23.5075 49.076 23.6017 49.1938 23.6677 49.3274C23.6792 49.3643 23.6545 49.3622 23.6754 49.3302C23.6286 49.3951 23.5659 49.4468 23.4932 49.4802C23.1974 49.6143 22.842 49.4355 22.6125 49.254C22.3527 49.0483 21.9381 49.2296 22.0308 49.5926C22.0232 49.571 22.0211 49.5478 22.0246 49.5252C22.0281 49.5025 22.0371 49.4811 22.0508 49.4628C22.0749 49.4263 22.0766 49.4202 22.0557 49.4454C22.039 49.4586 22.0237 49.4733 22.0098 49.4894C21.9421 49.5347 21.8714 49.5754 21.7982 49.6112C21.6986 49.6625 21.5896 49.693 21.4779 49.7006C21.0716 49.7201 20.768 49.4656 20.4917 49.199C20.4367 49.1471 20.3663 49.1143 20.2911 49.1057C20.2159 49.097 20.1399 49.1129 20.0745 49.151C20.0091 49.189 19.9578 49.2472 19.9282 49.3169C19.8985 49.3865 19.8923 49.4639 19.9102 49.5374C19.9556 49.7761 19.5796 49.9376 19.3914 49.9176C19.2393 49.8802 19.1007 49.8011 18.9912 49.6892C18.8189 49.5563 18.6539 49.4141 18.4971 49.2632C18.1866 48.9581 17.9463 48.5889 17.7931 48.1813C17.6395 47.7812 17.5495 47.3591 17.3898 46.961C17.2138 46.5765 17.0014 46.2098 16.7554 45.8659C16.5574 45.5569 16.5432 45.4513 16.6879 45.1177C17.0187 44.4103 17.5072 43.7881 18.1159 43.2988C18.7678 42.7704 19.7656 42.6803 20.5712 42.6347C21.0166 42.6095 21.0194 41.9133 20.5712 41.9387L20.571 41.9375Z" fill="#211715"/>
<path d="M41.0319 48.8378C41.1787 48.7113 41.32 48.5865 41.4495 48.4701C42.1165 47.8676 42.8534 47.4535 43.0916 46.5752C43.2851 45.9268 43.2536 45.232 43.0023 44.6037C42.8652 44.2249 42.5536 43.6088 42.287 43.3663C41.9352 43.0463 41.4037 42.6007 40.8822 42.4899C40.3122 42.3517 38.8975 42.7027 38.2788 42.6703C37.3915 42.6242 36.7672 42.9377 35.9332 43.3019C35.1593 43.6398 34.3865 43.9142 33.6132 44.3008C33.5475 44.3431 33.4919 44.3996 33.4507 44.4661C33.4095 44.5326 33.3837 44.6075 33.375 44.6853C33.3664 44.763 33.3752 44.8417 33.4008 44.9157C33.4264 44.9896 33.4682 45.0569 33.5231 45.1126C33.8899 45.4413 34.7217 45.2094 35.263 45.2094L35.6843 45.2603C35.0057 45.7552 34.1627 46.3739 33.8968 46.6399C33.5551 46.9825 33.1534 47.2812 33.188 47.6452C33.2543 48.3412 33.8968 48.2768 34.1418 48.1479L34.1634 48.1364L34.0129 48.3278C33.7028 48.7228 33.6263 49.2042 33.9802 49.4151C34.2022 49.5096 34.4449 49.5449 34.6847 49.5175C34.9244 49.49 35.1529 49.4008 35.3478 49.2585C35.1066 49.5818 35.1372 49.9604 35.42 50.1227C35.7228 50.2595 36.0658 50.2781 36.3816 50.1749C36.7249 50.0336 37.0534 49.8587 37.3624 49.6529C37.6674 49.4817 38.9748 48.7015 39.6285 48.2323L39.5549 48.3019C39.2004 48.637 38.6586 49.1066 38.4587 49.4231C38.4163 49.4815 38.3899 49.55 38.3819 49.6218C38.374 49.6935 38.3849 49.7661 38.4135 49.8324C38.4421 49.8987 38.4874 49.9565 38.5451 49.9999C38.6027 50.0434 38.6707 50.0711 38.7423 50.0804C38.9807 50.1577 39.24 50.138 39.464 50.0256C39.7878 49.8668 40.4523 49.3376 41.0319 48.8378Z" fill="white"/>
<path d="M35.2627 44.8613C34.9185 44.8658 34.5786 44.9309 34.2346 44.9398C34.0858 44.9434 33.7126 44.9683 33.7175 44.743C33.7203 44.6126 33.7954 44.5972 33.9045 44.5441C34.121 44.4397 34.3405 44.3402 34.5617 44.2454C34.9977 44.0588 35.4398 43.8869 35.8764 43.702C36.5996 43.3956 37.3187 43.0086 38.1247 43.0138C38.7357 42.9933 39.3449 42.9369 39.9493 42.8451C40.204 42.8085 40.4616 42.7972 40.7185 42.8113C41.0812 42.8898 41.4168 43.0623 41.6917 43.3115C41.9529 43.5046 42.1743 43.7465 42.3436 44.0237C42.5265 44.3315 42.6685 44.6618 42.7662 45.0062C42.9599 45.7076 42.8925 46.553 42.4165 47.1322C42.1869 47.3916 41.9326 47.6281 41.6574 47.8384C41.3726 48.073 41.0996 48.3202 40.8207 48.5615C40.5197 48.8225 40.2143 49.0793 39.8968 49.3196C39.6807 49.483 39.3992 49.7433 39.1178 49.777C39.04 49.7863 38.7568 49.7809 38.7291 49.6871C38.7055 49.6069 38.852 49.474 38.9003 49.4193C39.1777 49.1074 39.4969 48.8342 39.8006 48.5494C40.1273 48.2418 39.6346 47.7504 39.3083 48.0573C38.9792 48.3456 38.6656 48.6511 38.3688 48.9725C38.0812 49.3076 37.8778 49.7586 38.2063 50.1466C38.4787 50.4683 39.0218 50.5435 39.4089 50.4226C39.7424 50.291 40.0506 50.1026 40.3197 49.8658C41.0117 49.3353 41.6551 48.7463 42.3231 48.1866C42.658 47.9258 42.9467 47.6106 43.1772 47.2542C43.4048 46.844 43.5346 46.3867 43.5565 45.9181C43.6221 45.0255 43.2607 44.0473 42.7227 43.3402C42.4359 42.9919 42.0898 42.6969 41.7004 42.4689C41.3601 42.2452 40.9641 42.1208 40.5571 42.1098C39.8307 42.1028 39.1201 42.3175 38.3951 42.3243C37.9559 42.3104 37.5171 42.3584 37.0913 42.4668C36.6225 42.6218 36.1638 42.806 35.718 43.0184C35.1412 43.2684 34.5523 43.4902 33.9781 43.7458C33.5153 43.9518 33.0189 44.157 33.0227 44.7471C33.0302 45.9358 34.5323 45.567 35.2622 45.5574C35.7097 45.5515 35.7109 44.8555 35.2622 44.8615L35.2627 44.8613Z" fill="#211715"/>
<path d="M37.171 45.5762C37.2495 45.5154 37.0969 45.6317 37.0714 45.6508C37.0086 45.6972 36.9456 45.7436 36.8822 45.79C36.743 45.8917 36.6031 45.9928 36.4626 46.0931C36.1546 46.3135 35.8457 46.5327 35.5359 46.7506C34.9201 47.1592 34.329 47.6038 33.7659 48.0823C33.4323 48.3826 33.9258 48.8736 34.2579 48.5744C34.7973 48.1184 35.3632 47.6947 35.9526 47.3055C36.5268 46.8997 37.1072 46.499 37.6633 46.0682C37.7281 46.0027 37.7644 45.9143 37.7644 45.8222C37.7644 45.7301 37.7281 45.6416 37.6633 45.5762C37.5969 45.513 37.5088 45.4778 37.4172 45.4778C37.3255 45.4778 37.2374 45.513 37.171 45.5762Z" fill="#211715"/>
<path d="M39.6047 47.8179C39.5266 47.8814 39.3538 48.0034 39.2219 48.0928C39.0337 48.2206 38.8425 48.3441 38.6504 48.4661C38.2836 48.6989 37.9133 48.9259 37.5396 49.1472C37.1797 49.3857 36.8049 49.6007 36.4174 49.791C36.1871 49.9004 35.9253 49.924 35.6791 49.8576C35.4538 49.7821 35.5387 49.5928 35.6478 49.4348C35.8408 49.1551 35.4524 48.7563 35.1716 48.9586C35.0297 49.0688 34.8623 49.1412 34.6848 49.1693C34.5074 49.1973 34.3258 49.18 34.1569 49.119C34.1979 49.138 34.1607 49.1241 34.1457 49.1081C34.1259 49.0913 34.1096 49.0707 34.0979 49.0475C34.0866 48.9951 34.0894 48.9405 34.1062 48.8896C34.167 48.6993 34.2706 48.5256 34.4092 48.3818C34.6444 48.0821 34.3585 47.6401 33.9874 47.8353C33.9056 47.8785 34.0071 47.8373 33.9439 47.8545C33.9316 47.858 33.8082 47.8848 33.8719 47.8762C33.8055 47.8926 33.7357 47.8884 33.6718 47.8642C33.649 47.8579 33.628 47.8464 33.6104 47.8305C33.5929 47.8146 33.5793 47.7948 33.5709 47.7727C33.5479 47.7294 33.5358 47.6811 33.5358 47.6321C33.5358 47.5831 33.5479 47.5348 33.5709 47.4915C33.6986 47.2398 33.9942 47.0218 34.1972 46.8332C34.3281 46.7122 34.4685 46.6014 34.6087 46.4916C35.3195 45.9348 36.0732 45.4339 36.7836 44.8756C36.8484 44.81 36.8847 44.7216 36.8847 44.6295C36.8847 44.5373 36.8484 44.4489 36.7836 44.3834C36.7173 44.3202 36.6291 44.2849 36.5375 44.2849C36.4459 44.2849 36.3578 44.3202 36.2914 44.3834C36.2496 44.4162 36.3478 44.3413 36.2752 44.3959L36.2034 44.4502C36.1296 44.5053 36.0555 44.56 35.9812 44.6144C35.8107 44.7395 35.6399 44.8642 35.4689 44.9885C35.082 45.2709 34.695 45.5534 34.3154 45.8458C33.6399 46.3658 32.2727 47.3332 33.0783 48.2724C33.3896 48.6355 33.9392 48.647 34.3396 48.4363L33.9178 47.8898C33.6859 48.1372 33.5163 48.4364 33.4233 48.7625C33.3807 48.9319 33.3897 49.1101 33.4492 49.2742C33.5088 49.4383 33.6161 49.5809 33.7574 49.6835C34.2585 50.0294 35.0588 49.8938 35.5237 49.5596L35.0477 49.0836C34.9372 49.2275 34.8683 49.399 34.8487 49.5794C34.8291 49.7598 34.8594 49.9421 34.9364 50.1064C35.0268 50.248 35.1507 50.365 35.297 50.4474C35.4434 50.5297 35.6078 50.5748 35.7757 50.5787C36.4812 50.654 37.047 50.2373 37.6266 49.9032C38.4907 49.4377 39.3168 48.9049 40.0973 48.3096C40.162 48.2441 40.1983 48.1556 40.1983 48.0635C40.1983 47.9714 40.162 47.883 40.0973 47.8174C40.031 47.7541 39.9428 47.7188 39.8512 47.7188C39.7595 47.7188 39.6714 47.7541 39.6051 47.8174L39.6047 47.8179Z" fill="#211715"/>
<path d="M38.4379 46.6615C37.8377 47.0351 37.2438 47.4193 36.6674 47.829C36.1375 48.1742 35.6292 48.5514 35.1453 48.9586C34.8147 49.2617 35.3077 49.7529 35.6375 49.4506C35.831 49.2804 36.0358 49.1235 36.2503 48.9809C36.5259 48.7895 36.7949 48.5883 37.0681 48.3945C37.6287 47.998 38.2055 47.6255 38.7884 47.2636C39.1678 47.0275 38.8188 46.4251 38.4371 46.6626L38.4379 46.6615Z" fill="#211715"/>
<path d="M27.9868 22.9038C28.4115 23.3197 29.084 23.4406 29.654 23.4402C30.224 23.4399 30.8967 23.3198 31.3215 22.9038C31.6422 22.5906 31.15 22.0981 30.8295 22.4118C30.8154 22.4255 30.7437 22.4864 30.7884 22.4509C30.8332 22.4154 30.786 22.4525 30.7745 22.4598C30.7554 22.4722 30.7368 22.4852 30.7173 22.497C30.6804 22.5197 30.6425 22.5405 30.6038 22.56C30.5779 22.5731 30.5516 22.5854 30.5248 22.5971C30.5722 22.5762 30.5301 22.5946 30.5052 22.6035C30.2321 22.7007 29.9439 22.7484 29.654 22.7443C29.3695 22.7499 29.0863 22.7042 28.818 22.6093C28.8121 22.6072 28.7136 22.5666 28.7832 22.5971C28.7609 22.5873 28.7388 22.5769 28.7169 22.5663C28.6739 22.5451 28.6318 22.5223 28.5911 22.4967C28.5601 22.4775 28.5314 22.4534 28.5001 22.4351C28.5892 22.4873 28.505 22.4368 28.4791 22.4114C28.1589 22.0982 27.6663 22.5896 27.987 22.9035L27.9868 22.9038Z" fill="#211715"/>
<path d="M29.5632 19.7731C29.6299 20.0139 29.6833 20.2582 29.7231 20.5049L29.7108 20.4125C29.7155 20.446 29.7163 20.4798 29.7134 20.5134L29.7259 20.4211C29.7236 20.4365 29.7199 20.4517 29.7148 20.4665L29.7496 20.3833C29.7451 20.3936 29.7397 20.4033 29.7334 20.4125L29.7878 20.3429C29.7808 20.3517 29.7728 20.3596 29.764 20.3666L29.8345 20.3121C29.8158 20.3236 29.7964 20.3339 29.7764 20.3428L29.8595 20.308C29.8282 20.3213 29.7955 20.3309 29.7619 20.3365L29.8543 20.324C29.8239 20.3276 29.7931 20.3276 29.7626 20.324L29.8552 20.3365C29.8204 20.3316 29.7866 20.3233 29.752 20.3191C29.6614 20.298 29.5661 20.3103 29.4839 20.3539C29.4045 20.4004 29.3468 20.4765 29.3234 20.5654C29.2999 20.6544 29.3127 20.749 29.3588 20.8285C29.3809 20.868 29.4108 20.9025 29.4467 20.93C29.4826 20.9575 29.5237 20.9774 29.5676 20.9884C29.6438 20.9987 29.7179 21.0182 29.7955 21.0217C29.9111 21.0224 30.0252 20.9953 30.1282 20.9429C30.1929 20.9138 30.2503 20.8705 30.2961 20.8163C30.342 20.7621 30.3751 20.6984 30.393 20.6297C30.4163 20.5172 30.4151 20.401 30.3895 20.289C30.3497 20.0532 30.295 19.8192 30.2345 19.5883C30.2223 19.5443 30.2016 19.503 30.1735 19.467C30.1455 19.4309 30.1106 19.4007 30.0708 19.3782C30.0311 19.3556 29.9873 19.3411 29.9419 19.3354C29.8965 19.3298 29.8505 19.3331 29.8065 19.3453C29.7624 19.3574 29.7212 19.3781 29.6851 19.4062C29.649 19.4343 29.6189 19.4692 29.5963 19.5089C29.5737 19.5487 29.5592 19.5925 29.5535 19.6378C29.5479 19.6832 29.5512 19.7292 29.5634 19.7733L29.5632 19.7731Z" fill="#211715"/>
<path d="M25.6876 17.793C25.5658 18.1903 25.6449 19.1039 26.3974 19.1817C27.392 19.1757 27.4449 18.0711 27.1108 17.5517C26.8368 17.1265 26.0307 16.9495 25.6876 17.793Z" fill="#211715"/>
<path d="M33.4823 17.793C33.6041 18.1903 33.525 19.1039 32.7726 19.1817C31.7781 19.1757 31.725 18.0711 32.0593 17.5517C32.334 17.1265 33.1394 16.9495 33.4823 17.793Z" fill="#211715"/>
</svg>
