<svg width="26" height="32" viewBox="0 0 26 32" fill="none" xmlns="http://www.w3.org/2000/svg">
<path d="M22.2058 10.1011C22.0546 9.95541 21.8474 9.86583 21.6193 9.86583C21.5656 9.86583 21.513 9.87123 21.4615 9.87986L21.467 9.87878C21.1951 9.93275 20.9747 10.113 20.8695 10.3526L20.8673 10.358C20.3586 11.4999 19.5858 12.4475 18.6222 13.1566L18.6035 13.1696C18.6836 12.6407 18.7296 12.0309 18.7296 11.4114C18.7296 9.52261 18.3032 7.73207 17.5402 6.12715L17.573 6.20378C16.2356 3.45482 13.9949 1.30703 11.2367 0.0971364L11.1555 0.065837C11.0591 0.0237445 10.9473 0 10.83 0C10.375 0 10.0067 0.362643 10.0067 0.81055C10.0067 0.859118 10.011 0.906607 10.0198 0.953017L10.0187 0.947621C10.022 1.02965 10.0242 1.12678 10.0242 1.22392C10.0242 3.52929 8.98604 5.59614 7.34494 6.99599L7.33508 7.00462C6.75735 7.58096 6.14015 8.12601 5.52515 8.67105C4.12413 9.81295 2.90509 11.0973 1.86803 12.5187L1.82637 12.5792C0.679681 14.4161 0 16.6427 0 19.0236C0 20.2022 0.166631 21.343 0.477969 22.4245L0.456044 22.3371C1.26289 25.5868 3.29097 28.2732 6.02176 29.9547L6.07438 29.985C8.06628 31.2369 10.4923 31.987 13.0959 32H13.0992C13.1036 32 13.1102 32 13.1157 32C13.6693 32 14.2152 31.9644 14.7491 31.8942L14.6866 31.9007C19.6527 31.1862 23.6792 27.8555 25.3159 23.3969L25.3455 23.3063C25.761 22.0953 26 20.7009 26 19.2514C26 15.6875 24.5518 12.4561 22.2026 10.0979L22.2047 10.1L22.2058 10.1011ZM23.7877 22.7871C22.333 26.7611 18.8151 29.673 14.5397 30.2882L14.4772 30.2958C14.065 30.3476 13.5881 30.3767 13.1047 30.3767C10.819 30.3767 8.69005 29.7184 6.90205 28.584L6.947 28.611C4.52098 27.1205 2.7549 24.7795 2.06755 22.0219L2.0522 21.9485C1.79348 21.0732 1.64439 20.0673 1.64439 19.0269C1.64439 16.973 2.22541 15.0518 3.23397 13.4156L3.20656 13.4642C4.20525 12.1043 5.33111 10.9246 6.59291 9.90253L6.6258 9.87662C7.26601 9.31107 7.90623 8.74336 8.50807 8.14328C10.2029 6.61931 11.3638 4.54707 11.7026 2.21255L11.7092 2.15967C13.6123 3.28105 15.1141 4.8946 16.0558 6.82222L16.0843 6.88806C16.7169 8.21451 17.0863 9.76869 17.0863 11.4081C17.0863 12.5198 16.9164 13.5926 16.6007 14.6029L16.6215 14.5262C16.5985 14.5964 16.5864 14.6773 16.5864 14.7615C16.5864 15.2083 16.9548 15.571 17.4086 15.571C17.5193 15.571 17.6257 15.5494 17.721 15.5105L17.7156 15.5127C19.4422 14.8079 20.8465 13.6207 21.7904 12.1237L21.8112 12.087C23.3986 14.0287 24.3589 16.5251 24.3589 19.2417C24.3589 20.5098 24.1495 21.7294 23.7636 22.8703L23.7877 22.7893V22.7871Z" fill="#244393"/>
</svg>
