<svg width="28" height="34" viewBox="0 0 28 34" fill="none" xmlns="http://www.w3.org/2000/svg">
<path d="M23.209 10.2781L17.2435 4.30017C17.1457 4.20239 17.0137 4.151 16.8758 4.151H1.43768C0.649132 4.151 0.00817019 4.78827 0.00817019 5.57629L0 31.7795C0 32.5675 0.641489 33.2077 1.42978 33.2077H21.9229C22.7109 33.2077 23.3524 32.568 23.3527 31.7803L23.3603 10.6436C23.3603 10.506 23.306 10.3753 23.209 10.2781ZM22.3145 31.78C22.3145 31.9958 22.1387 32.1703 21.9229 32.1703H1.42978C1.21366 32.1703 1.03787 31.9974 1.03787 31.7816L1.04604 5.57735C1.04604 5.3615 1.22157 5.18887 1.43768 5.18887H16.6605L22.3219 10.8603L22.3145 31.78Z" fill="#244393"/>
<path d="M20.5 10.1181H18.3934C17.8428 10.1181 17.3819 9.67585 17.3819 9.12529V4.66334C17.3819 4.3766 17.1494 4.14441 16.8629 4.14441C16.5764 4.14441 16.344 4.37686 16.344 4.66334V9.12529C16.344 10.2483 17.2701 11.1557 18.3931 11.1557H20.4997C20.7862 11.1557 21.0189 10.9238 21.0189 10.637C21.0189 10.3503 20.7864 10.1181 20.5 10.1181Z" fill="#244393"/>
<path d="M27.3472 6.13603L21.3817 0.155232C21.2839 0.0574544 21.1518 0 21.0143 0H5.57585C4.78756 0 4.15002 0.646758 4.15002 1.43504V4.6633C4.15002 4.95004 4.38221 5.18223 4.66896 5.18223C4.95571 5.18223 5.1879 4.94978 5.1879 4.6633V1.43504C5.1879 1.21919 5.36026 1.03787 5.57611 1.03787H20.7992L26.4609 6.71163L26.453 27.6345C26.453 27.8501 26.2774 28.0188 26.0616 28.0188H22.8333C22.5466 28.0188 22.3144 28.2512 22.3144 28.5377C22.3144 28.8242 22.5466 29.0567 22.8333 29.0567H26.0616C26.8499 29.0567 27.4908 28.4223 27.4906 27.6343L27.4987 6.50316C27.4987 6.36558 27.4439 6.23328 27.3472 6.13603Z" fill="#244393"/>
<path d="M24.6387 5.96691H22.5321C21.9816 5.96691 21.5327 5.53705 21.5327 4.98649V0.52455C21.5327 0.238068 21.3003 0.00561523 21.0138 0.00561523C20.7273 0.00561523 20.4949 0.238068 20.4949 0.52455V4.98649C20.4949 6.10949 21.4091 7.00478 22.5319 7.00478H24.6385C24.9249 7.00478 25.1577 6.77259 25.1577 6.48584C25.1577 6.1991 24.9252 5.96691 24.6387 5.96691Z" fill="#244393"/>
<path d="M4.11233 12.7122H2.84938C2.5629 12.7122 2.33044 12.9443 2.33044 13.2311C2.33044 13.5178 2.5629 13.75 2.84938 13.75H4.11233C4.39855 13.75 4.63126 13.5178 4.63126 13.2311C4.63126 12.9443 4.39855 12.7122 4.11233 12.7122Z" fill="#244393"/>
<path d="M20.4917 12.7122H6.44325C6.15624 12.7122 5.92432 12.9443 5.92432 13.2311C5.92432 13.5178 6.15651 13.75 6.44325 13.75H20.4917C20.7784 13.75 21.0106 13.5178 21.0106 13.2311C21.0106 12.9443 20.7784 12.7122 20.4917 12.7122Z" fill="#244393"/>
<path d="M20.4917 15.3066H16.5556C16.2688 15.3066 16.0366 15.5388 16.0366 15.8256C16.0366 16.1123 16.2688 16.3445 16.5556 16.3445H20.4917C20.7785 16.3445 21.0107 16.1123 21.0107 15.8256C21.0107 15.5388 20.7785 15.3066 20.4917 15.3066Z" fill="#244393"/>
<path d="M14.225 15.3066H2.84975C2.56326 15.3066 2.33081 15.5388 2.33081 15.8256C2.33081 16.1123 2.56326 16.3445 2.84975 16.3445H14.225C14.5112 16.3445 14.7439 16.1123 14.7439 15.8256C14.7439 15.5388 14.5112 15.3066 14.225 15.3066Z" fill="#244393"/>
<path d="M20.4917 17.9008H2.84975C2.56326 17.9008 2.33081 18.1332 2.33081 18.4197C2.33081 18.7062 2.56326 18.9386 2.84975 18.9386H20.4917C20.7785 18.9386 21.0107 18.7062 21.0107 18.4197C21.0107 18.1332 20.7785 17.9008 20.4917 17.9008Z" fill="#244393"/>
<path d="M20.4917 25.6841H2.84975C2.56326 25.6841 2.33081 25.9165 2.33081 26.203C2.33081 26.4895 2.56326 26.722 2.84975 26.722H20.4917C20.7785 26.722 21.0107 26.4895 21.0107 26.203C21.0107 25.9165 20.7785 25.6841 20.4917 25.6841Z" fill="#244393"/>
<path d="M4.11233 20.4952H2.84938C2.5629 20.4952 2.33044 20.7277 2.33044 21.0142C2.33044 21.3007 2.5629 21.5331 2.84938 21.5331H4.11233C4.39855 21.5331 4.63126 21.3007 4.63126 21.0142C4.63126 20.7277 4.39855 20.4952 4.11233 20.4952Z" fill="#244393"/>
<path d="M20.4917 20.4952H6.44325C6.15624 20.4952 5.92432 20.7277 5.92432 21.0142C5.92432 21.3007 6.15651 21.5331 6.44325 21.5331H20.4917C20.7784 21.5331 21.0106 21.3007 21.0106 21.0142C21.0106 20.7277 20.7784 20.4952 20.4917 20.4952Z" fill="#244393"/>
<path d="M20.4917 23.0896H16.5556C16.2688 23.0896 16.0366 23.3221 16.0366 23.6085C16.0366 23.895 16.2688 24.1275 16.5556 24.1275H20.4917C20.7785 24.1275 21.0107 23.895 21.0107 23.6085C21.0107 23.3221 20.7785 23.0896 20.4917 23.0896Z" fill="#244393"/>
<path d="M14.225 23.0896H2.84975C2.56326 23.0896 2.33081 23.3221 2.33081 23.6085C2.33081 23.895 2.56326 24.1275 2.84975 24.1275H14.225C14.5112 24.1275 14.7439 23.895 14.7439 23.6085C14.7439 23.3221 14.5112 23.0896 14.225 23.0896Z" fill="#244393"/>
<path d="M4.11233 28.2781H2.84938C2.5629 28.2781 2.33044 28.5105 2.33044 28.797C2.33044 29.0835 2.5629 29.3159 2.84938 29.3159H4.11233C4.39855 29.3159 4.63126 29.0835 4.63126 28.797C4.63126 28.5105 4.39855 28.2781 4.11233 28.2781Z" fill="#244393"/>
<path d="M20.4917 28.2781H6.44325C6.15624 28.2781 5.92432 28.5105 5.92432 28.797C5.92432 29.0835 6.15651 29.3159 6.44325 29.3159H20.4917C20.7784 29.3159 21.0106 29.0835 21.0106 28.797C21.0106 28.5105 20.7784 28.2781 20.4917 28.2781Z" fill="#244393"/>
<path d="M24.6308 8.56128H21.5512C21.2644 8.56128 21.0322 8.79347 21.0322 9.08021C21.0322 9.36696 21.2644 9.59915 21.5512 9.59915H24.6305C24.9173 9.59915 25.1497 9.36696 25.1497 9.08021C25.1497 8.79347 24.9175 8.56128 24.6308 8.56128Z" fill="#244393"/>
<path d="M24.6306 11.1558H22.8334C22.5466 11.1558 22.3145 11.388 22.3145 11.6747C22.3145 11.9614 22.5466 12.1936 22.8334 12.1936H24.6306C24.9173 12.1936 25.1495 11.9614 25.1495 11.6747C25.1495 11.388 24.9173 11.1558 24.6306 11.1558Z" fill="#244393"/>
<path d="M24.6306 13.7498H22.8334C22.5466 13.7498 22.3145 13.9819 22.3145 14.2687C22.3145 14.5554 22.5466 14.7876 22.8334 14.7876H24.6306C24.9173 14.7876 25.1495 14.5554 25.1495 14.2687C25.1495 13.9819 24.9173 13.7498 24.6306 13.7498Z" fill="#244393"/>
<path d="M24.6306 21.5331H22.9923C22.7061 21.5331 22.4734 21.7655 22.4734 22.052C22.4734 22.3385 22.7061 22.5709 22.9923 22.5709H24.6306C24.9173 22.5709 25.1495 22.3385 25.1495 22.052C25.1495 21.7655 24.9173 21.5331 24.6306 21.5331Z" fill="#244393"/>
<path d="M24.6306 16.3442H22.8334C22.5466 16.3442 22.3145 16.5767 22.3145 16.8632C22.3145 17.1497 22.5466 17.3821 22.8334 17.3821H24.6306C24.9173 17.3821 25.1495 17.1497 25.1495 16.8632C25.1495 16.5764 24.9173 16.3442 24.6306 16.3442Z" fill="#244393"/>
<path d="M24.6306 18.9386H22.8334C22.5466 18.9386 22.3145 19.1711 22.3145 19.4575C22.3145 19.744 22.5466 19.9765 22.8334 19.9765H24.6306C24.9173 19.9765 25.1495 19.744 25.1495 19.4575C25.1495 19.1711 24.9173 18.9386 24.6306 18.9386Z" fill="#244393"/>
<path d="M24.6306 24.1272H22.8334C22.5466 24.1272 22.3145 24.3597 22.3145 24.6461C22.3145 24.9326 22.5466 25.1651 22.8334 25.1651H24.6306C24.9173 25.1651 25.1495 24.9326 25.1495 24.6461C25.1495 24.3597 24.9173 24.1272 24.6306 24.1272Z" fill="#244393"/>
</svg>
