<svg width="25" height="33" viewBox="0 0 25 33" fill="none" xmlns="http://www.w3.org/2000/svg">
<path d="M24.4076 4.53804H22.731V2.86152C22.731 2.53428 22.4659 2.26902 22.1385 2.26902H20.4621V0.592505C20.4621 0.265259 20.1969 0 19.8696 0H0.592505C0.265195 0 0 0.265322 0 0.592505V27.454C0 27.7813 0.265195 28.0465 0.592505 28.0465H2.26895V29.723C2.26895 30.0502 2.53415 30.3155 2.86146 30.3155H4.53791V31.9919C4.53791 32.3192 4.80311 32.5844 5.13041 32.5844H24.4075C24.7348 32.5844 25 32.3191 25 31.9919V5.13054C25.0001 4.8033 24.7349 4.53804 24.4076 4.53804ZM1.18501 26.8615V1.18507H19.277V26.8615H1.18501ZM3.45409 29.1305V28.0465H19.8695C20.1968 28.0465 20.462 27.7812 20.462 27.454V3.45409H21.546V29.1305L3.45409 29.1305ZM23.815 31.3995H5.72298V30.3155H22.1385C22.4659 30.3155 22.731 30.0502 22.731 29.723V5.72311H23.815V31.3995Z" fill="#244393"/>
<path d="M13.4733 6.08374H6.98899C6.66168 6.08374 6.39648 6.34906 6.39648 6.67624C6.39648 7.00343 6.66168 7.26875 6.98899 7.26875H13.4733C13.8006 7.26875 14.0658 7.00343 14.0658 6.67624C14.0658 6.34906 13.8006 6.08374 13.4733 6.08374Z" fill="#244393"/>
<path d="M16.1562 9.02258H4.30613C3.97882 9.02258 3.71362 9.28791 3.71362 9.61509C3.71362 9.94227 3.97882 10.2076 4.30613 10.2076H16.1562C16.4835 10.2076 16.7487 9.94227 16.7487 9.61509C16.7487 9.28791 16.4835 9.02258 16.1562 9.02258Z" fill="#244393"/>
<path d="M16.1562 11.9614H4.30613C3.97882 11.9614 3.71362 12.2267 3.71362 12.5539C3.71362 12.8811 3.97882 13.1464 4.30613 13.1464H16.1562C16.4835 13.1464 16.7487 12.8811 16.7487 12.5539C16.7487 12.2267 16.4835 11.9614 16.1562 11.9614Z" fill="#244393"/>
<path d="M16.1562 14.9001H4.30613C3.97882 14.9001 3.71362 15.1655 3.71362 15.4927C3.71362 15.8198 3.97882 16.0852 4.30613 16.0852H16.1562C16.4835 16.0852 16.7487 15.8198 16.7487 15.4927C16.7487 15.1655 16.4835 14.9001 16.1562 14.9001Z" fill="#244393"/>
<path d="M16.1562 17.839H4.30613C3.97882 17.839 3.71362 18.1043 3.71362 18.4315C3.71362 18.7587 3.97882 19.024 4.30613 19.024H16.1562C16.4835 19.024 16.7487 18.7587 16.7487 18.4315C16.7487 18.1043 16.4835 17.839 16.1562 17.839Z" fill="#244393"/>
<path d="M16.1562 20.7777H4.30613C3.97882 20.7777 3.71362 21.043 3.71362 21.3702C3.71362 21.6974 3.97882 21.9627 4.30613 21.9627H16.1562C16.4835 21.9627 16.7487 21.6974 16.7487 21.3702C16.7487 21.043 16.4835 20.7777 16.1562 20.7777Z" fill="#244393"/>
</svg>
