<svg width="37" height="29" viewBox="0 0 37 29" fill="none" xmlns="http://www.w3.org/2000/svg">
<path d="M4.5911 9.38238V5.07012C4.59111 4.40806 4.74524 3.75507 5.04131 3.16289L6.38687 0.471533C6.53133 0.182574 6.82666 6.25004e-06 7.1497 0H15.6784L15.7085 0.000549747C16.0197 0.0115236 16.3012 0.191595 16.4412 0.471533L17.9112 3.41178H34.4414C35.8545 3.41179 37 4.55743 37 5.9706V24.7353C37 27.0907 35.0908 29 32.7356 29H29.3242C28.8532 29 28.4713 28.6181 28.4713 28.147C28.4713 27.676 28.8532 27.2941 29.3242 27.2941H32.7356C34.1488 27.2941 35.2942 26.1486 35.2942 24.7353V5.9706C35.2942 5.49954 34.9124 5.11765 34.4414 5.11764H17.3841C17.061 5.11764 16.7657 4.93512 16.6212 4.64616L15.1513 1.70591H7.67681L6.56697 3.92579C6.38933 4.28108 6.29687 4.67288 6.29687 5.07012V9.38238C6.29686 9.85344 5.915 10.2353 5.44398 10.2353C4.97297 10.2353 4.59111 9.85344 4.5911 9.38238Z" fill="#244393"/>
<path d="M28.0214 8.5294C29.1573 8.5294 30.1546 9.27781 30.4751 10.363L30.4899 10.4149V10.415L34.6766 25.7679C35.1205 27.3956 33.8952 29 32.2083 29H8.04963C6.12665 29 4.44157 27.7129 3.93559 25.8573L0.0916027 11.7615L0.0815083 11.7233C-0.333136 10.1088 0.886189 8.5294 2.56005 8.5294H28.0214ZM2.56005 10.2353C2.00647 10.2353 1.60208 10.7535 1.7307 11.2872L1.7372 11.3126L5.58119 25.4085C5.88478 26.5218 6.89583 27.2941 8.04963 27.2941H32.2083C32.7705 27.2941 33.1789 26.7593 33.031 26.2168L28.8443 10.8639C28.743 10.4927 28.406 10.2353 28.0214 10.2353H2.56005Z" fill="#244393"/>
</svg>
