<svg width="17" height="17" viewBox="0 0 17 17" fill="none" xmlns="http://www.w3.org/2000/svg">
<path d="M16.1671 4.83051C17.0771 6.73194 17.2482 8.90367 16.647 10.9241C16.0458 12.9445 14.7153 14.6695 12.9139 15.7641C11.1124 16.8588 8.96841 17.2449 6.89821 16.8477C4.828 16.4504 2.97926 15.2981 1.71089 13.6144C0.442515 11.9308 -0.154984 9.83584 0.0343855 7.73639C0.223755 5.63694 1.18648 3.68275 2.73567 2.25321C4.28485 0.823674 6.30995 0.0207775 8.41783 0.000397668C10.5257 -0.0199822 12.566 0.743609 14.1425 2.14293L16.1413 0.144107C16.2353 0.0517068 16.3621 0.000203821 16.4939 0.000816878C16.6257 0.00142994 16.752 0.0541095 16.8451 0.14738C16.9383 0.240651 16.9908 0.366956 16.9913 0.498782C16.9917 0.630608 16.9401 0.757275 16.8476 0.85119L8.85227 8.84648C8.80598 8.89347 8.75084 8.93083 8.69004 8.95641C8.62924 8.98199 8.56397 8.99528 8.49801 8.99551C8.43205 8.99573 8.36669 8.9829 8.30571 8.95775C8.24473 8.93259 8.18934 8.89561 8.14272 8.84894C8.09611 8.80227 8.05919 8.74683 8.03411 8.68582C8.00902 8.62481 7.99627 8.55944 7.99658 8.49348C7.99688 8.42752 8.01025 8.36227 8.0359 8.30149C8.06155 8.24072 8.09897 8.18563 8.14602 8.13939L10.5937 5.69084C9.956 5.21396 9.17463 4.96896 8.37878 4.99634C7.58292 5.02371 6.82023 5.32181 6.21676 5.84138C5.61329 6.36095 5.20516 7.07087 5.05982 7.85382C4.91449 8.63677 5.04066 9.44587 5.41747 10.1474C5.79429 10.8489 6.39919 11.4009 7.1322 11.712C7.86521 12.0232 8.68246 12.0749 9.44886 11.8587C10.2153 11.6425 10.8849 11.1712 11.3472 10.5228C11.8095 9.87439 12.0367 9.08766 11.9913 8.29264C11.9837 8.16011 12.0292 8.03002 12.1176 7.931C12.206 7.83197 12.3301 7.77212 12.4626 7.76461C12.5952 7.7571 12.7253 7.80255 12.8243 7.89095C12.9233 7.97935 12.9832 8.10347 12.9907 8.236C13.0506 9.26442 12.7557 10.2822 12.1552 11.1193C11.5547 11.9563 10.6851 12.5619 9.69167 12.8346C8.69827 13.1074 7.64134 13.0308 6.69762 12.6177C5.7539 12.2047 4.98059 11.4801 4.50701 10.5653C4.03342 9.65043 3.88827 8.60072 4.09581 7.59168C4.30336 6.58264 4.85102 5.67544 5.64723 5.02177C6.44344 4.3681 7.43993 4.00759 8.47007 4.00052C9.50021 3.99345 10.5015 4.34024 11.3067 4.98292L13.4337 2.85501C12.0362 1.63636 10.2362 0.979589 8.38216 1.01185C6.52818 1.04412 4.7521 1.76312 3.39778 3.02966C2.04347 4.29621 1.20724 6.0202 1.051 7.86787C0.894765 9.71554 1.42963 11.5555 2.55204 13.0314C3.67445 14.5074 5.30458 15.5144 7.12682 15.8576C8.94907 16.2007 10.8338 15.8555 12.4162 14.8888C13.9985 13.9222 15.1659 12.4028 15.6924 10.6248C16.2189 8.84685 16.0669 6.93679 15.266 5.26442C15.2375 5.20525 15.2209 5.14105 15.2173 5.07548C15.2136 5.00991 15.2229 4.94426 15.2445 4.88228C15.2662 4.82029 15.2999 4.76319 15.3437 4.71422C15.3875 4.66526 15.4404 4.62539 15.4996 4.5969C15.5588 4.56841 15.623 4.55185 15.6885 4.54817C15.7541 4.54449 15.8198 4.55376 15.8817 4.57546C15.9437 4.59715 16.0008 4.63084 16.0498 4.6746C16.0988 4.71836 16.1386 4.77134 16.1671 4.83051Z" fill="white"/>
</svg>
