<svg width="13" height="19" viewBox="0 0 13 19" fill="none" xmlns="http://www.w3.org/2000/svg">
<path d="M0 18.5V0.5C0 0.223858 0.223858 0 0.5 0C0.776142 0 1 0.223858 1 0.5V2H12.5C12.6733 2 12.8347 2.0899 12.9258 2.2373C13.0167 2.38466 13.0247 2.56875 12.9473 2.72363L11.0586 6.5L12.9473 10.2764C13.0247 10.4312 13.0167 10.6153 12.9258 10.7627C12.8347 10.9101 12.6733 11 12.5 11H1V18.5C1 18.7761 0.776142 19 0.5 19C0.223858 19 0 18.7761 0 18.5ZM1 10H11.6914L10.0527 6.72363C9.98235 6.58287 9.98235 6.41713 10.0527 6.27637L11.6914 3H1V10Z" fill="white"/>
</svg>
