<svg width="16" height="18" viewBox="0 0 16 18" fill="none" xmlns="http://www.w3.org/2000/svg">
<path d="M4.40815 10.387L5.95515 11.427L7.54615 10.619C7.65415 10.5617 7.77549 10.533 7.91015 10.533C8.04482 10.533 8.16582 10.5617 8.27315 10.619L9.88315 11.427L11.4192 10.398L10.3992 8.346C10.3485 8.24333 10.2718 8.16 10.1692 8.096C10.0665 8.032 9.95749 8 9.84215 8H5.95415C5.83882 8 5.73282 8.032 5.63615 8.096C5.54015 8.16 5.46682 8.24333 5.41615 8.346L4.40815 10.387ZM1.14415 17H14.6692L11.8572 11.313L10.3342 12.331C10.2102 12.4177 10.0798 12.4653 9.94315 12.474C9.80649 12.4827 9.66782 12.4517 9.52715 12.381L7.91915 11.567L6.31115 12.362C6.17049 12.432 6.03182 12.462 5.89515 12.452C5.75849 12.442 5.62815 12.3933 5.50415 12.306L3.94915 11.289L1.14415 17ZM0.827152 18C0.520485 18 0.287152 17.8737 0.127152 17.621C-0.0328477 17.3683 -0.0418477 17.1077 0.100152 16.839L4.50015 7.894C4.64082 7.62467 4.84182 7.40833 5.10315 7.245C5.36382 7.08167 5.64715 7 5.95315 7H7.41915V0.808C7.41915 0.576 7.49582 0.383333 7.64915 0.23C7.80248 0.0766667 7.99515 0 8.22715 0H12.4652C12.6105 0 12.7235 0.0633334 12.8042 0.19C12.8842 0.316 12.8892 0.449333 12.8192 0.59L12.4422 1.313C12.4088 1.371 12.3922 1.43333 12.3922 1.5C12.3922 1.56667 12.4088 1.62867 12.4422 1.686L12.8192 2.41C12.8898 2.55067 12.8848 2.684 12.8042 2.81C12.7235 2.936 12.6105 2.99933 12.4652 3H8.41915V7H9.80415C10.1108 7 10.3902 7.08067 10.6422 7.242C10.8948 7.40333 11.0935 7.61867 11.2382 7.888L15.7132 16.838C15.8545 17.1073 15.8452 17.3683 15.6852 17.621C15.5258 17.8737 15.2928 18 14.9862 18H0.827152Z" fill="white"/>
</svg>
